<?xml version="1.0" encoding="UTF-8" standalone="no"?>
<!DOCTYPE svg PUBLIC "-//W3C//DTD SVG 1.1//EN"
 "http://www.w3.org/Graphics/SVG/1.1/DTD/svg11.dtd">
<!-- Generated by graphviz version 2.40.1 (20161225.0304)
 -->
<!-- Title: compactRelationshipsDiagram Pages: 1 -->
<svg width="584pt" height="818pt"
 viewBox="0.00 0.00 584.00 817.98" xmlns="http://www.w3.org/2000/svg" xmlns:xlink="http://www.w3.org/1999/xlink">
<g id="graph0" class="graph" transform="scale(1 1) rotate(0) translate(4 813.9772)">
<title>compactRelationshipsDiagram</title>
<polygon fill="#ffffff" stroke="transparent" points="-4,4 -4,-813.9772 580,-813.9772 580,4 -4,4"/>
<text text-anchor="middle" x="72.4936" y="-7.3" font-family="Helvetica,sans-Serif" font-size="11.00" fill="#000000">Generated by SchemaSpy</text>
<!-- data_histogram_bin_data -->
<g id="node1" class="node">
<title>data_histogram_bin_data</title>
<g id="a_node1"><a xlink:href="../../tables/data_histogram_bin_data.html" xlink:title="data_histogram_bin_data" target="_top">
<polygon fill="#ffffff" stroke="transparent" points="401,-569.2 401,-784.2 568,-784.2 568,-569.2 401,-569.2"/>
<polygon fill="#f5f5f5" stroke="transparent" points="401.5,-760.7 401.5,-783.7 568.5,-783.7 568.5,-760.7 401.5,-760.7"/>
<polygon fill="none" stroke="#000000" points="401.5,-760.7 401.5,-783.7 568.5,-783.7 568.5,-760.7 401.5,-760.7"/>
<text text-anchor="start" x="406.4501" y="-769.8" font-family="Helvetica,sans-Serif" font-weight="bold" font-size="11.00" fill="#000000">data_histogram_bin_data</text>
<text text-anchor="start" x="534.0219" y="-768.8" font-family="Helvetica,sans-Serif" font-size="11.00" fill="#000000">[table]</text>
<polygon fill="none" stroke="#000000" points="401.5,-738.7 401.5,-760.7 568.5,-760.7 568.5,-738.7 401.5,-738.7"/>
<image xlink:href="../../images/primaryKeys.png" width="11px" height="12px" preserveAspectRatio="xMinYMin meet" x="406.5" y="-755.7"/>
<text text-anchor="start" x="422.5" y="-745.8" font-family="Helvetica,sans-Serif" font-size="11.00" fill="#000000">submission_id</text>
<polygon fill="none" stroke="#000000" points="401.5,-716.7 401.5,-738.7 568.5,-738.7 568.5,-716.7 401.5,-716.7"/>
<image xlink:href="../../images/primaryKeys.png" width="11px" height="12px" preserveAspectRatio="xMinYMin meet" x="406.5" y="-733.7"/>
<text text-anchor="start" x="422.5" y="-723.8" font-family="Helvetica,sans-Serif" font-size="11.00" fill="#000000">tag_id</text>
<polygon fill="none" stroke="#000000" points="401.5,-694.7 401.5,-716.7 568.5,-716.7 568.5,-694.7 401.5,-694.7"/>
<image xlink:href="../../images/primaryKeys.png" width="11px" height="12px" preserveAspectRatio="xMinYMin meet" x="406.5" y="-711.7"/>
<text text-anchor="start" x="422.5" y="-701.8" font-family="Helvetica,sans-Serif" font-size="11.00" fill="#000000">bin_id</text>
<polygon fill="none" stroke="#000000" points="401.5,-672.7 401.5,-694.7 568.5,-694.7 568.5,-672.7 401.5,-672.7"/>
<image xlink:href="../../images/primaryKeys.png" width="11px" height="12px" preserveAspectRatio="xMinYMin meet" x="406.5" y="-689.7"/>
<text text-anchor="start" x="422.5" y="-679.8" font-family="Helvetica,sans-Serif" font-size="11.00" fill="#000000">bin_class</text>
<polygon fill="none" stroke="#000000" points="401.5,-650.7 401.5,-672.7 568.5,-672.7 568.5,-650.7 401.5,-650.7"/>
<image xlink:href="../../images/primaryKeys.png" width="11px" height="12px" preserveAspectRatio="xMinYMin meet" x="406.5" y="-667.7"/>
<text text-anchor="start" x="422.5" y="-657.8" font-family="Helvetica,sans-Serif" font-size="11.00" fill="#000000">date_time</text>
<polygon fill="#ffffff" stroke="transparent" points="401.5,-628.7 401.5,-650.7 568.5,-650.7 568.5,-628.7 401.5,-628.7"/>
<polygon fill="none" stroke="#000000" points="401.5,-628.7 401.5,-650.7 568.5,-650.7 568.5,-628.7 401.5,-628.7"/>
<image xlink:href="../../images/foreignKeys.png" width="11px" height="12px" preserveAspectRatio="xMinYMin meet" x="406.5" y="-645.7"/>
<text text-anchor="start" x="422.5" y="-635.8" font-family="Helvetica,sans-Serif" font-size="11.00" fill="#000000">position_date_time</text>
<polygon fill="none" stroke="#000000" points="401.5,-606.7 401.5,-628.7 568.5,-628.7 568.5,-606.7 401.5,-606.7"/>
<image xlink:href="../../images/primaryKeys.png" width="11px" height="12px" preserveAspectRatio="xMinYMin meet" x="406.5" y="-623.7"/>
<text text-anchor="start" x="422.5" y="-613.8" font-family="Helvetica,sans-Serif" font-size="11.00" fill="#000000">variable_id</text>
<polygon fill="none" stroke="#000000" points="401.5,-587.7 401.5,-606.7 568.5,-606.7 568.5,-587.7 401.5,-587.7"/>
<text text-anchor="start" x="404.5" y="-593.8" font-family="Helvetica,sans-Serif" font-size="11.00" fill="#000000">...</text>
<polygon fill="#ffffff" stroke="transparent" points="401.5,-568.7 401.5,-587.7 470.5,-587.7 470.5,-568.7 401.5,-568.7"/>
<polygon fill="none" stroke="#000000" points="401.5,-568.7 401.5,-587.7 470.5,-587.7 470.5,-568.7 401.5,-568.7"/>
<text text-anchor="start" x="404.5" y="-574.8" font-family="Helvetica,sans-Serif" font-size="11.00" fill="#000000">&lt; 7</text>
<polygon fill="#ffffff" stroke="transparent" points="470.5,-568.7 470.5,-587.7 532.5,-587.7 532.5,-568.7 470.5,-568.7"/>
<polygon fill="none" stroke="#000000" points="470.5,-568.7 470.5,-587.7 532.5,-587.7 532.5,-568.7 470.5,-568.7"/>
<text text-anchor="start" x="497.1105" y="-574.8" font-family="Helvetica,sans-Serif" font-size="11.00" fill="#000000">0 rows</text>
<polygon fill="#ffffff" stroke="transparent" points="532.5,-568.7 532.5,-587.7 568.5,-587.7 568.5,-568.7 532.5,-568.7"/>
<polygon fill="none" stroke="#000000" points="532.5,-568.7 532.5,-587.7 568.5,-587.7 568.5,-568.7 532.5,-568.7"/>
<text text-anchor="start" x="559.3862" y="-574.8" font-family="Helvetica,sans-Serif" font-size="11.00" fill="#000000"> &#160;</text>
</a>
</g>
</g>
<!-- data_histogram_bin_info -->
<g id="node2" class="node">
<title>data_histogram_bin_info</title>
<g id="a_node2"><a xlink:href="../../tables/data_histogram_bin_info.html" xlink:title="data_histogram_bin_info" target="_top">
<polygon fill="#ffffff" stroke="transparent" points="189,-642.2 189,-769.2 352,-769.2 352,-642.2 189,-642.2"/>
<polygon fill="#f5f5f5" stroke="transparent" points="189.5,-745.7 189.5,-768.7 352.5,-768.7 352.5,-745.7 189.5,-745.7"/>
<polygon fill="none" stroke="#000000" points="189.5,-745.7 189.5,-768.7 352.5,-768.7 352.5,-745.7 189.5,-745.7"/>
<text text-anchor="start" x="194.2871" y="-754.8" font-family="Helvetica,sans-Serif" font-weight="bold" font-size="11.00" fill="#000000">data_histogram_bin_info</text>
<text text-anchor="start" x="318.0219" y="-753.8" font-family="Helvetica,sans-Serif" font-size="11.00" fill="#000000">[table]</text>
<polygon fill="none" stroke="#000000" points="189.5,-723.7 189.5,-745.7 352.5,-745.7 352.5,-723.7 189.5,-723.7"/>
<image xlink:href="../../images/primaryKeys.png" width="11px" height="12px" preserveAspectRatio="xMinYMin meet" x="194.5" y="-740.7"/>
<text text-anchor="start" x="209.5" y="-730.8" font-family="Helvetica,sans-Serif" font-size="11.00" fill="#000000">bin_id</text>
<polygon fill="none" stroke="#000000" points="189.5,-701.7 189.5,-723.7 352.5,-723.7 352.5,-701.7 189.5,-701.7"/>
<image xlink:href="../../images/primaryKeys.png" width="11px" height="12px" preserveAspectRatio="xMinYMin meet" x="194.5" y="-718.7"/>
<text text-anchor="start" x="209.5" y="-708.8" font-family="Helvetica,sans-Serif" font-size="11.00" fill="#000000">bin_class</text>
<polygon fill="none" stroke="#000000" points="189.5,-679.7 189.5,-701.7 352.5,-701.7 352.5,-679.7 189.5,-679.7"/>
<image xlink:href="../../images/primaryKeys.png" width="11px" height="12px" preserveAspectRatio="xMinYMin meet" x="194.5" y="-696.7"/>
<text text-anchor="start" x="209.5" y="-686.8" font-family="Helvetica,sans-Serif" font-size="11.00" fill="#000000">variable_id</text>
<polygon fill="none" stroke="#000000" points="189.5,-660.7 189.5,-679.7 352.5,-679.7 352.5,-660.7 189.5,-660.7"/>
<text text-anchor="start" x="192.5" y="-666.8" font-family="Helvetica,sans-Serif" font-size="11.00" fill="#000000">...</text>
<polygon fill="#ffffff" stroke="transparent" points="189.5,-641.7 189.5,-660.7 251.5,-660.7 251.5,-641.7 189.5,-641.7"/>
<polygon fill="none" stroke="#000000" points="189.5,-641.7 189.5,-660.7 251.5,-660.7 251.5,-641.7 189.5,-641.7"/>
<text text-anchor="start" x="192.5" y="-647.8" font-family="Helvetica,sans-Serif" font-size="11.00" fill="#000000">&lt; 1</text>
<polygon fill="#ffffff" stroke="transparent" points="251.5,-641.7 251.5,-660.7 310.5,-660.7 310.5,-641.7 251.5,-641.7"/>
<polygon fill="none" stroke="#000000" points="251.5,-641.7 251.5,-660.7 310.5,-660.7 310.5,-641.7 251.5,-641.7"/>
<text text-anchor="start" x="275.1105" y="-647.8" font-family="Helvetica,sans-Serif" font-size="11.00" fill="#000000">0 rows</text>
<polygon fill="#ffffff" stroke="transparent" points="310.5,-641.7 310.5,-660.7 352.5,-660.7 352.5,-641.7 310.5,-641.7"/>
<polygon fill="none" stroke="#000000" points="310.5,-641.7 310.5,-660.7 352.5,-660.7 352.5,-641.7 310.5,-641.7"/>
<text text-anchor="start" x="333.9053" y="-647.8" font-family="Helvetica,sans-Serif" font-size="11.00" fill="#000000">2 &gt;</text>
</a>
</g>
</g>
<!-- data_histogram_bin_data&#45;&gt;data_histogram_bin_info -->
<g id="edge1" class="edge">
<title>data_histogram_bin_data:w&#45;&gt;data_histogram_bin_info:e</title>
<path fill="none" stroke="#000000" d="M387.4495,-687.7323C375.471,-695.7007 371.8749,-712.7 352.5,-712.7"/>
<polygon fill="#000000" stroke="#000000" points="393.8104,-685.9069 402.4931,-687.1603 397.6552,-684.8034 401.5,-683.7 401.5,-683.7 401.5,-683.7 397.6552,-684.8034 400.5069,-680.2397 393.8104,-685.9069 393.8104,-685.9069"/>
<ellipse fill="none" stroke="#000000" cx="390.7346" cy="-686.7896" rx="3.2" ry="3.2"/>
</g>
<!-- data_histogram_bin_data&#45;&gt;data_histogram_bin_info -->
<g id="edge2" class="edge">
<title>data_histogram_bin_data:w&#45;&gt;data_histogram_bin_info:e</title>
<path fill="none" stroke="#000000" d="M387.4495,-709.7323C375.471,-717.7007 371.8749,-734.7 352.5,-734.7"/>
<polygon fill="#000000" stroke="#000000" points="393.8104,-707.9069 402.4931,-709.1603 397.6552,-706.8034 401.5,-705.7 401.5,-705.7 401.5,-705.7 397.6552,-706.8034 400.5069,-702.2397 393.8104,-707.9069 393.8104,-707.9069"/>
<ellipse fill="none" stroke="#000000" cx="390.7346" cy="-708.7896" rx="3.2" ry="3.2"/>
</g>
<!-- data_position -->
<g id="node3" class="node">
<title>data_position</title>
<g id="a_node3"><a xlink:href="../../tables/data_position.html" xlink:title="data_position" target="_top">
<polygon fill="#ffffff" stroke="transparent" points="216.5,-219.2 216.5,-390.2 324.5,-390.2 324.5,-219.2 216.5,-219.2"/>
<polygon fill="#f5f5f5" stroke="transparent" points="216.5,-366.7 216.5,-389.7 324.5,-389.7 324.5,-366.7 216.5,-366.7"/>
<polygon fill="none" stroke="#000000" points="216.5,-366.7 216.5,-389.7 324.5,-389.7 324.5,-366.7 216.5,-366.7"/>
<text text-anchor="start" x="221.2926" y="-375.8" font-family="Helvetica,sans-Serif" font-weight="bold" font-size="11.00" fill="#000000">data_position</text>
<text text-anchor="start" x="290.0219" y="-374.8" font-family="Helvetica,sans-Serif" font-size="11.00" fill="#000000">[table]</text>
<polygon fill="none" stroke="#000000" points="216.5,-344.7 216.5,-366.7 324.5,-366.7 324.5,-344.7 216.5,-344.7"/>
<image xlink:href="../../images/primaryKeys.png" width="11px" height="12px" preserveAspectRatio="xMinYMin meet" x="221.5" y="-361.7"/>
<text text-anchor="start" x="238.5" y="-351.8" font-family="Helvetica,sans-Serif" font-size="11.00" fill="#000000">date_time</text>
<polygon fill="#ffffff" stroke="transparent" points="216.5,-322.7 216.5,-344.7 324.5,-344.7 324.5,-322.7 216.5,-322.7"/>
<polygon fill="none" stroke="#000000" points="216.5,-322.7 216.5,-344.7 324.5,-344.7 324.5,-322.7 216.5,-322.7"/>
<text text-anchor="start" x="238.5" y="-329.8" font-family="Helvetica,sans-Serif" font-size="11.00" fill="#000000">lat</text>
<polygon fill="#ffffff" stroke="transparent" points="216.5,-300.7 216.5,-322.7 324.5,-322.7 324.5,-300.7 216.5,-300.7"/>
<polygon fill="none" stroke="#000000" points="216.5,-300.7 216.5,-322.7 324.5,-322.7 324.5,-300.7 216.5,-300.7"/>
<text text-anchor="start" x="238.5" y="-307.8" font-family="Helvetica,sans-Serif" font-size="11.00" fill="#000000">lon</text>
<polygon fill="none" stroke="#000000" points="216.5,-278.7 216.5,-300.7 324.5,-300.7 324.5,-278.7 216.5,-278.7"/>
<image xlink:href="../../images/primaryKeys.png" width="11px" height="12px" preserveAspectRatio="xMinYMin meet" x="221.5" y="-295.7"/>
<text text-anchor="start" x="238.5" y="-285.8" font-family="Helvetica,sans-Serif" font-size="11.00" fill="#000000">submission_id</text>
<polygon fill="none" stroke="#000000" points="216.5,-256.7 216.5,-278.7 324.5,-278.7 324.5,-256.7 216.5,-256.7"/>
<image xlink:href="../../images/primaryKeys.png" width="11px" height="12px" preserveAspectRatio="xMinYMin meet" x="221.5" y="-273.7"/>
<text text-anchor="start" x="238.5" y="-263.8" font-family="Helvetica,sans-Serif" font-size="11.00" fill="#000000">tag_id</text>
<polygon fill="none" stroke="#000000" points="216.5,-237.7 216.5,-256.7 324.5,-256.7 324.5,-237.7 216.5,-237.7"/>
<text text-anchor="start" x="219.5" y="-243.8" font-family="Helvetica,sans-Serif" font-size="11.00" fill="#000000">...</text>
<polygon fill="#ffffff" stroke="transparent" points="216.5,-218.7 216.5,-237.7 251.5,-237.7 251.5,-218.7 216.5,-218.7"/>
<polygon fill="none" stroke="#000000" points="216.5,-218.7 216.5,-237.7 251.5,-237.7 251.5,-218.7 216.5,-218.7"/>
<text text-anchor="start" x="219.5" y="-224.8" font-family="Helvetica,sans-Serif" font-size="11.00" fill="#000000">&lt; 1</text>
<polygon fill="#ffffff" stroke="transparent" points="251.5,-218.7 251.5,-237.7 296.5,-237.7 296.5,-218.7 251.5,-218.7"/>
<polygon fill="none" stroke="#000000" points="251.5,-218.7 251.5,-237.7 296.5,-237.7 296.5,-218.7 251.5,-218.7"/>
<text text-anchor="start" x="261.1105" y="-224.8" font-family="Helvetica,sans-Serif" font-size="11.00" fill="#000000">0 rows</text>
<polygon fill="#ffffff" stroke="transparent" points="296.5,-218.7 296.5,-237.7 324.5,-237.7 324.5,-218.7 296.5,-218.7"/>
<polygon fill="none" stroke="#000000" points="296.5,-218.7 296.5,-237.7 324.5,-237.7 324.5,-218.7 296.5,-218.7"/>
<text text-anchor="start" x="305.9053" y="-224.8" font-family="Helvetica,sans-Serif" font-size="11.00" fill="#000000">9 &gt;</text>
</a>
</g>
</g>
<!-- data_histogram_bin_data&#45;&gt;data_position -->
<g id="edge3" class="edge">
<title>data_histogram_bin_data:w&#45;&gt;data_position:e</title>
<path fill="none" stroke="#000000" d="M388.1669,-634.1279C357.9717,-604.8953 373.526,-469.0539 360,-428.7 348.5343,-394.493 360.5774,-355.7 324.5,-355.7"/>
<polygon fill="#000000" stroke="#000000" points="394.1187,-636.6152 400.1118,-643.0216 397.8093,-638.1576 401.5,-639.7 401.5,-639.7 401.5,-639.7 397.8093,-638.1576 402.8882,-636.3784 394.1187,-636.6152 394.1187,-636.6152"/>
<ellipse fill="none" stroke="#000000" cx="391.1661" cy="-635.3813" rx="3.2" ry="3.2"/>
</g>
<!-- data_histogram_bin_data&#45;&gt;data_position -->
<g id="edge4" class="edge">
<title>data_histogram_bin_data:w&#45;&gt;data_position:e</title>
<path fill="none" stroke="#000000" d="M390.8094,-739.8175C365.7115,-689.1947 366.0142,-460.0888 360,-428.7 348.0014,-366.0784 388.2607,-289.7 324.5,-289.7"/>
<polygon fill="#000000" stroke="#000000" points="395.6254,-744.2695 399.0563,-752.3436 398.5627,-746.9848 401.5,-749.7 401.5,-749.7 401.5,-749.7 398.5627,-746.9848 403.9437,-747.0564 395.6254,-744.2695 395.6254,-744.2695"/>
<ellipse fill="none" stroke="#000000" cx="393.2756" cy="-742.0974" rx="3.2" ry="3.2"/>
</g>
<!-- data_histogram_bin_data&#45;&gt;data_position -->
<g id="edge6" class="edge">
<title>data_histogram_bin_data:w&#45;&gt;data_position:e</title>
<path fill="none" stroke="#000000" d="M387.618,-723.6248C339.9654,-692.317 370.9173,-489.5694 360,-428.7 347.0642,-356.5765 397.7744,-267.7 324.5,-267.7"/>
<polygon fill="#000000" stroke="#000000" points="393.8239,-725.4466 400.486,-731.1542 397.662,-726.5733 401.5,-727.7 401.5,-727.7 401.5,-727.7 397.662,-726.5733 402.514,-724.2458 393.8239,-725.4466 393.8239,-725.4466"/>
<ellipse fill="none" stroke="#000000" cx="390.7535" cy="-724.5452" rx="3.2" ry="3.2"/>
</g>
<!-- observation_types -->
<g id="node8" class="node">
<title>observation_types</title>
<g id="a_node8"><a xlink:href="../../tables/observation_types.html" xlink:title="observation_types" target="_top">
<polygon fill="#ffffff" stroke="transparent" points="8,-520.2 8,-625.2 140,-625.2 140,-520.2 8,-520.2"/>
<polygon fill="#f5f5f5" stroke="transparent" points="8,-601.7 8,-624.7 140,-624.7 140,-601.7 8,-601.7"/>
<polygon fill="none" stroke="#000000" points="8,-601.7 8,-624.7 140,-624.7 140,-601.7 8,-601.7"/>
<text text-anchor="start" x="12.8746" y="-610.8" font-family="Helvetica,sans-Serif" font-weight="bold" font-size="11.00" fill="#000000">observation_types</text>
<text text-anchor="start" x="105.5219" y="-609.8" font-family="Helvetica,sans-Serif" font-size="11.00" fill="#000000">[table]</text>
<polygon fill="none" stroke="#000000" points="8,-579.7 8,-601.7 140,-601.7 140,-579.7 8,-579.7"/>
<image xlink:href="../../images/primaryKeys.png" width="11px" height="12px" preserveAspectRatio="xMinYMin meet" x="13" y="-596.7"/>
<text text-anchor="start" x="31" y="-586.8" font-family="Helvetica,sans-Serif" font-size="11.00" fill="#000000">variable_id</text>
<polygon fill="#ffffff" stroke="transparent" points="8,-557.7 8,-579.7 140,-579.7 140,-557.7 8,-557.7"/>
<polygon fill="none" stroke="#000000" points="8,-557.7 8,-579.7 140,-579.7 140,-557.7 8,-557.7"/>
<text text-anchor="start" x="31" y="-564.8" font-family="Helvetica,sans-Serif" font-size="11.00" fill="#000000">variable_name</text>
<polygon fill="none" stroke="#000000" points="8,-538.7 8,-557.7 140,-557.7 140,-538.7 8,-538.7"/>
<text text-anchor="start" x="11" y="-544.8" font-family="Helvetica,sans-Serif" font-size="11.00" fill="#000000">...</text>
<polygon fill="#ffffff" stroke="transparent" points="8,-519.7 8,-538.7 44,-538.7 44,-519.7 8,-519.7"/>
<polygon fill="none" stroke="#000000" points="8,-519.7 8,-538.7 44,-538.7 44,-519.7 8,-519.7"/>
<text text-anchor="start" x="11" y="-525.8" font-family="Helvetica,sans-Serif" font-size="11.00" fill="#000000"> &#160;</text>
<polygon fill="#ffffff" stroke="transparent" points="44,-519.7 44,-538.7 106,-538.7 106,-519.7 44,-519.7"/>
<polygon fill="none" stroke="#000000" points="44,-519.7 44,-538.7 106,-538.7 106,-519.7 44,-519.7"/>
<text text-anchor="start" x="58.3807" y="-525.8" font-family="Helvetica,sans-Serif" font-size="11.00" fill="#000000">204 rows</text>
<polygon fill="#ffffff" stroke="transparent" points="106,-519.7 106,-538.7 140,-538.7 140,-519.7 106,-519.7"/>
<polygon fill="none" stroke="#000000" points="106,-519.7 106,-538.7 140,-538.7 140,-519.7 106,-519.7"/>
<text text-anchor="start" x="121.4053" y="-525.8" font-family="Helvetica,sans-Serif" font-size="11.00" fill="#000000">5 &gt;</text>
</a>
</g>
</g>
<!-- data_histogram_bin_data&#45;&gt;observation_types -->
<g id="edge7" class="edge">
<title>data_histogram_bin_data:w&#45;&gt;observation_types:e</title>
<path fill="none" stroke="#000000" d="M387.0729,-617.6866C300.47,-617.509 273.1361,-615.3882 181,-600.7 162.4775,-597.7472 158.7564,-590.7 140,-590.7"/>
<polygon fill="#000000" stroke="#000000" points="393.5,-617.6925 401.4966,-621.3 397.5,-617.6962 401.5,-617.7 401.5,-617.7 401.5,-617.7 397.5,-617.6962 401.5034,-614.1 393.5,-617.6925 393.5,-617.6925"/>
<ellipse fill="none" stroke="#000000" cx="390.3" cy="-617.6895" rx="3.2" ry="3.2"/>
</g>
<!-- submission -->
<g id="node10" class="node">
<title>submission</title>
<g id="a_node10"><a xlink:href="../../tables/submission.html" xlink:title="submission" target="_top">
<polygon fill="#ffffff" stroke="transparent" points="14.5,-303.2 14.5,-386.2 133.5,-386.2 133.5,-303.2 14.5,-303.2"/>
<polygon fill="#f5f5f5" stroke="transparent" points="15,-362.7 15,-385.7 134,-385.7 134,-362.7 15,-362.7"/>
<polygon fill="none" stroke="#000000" points="15,-362.7 15,-385.7 134,-385.7 134,-362.7 15,-362.7"/>
<text text-anchor="start" x="20" y="-371.8" font-family="Helvetica,sans-Serif" font-weight="bold" font-size="11.00" fill="#000000">submission</text>
<text text-anchor="start" x="99.0437" y="-370.8" font-family="Helvetica,sans-Serif" font-size="11.00" fill="#000000">[table]</text>
<polygon fill="none" stroke="#000000" points="15,-340.7 15,-362.7 134,-362.7 134,-340.7 15,-340.7"/>
<image xlink:href="../../images/primaryKeys.png" width="11px" height="12px" preserveAspectRatio="xMinYMin meet" x="20" y="-357.7"/>
<text text-anchor="start" x="35" y="-347.8" font-family="Helvetica,sans-Serif" font-size="11.00" fill="#000000">submission_id</text>
<polygon fill="none" stroke="#000000" points="15,-321.7 15,-340.7 134,-340.7 134,-321.7 15,-321.7"/>
<text text-anchor="start" x="18" y="-327.8" font-family="Helvetica,sans-Serif" font-size="11.00" fill="#000000">...</text>
<polygon fill="#ffffff" stroke="transparent" points="15,-302.7 15,-321.7 51,-321.7 51,-302.7 15,-302.7"/>
<polygon fill="none" stroke="#000000" points="15,-302.7 15,-321.7 51,-321.7 51,-302.7 15,-302.7"/>
<text text-anchor="start" x="18" y="-308.8" font-family="Helvetica,sans-Serif" font-size="11.00" fill="#000000"> &#160;</text>
<polygon fill="#ffffff" stroke="transparent" points="51,-302.7 51,-321.7 101,-321.7 101,-302.7 51,-302.7"/>
<polygon fill="none" stroke="#000000" points="51,-302.7 51,-321.7 101,-321.7 101,-302.7 51,-302.7"/>
<text text-anchor="start" x="65.6105" y="-308.8" font-family="Helvetica,sans-Serif" font-size="11.00" fill="#000000">0 rows</text>
<polygon fill="#ffffff" stroke="transparent" points="101,-302.7 101,-321.7 134,-321.7 134,-302.7 101,-302.7"/>
<polygon fill="none" stroke="#000000" points="101,-302.7 101,-321.7 134,-321.7 134,-302.7 101,-302.7"/>
<text text-anchor="start" x="115.4053" y="-308.8" font-family="Helvetica,sans-Serif" font-size="11.00" fill="#000000">6 &gt;</text>
</a>
</g>
</g>
<!-- data_histogram_bin_data&#45;&gt;submission -->
<g id="edge5" class="edge">
<title>data_histogram_bin_data:w&#45;&gt;submission:e</title>
<path fill="none" stroke="#000000" d="M387.5616,-754.0605C378.497,-761.079 375.7327,-774.609 360,-779.7 284.3088,-804.1934 240.245,-832.7953 181,-779.7 109.745,-715.8413 229.6829,-351.7 134,-351.7"/>
<polygon fill="#000000" stroke="#000000" points="393.8649,-752.0886 402.5749,-753.1358 397.6825,-750.8943 401.5,-749.7 401.5,-749.7 401.5,-749.7 397.6825,-750.8943 400.4251,-746.2642 393.8649,-752.0886 393.8649,-752.0886"/>
<ellipse fill="none" stroke="#000000" cx="390.8109" cy="-753.0441" rx="3.2" ry="3.2"/>
</g>
<!-- data_histogram_bin_info&#45;&gt;observation_types -->
<g id="edge8" class="edge">
<title>data_histogram_bin_info:w&#45;&gt;observation_types:e</title>
<path fill="none" stroke="#000000" d="M175.499,-686.656C150.4854,-667.9476 183.5862,-590.7 140,-590.7"/>
<polygon fill="#000000" stroke="#000000" points="181.8142,-688.48 188.501,-694.1586 185.6571,-689.59 189.5,-690.7 189.5,-690.7 189.5,-690.7 185.6571,-689.59 190.499,-687.2414 181.8142,-688.48 181.8142,-688.48"/>
<ellipse fill="none" stroke="#000000" cx="178.7398" cy="-687.592" rx="3.2" ry="3.2"/>
</g>
<!-- data_position&#45;&gt;submission -->
<g id="edge9" class="edge">
<title>data_position:w&#45;&gt;submission:e</title>
<path fill="none" stroke="#000000" d="M202.0657,-292.2073C172.0615,-303.8065 174.3125,-351.7 134,-351.7"/>
<polygon fill="#000000" stroke="#000000" points="208.618,-291.0692 217.1161,-293.2469 212.559,-290.3846 216.5,-289.7 216.5,-289.7 216.5,-289.7 212.559,-290.3846 215.8839,-286.1531 208.618,-291.0692 208.618,-291.0692"/>
<ellipse fill="none" stroke="#000000" cx="205.4652" cy="-291.6168" rx="3.2" ry="3.2"/>
</g>
<!-- data_profile -->
<g id="node4" class="node">
<title>data_profile</title>
<g id="a_node4"><a xlink:href="../../tables/data_profile.html" xlink:title="data_profile" target="_top">
<polygon fill="#ffffff" stroke="transparent" points="419.5,-101.2 419.5,-294.2 549.5,-294.2 549.5,-101.2 419.5,-101.2"/>
<polygon fill="#f5f5f5" stroke="transparent" points="419.5,-270.7 419.5,-293.7 549.5,-293.7 549.5,-270.7 419.5,-270.7"/>
<polygon fill="none" stroke="#000000" points="419.5,-270.7 419.5,-293.7 549.5,-293.7 549.5,-270.7 419.5,-270.7"/>
<text text-anchor="start" x="424.5" y="-279.8" font-family="Helvetica,sans-Serif" font-weight="bold" font-size="11.00" fill="#000000">data_profile</text>
<text text-anchor="start" x="514.5437" y="-278.8" font-family="Helvetica,sans-Serif" font-size="11.00" fill="#000000">[table]</text>
<polygon fill="none" stroke="#000000" points="419.5,-248.7 419.5,-270.7 549.5,-270.7 549.5,-248.7 419.5,-248.7"/>
<image xlink:href="../../images/primaryKeys.png" width="11px" height="12px" preserveAspectRatio="xMinYMin meet" x="424.5" y="-265.7"/>
<text text-anchor="start" x="439.5" y="-255.8" font-family="Helvetica,sans-Serif" font-size="11.00" fill="#000000">submission_id</text>
<polygon fill="none" stroke="#000000" points="419.5,-226.7 419.5,-248.7 549.5,-248.7 549.5,-226.7 419.5,-226.7"/>
<image xlink:href="../../images/primaryKeys.png" width="11px" height="12px" preserveAspectRatio="xMinYMin meet" x="424.5" y="-243.7"/>
<text text-anchor="start" x="439.5" y="-233.8" font-family="Helvetica,sans-Serif" font-size="11.00" fill="#000000">tag_id</text>
<polygon fill="none" stroke="#000000" points="419.5,-204.7 419.5,-226.7 549.5,-226.7 549.5,-204.7 419.5,-204.7"/>
<image xlink:href="../../images/primaryKeys.png" width="11px" height="12px" preserveAspectRatio="xMinYMin meet" x="424.5" y="-221.7"/>
<text text-anchor="start" x="439.5" y="-211.8" font-family="Helvetica,sans-Serif" font-size="11.00" fill="#000000">variable_id</text>
<polygon fill="none" stroke="#000000" points="419.5,-182.7 419.5,-204.7 549.5,-204.7 549.5,-182.7 419.5,-182.7"/>
<image xlink:href="../../images/primaryKeys.png" width="11px" height="12px" preserveAspectRatio="xMinYMin meet" x="424.5" y="-199.7"/>
<text text-anchor="start" x="439.5" y="-189.8" font-family="Helvetica,sans-Serif" font-size="11.00" fill="#000000">date_time</text>
<polygon fill="none" stroke="#000000" points="419.5,-160.7 419.5,-182.7 549.5,-182.7 549.5,-160.7 419.5,-160.7"/>
<image xlink:href="../../images/primaryKeys.png" width="11px" height="12px" preserveAspectRatio="xMinYMin meet" x="424.5" y="-177.7"/>
<text text-anchor="start" x="439.5" y="-167.8" font-family="Helvetica,sans-Serif" font-size="11.00" fill="#000000">depth</text>
<polygon fill="#ffffff" stroke="transparent" points="419.5,-138.7 419.5,-160.7 549.5,-160.7 549.5,-138.7 419.5,-138.7"/>
<polygon fill="none" stroke="#000000" points="419.5,-138.7 419.5,-160.7 549.5,-160.7 549.5,-138.7 419.5,-138.7"/>
<image xlink:href="../../images/foreignKeys.png" width="11px" height="12px" preserveAspectRatio="xMinYMin meet" x="424.5" y="-155.7"/>
<text text-anchor="start" x="439.5" y="-145.8" font-family="Helvetica,sans-Serif" font-size="11.00" fill="#000000">position_date_time</text>
<polygon fill="none" stroke="#000000" points="419.5,-119.7 419.5,-138.7 549.5,-138.7 549.5,-119.7 419.5,-119.7"/>
<text text-anchor="start" x="422.5" y="-125.8" font-family="Helvetica,sans-Serif" font-size="11.00" fill="#000000">...</text>
<polygon fill="#ffffff" stroke="transparent" points="419.5,-100.7 419.5,-119.7 469.5,-119.7 469.5,-100.7 419.5,-100.7"/>
<polygon fill="none" stroke="#000000" points="419.5,-100.7 419.5,-119.7 469.5,-119.7 469.5,-100.7 419.5,-100.7"/>
<text text-anchor="start" x="422.5" y="-106.8" font-family="Helvetica,sans-Serif" font-size="11.00" fill="#000000">&lt; 5</text>
<polygon fill="#ffffff" stroke="transparent" points="469.5,-100.7 469.5,-119.7 522.5,-119.7 522.5,-100.7 469.5,-100.7"/>
<polygon fill="none" stroke="#000000" points="469.5,-100.7 469.5,-119.7 522.5,-119.7 522.5,-100.7 469.5,-100.7"/>
<text text-anchor="start" x="487.1105" y="-106.8" font-family="Helvetica,sans-Serif" font-size="11.00" fill="#000000">0 rows</text>
<polygon fill="#ffffff" stroke="transparent" points="522.5,-100.7 522.5,-119.7 549.5,-119.7 549.5,-100.7 522.5,-100.7"/>
<polygon fill="none" stroke="#000000" points="522.5,-100.7 522.5,-119.7 549.5,-119.7 549.5,-100.7 522.5,-100.7"/>
<text text-anchor="start" x="540.3862" y="-106.8" font-family="Helvetica,sans-Serif" font-size="11.00" fill="#000000"> &#160;</text>
</a>
</g>
</g>
<!-- data_profile&#45;&gt;data_position -->
<g id="edge10" class="edge">
<title>data_profile:w&#45;&gt;data_position:e</title>
<path fill="none" stroke="#000000" d="M404.7524,-151.4809C329.7215,-171.6152 419.8086,-355.7 324.5,-355.7"/>
<polygon fill="#000000" stroke="#000000" points="411.5577,-150.6591 419.9316,-153.274 415.5288,-150.1796 419.5,-149.7 419.5,-149.7 419.5,-149.7 415.5288,-150.1796 419.0684,-146.126 411.5577,-150.6591 411.5577,-150.6591"/>
<ellipse fill="none" stroke="#000000" cx="408.3808" cy="-151.0428" rx="3.2" ry="3.2"/>
</g>
<!-- data_profile&#45;&gt;data_position -->
<g id="edge11" class="edge">
<title>data_profile:w&#45;&gt;data_position:e</title>
<path fill="none" stroke="#000000" d="M404.9448,-260.9132C373.1069,-266.5257 363.4157,-289.7 324.5,-289.7"/>
<polygon fill="#000000" stroke="#000000" points="411.5276,-260.3646 419.799,-263.2876 415.5138,-260.0323 419.5,-259.7 419.5,-259.7 419.5,-259.7 415.5138,-260.0323 419.201,-256.1124 411.5276,-260.3646 411.5276,-260.3646"/>
<ellipse fill="none" stroke="#000000" cx="408.3387" cy="-260.6304" rx="3.2" ry="3.2"/>
</g>
<!-- data_profile&#45;&gt;data_position -->
<g id="edge13" class="edge">
<title>data_profile:w&#45;&gt;data_position:e</title>
<path fill="none" stroke="#000000" d="M404.9448,-238.9132C373.1069,-244.5257 363.4157,-267.7 324.5,-267.7"/>
<polygon fill="#000000" stroke="#000000" points="411.5276,-238.3646 419.799,-241.2876 415.5138,-238.0323 419.5,-237.7 419.5,-237.7 419.5,-237.7 415.5138,-238.0323 419.201,-234.1124 411.5276,-238.3646 411.5276,-238.3646"/>
<ellipse fill="none" stroke="#000000" cx="408.3387" cy="-238.6304" rx="3.2" ry="3.2"/>
</g>
<!-- data_profile&#45;&gt;observation_types -->
<g id="edge14" class="edge">
<title>data_profile:w&#45;&gt;observation_types:e</title>
<path fill="none" stroke="#000000" d="M404.9833,-215.0611C389.316,-213.577 380.9742,-209.9295 360,-208.7 280.5808,-204.0443 240.1798,-155.532 181,-208.7 117.4901,-265.7581 225.3764,-590.7 140,-590.7"/>
<polygon fill="#000000" stroke="#000000" points="411.5077,-215.3482 419.3417,-219.2965 415.5039,-215.5241 419.5,-215.7 419.5,-215.7 419.5,-215.7 415.5039,-215.5241 419.6583,-212.1035 411.5077,-215.3482 411.5077,-215.3482"/>
<ellipse fill="none" stroke="#000000" cx="408.3108" cy="-215.2075" rx="3.2" ry="3.2"/>
</g>
<!-- data_profile&#45;&gt;submission -->
<g id="edge12" class="edge">
<title>data_profile:w&#45;&gt;submission:e</title>
<path fill="none" stroke="#000000" d="M405.3162,-256.7737C381.6764,-244.9634 393.074,-200.6793 360,-184.7 324.1834,-167.3956 212.7091,-160.6832 181,-184.7 119.5348,-231.2544 211.1057,-351.7 134,-351.7"/>
<polygon fill="#000000" stroke="#000000" points="411.665,-258.0835 418.7726,-263.2257 415.5825,-258.8917 419.5,-259.7 419.5,-259.7 419.5,-259.7 415.5825,-258.8917 420.2274,-256.1743 411.665,-258.0835 411.665,-258.0835"/>
<ellipse fill="none" stroke="#000000" cx="408.531" cy="-257.4369" rx="3.2" ry="3.2"/>
</g>
<!-- data_time_series -->
<g id="node5" class="node">
<title>data_time_series</title>
<g id="a_node5"><a xlink:href="../../tables/data_time_series.html" xlink:title="data_time_series" target="_top">
<polygon fill="#ffffff" stroke="transparent" points="419.5,-315.2 419.5,-486.2 549.5,-486.2 549.5,-315.2 419.5,-315.2"/>
<polygon fill="#f5f5f5" stroke="transparent" points="419.5,-462.7 419.5,-485.7 549.5,-485.7 549.5,-462.7 419.5,-462.7"/>
<polygon fill="none" stroke="#000000" points="419.5,-462.7 419.5,-485.7 549.5,-485.7 549.5,-462.7 419.5,-462.7"/>
<text text-anchor="start" x="424.5" y="-471.8" font-family="Helvetica,sans-Serif" font-weight="bold" font-size="11.00" fill="#000000">data_time_series</text>
<text text-anchor="start" x="514.5437" y="-470.8" font-family="Helvetica,sans-Serif" font-size="11.00" fill="#000000">[table]</text>
<polygon fill="none" stroke="#000000" points="419.5,-440.7 419.5,-462.7 549.5,-462.7 549.5,-440.7 419.5,-440.7"/>
<image xlink:href="../../images/primaryKeys.png" width="11px" height="12px" preserveAspectRatio="xMinYMin meet" x="424.5" y="-457.7"/>
<text text-anchor="start" x="439.5" y="-447.8" font-family="Helvetica,sans-Serif" font-size="11.00" fill="#000000">date_time</text>
<polygon fill="none" stroke="#000000" points="419.5,-418.7 419.5,-440.7 549.5,-440.7 549.5,-418.7 419.5,-418.7"/>
<image xlink:href="../../images/primaryKeys.png" width="11px" height="12px" preserveAspectRatio="xMinYMin meet" x="424.5" y="-435.7"/>
<text text-anchor="start" x="439.5" y="-425.8" font-family="Helvetica,sans-Serif" font-size="11.00" fill="#000000">variable_id</text>
<polygon fill="none" stroke="#000000" points="419.5,-396.7 419.5,-418.7 549.5,-418.7 549.5,-396.7 419.5,-396.7"/>
<image xlink:href="../../images/primaryKeys.png" width="11px" height="12px" preserveAspectRatio="xMinYMin meet" x="424.5" y="-413.7"/>
<text text-anchor="start" x="439.5" y="-403.8" font-family="Helvetica,sans-Serif" font-size="11.00" fill="#000000">submission_id</text>
<polygon fill="none" stroke="#000000" points="419.5,-374.7 419.5,-396.7 549.5,-396.7 549.5,-374.7 419.5,-374.7"/>
<image xlink:href="../../images/primaryKeys.png" width="11px" height="12px" preserveAspectRatio="xMinYMin meet" x="424.5" y="-391.7"/>
<text text-anchor="start" x="439.5" y="-381.8" font-family="Helvetica,sans-Serif" font-size="11.00" fill="#000000">tag_id</text>
<polygon fill="#ffffff" stroke="transparent" points="419.5,-352.7 419.5,-374.7 549.5,-374.7 549.5,-352.7 419.5,-352.7"/>
<polygon fill="none" stroke="#000000" points="419.5,-352.7 419.5,-374.7 549.5,-374.7 549.5,-352.7 419.5,-352.7"/>
<image xlink:href="../../images/foreignKeys.png" width="11px" height="12px" preserveAspectRatio="xMinYMin meet" x="424.5" y="-369.7"/>
<text text-anchor="start" x="439.5" y="-359.8" font-family="Helvetica,sans-Serif" font-size="11.00" fill="#000000">position_date_time</text>
<polygon fill="none" stroke="#000000" points="419.5,-333.7 419.5,-352.7 549.5,-352.7 549.5,-333.7 419.5,-333.7"/>
<text text-anchor="start" x="422.5" y="-339.8" font-family="Helvetica,sans-Serif" font-size="11.00" fill="#000000">...</text>
<polygon fill="#ffffff" stroke="transparent" points="419.5,-314.7 419.5,-333.7 469.5,-333.7 469.5,-314.7 419.5,-314.7"/>
<polygon fill="none" stroke="#000000" points="419.5,-314.7 419.5,-333.7 469.5,-333.7 469.5,-314.7 419.5,-314.7"/>
<text text-anchor="start" x="422.5" y="-320.8" font-family="Helvetica,sans-Serif" font-size="11.00" fill="#000000">&lt; 5</text>
<polygon fill="#ffffff" stroke="transparent" points="469.5,-314.7 469.5,-333.7 522.5,-333.7 522.5,-314.7 469.5,-314.7"/>
<polygon fill="none" stroke="#000000" points="469.5,-314.7 469.5,-333.7 522.5,-333.7 522.5,-314.7 469.5,-314.7"/>
<text text-anchor="start" x="487.1105" y="-320.8" font-family="Helvetica,sans-Serif" font-size="11.00" fill="#000000">0 rows</text>
<polygon fill="#ffffff" stroke="transparent" points="522.5,-314.7 522.5,-333.7 549.5,-333.7 549.5,-314.7 522.5,-314.7"/>
<polygon fill="none" stroke="#000000" points="522.5,-314.7 522.5,-333.7 549.5,-333.7 549.5,-314.7 522.5,-314.7"/>
<text text-anchor="start" x="540.3862" y="-320.8" font-family="Helvetica,sans-Serif" font-size="11.00" fill="#000000"> &#160;</text>
</a>
</g>
</g>
<!-- data_time_series&#45;&gt;data_position -->
<g id="edge15" class="edge">
<title>data_time_series:w&#45;&gt;data_position:e</title>
<path fill="none" stroke="#000000" d="M404.9906,-363.3563C374.0624,-361.825 361.5752,-355.7 324.5,-355.7"/>
<polygon fill="#000000" stroke="#000000" points="411.5022,-363.5105 419.4147,-367.299 415.5011,-363.6052 419.5,-363.7 419.5,-363.7 419.5,-363.7 415.5011,-363.6052 419.5853,-360.101 411.5022,-363.5105 411.5022,-363.5105"/>
<ellipse fill="none" stroke="#000000" cx="408.3031" cy="-363.4347" rx="3.2" ry="3.2"/>
</g>
<!-- data_time_series&#45;&gt;data_position -->
<g id="edge16" class="edge">
<title>data_time_series:w&#45;&gt;data_position:e</title>
<path fill="none" stroke="#000000" d="M404.9725,-405.4482C357.9578,-389.1347 386.3055,-289.7 324.5,-289.7"/>
<polygon fill="#000000" stroke="#000000" points="411.5944,-406.4745 418.9485,-411.2575 415.5472,-407.0873 419.5,-407.7 419.5,-407.7 419.5,-407.7 415.5472,-407.0873 420.0515,-404.1425 411.5944,-406.4745 411.5944,-406.4745"/>
<ellipse fill="none" stroke="#000000" cx="408.4322" cy="-405.9844" rx="3.2" ry="3.2"/>
</g>
<!-- data_time_series&#45;&gt;data_position -->
<g id="edge18" class="edge">
<title>data_time_series:w&#45;&gt;data_position:e</title>
<path fill="none" stroke="#000000" d="M404.9725,-383.4482C357.9578,-367.1347 386.3055,-267.7 324.5,-267.7"/>
<polygon fill="#000000" stroke="#000000" points="411.5944,-384.4745 418.9485,-389.2575 415.5472,-385.0873 419.5,-385.7 419.5,-385.7 419.5,-385.7 415.5472,-385.0873 420.0515,-382.1425 411.5944,-384.4745 411.5944,-384.4745"/>
<ellipse fill="none" stroke="#000000" cx="408.4322" cy="-383.9844" rx="3.2" ry="3.2"/>
</g>
<!-- data_time_series&#45;&gt;observation_types -->
<g id="edge19" class="edge">
<title>data_time_series:w&#45;&gt;observation_types:e</title>
<path fill="none" stroke="#000000" d="M405.0991,-431.6473C359.1282,-446.2256 412.5863,-538.7701 360,-576.7 320.269,-605.3575 188.9878,-590.7 140,-590.7"/>
<polygon fill="#000000" stroke="#000000" points="411.5721,-430.772 419.9824,-433.2675 415.5361,-430.236 419.5,-429.7 419.5,-429.7 419.5,-429.7 415.5361,-430.236 419.0176,-426.1325 411.5721,-430.772 411.5721,-430.772"/>
<ellipse fill="none" stroke="#000000" cx="408.401" cy="-431.2009" rx="3.2" ry="3.2"/>
</g>
<!-- data_time_series&#45;&gt;submission -->
<g id="edge17" class="edge">
<title>data_time_series:w&#45;&gt;submission:e</title>
<path fill="none" stroke="#000000" d="M405.0386,-407.9256C309.9885,-410.9038 273.3813,-441.7098 181,-400.7 153.419,-388.4563 164.1764,-351.7 134,-351.7"/>
<polygon fill="#000000" stroke="#000000" points="411.501,-407.8249 419.5562,-411.2996 415.5005,-407.7624 419.5,-407.7 419.5,-407.7 419.5,-407.7 415.5005,-407.7624 419.4438,-404.1004 411.501,-407.8249 411.501,-407.8249"/>
<ellipse fill="none" stroke="#000000" cx="408.3014" cy="-407.8748" rx="3.2" ry="3.2"/>
</g>
<!-- metadata -->
<g id="node6" class="node">
<title>metadata</title>
<g id="a_node6"><a xlink:href="../../tables/metadata.html" xlink:title="metadata" target="_top">
<polygon fill="#ffffff" stroke="transparent" points="217.5,-38.2 217.5,-143.2 323.5,-143.2 323.5,-38.2 217.5,-38.2"/>
<polygon fill="#f5f5f5" stroke="transparent" points="217.5,-119.7 217.5,-142.7 323.5,-142.7 323.5,-119.7 217.5,-119.7"/>
<polygon fill="none" stroke="#000000" points="217.5,-119.7 217.5,-142.7 323.5,-142.7 323.5,-119.7 217.5,-119.7"/>
<text text-anchor="start" x="222.5" y="-128.8" font-family="Helvetica,sans-Serif" font-weight="bold" font-size="11.00" fill="#000000">metadata</text>
<text text-anchor="start" x="288.5437" y="-127.8" font-family="Helvetica,sans-Serif" font-size="11.00" fill="#000000">[table]</text>
<polygon fill="none" stroke="#000000" points="217.5,-97.7 217.5,-119.7 323.5,-119.7 323.5,-97.7 217.5,-97.7"/>
<image xlink:href="../../images/primaryKeys.png" width="11px" height="12px" preserveAspectRatio="xMinYMin meet" x="222.5" y="-114.7"/>
<text text-anchor="start" x="237.5" y="-104.8" font-family="Helvetica,sans-Serif" font-size="11.00" fill="#000000">submission_id</text>
<polygon fill="none" stroke="#000000" points="217.5,-75.7 217.5,-97.7 323.5,-97.7 323.5,-75.7 217.5,-75.7"/>
<image xlink:href="../../images/primaryKeys.png" width="11px" height="12px" preserveAspectRatio="xMinYMin meet" x="222.5" y="-92.7"/>
<text text-anchor="start" x="237.5" y="-82.8" font-family="Helvetica,sans-Serif" font-size="11.00" fill="#000000">attribute_id</text>
<polygon fill="none" stroke="#000000" points="217.5,-56.7 217.5,-75.7 323.5,-75.7 323.5,-56.7 217.5,-56.7"/>
<text text-anchor="start" x="220.5" y="-62.8" font-family="Helvetica,sans-Serif" font-size="11.00" fill="#000000">...</text>
<polygon fill="#ffffff" stroke="transparent" points="217.5,-37.7 217.5,-56.7 255.5,-56.7 255.5,-37.7 217.5,-37.7"/>
<polygon fill="none" stroke="#000000" points="217.5,-37.7 217.5,-56.7 255.5,-56.7 255.5,-37.7 217.5,-37.7"/>
<text text-anchor="start" x="220.5" y="-43.8" font-family="Helvetica,sans-Serif" font-size="11.00" fill="#000000">&lt; 2</text>
<polygon fill="#ffffff" stroke="transparent" points="255.5,-37.7 255.5,-56.7 302.5,-56.7 302.5,-37.7 255.5,-37.7"/>
<polygon fill="none" stroke="#000000" points="255.5,-37.7 255.5,-56.7 302.5,-56.7 302.5,-37.7 255.5,-37.7"/>
<text text-anchor="start" x="267.1105" y="-43.8" font-family="Helvetica,sans-Serif" font-size="11.00" fill="#000000">0 rows</text>
<polygon fill="#ffffff" stroke="transparent" points="302.5,-37.7 302.5,-56.7 323.5,-56.7 323.5,-37.7 302.5,-37.7"/>
<polygon fill="none" stroke="#000000" points="302.5,-37.7 302.5,-56.7 323.5,-56.7 323.5,-37.7 302.5,-37.7"/>
<text text-anchor="start" x="314.3862" y="-43.8" font-family="Helvetica,sans-Serif" font-size="11.00" fill="#000000"> &#160;</text>
</a>
</g>
</g>
<!-- metadata_types -->
<g id="node7" class="node">
<title>metadata_types</title>
<g id="a_node7"><a xlink:href="../../tables/metadata_types.html" xlink:title="metadata_types" target="_top">
<polygon fill="#ffffff" stroke="transparent" points="13.5,-38.2 13.5,-121.2 134.5,-121.2 134.5,-38.2 13.5,-38.2"/>
<polygon fill="#f5f5f5" stroke="transparent" points="14,-97.7 14,-120.7 135,-120.7 135,-97.7 14,-97.7"/>
<polygon fill="none" stroke="#000000" points="14,-97.7 14,-120.7 135,-120.7 135,-97.7 14,-97.7"/>
<text text-anchor="start" x="18.8741" y="-106.8" font-family="Helvetica,sans-Serif" font-weight="bold" font-size="11.00" fill="#000000">metadata_types</text>
<text text-anchor="start" x="100.5219" y="-105.8" font-family="Helvetica,sans-Serif" font-size="11.00" fill="#000000">[table]</text>
<polygon fill="none" stroke="#000000" points="14,-75.7 14,-97.7 135,-97.7 135,-75.7 14,-75.7"/>
<image xlink:href="../../images/primaryKeys.png" width="11px" height="12px" preserveAspectRatio="xMinYMin meet" x="19" y="-92.7"/>
<text text-anchor="start" x="39" y="-82.8" font-family="Helvetica,sans-Serif" font-size="11.00" fill="#000000">attribute_id</text>
<polygon fill="none" stroke="#000000" points="14,-56.7 14,-75.7 135,-75.7 135,-56.7 14,-56.7"/>
<text text-anchor="start" x="17" y="-62.8" font-family="Helvetica,sans-Serif" font-size="11.00" fill="#000000">...</text>
<polygon fill="#ffffff" stroke="transparent" points="14,-37.7 14,-56.7 45,-56.7 45,-37.7 14,-37.7"/>
<polygon fill="none" stroke="#000000" points="14,-37.7 14,-56.7 45,-56.7 45,-37.7 14,-37.7"/>
<text text-anchor="start" x="17" y="-43.8" font-family="Helvetica,sans-Serif" font-size="11.00" fill="#000000"> &#160;</text>
<polygon fill="#ffffff" stroke="transparent" points="45,-37.7 45,-56.7 104,-56.7 104,-37.7 45,-37.7"/>
<polygon fill="none" stroke="#000000" points="45,-37.7 45,-56.7 104,-56.7 104,-37.7 45,-37.7"/>
<text text-anchor="start" x="56.3807" y="-43.8" font-family="Helvetica,sans-Serif" font-size="11.00" fill="#000000">142 rows</text>
<polygon fill="#ffffff" stroke="transparent" points="104,-37.7 104,-56.7 135,-56.7 135,-37.7 104,-37.7"/>
<polygon fill="none" stroke="#000000" points="104,-37.7 104,-56.7 135,-56.7 135,-37.7 104,-37.7"/>
<text text-anchor="start" x="116.4053" y="-43.8" font-family="Helvetica,sans-Serif" font-size="11.00" fill="#000000">1 &gt;</text>
</a>
</g>
</g>
<!-- metadata&#45;&gt;metadata_types -->
<g id="edge20" class="edge">
<title>metadata:w&#45;&gt;metadata_types:e</title>
<path fill="none" stroke="#000000" d="M202.8098,-86.7C177.5061,-86.7 166.224,-86.7 135,-86.7"/>
<polygon fill="#000000" stroke="#000000" points="209.5,-86.7001 217.5,-90.3 213.5,-86.7 217.5,-86.7 217.5,-86.7 217.5,-86.7 213.5,-86.7 217.5,-83.1 209.5,-86.7001 209.5,-86.7001"/>
<ellipse fill="none" stroke="#000000" cx="206.3" cy="-86.7001" rx="3.2" ry="3.2"/>
</g>
<!-- metadata&#45;&gt;submission -->
<g id="edge21" class="edge">
<title>metadata:w&#45;&gt;submission:e</title>
<path fill="none" stroke="#000000" d="M203.4417,-111.9515C190.648,-119.391 190.0165,-138.4959 181,-157.7 143.2958,-238.0057 222.7165,-351.7 134,-351.7"/>
<polygon fill="#000000" stroke="#000000" points="209.7058,-110.5028 218.3112,-112.2074 213.6029,-109.6014 217.5,-108.7 217.5,-108.7 217.5,-108.7 213.6029,-109.6014 216.6888,-105.1926 209.7058,-110.5028 209.7058,-110.5028"/>
<ellipse fill="none" stroke="#000000" cx="206.5881" cy="-111.2239" rx="3.2" ry="3.2"/>
</g>
<!-- proc_observations -->
<g id="node9" class="node">
<title>proc_observations</title>
<g id="a_node9"><a xlink:href="../../tables/proc_observations.html" xlink:title="proc_observations" target="_top">
<polygon fill="#ffffff" stroke="transparent" points="204.5,-439.2 204.5,-566.2 336.5,-566.2 336.5,-439.2 204.5,-439.2"/>
<polygon fill="#f5f5f5" stroke="transparent" points="204.5,-542.7 204.5,-565.7 336.5,-565.7 336.5,-542.7 204.5,-542.7"/>
<polygon fill="none" stroke="#000000" points="204.5,-542.7 204.5,-565.7 336.5,-565.7 336.5,-542.7 204.5,-542.7"/>
<text text-anchor="start" x="209.0722" y="-551.8" font-family="Helvetica,sans-Serif" font-weight="bold" font-size="11.00" fill="#000000">proc_observations</text>
<text text-anchor="start" x="302.0219" y="-550.8" font-family="Helvetica,sans-Serif" font-size="11.00" fill="#000000">[table]</text>
<polygon fill="none" stroke="#000000" points="204.5,-520.7 204.5,-542.7 336.5,-542.7 336.5,-520.7 204.5,-520.7"/>
<image xlink:href="../../images/primaryKeys.png" width="11px" height="12px" preserveAspectRatio="xMinYMin meet" x="209.5" y="-537.7"/>
<text text-anchor="start" x="226.5" y="-527.8" font-family="Helvetica,sans-Serif" font-size="11.00" fill="#000000">date_time</text>
<polygon fill="none" stroke="#000000" points="204.5,-498.7 204.5,-520.7 336.5,-520.7 336.5,-498.7 204.5,-498.7"/>
<image xlink:href="../../images/primaryKeys.png" width="11px" height="12px" preserveAspectRatio="xMinYMin meet" x="209.5" y="-515.7"/>
<text text-anchor="start" x="226.5" y="-505.8" font-family="Helvetica,sans-Serif" font-size="11.00" fill="#000000">variable_id</text>
<polygon fill="none" stroke="#000000" points="204.5,-476.7 204.5,-498.7 336.5,-498.7 336.5,-476.7 204.5,-476.7"/>
<image xlink:href="../../images/primaryKeys.png" width="11px" height="12px" preserveAspectRatio="xMinYMin meet" x="209.5" y="-493.7"/>
<text text-anchor="start" x="226.5" y="-483.8" font-family="Helvetica,sans-Serif" font-size="11.00" fill="#000000">submission_id</text>
<polygon fill="none" stroke="#000000" points="204.5,-457.7 204.5,-476.7 336.5,-476.7 336.5,-457.7 204.5,-457.7"/>
<text text-anchor="start" x="207.5" y="-463.8" font-family="Helvetica,sans-Serif" font-size="11.00" fill="#000000">...</text>
<polygon fill="#ffffff" stroke="transparent" points="204.5,-438.7 204.5,-457.7 255.5,-457.7 255.5,-438.7 204.5,-438.7"/>
<polygon fill="none" stroke="#000000" points="204.5,-438.7 204.5,-457.7 255.5,-457.7 255.5,-438.7 204.5,-438.7"/>
<text text-anchor="start" x="207.5" y="-444.8" font-family="Helvetica,sans-Serif" font-size="11.00" fill="#000000">&lt; 2</text>
<polygon fill="#ffffff" stroke="transparent" points="255.5,-438.7 255.5,-457.7 308.5,-457.7 308.5,-438.7 255.5,-438.7"/>
<polygon fill="none" stroke="#000000" points="255.5,-438.7 255.5,-457.7 308.5,-457.7 308.5,-438.7 255.5,-438.7"/>
<text text-anchor="start" x="273.1105" y="-444.8" font-family="Helvetica,sans-Serif" font-size="11.00" fill="#000000">0 rows</text>
<polygon fill="#ffffff" stroke="transparent" points="308.5,-438.7 308.5,-457.7 336.5,-457.7 336.5,-438.7 308.5,-438.7"/>
<polygon fill="none" stroke="#000000" points="308.5,-438.7 308.5,-457.7 336.5,-457.7 336.5,-438.7 308.5,-438.7"/>
<text text-anchor="start" x="327.3862" y="-444.8" font-family="Helvetica,sans-Serif" font-size="11.00" fill="#000000"> &#160;</text>
</a>
</g>
</g>
<!-- proc_observations&#45;&gt;observation_types -->
<g id="edge23" class="edge">
<title>proc_observations:w&#45;&gt;observation_types:e</title>
<path fill="none" stroke="#000000" d="M190.4034,-513.1805C164.216,-528.6844 180.2669,-590.7 140,-590.7"/>
<polygon fill="#000000" stroke="#000000" points="196.7332,-511.6177 205.363,-513.195 200.6166,-510.6588 204.5,-509.7 204.5,-509.7 204.5,-509.7 200.6166,-510.6588 203.637,-506.205 196.7332,-511.6177 196.7332,-511.6177"/>
<ellipse fill="none" stroke="#000000" cx="193.6265" cy="-512.3847" rx="3.2" ry="3.2"/>
</g>
<!-- proc_observations&#45;&gt;submission -->
<g id="edge22" class="edge">
<title>proc_observations:w&#45;&gt;submission:e</title>
<path fill="none" stroke="#000000" d="M190.2976,-485.1047C146.2902,-466.3027 196.4982,-351.7 134,-351.7"/>
<polygon fill="#000000" stroke="#000000" points="196.6303,-486.2619 203.8528,-491.2414 200.5652,-486.9809 204.5,-487.7 204.5,-487.7 204.5,-487.7 200.5652,-486.9809 205.1472,-484.1586 196.6303,-486.2619 196.6303,-486.2619"/>
<ellipse fill="none" stroke="#000000" cx="193.4824" cy="-485.6866" rx="3.2" ry="3.2"/>
</g>
</g>
</svg>
