<?xml version="1.0" encoding="UTF-8" standalone="no"?>
<!DOCTYPE svg PUBLIC "-//W3C//DTD SVG 1.1//EN"
 "http://www.w3.org/Graphics/SVG/1.1/DTD/svg11.dtd">
<!-- Generated by graphviz version 2.40.1 (20161225.0304)
 -->
<!-- Title: twoDegreesRelationshipsDiagram Pages: 1 -->
<svg width="643pt" height="661pt"
 viewBox="0.00 0.00 643.00 661.24" xmlns="http://www.w3.org/2000/svg" xmlns:xlink="http://www.w3.org/1999/xlink">
<g id="graph0" class="graph" transform="scale(1 1) rotate(0) translate(4 657.2355)">
<title>twoDegreesRelationshipsDiagram</title>
<polygon fill="#ffffff" stroke="transparent" points="-4,4 -4,-657.2355 639,-657.2355 639,4 -4,4"/>
<text text-anchor="middle" x="72.4936" y="-7.3" font-family="Helvetica,sans-Serif" font-size="11.00" fill="#000000">Generated by SchemaSpy</text>
<!-- data_histogram_bin_data -->
<g id="node1" class="node">
<title>data_histogram_bin_data</title>
<g id="a_node1"><a xlink:href="../../tables/data_histogram_bin_data.html" xlink:title="data_histogram_bin_data" target="_top">
<polygon fill="#ffffff" stroke="transparent" points="430.5,-385.9027 430.5,-446.9027 597.5,-446.9027 597.5,-385.9027 430.5,-385.9027"/>
<polygon fill="#f5f5f5" stroke="transparent" points="431,-423.4027 431,-446.4027 598,-446.4027 598,-423.4027 431,-423.4027"/>
<polygon fill="none" stroke="#000000" points="431,-423.4027 431,-446.4027 598,-446.4027 598,-423.4027 431,-423.4027"/>
<text text-anchor="start" x="435.9501" y="-432.5027" font-family="Helvetica,sans-Serif" font-weight="bold" font-size="11.00" fill="#000000">data_histogram_bin_data</text>
<text text-anchor="start" x="563.5219" y="-431.5027" font-family="Helvetica,sans-Serif" font-size="11.00" fill="#000000">[table]</text>
<polygon fill="none" stroke="#000000" points="431,-404.4027 431,-423.4027 598,-423.4027 598,-404.4027 431,-404.4027"/>
<text text-anchor="start" x="434" y="-410.5027" font-family="Helvetica,sans-Serif" font-size="11.00" fill="#000000">...</text>
<polygon fill="#ffffff" stroke="transparent" points="431,-385.4027 431,-404.4027 500,-404.4027 500,-385.4027 431,-385.4027"/>
<polygon fill="none" stroke="#000000" points="431,-385.4027 431,-404.4027 500,-404.4027 500,-385.4027 431,-385.4027"/>
<text text-anchor="start" x="434" y="-391.5027" font-family="Helvetica,sans-Serif" font-size="11.00" fill="#000000">&lt; 7</text>
<polygon fill="#ffffff" stroke="transparent" points="500,-385.4027 500,-404.4027 562,-404.4027 562,-385.4027 500,-385.4027"/>
<polygon fill="none" stroke="#000000" points="500,-385.4027 500,-404.4027 562,-404.4027 562,-385.4027 500,-385.4027"/>
<text text-anchor="start" x="526.6105" y="-391.5027" font-family="Helvetica,sans-Serif" font-size="11.00" fill="#000000">0 rows</text>
<polygon fill="#ffffff" stroke="transparent" points="562,-385.4027 562,-404.4027 598,-404.4027 598,-385.4027 562,-385.4027"/>
<polygon fill="none" stroke="#000000" points="562,-385.4027 562,-404.4027 598,-404.4027 598,-385.4027 562,-385.4027"/>
<text text-anchor="start" x="588.8862" y="-391.5027" font-family="Helvetica,sans-Serif" font-size="11.00" fill="#000000"> &#160;</text>
</a>
</g>
</g>
<!-- data_histogram_bin_info -->
<g id="node2" class="node">
<title>data_histogram_bin_info</title>
<g id="a_node2"><a xlink:href="../../tables/data_histogram_bin_info.html" xlink:title="data_histogram_bin_info" target="_top">
<polygon fill="#ffffff" stroke="transparent" points="189,-547.9027 189,-608.9027 352,-608.9027 352,-547.9027 189,-547.9027"/>
<polygon fill="#f5f5f5" stroke="transparent" points="189.5,-585.4027 189.5,-608.4027 352.5,-608.4027 352.5,-585.4027 189.5,-585.4027"/>
<polygon fill="none" stroke="#000000" points="189.5,-585.4027 189.5,-608.4027 352.5,-608.4027 352.5,-585.4027 189.5,-585.4027"/>
<text text-anchor="start" x="194.2871" y="-594.5027" font-family="Helvetica,sans-Serif" font-weight="bold" font-size="11.00" fill="#000000">data_histogram_bin_info</text>
<text text-anchor="start" x="318.0219" y="-593.5027" font-family="Helvetica,sans-Serif" font-size="11.00" fill="#000000">[table]</text>
<polygon fill="none" stroke="#000000" points="189.5,-566.4027 189.5,-585.4027 352.5,-585.4027 352.5,-566.4027 189.5,-566.4027"/>
<text text-anchor="start" x="192.5" y="-572.5027" font-family="Helvetica,sans-Serif" font-size="11.00" fill="#000000">...</text>
<polygon fill="#ffffff" stroke="transparent" points="189.5,-547.4027 189.5,-566.4027 251.5,-566.4027 251.5,-547.4027 189.5,-547.4027"/>
<polygon fill="none" stroke="#000000" points="189.5,-547.4027 189.5,-566.4027 251.5,-566.4027 251.5,-547.4027 189.5,-547.4027"/>
<text text-anchor="start" x="192.5" y="-553.5027" font-family="Helvetica,sans-Serif" font-size="11.00" fill="#000000">&lt; 1</text>
<polygon fill="#ffffff" stroke="transparent" points="251.5,-547.4027 251.5,-566.4027 310.5,-566.4027 310.5,-547.4027 251.5,-547.4027"/>
<polygon fill="none" stroke="#000000" points="251.5,-547.4027 251.5,-566.4027 310.5,-566.4027 310.5,-547.4027 251.5,-547.4027"/>
<text text-anchor="start" x="275.1105" y="-553.5027" font-family="Helvetica,sans-Serif" font-size="11.00" fill="#000000">0 rows</text>
<polygon fill="#ffffff" stroke="transparent" points="310.5,-547.4027 310.5,-566.4027 352.5,-566.4027 352.5,-547.4027 310.5,-547.4027"/>
<polygon fill="none" stroke="#000000" points="310.5,-547.4027 310.5,-566.4027 352.5,-566.4027 352.5,-547.4027 310.5,-547.4027"/>
<text text-anchor="start" x="333.9053" y="-553.5027" font-family="Helvetica,sans-Serif" font-size="11.00" fill="#000000">2 &gt;</text>
</a>
</g>
</g>
<!-- data_histogram_bin_data&#45;&gt;data_histogram_bin_info -->
<g id="edge1" class="edge">
<title>data_histogram_bin_data:w&#45;&gt;data_histogram_bin_info:e</title>
<path fill="none" stroke="#000000" d="M416.4067,-414.5161C361.6568,-429.4127 426.8822,-569.8245 352.5,-575.4027"/>
<polygon fill="#000000" stroke="#000000" points="423.0232,-414.0113 431.2739,-416.9922 427.0116,-413.707 431,-413.4027 431,-413.4027 431,-413.4027 427.0116,-413.707 430.7261,-409.8131 423.0232,-414.0113 423.0232,-414.0113"/>
<ellipse fill="none" stroke="#000000" cx="419.8325" cy="-414.2548" rx="3.2" ry="3.2"/>
</g>
<!-- data_histogram_bin_data&#45;&gt;data_histogram_bin_info -->
<g id="edge2" class="edge">
<title>data_histogram_bin_data:w&#45;&gt;data_histogram_bin_info:e</title>
<path fill="none" stroke="#000000" d="M416.7534,-416.9077C361.3822,-441.7614 427.0384,-581.9241 352.5,-575.4027"/>
<polygon fill="#000000" stroke="#000000" points="423.2316,-415.3139 431.8601,-416.8984 427.1158,-414.3583 431,-413.4027 431,-413.4027 431,-413.4027 427.1158,-414.3583 430.1399,-409.9069 423.2316,-415.3139 423.2316,-415.3139"/>
<ellipse fill="none" stroke="#000000" cx="420.1243" cy="-416.0784" rx="3.2" ry="3.2"/>
</g>
<!-- data_position -->
<g id="node3" class="node">
<title>data_position</title>
<g id="a_node3"><a xlink:href="../../tables/data_position.html" xlink:title="data_position" target="_top">
<polygon fill="#ffffff" stroke="transparent" points="216.5,-217.9027 216.5,-388.9027 324.5,-388.9027 324.5,-217.9027 216.5,-217.9027"/>
<polygon fill="#f5f5f5" stroke="transparent" points="216.5,-365.4027 216.5,-388.4027 324.5,-388.4027 324.5,-365.4027 216.5,-365.4027"/>
<polygon fill="none" stroke="#000000" points="216.5,-365.4027 216.5,-388.4027 324.5,-388.4027 324.5,-365.4027 216.5,-365.4027"/>
<text text-anchor="start" x="221.2926" y="-374.5027" font-family="Helvetica,sans-Serif" font-weight="bold" font-size="11.00" fill="#000000">data_position</text>
<text text-anchor="start" x="290.0219" y="-373.5027" font-family="Helvetica,sans-Serif" font-size="11.00" fill="#000000">[table]</text>
<polygon fill="none" stroke="#000000" points="216.5,-343.4027 216.5,-365.4027 324.5,-365.4027 324.5,-343.4027 216.5,-343.4027"/>
<image xlink:href="../../images/primaryKeys.png" width="11px" height="12px" preserveAspectRatio="xMinYMin meet" x="221.5" y="-360.403"/>
<text text-anchor="start" x="238.5" y="-350.5027" font-family="Helvetica,sans-Serif" font-size="11.00" fill="#000000">date_time</text>
<polygon fill="#ffffff" stroke="transparent" points="216.5,-321.4027 216.5,-343.4027 324.5,-343.4027 324.5,-321.4027 216.5,-321.4027"/>
<polygon fill="none" stroke="#000000" points="216.5,-321.4027 216.5,-343.4027 324.5,-343.4027 324.5,-321.4027 216.5,-321.4027"/>
<text text-anchor="start" x="238.5" y="-328.5027" font-family="Helvetica,sans-Serif" font-size="11.00" fill="#000000">lat</text>
<polygon fill="#ffffff" stroke="transparent" points="216.5,-299.4027 216.5,-321.4027 324.5,-321.4027 324.5,-299.4027 216.5,-299.4027"/>
<polygon fill="none" stroke="#000000" points="216.5,-299.4027 216.5,-321.4027 324.5,-321.4027 324.5,-299.4027 216.5,-299.4027"/>
<text text-anchor="start" x="238.5" y="-306.5027" font-family="Helvetica,sans-Serif" font-size="11.00" fill="#000000">lon</text>
<polygon fill="none" stroke="#000000" points="216.5,-277.4027 216.5,-299.4027 324.5,-299.4027 324.5,-277.4027 216.5,-277.4027"/>
<image xlink:href="../../images/primaryKeys.png" width="11px" height="12px" preserveAspectRatio="xMinYMin meet" x="221.5" y="-294.403"/>
<text text-anchor="start" x="238.5" y="-284.5027" font-family="Helvetica,sans-Serif" font-size="11.00" fill="#000000">submission_id</text>
<polygon fill="none" stroke="#000000" points="216.5,-255.4027 216.5,-277.4027 324.5,-277.4027 324.5,-255.4027 216.5,-255.4027"/>
<image xlink:href="../../images/primaryKeys.png" width="11px" height="12px" preserveAspectRatio="xMinYMin meet" x="221.5" y="-272.403"/>
<text text-anchor="start" x="238.5" y="-262.5027" font-family="Helvetica,sans-Serif" font-size="11.00" fill="#000000">tag_id</text>
<polygon fill="none" stroke="#000000" points="216.5,-236.4027 216.5,-255.4027 324.5,-255.4027 324.5,-236.4027 216.5,-236.4027"/>
<text text-anchor="start" x="219.5" y="-242.5027" font-family="Helvetica,sans-Serif" font-size="11.00" fill="#000000">...</text>
<polygon fill="#ffffff" stroke="transparent" points="216.5,-217.4027 216.5,-236.4027 251.5,-236.4027 251.5,-217.4027 216.5,-217.4027"/>
<polygon fill="none" stroke="#000000" points="216.5,-217.4027 216.5,-236.4027 251.5,-236.4027 251.5,-217.4027 216.5,-217.4027"/>
<text text-anchor="start" x="219.5" y="-223.5027" font-family="Helvetica,sans-Serif" font-size="11.00" fill="#000000">&lt; 1</text>
<polygon fill="#ffffff" stroke="transparent" points="251.5,-217.4027 251.5,-236.4027 296.5,-236.4027 296.5,-217.4027 251.5,-217.4027"/>
<polygon fill="none" stroke="#000000" points="251.5,-217.4027 251.5,-236.4027 296.5,-236.4027 296.5,-217.4027 251.5,-217.4027"/>
<text text-anchor="start" x="261.1105" y="-223.5027" font-family="Helvetica,sans-Serif" font-size="11.00" fill="#000000">0 rows</text>
<polygon fill="#ffffff" stroke="transparent" points="296.5,-217.4027 296.5,-236.4027 324.5,-236.4027 324.5,-217.4027 296.5,-217.4027"/>
<polygon fill="none" stroke="#000000" points="296.5,-217.4027 296.5,-236.4027 324.5,-236.4027 324.5,-217.4027 296.5,-217.4027"/>
<text text-anchor="start" x="305.9053" y="-223.5027" font-family="Helvetica,sans-Serif" font-size="11.00" fill="#000000">9 &gt;</text>
</a>
</g>
</g>
<!-- data_histogram_bin_data&#45;&gt;data_position -->
<g id="edge3" class="edge">
<title>data_histogram_bin_data:w&#45;&gt;data_position:e</title>
<path fill="none" stroke="#000000" d="M416.6405,-411.8246C376.6926,-402.4419 373.3271,-354.4027 324.5,-354.4027"/>
<polygon fill="#000000" stroke="#000000" points="423.0479,-412.5287 430.6067,-416.9811 427.0239,-412.9657 431,-413.4027 431,-413.4027 431,-413.4027 427.0239,-412.9657 431.3933,-409.8242 423.0479,-412.5287 423.0479,-412.5287"/>
<ellipse fill="none" stroke="#000000" cx="419.867" cy="-412.1791" rx="3.2" ry="3.2"/>
</g>
<!-- data_histogram_bin_data&#45;&gt;data_position -->
<g id="edge4" class="edge">
<title>data_histogram_bin_data:w&#45;&gt;data_position:e</title>
<path fill="none" stroke="#000000" d="M416.5158,-411.4392C363.2541,-395.5365 392.0685,-288.4027 324.5,-288.4027"/>
<polygon fill="#000000" stroke="#000000" points="423.0725,-412.328 430.5164,-416.97 427.0363,-412.8653 431,-413.4027 431,-413.4027 431,-413.4027 427.0363,-412.8653 431.4836,-409.8353 423.0725,-412.328 423.0725,-412.328"/>
<ellipse fill="none" stroke="#000000" cx="419.9015" cy="-411.8981" rx="3.2" ry="3.2"/>
</g>
<!-- data_histogram_bin_data&#45;&gt;data_position -->
<g id="edge6" class="edge">
<title>data_histogram_bin_data:w&#45;&gt;data_position:e</title>
<path fill="none" stroke="#000000" d="M416.6411,-411.544C357.0101,-394.5275 399.8202,-266.4027 324.5,-266.4027"/>
<polygon fill="#000000" stroke="#000000" points="423.0662,-412.3757 430.5378,-416.9729 427.0331,-412.8892 431,-413.4027 431,-413.4027 431,-413.4027 427.0331,-412.8892 431.4622,-409.8324 423.0662,-412.3757 423.0662,-412.3757"/>
<ellipse fill="none" stroke="#000000" cx="419.8927" cy="-411.9649" rx="3.2" ry="3.2"/>
</g>
<!-- submission -->
<g id="node4" class="node">
<title>submission</title>
<g id="a_node4"><a xlink:href="../../tables/submission.html" xlink:title="submission" target="_top">
<polygon fill="#ffffff" stroke="transparent" points="14.5,-192.9027 14.5,-275.9027 133.5,-275.9027 133.5,-192.9027 14.5,-192.9027"/>
<polygon fill="#f5f5f5" stroke="transparent" points="15,-252.4027 15,-275.4027 134,-275.4027 134,-252.4027 15,-252.4027"/>
<polygon fill="none" stroke="#000000" points="15,-252.4027 15,-275.4027 134,-275.4027 134,-252.4027 15,-252.4027"/>
<text text-anchor="start" x="20" y="-261.5027" font-family="Helvetica,sans-Serif" font-weight="bold" font-size="11.00" fill="#000000">submission</text>
<text text-anchor="start" x="99.0437" y="-260.5027" font-family="Helvetica,sans-Serif" font-size="11.00" fill="#000000">[table]</text>
<polygon fill="none" stroke="#000000" points="15,-230.4027 15,-252.4027 134,-252.4027 134,-230.4027 15,-230.4027"/>
<image xlink:href="../../images/primaryKeys.png" width="11px" height="12px" preserveAspectRatio="xMinYMin meet" x="20" y="-247.403"/>
<text text-anchor="start" x="35" y="-237.5027" font-family="Helvetica,sans-Serif" font-size="11.00" fill="#000000">submission_id</text>
<polygon fill="none" stroke="#000000" points="15,-211.4027 15,-230.4027 134,-230.4027 134,-211.4027 15,-211.4027"/>
<text text-anchor="start" x="18" y="-217.5027" font-family="Helvetica,sans-Serif" font-size="11.00" fill="#000000">...</text>
<polygon fill="#ffffff" stroke="transparent" points="15,-192.4027 15,-211.4027 51,-211.4027 51,-192.4027 15,-192.4027"/>
<polygon fill="none" stroke="#000000" points="15,-192.4027 15,-211.4027 51,-211.4027 51,-192.4027 15,-192.4027"/>
<text text-anchor="start" x="18" y="-198.5027" font-family="Helvetica,sans-Serif" font-size="11.00" fill="#000000"> &#160;</text>
<polygon fill="#ffffff" stroke="transparent" points="51,-192.4027 51,-211.4027 101,-211.4027 101,-192.4027 51,-192.4027"/>
<polygon fill="none" stroke="#000000" points="51,-192.4027 51,-211.4027 101,-211.4027 101,-192.4027 51,-192.4027"/>
<text text-anchor="start" x="65.6105" y="-198.5027" font-family="Helvetica,sans-Serif" font-size="11.00" fill="#000000">0 rows</text>
<polygon fill="#ffffff" stroke="transparent" points="101,-192.4027 101,-211.4027 134,-211.4027 134,-192.4027 101,-192.4027"/>
<polygon fill="none" stroke="#000000" points="101,-192.4027 101,-211.4027 134,-211.4027 134,-192.4027 101,-192.4027"/>
<text text-anchor="start" x="115.4053" y="-198.5027" font-family="Helvetica,sans-Serif" font-size="11.00" fill="#000000">6 &gt;</text>
</a>
</g>
</g>
<!-- data_histogram_bin_data&#45;&gt;submission -->
<g id="edge5" class="edge">
<title>data_histogram_bin_data:w&#45;&gt;submission:e</title>
<path fill="none" stroke="#000000" d="M416.3145,-413.742C352.4635,-416.2702 221.2447,-431.2083 181,-399.4027 123.5202,-353.976 207.2633,-241.4027 134,-241.4027"/>
<polygon fill="#000000" stroke="#000000" points="423.0021,-413.5875 431.0832,-417.0017 427.0011,-413.4951 431,-413.4027 431,-413.4027 431,-413.4027 427.0011,-413.4951 430.9168,-409.8036 423.0021,-413.5875 423.0021,-413.5875"/>
<ellipse fill="none" stroke="#000000" cx="419.803" cy="-413.6615" rx="3.2" ry="3.2"/>
</g>
<!-- observation_types -->
<g id="node5" class="node">
<title>observation_types</title>
<g id="a_node5"><a xlink:href="../../tables/observation_types.html" xlink:title="observation_types" target="_top">
<polygon fill="#ffffff" stroke="transparent" points="8,-452.9027 8,-557.9027 140,-557.9027 140,-452.9027 8,-452.9027"/>
<polygon fill="#f5f5f5" stroke="transparent" points="8,-534.4027 8,-557.4027 140,-557.4027 140,-534.4027 8,-534.4027"/>
<polygon fill="none" stroke="#000000" points="8,-534.4027 8,-557.4027 140,-557.4027 140,-534.4027 8,-534.4027"/>
<text text-anchor="start" x="12.8746" y="-543.5027" font-family="Helvetica,sans-Serif" font-weight="bold" font-size="11.00" fill="#000000">observation_types</text>
<text text-anchor="start" x="105.5219" y="-542.5027" font-family="Helvetica,sans-Serif" font-size="11.00" fill="#000000">[table]</text>
<polygon fill="none" stroke="#000000" points="8,-512.4027 8,-534.4027 140,-534.4027 140,-512.4027 8,-512.4027"/>
<image xlink:href="../../images/primaryKeys.png" width="11px" height="12px" preserveAspectRatio="xMinYMin meet" x="13" y="-529.403"/>
<text text-anchor="start" x="31" y="-519.5027" font-family="Helvetica,sans-Serif" font-size="11.00" fill="#000000">variable_id</text>
<polygon fill="#ffffff" stroke="transparent" points="8,-490.4027 8,-512.4027 140,-512.4027 140,-490.4027 8,-490.4027"/>
<polygon fill="none" stroke="#000000" points="8,-490.4027 8,-512.4027 140,-512.4027 140,-490.4027 8,-490.4027"/>
<text text-anchor="start" x="31" y="-497.5027" font-family="Helvetica,sans-Serif" font-size="11.00" fill="#000000">variable_name</text>
<polygon fill="none" stroke="#000000" points="8,-471.4027 8,-490.4027 140,-490.4027 140,-471.4027 8,-471.4027"/>
<text text-anchor="start" x="11" y="-477.5027" font-family="Helvetica,sans-Serif" font-size="11.00" fill="#000000">...</text>
<polygon fill="#ffffff" stroke="transparent" points="8,-452.4027 8,-471.4027 44,-471.4027 44,-452.4027 8,-452.4027"/>
<polygon fill="none" stroke="#000000" points="8,-452.4027 8,-471.4027 44,-471.4027 44,-452.4027 8,-452.4027"/>
<text text-anchor="start" x="11" y="-458.5027" font-family="Helvetica,sans-Serif" font-size="11.00" fill="#000000"> &#160;</text>
<polygon fill="#ffffff" stroke="transparent" points="44,-452.4027 44,-471.4027 106,-471.4027 106,-452.4027 44,-452.4027"/>
<polygon fill="none" stroke="#000000" points="44,-452.4027 44,-471.4027 106,-471.4027 106,-452.4027 44,-452.4027"/>
<text text-anchor="start" x="58.3807" y="-458.5027" font-family="Helvetica,sans-Serif" font-size="11.00" fill="#000000">204 rows</text>
<polygon fill="#ffffff" stroke="transparent" points="106,-452.4027 106,-471.4027 140,-471.4027 140,-452.4027 106,-452.4027"/>
<polygon fill="none" stroke="#000000" points="106,-452.4027 106,-471.4027 140,-471.4027 140,-452.4027 106,-452.4027"/>
<text text-anchor="start" x="121.4053" y="-458.5027" font-family="Helvetica,sans-Serif" font-size="11.00" fill="#000000">5 &gt;</text>
</a>
</g>
</g>
<!-- data_histogram_bin_data&#45;&gt;observation_types -->
<g id="edge7" class="edge">
<title>data_histogram_bin_data:w&#45;&gt;observation_types:e</title>
<path fill="none" stroke="#000000" d="M416.4143,-414.8C345.4295,-430.0693 434.3821,-566.3631 360,-619.4027 295.2257,-665.5912 247.3887,-663.239 181,-619.4027 142.2836,-593.8383 186.395,-523.4027 140,-523.4027"/>
<polygon fill="#000000" stroke="#000000" points="423.0365,-414.1656 431.3433,-416.9863 427.0182,-413.7841 431,-413.4027 431,-413.4027 431,-413.4027 427.0182,-413.7841 430.6567,-409.8191 423.0365,-414.1656 423.0365,-414.1656"/>
<ellipse fill="none" stroke="#000000" cx="419.851" cy="-414.4708" rx="3.2" ry="3.2"/>
</g>
<!-- data_histogram_bin_info&#45;&gt;observation_types -->
<g id="edge8" class="edge">
<title>data_histogram_bin_info:w&#45;&gt;observation_types:e</title>
<path fill="none" stroke="#000000" d="M175.8175,-570.6038C161.3354,-557.7308 165.9253,-523.4027 140,-523.4027"/>
<polygon fill="#000000" stroke="#000000" points="181.9508,-572.7549 188.3085,-578.7998 185.7254,-574.0788 189.5,-575.4027 189.5,-575.4027 189.5,-575.4027 185.7254,-574.0788 190.6915,-572.0055 181.9508,-572.7549 181.9508,-572.7549"/>
<ellipse fill="none" stroke="#000000" cx="178.9312" cy="-571.6958" rx="3.2" ry="3.2"/>
</g>
<!-- data_position&#45;&gt;submission -->
<g id="edge9" class="edge">
<title>data_position:w&#45;&gt;submission:e</title>
<path fill="none" stroke="#000000" d="M202.1901,-286.261C174.0574,-277.0665 170.7596,-241.4027 134,-241.4027"/>
<polygon fill="#000000" stroke="#000000" points="208.5881,-287.2185 215.9671,-291.963 212.5441,-287.8106 216.5,-288.4027 216.5,-288.4027 216.5,-288.4027 212.5441,-287.8106 217.0329,-284.8423 208.5881,-287.2185 208.5881,-287.2185"/>
<ellipse fill="none" stroke="#000000" cx="205.4234" cy="-286.7449" rx="3.2" ry="3.2"/>
</g>
<!-- data_profile -->
<g id="node6" class="node">
<title>data_profile</title>
<g id="a_node6"><a xlink:href="../../tables/data_profile.html" xlink:title="data_profile" target="_top">
<polygon fill="#ffffff" stroke="transparent" points="401,-64.4027 401,-264.4027 627,-264.4027 627,-64.4027 401,-64.4027"/>
<polygon fill="#f5f5f5" stroke="transparent" points="403,-239.4027 403,-262.4027 625,-262.4027 625,-239.4027 403,-239.4027"/>
<polygon fill="none" stroke="#000000" points="403,-239.4027 403,-262.4027 625,-262.4027 625,-239.4027 403,-239.4027"/>
<text text-anchor="start" x="408" y="-248.5027" font-family="Helvetica,sans-Serif" font-weight="bold" font-size="11.00" fill="#000000">data_profile</text>
<text text-anchor="start" x="590.0437" y="-247.5027" font-family="Helvetica,sans-Serif" font-size="11.00" fill="#000000">[table]</text>
<polygon fill="none" stroke="#000000" points="403,-217.4027 403,-239.4027 533,-239.4027 533,-217.4027 403,-217.4027"/>
<image xlink:href="../../images/primaryKeys.png" width="11px" height="12px" preserveAspectRatio="xMinYMin meet" x="408" y="-234.403"/>
<text text-anchor="start" x="423" y="-224.5027" font-family="Helvetica,sans-Serif" font-size="11.00" fill="#000000">submission_id</text>
<polygon fill="none" stroke="#000000" points="533,-217.4027 533,-239.4027 625,-239.4027 625,-217.4027 533,-217.4027"/>
<text text-anchor="start" x="536" y="-225.1027" font-family="Helvetica,sans-Serif" font-size="11.00" fill="#000000">int8[19]</text>
<polygon fill="none" stroke="#000000" points="403,-195.4027 403,-217.4027 533,-217.4027 533,-195.4027 403,-195.4027"/>
<image xlink:href="../../images/primaryKeys.png" width="11px" height="12px" preserveAspectRatio="xMinYMin meet" x="408" y="-212.403"/>
<text text-anchor="start" x="423" y="-202.5027" font-family="Helvetica,sans-Serif" font-size="11.00" fill="#000000">tag_id</text>
<polygon fill="none" stroke="#000000" points="533,-195.4027 533,-217.4027 625,-217.4027 625,-195.4027 533,-195.4027"/>
<text text-anchor="start" x="536" y="-203.1027" font-family="Helvetica,sans-Serif" font-size="11.00" fill="#000000">int8[19]</text>
<polygon fill="none" stroke="#000000" points="403,-173.4027 403,-195.4027 533,-195.4027 533,-173.4027 403,-173.4027"/>
<image xlink:href="../../images/primaryKeys.png" width="11px" height="12px" preserveAspectRatio="xMinYMin meet" x="408" y="-190.403"/>
<text text-anchor="start" x="423" y="-180.5027" font-family="Helvetica,sans-Serif" font-size="11.00" fill="#000000">variable_id</text>
<polygon fill="none" stroke="#000000" points="533,-173.4027 533,-195.4027 625,-195.4027 625,-173.4027 533,-173.4027"/>
<text text-anchor="start" x="536" y="-181.1027" font-family="Helvetica,sans-Serif" font-size="11.00" fill="#000000">int8[19]</text>
<polygon fill="none" stroke="#000000" points="403,-151.4027 403,-173.4027 533,-173.4027 533,-151.4027 403,-151.4027"/>
<image xlink:href="../../images/primaryKeys.png" width="11px" height="12px" preserveAspectRatio="xMinYMin meet" x="408" y="-168.403"/>
<text text-anchor="start" x="423" y="-158.5027" font-family="Helvetica,sans-Serif" font-size="11.00" fill="#000000">date_time</text>
<polygon fill="none" stroke="#000000" points="533,-151.4027 533,-173.4027 625,-173.4027 625,-151.4027 533,-151.4027"/>
<text text-anchor="start" x="535.6023" y="-159.1027" font-family="Helvetica,sans-Serif" font-size="11.00" fill="#000000">timestamptz[35,6]</text>
<polygon fill="none" stroke="#000000" points="403,-129.4027 403,-151.4027 533,-151.4027 533,-129.4027 403,-129.4027"/>
<image xlink:href="../../images/primaryKeys.png" width="11px" height="12px" preserveAspectRatio="xMinYMin meet" x="408" y="-146.403"/>
<text text-anchor="start" x="423" y="-136.5027" font-family="Helvetica,sans-Serif" font-size="11.00" fill="#000000">depth</text>
<polygon fill="none" stroke="#000000" points="533,-129.4027 533,-151.4027 625,-151.4027 625,-129.4027 533,-129.4027"/>
<text text-anchor="start" x="536" y="-137.1027" font-family="Helvetica,sans-Serif" font-size="11.00" fill="#000000">float8[17,17]</text>
<polygon fill="none" stroke="#000000" points="403,-107.4027 403,-129.4027 533,-129.4027 533,-107.4027 403,-107.4027"/>
<text text-anchor="start" x="423" y="-114.5027" font-family="Helvetica,sans-Serif" font-size="11.00" fill="#000000">variable_value</text>
<polygon fill="none" stroke="#000000" points="533,-107.4027 533,-129.4027 625,-129.4027 625,-107.4027 533,-107.4027"/>
<text text-anchor="start" x="536" y="-115.1027" font-family="Helvetica,sans-Serif" font-size="11.00" fill="#000000">float8[17,17]</text>
<polygon fill="#ffffff" stroke="transparent" points="403,-85.4027 403,-107.4027 533,-107.4027 533,-85.4027 403,-85.4027"/>
<polygon fill="none" stroke="#000000" points="403,-85.4027 403,-107.4027 533,-107.4027 533,-85.4027 403,-85.4027"/>
<image xlink:href="../../images/foreignKeys.png" width="11px" height="12px" preserveAspectRatio="xMinYMin meet" x="408" y="-102.403"/>
<text text-anchor="start" x="423" y="-92.5027" font-family="Helvetica,sans-Serif" font-size="11.00" fill="#000000">position_date_time</text>
<polygon fill="none" stroke="#000000" points="533,-85.4027 533,-107.4027 625,-107.4027 625,-85.4027 533,-85.4027"/>
<text text-anchor="start" x="535.6023" y="-93.1027" font-family="Helvetica,sans-Serif" font-size="11.00" fill="#000000">timestamptz[35,6]</text>
<polygon fill="#ffffff" stroke="transparent" points="403,-66.4027 403,-85.4027 459,-85.4027 459,-66.4027 403,-66.4027"/>
<polygon fill="none" stroke="#000000" points="403,-66.4027 403,-85.4027 459,-85.4027 459,-66.4027 403,-66.4027"/>
<text text-anchor="start" x="406" y="-72.5027" font-family="Helvetica,sans-Serif" font-size="11.00" fill="#000000">&lt; 5</text>
<polygon fill="#ffffff" stroke="transparent" points="459,-66.4027 459,-85.4027 533,-85.4027 533,-66.4027 459,-66.4027"/>
<polygon fill="none" stroke="#000000" points="459,-66.4027 459,-85.4027 533,-85.4027 533,-66.4027 459,-66.4027"/>
<text text-anchor="start" x="497.6105" y="-72.5027" font-family="Helvetica,sans-Serif" font-size="11.00" fill="#000000">0 rows</text>
<polygon fill="#ffffff" stroke="transparent" points="533,-66.4027 533,-85.4027 625,-85.4027 625,-66.4027 533,-66.4027"/>
<polygon fill="none" stroke="#000000" points="533,-66.4027 533,-85.4027 625,-85.4027 625,-66.4027 533,-66.4027"/>
<text text-anchor="start" x="606.4053" y="-72.5027" font-family="Helvetica,sans-Serif" font-size="11.00" fill="#000000">0 &gt;</text>
<polygon fill="none" stroke="#000000" stroke-width="2" points="402,-65.4027 402,-263.4027 626,-263.4027 626,-65.4027 402,-65.4027"/>
</a>
</g>
</g>
<!-- data_profile&#45;&gt;data_position -->
<g id="edge10" class="edge">
<title>data_profile:w&#45;&gt;data_position:e</title>
<path fill="none" stroke="#000000" d="M389.4082,-102.0313C349.5589,-139.7612 379.1613,-354.4027 324.5,-354.4027"/>
<polygon fill="#000000" stroke="#000000" points="395.6087,-99.4636 404.3774,-99.7287 399.3044,-97.9331 403,-96.4027 403,-96.4027 403,-96.4027 399.3044,-97.9331 401.6226,-93.0766 395.6087,-99.4636 395.6087,-99.4636"/>
<ellipse fill="none" stroke="#000000" cx="392.6522" cy="-100.6879" rx="3.2" ry="3.2"/>
</g>
<!-- data_profile&#45;&gt;data_position -->
<g id="edge11" class="edge">
<title>data_profile:w&#45;&gt;data_position:e</title>
<path fill="none" stroke="#000000" d="M388.8203,-230.9808C360.5867,-242.4652 362.9238,-288.4027 324.5,-288.4027"/>
<polygon fill="#000000" stroke="#000000" points="395.129,-229.8338 403.644,-231.9446 399.0645,-229.1182 403,-228.4027 403,-228.4027 403,-228.4027 399.0645,-229.1182 402.356,-224.8607 395.129,-229.8338 395.129,-229.8338"/>
<ellipse fill="none" stroke="#000000" cx="391.9807" cy="-230.4062" rx="3.2" ry="3.2"/>
</g>
<!-- data_profile&#45;&gt;data_position -->
<g id="edge13" class="edge">
<title>data_profile:w&#45;&gt;data_position:e</title>
<path fill="none" stroke="#000000" d="M388.8203,-208.9808C360.5867,-220.4652 362.9238,-266.4027 324.5,-266.4027"/>
<polygon fill="#000000" stroke="#000000" points="395.129,-207.8338 403.644,-209.9446 399.0645,-207.1182 403,-206.4027 403,-206.4027 403,-206.4027 399.0645,-207.1182 402.356,-202.8607 395.129,-207.8338 395.129,-207.8338"/>
<ellipse fill="none" stroke="#000000" cx="391.9807" cy="-208.4062" rx="3.2" ry="3.2"/>
</g>
<!-- data_profile&#45;&gt;submission -->
<g id="edge12" class="edge">
<title>data_profile:w&#45;&gt;submission:e</title>
<path fill="none" stroke="#000000" d="M388.7338,-226.4062C343.0236,-211.0448 413.3065,-111.1406 360,-70.4027 296.7896,-22.096 244.2711,-22.1755 181,-70.4027 118.3152,-118.183 212.8184,-241.4027 134,-241.4027"/>
<polygon fill="#000000" stroke="#000000" points="395.0772,-227.2939 402.501,-231.9679 399.0386,-227.8483 403,-228.4027 403,-228.4027 403,-228.4027 399.0386,-227.8483 403.499,-224.8374 395.0772,-227.2939 395.0772,-227.2939"/>
<ellipse fill="none" stroke="#000000" cx="391.9081" cy="-226.8504" rx="3.2" ry="3.2"/>
</g>
<!-- data_profile&#45;&gt;observation_types -->
<g id="edge14" class="edge">
<title>data_profile:w&#45;&gt;observation_types:e</title>
<path fill="none" stroke="#000000" d="M388.5236,-184.0786C298.6011,-180.084 248.5018,-141.6197 181,-207.4027 130.2877,-256.8236 210.8108,-523.4027 140,-523.4027"/>
<polygon fill="#000000" stroke="#000000" points="395.002,-184.2236 402.9194,-188.0018 399.001,-184.3131 403,-184.4027 403,-184.4027 403,-184.4027 399.001,-184.3131 403.0806,-180.8036 395.002,-184.2236 395.002,-184.2236"/>
<ellipse fill="none" stroke="#000000" cx="391.8028" cy="-184.1519" rx="3.2" ry="3.2"/>
</g>
<!-- data_time_series -->
<g id="node7" class="node">
<title>data_time_series</title>
<g id="a_node7"><a xlink:href="../../tables/data_time_series.html" xlink:title="data_time_series" target="_top">
<polygon fill="#ffffff" stroke="transparent" points="451,-285.9027 451,-346.9027 577,-346.9027 577,-285.9027 451,-285.9027"/>
<polygon fill="#f5f5f5" stroke="transparent" points="451,-323.4027 451,-346.4027 577,-346.4027 577,-323.4027 451,-323.4027"/>
<polygon fill="none" stroke="#000000" points="451,-323.4027 451,-346.4027 577,-346.4027 577,-323.4027 451,-323.4027"/>
<text text-anchor="start" x="455.6307" y="-332.5027" font-family="Helvetica,sans-Serif" font-weight="bold" font-size="11.00" fill="#000000">data_time_series</text>
<text text-anchor="start" x="542.5219" y="-331.5027" font-family="Helvetica,sans-Serif" font-size="11.00" fill="#000000">[table]</text>
<polygon fill="none" stroke="#000000" points="451,-304.4027 451,-323.4027 577,-323.4027 577,-304.4027 451,-304.4027"/>
<text text-anchor="start" x="454" y="-310.5027" font-family="Helvetica,sans-Serif" font-size="11.00" fill="#000000">...</text>
<polygon fill="#ffffff" stroke="transparent" points="451,-285.4027 451,-304.4027 499,-304.4027 499,-285.4027 451,-285.4027"/>
<polygon fill="none" stroke="#000000" points="451,-285.4027 451,-304.4027 499,-304.4027 499,-285.4027 451,-285.4027"/>
<text text-anchor="start" x="454" y="-291.5027" font-family="Helvetica,sans-Serif" font-size="11.00" fill="#000000">&lt; 5</text>
<polygon fill="#ffffff" stroke="transparent" points="499,-285.4027 499,-304.4027 551,-304.4027 551,-285.4027 499,-285.4027"/>
<polygon fill="none" stroke="#000000" points="499,-285.4027 499,-304.4027 551,-304.4027 551,-285.4027 499,-285.4027"/>
<text text-anchor="start" x="515.6105" y="-291.5027" font-family="Helvetica,sans-Serif" font-size="11.00" fill="#000000">0 rows</text>
<polygon fill="#ffffff" stroke="transparent" points="551,-285.4027 551,-304.4027 577,-304.4027 577,-285.4027 551,-285.4027"/>
<polygon fill="none" stroke="#000000" points="551,-285.4027 551,-304.4027 577,-304.4027 577,-285.4027 551,-285.4027"/>
<text text-anchor="start" x="567.8862" y="-291.5027" font-family="Helvetica,sans-Serif" font-size="11.00" fill="#000000"> &#160;</text>
</a>
</g>
</g>
<!-- data_time_series&#45;&gt;data_position -->
<g id="edge15" class="edge">
<title>data_time_series:w&#45;&gt;data_position:e</title>
<path fill="none" stroke="#000000" d="M436.525,-314.2971C390.0476,-320.293 378.407,-354.4027 324.5,-354.4027"/>
<polygon fill="#000000" stroke="#000000" points="443.0152,-313.8961 451.2221,-316.9958 447.0076,-313.6494 451,-313.4027 451,-313.4027 451,-313.4027 447.0076,-313.6494 450.7779,-309.8095 443.0152,-313.8961 443.0152,-313.8961"/>
<ellipse fill="none" stroke="#000000" cx="439.8213" cy="-314.0935" rx="3.2" ry="3.2"/>
</g>
<!-- data_time_series&#45;&gt;data_position -->
<g id="edge16" class="edge">
<title>data_time_series:w&#45;&gt;data_position:e</title>
<path fill="none" stroke="#000000" d="M436.5875,-312.8335C391.1888,-309.1123 376.6607,-288.4027 324.5,-288.4027"/>
<polygon fill="#000000" stroke="#000000" points="443.0062,-313.0869 450.8579,-316.9999 447.0031,-313.2448 451,-313.4027 451,-313.4027 451,-313.4027 447.0031,-313.2448 451.1421,-309.8055 443.0062,-313.0869 443.0062,-313.0869"/>
<ellipse fill="none" stroke="#000000" cx="439.8087" cy="-312.9607" rx="3.2" ry="3.2"/>
</g>
<!-- data_time_series&#45;&gt;data_position -->
<g id="edge18" class="edge">
<title>data_time_series:w&#45;&gt;data_position:e</title>
<path fill="none" stroke="#000000" d="M436.3514,-312.3773C389.4594,-305.504 379.2059,-266.4027 324.5,-266.4027"/>
<polygon fill="#000000" stroke="#000000" points="443.0195,-312.844 450.7486,-316.9939 447.0098,-313.1233 451,-313.4027 451,-313.4027 451,-313.4027 447.0098,-313.1233 451.2514,-309.8114 443.0195,-312.844 443.0195,-312.844"/>
<ellipse fill="none" stroke="#000000" cx="439.8273" cy="-312.6205" rx="3.2" ry="3.2"/>
</g>
<!-- data_time_series&#45;&gt;submission -->
<g id="edge17" class="edge">
<title>data_time_series:w&#45;&gt;submission:e</title>
<path fill="none" stroke="#000000" d="M436.4112,-311.936C417.1521,-307.5415 409.7686,-293.5895 393,-274.4027 371.1564,-249.409 388.1839,-224.9381 360,-207.4027 292.4515,-165.3754 256.6871,-182.8965 181,-207.4027 156.4721,-215.3444 159.7816,-241.4027 134,-241.4027"/>
<polygon fill="#000000" stroke="#000000" points="443.0401,-312.6024 450.6399,-316.9846 447.0201,-313.0025 451,-313.4027 451,-313.4027 451,-313.4027 447.0201,-313.0025 451.3601,-309.8207 443.0401,-312.6024 443.0401,-312.6024"/>
<ellipse fill="none" stroke="#000000" cx="439.8562" cy="-312.2823" rx="3.2" ry="3.2"/>
</g>
<!-- data_time_series&#45;&gt;observation_types -->
<g id="edge19" class="edge">
<title>data_time_series:w&#45;&gt;observation_types:e</title>
<path fill="none" stroke="#000000" d="M436.3729,-315.2281C412.2429,-322.0566 408.3139,-347.1543 393,-375.4027 363.7684,-429.3238 407.0519,-470.0568 360,-509.4027 322.42,-540.8279 188.9878,-523.4027 140,-523.4027"/>
<polygon fill="#000000" stroke="#000000" points="443.0616,-314.3934 451.4458,-316.9749 447.0308,-313.898 451,-313.4027 451,-313.4027 451,-313.4027 447.0308,-313.898 450.5542,-309.8304 443.0616,-314.3934 443.0616,-314.3934"/>
<ellipse fill="none" stroke="#000000" cx="439.8862" cy="-314.7897" rx="3.2" ry="3.2"/>
</g>
<!-- metadata -->
<g id="node8" class="node">
<title>metadata</title>
<g id="a_node8"><a xlink:href="../../tables/metadata.html" xlink:title="metadata" target="_top">
<polygon fill="#ffffff" stroke="transparent" points="226.5,-80.9027 226.5,-141.9027 314.5,-141.9027 314.5,-80.9027 226.5,-80.9027"/>
<polygon fill="#f5f5f5" stroke="transparent" points="226.5,-118.4027 226.5,-141.4027 314.5,-141.4027 314.5,-118.4027 226.5,-118.4027"/>
<polygon fill="none" stroke="#000000" points="226.5,-118.4027 226.5,-141.4027 314.5,-141.4027 314.5,-118.4027 226.5,-118.4027"/>
<text text-anchor="start" x="231.0749" y="-127.5027" font-family="Helvetica,sans-Serif" font-weight="bold" font-size="11.00" fill="#000000">metadata</text>
<text text-anchor="start" x="280.0219" y="-126.5027" font-family="Helvetica,sans-Serif" font-size="11.00" fill="#000000">[table]</text>
<polygon fill="none" stroke="#000000" points="226.5,-99.4027 226.5,-118.4027 314.5,-118.4027 314.5,-99.4027 226.5,-99.4027"/>
<text text-anchor="start" x="229.5" y="-105.5027" font-family="Helvetica,sans-Serif" font-size="11.00" fill="#000000">...</text>
<polygon fill="#ffffff" stroke="transparent" points="226.5,-80.4027 226.5,-99.4027 255.5,-99.4027 255.5,-80.4027 226.5,-80.4027"/>
<polygon fill="none" stroke="#000000" points="226.5,-80.4027 226.5,-99.4027 255.5,-99.4027 255.5,-80.4027 226.5,-80.4027"/>
<text text-anchor="start" x="229.5" y="-86.5027" font-family="Helvetica,sans-Serif" font-size="11.00" fill="#000000">&lt; 2</text>
<polygon fill="#ffffff" stroke="transparent" points="255.5,-80.4027 255.5,-99.4027 297.5,-99.4027 297.5,-80.4027 255.5,-80.4027"/>
<polygon fill="none" stroke="#000000" points="255.5,-80.4027 255.5,-99.4027 297.5,-99.4027 297.5,-80.4027 255.5,-80.4027"/>
<text text-anchor="start" x="262.1105" y="-86.5027" font-family="Helvetica,sans-Serif" font-size="11.00" fill="#000000">0 rows</text>
<polygon fill="#ffffff" stroke="transparent" points="297.5,-80.4027 297.5,-99.4027 314.5,-99.4027 314.5,-80.4027 297.5,-80.4027"/>
<polygon fill="none" stroke="#000000" points="297.5,-80.4027 297.5,-99.4027 314.5,-99.4027 314.5,-80.4027 297.5,-80.4027"/>
<text text-anchor="start" x="305.3862" y="-86.5027" font-family="Helvetica,sans-Serif" font-size="11.00" fill="#000000"> &#160;</text>
</a>
</g>
</g>
<!-- metadata&#45;&gt;submission -->
<g id="edge20" class="edge">
<title>metadata:w&#45;&gt;submission:e</title>
<path fill="none" stroke="#000000" d="M211.9687,-111.1999C196.8478,-118.2436 194.8357,-137.5015 181,-156.4027 155.502,-191.2359 177.1683,-241.4027 134,-241.4027"/>
<polygon fill="#000000" stroke="#000000" points="218.6442,-109.9149 227.1805,-111.9378 222.5721,-109.1588 226.5,-108.4027 226.5,-108.4027 226.5,-108.4027 222.5721,-109.1588 225.8195,-104.8676 218.6442,-109.9149 218.6442,-109.9149"/>
<ellipse fill="none" stroke="#000000" cx="215.5019" cy="-110.5199" rx="3.2" ry="3.2"/>
</g>
<!-- proc_observations -->
<g id="node9" class="node">
<title>proc_observations</title>
<g id="a_node9"><a xlink:href="../../tables/proc_observations.html" xlink:title="proc_observations" target="_top">
<polygon fill="#ffffff" stroke="transparent" points="204.5,-437.9027 204.5,-498.9027 336.5,-498.9027 336.5,-437.9027 204.5,-437.9027"/>
<polygon fill="#f5f5f5" stroke="transparent" points="204.5,-475.4027 204.5,-498.4027 336.5,-498.4027 336.5,-475.4027 204.5,-475.4027"/>
<polygon fill="none" stroke="#000000" points="204.5,-475.4027 204.5,-498.4027 336.5,-498.4027 336.5,-475.4027 204.5,-475.4027"/>
<text text-anchor="start" x="209.0722" y="-484.5027" font-family="Helvetica,sans-Serif" font-weight="bold" font-size="11.00" fill="#000000">proc_observations</text>
<text text-anchor="start" x="302.0219" y="-483.5027" font-family="Helvetica,sans-Serif" font-size="11.00" fill="#000000">[table]</text>
<polygon fill="none" stroke="#000000" points="204.5,-456.4027 204.5,-475.4027 336.5,-475.4027 336.5,-456.4027 204.5,-456.4027"/>
<text text-anchor="start" x="207.5" y="-462.5027" font-family="Helvetica,sans-Serif" font-size="11.00" fill="#000000">...</text>
<polygon fill="#ffffff" stroke="transparent" points="204.5,-437.4027 204.5,-456.4027 255.5,-456.4027 255.5,-437.4027 204.5,-437.4027"/>
<polygon fill="none" stroke="#000000" points="204.5,-437.4027 204.5,-456.4027 255.5,-456.4027 255.5,-437.4027 204.5,-437.4027"/>
<text text-anchor="start" x="207.5" y="-443.5027" font-family="Helvetica,sans-Serif" font-size="11.00" fill="#000000">&lt; 2</text>
<polygon fill="#ffffff" stroke="transparent" points="255.5,-437.4027 255.5,-456.4027 308.5,-456.4027 308.5,-437.4027 255.5,-437.4027"/>
<polygon fill="none" stroke="#000000" points="255.5,-437.4027 255.5,-456.4027 308.5,-456.4027 308.5,-437.4027 255.5,-437.4027"/>
<text text-anchor="start" x="273.1105" y="-443.5027" font-family="Helvetica,sans-Serif" font-size="11.00" fill="#000000">0 rows</text>
<polygon fill="#ffffff" stroke="transparent" points="308.5,-437.4027 308.5,-456.4027 336.5,-456.4027 336.5,-437.4027 308.5,-437.4027"/>
<polygon fill="none" stroke="#000000" points="308.5,-437.4027 308.5,-456.4027 336.5,-456.4027 336.5,-437.4027 308.5,-437.4027"/>
<text text-anchor="start" x="327.3862" y="-443.5027" font-family="Helvetica,sans-Serif" font-size="11.00" fill="#000000"> &#160;</text>
</a>
</g>
</g>
<!-- proc_observations&#45;&gt;submission -->
<g id="edge21" class="edge">
<title>proc_observations:w&#45;&gt;submission:e</title>
<path fill="none" stroke="#000000" d="M189.9412,-463.5996C114.0354,-442.4006 232.8661,-241.4027 134,-241.4027"/>
<polygon fill="#000000" stroke="#000000" points="196.5607,-464.4193 204.0575,-468.9754 200.5303,-464.911 204.5,-465.4027 204.5,-465.4027 204.5,-465.4027 200.5303,-464.911 204.9425,-461.83 196.5607,-464.4193 196.5607,-464.4193"/>
<ellipse fill="none" stroke="#000000" cx="193.3849" cy="-464.026" rx="3.2" ry="3.2"/>
</g>
<!-- proc_observations&#45;&gt;observation_types -->
<g id="edge22" class="edge">
<title>proc_observations:w&#45;&gt;observation_types:e</title>
<path fill="none" stroke="#000000" d="M190.3791,-468.8571C168.5626,-481.3435 172.8296,-523.4027 140,-523.4027"/>
<polygon fill="#000000" stroke="#000000" points="196.7291,-467.3037 205.3555,-468.8995 200.6146,-466.3532 204.5,-465.4027 204.5,-465.4027 204.5,-465.4027 200.6146,-466.3532 203.6445,-461.9058 196.7291,-467.3037 196.7291,-467.3037"/>
<ellipse fill="none" stroke="#000000" cx="193.6208" cy="-468.0642" rx="3.2" ry="3.2"/>
</g>
</g>
</svg>
