<?xml version="1.0" encoding="UTF-8" standalone="no"?>
<!DOCTYPE svg PUBLIC "-//W3C//DTD SVG 1.1//EN"
 "http://www.w3.org/Graphics/SVG/1.1/DTD/svg11.dtd">
<!-- Generated by graphviz version 2.40.1 (20161225.0304)
 -->
<!-- Title: oneDegreeRelationshipsDiagram Pages: 1 -->
<svg width="609pt" height="671pt"
 viewBox="0.00 0.00 609.00 671.20" xmlns="http://www.w3.org/2000/svg" xmlns:xlink="http://www.w3.org/1999/xlink">
<g id="graph0" class="graph" transform="scale(1 1) rotate(0) translate(4 667.2)">
<title>oneDegreeRelationshipsDiagram</title>
<polygon fill="#ffffff" stroke="transparent" points="-4,4 -4,-667.2 605,-667.2 605,4 -4,4"/>
<text text-anchor="middle" x="72.4936" y="-7.3" font-family="Helvetica,sans-Serif" font-size="11.00" fill="#000000">Generated by SchemaSpy</text>
<!-- data_histogram_bin_data -->
<g id="node1" class="node">
<title>data_histogram_bin_data</title>
<g id="a_node1"><a xlink:href="../../tables/data_histogram_bin_data.html" xlink:title="data_histogram_bin_data" target="_top">
<polygon fill="#ffffff" stroke="transparent" points="426,-444.2 426,-659.2 593,-659.2 593,-444.2 426,-444.2"/>
<polygon fill="#f5f5f5" stroke="transparent" points="426.5,-635.7 426.5,-658.7 593.5,-658.7 593.5,-635.7 426.5,-635.7"/>
<polygon fill="none" stroke="#000000" points="426.5,-635.7 426.5,-658.7 593.5,-658.7 593.5,-635.7 426.5,-635.7"/>
<text text-anchor="start" x="431.4501" y="-644.8" font-family="Helvetica,sans-Serif" font-weight="bold" font-size="11.00" fill="#000000">data_histogram_bin_data</text>
<text text-anchor="start" x="559.0219" y="-643.8" font-family="Helvetica,sans-Serif" font-size="11.00" fill="#000000">[table]</text>
<polygon fill="none" stroke="#000000" points="426.5,-613.7 426.5,-635.7 593.5,-635.7 593.5,-613.7 426.5,-613.7"/>
<image xlink:href="../../images/primaryKeys.png" width="11px" height="12px" preserveAspectRatio="xMinYMin meet" x="431.5" y="-630.7"/>
<text text-anchor="start" x="447.5" y="-620.8" font-family="Helvetica,sans-Serif" font-size="11.00" fill="#000000">submission_id</text>
<polygon fill="none" stroke="#000000" points="426.5,-591.7 426.5,-613.7 593.5,-613.7 593.5,-591.7 426.5,-591.7"/>
<image xlink:href="../../images/primaryKeys.png" width="11px" height="12px" preserveAspectRatio="xMinYMin meet" x="431.5" y="-608.7"/>
<text text-anchor="start" x="447.5" y="-598.8" font-family="Helvetica,sans-Serif" font-size="11.00" fill="#000000">tag_id</text>
<polygon fill="none" stroke="#000000" points="426.5,-569.7 426.5,-591.7 593.5,-591.7 593.5,-569.7 426.5,-569.7"/>
<image xlink:href="../../images/primaryKeys.png" width="11px" height="12px" preserveAspectRatio="xMinYMin meet" x="431.5" y="-586.7"/>
<text text-anchor="start" x="447.5" y="-576.8" font-family="Helvetica,sans-Serif" font-size="11.00" fill="#000000">bin_id</text>
<polygon fill="none" stroke="#000000" points="426.5,-547.7 426.5,-569.7 593.5,-569.7 593.5,-547.7 426.5,-547.7"/>
<image xlink:href="../../images/primaryKeys.png" width="11px" height="12px" preserveAspectRatio="xMinYMin meet" x="431.5" y="-564.7"/>
<text text-anchor="start" x="447.5" y="-554.8" font-family="Helvetica,sans-Serif" font-size="11.00" fill="#000000">bin_class</text>
<polygon fill="none" stroke="#000000" points="426.5,-525.7 426.5,-547.7 593.5,-547.7 593.5,-525.7 426.5,-525.7"/>
<image xlink:href="../../images/primaryKeys.png" width="11px" height="12px" preserveAspectRatio="xMinYMin meet" x="431.5" y="-542.7"/>
<text text-anchor="start" x="447.5" y="-532.8" font-family="Helvetica,sans-Serif" font-size="11.00" fill="#000000">date_time</text>
<polygon fill="#ffffff" stroke="transparent" points="426.5,-503.7 426.5,-525.7 593.5,-525.7 593.5,-503.7 426.5,-503.7"/>
<polygon fill="none" stroke="#000000" points="426.5,-503.7 426.5,-525.7 593.5,-525.7 593.5,-503.7 426.5,-503.7"/>
<image xlink:href="../../images/foreignKeys.png" width="11px" height="12px" preserveAspectRatio="xMinYMin meet" x="431.5" y="-520.7"/>
<text text-anchor="start" x="447.5" y="-510.8" font-family="Helvetica,sans-Serif" font-size="11.00" fill="#000000">position_date_time</text>
<polygon fill="none" stroke="#000000" points="426.5,-481.7 426.5,-503.7 593.5,-503.7 593.5,-481.7 426.5,-481.7"/>
<image xlink:href="../../images/primaryKeys.png" width="11px" height="12px" preserveAspectRatio="xMinYMin meet" x="431.5" y="-498.7"/>
<text text-anchor="start" x="447.5" y="-488.8" font-family="Helvetica,sans-Serif" font-size="11.00" fill="#000000">variable_id</text>
<polygon fill="none" stroke="#000000" points="426.5,-462.7 426.5,-481.7 593.5,-481.7 593.5,-462.7 426.5,-462.7"/>
<text text-anchor="start" x="429.5" y="-468.8" font-family="Helvetica,sans-Serif" font-size="11.00" fill="#000000">...</text>
<polygon fill="#ffffff" stroke="transparent" points="426.5,-443.7 426.5,-462.7 495.5,-462.7 495.5,-443.7 426.5,-443.7"/>
<polygon fill="none" stroke="#000000" points="426.5,-443.7 426.5,-462.7 495.5,-462.7 495.5,-443.7 426.5,-443.7"/>
<text text-anchor="start" x="429.5" y="-449.8" font-family="Helvetica,sans-Serif" font-size="11.00" fill="#000000">&lt; 7</text>
<polygon fill="#ffffff" stroke="transparent" points="495.5,-443.7 495.5,-462.7 557.5,-462.7 557.5,-443.7 495.5,-443.7"/>
<polygon fill="none" stroke="#000000" points="495.5,-443.7 495.5,-462.7 557.5,-462.7 557.5,-443.7 495.5,-443.7"/>
<text text-anchor="start" x="522.1105" y="-449.8" font-family="Helvetica,sans-Serif" font-size="11.00" fill="#000000">0 rows</text>
<polygon fill="#ffffff" stroke="transparent" points="557.5,-443.7 557.5,-462.7 593.5,-462.7 593.5,-443.7 557.5,-443.7"/>
<polygon fill="none" stroke="#000000" points="557.5,-443.7 557.5,-462.7 593.5,-462.7 593.5,-443.7 557.5,-443.7"/>
<text text-anchor="start" x="584.3862" y="-449.8" font-family="Helvetica,sans-Serif" font-size="11.00" fill="#000000"> &#160;</text>
</a>
</g>
</g>
<!-- data_position -->
<g id="node2" class="node">
<title>data_position</title>
<g id="a_node2"><a xlink:href="../../tables/data_position.html" xlink:title="data_position" target="_top">
<polygon fill="#ffffff" stroke="transparent" points="176,-272.7 176,-494.7 377,-494.7 377,-272.7 176,-272.7"/>
<polygon fill="#f5f5f5" stroke="transparent" points="178.5,-469.7 178.5,-492.7 375.5,-492.7 375.5,-469.7 178.5,-469.7"/>
<polygon fill="none" stroke="#000000" points="178.5,-469.7 178.5,-492.7 375.5,-492.7 375.5,-469.7 178.5,-469.7"/>
<text text-anchor="start" x="183.5" y="-478.8" font-family="Helvetica,sans-Serif" font-weight="bold" font-size="11.00" fill="#000000">data_position</text>
<text text-anchor="start" x="340.5437" y="-477.8" font-family="Helvetica,sans-Serif" font-size="11.00" fill="#000000">[table]</text>
<polygon fill="none" stroke="#000000" points="178.5,-447.7 178.5,-469.7 283.5,-469.7 283.5,-447.7 178.5,-447.7"/>
<image xlink:href="../../images/primaryKeys.png" width="11px" height="12px" preserveAspectRatio="xMinYMin meet" x="183.5" y="-464.7"/>
<text text-anchor="start" x="198.5" y="-454.8" font-family="Helvetica,sans-Serif" font-size="11.00" fill="#000000">date_time</text>
<polygon fill="none" stroke="#000000" points="283.5,-447.7 283.5,-469.7 375.5,-469.7 375.5,-447.7 283.5,-447.7"/>
<text text-anchor="start" x="286.1023" y="-455.4" font-family="Helvetica,sans-Serif" font-size="11.00" fill="#000000">timestamptz[35,6]</text>
<polygon fill="#ffffff" stroke="transparent" points="178.5,-425.7 178.5,-447.7 283.5,-447.7 283.5,-425.7 178.5,-425.7"/>
<polygon fill="none" stroke="#000000" points="178.5,-425.7 178.5,-447.7 283.5,-447.7 283.5,-425.7 178.5,-425.7"/>
<text text-anchor="start" x="198.5" y="-432.8" font-family="Helvetica,sans-Serif" font-size="11.00" fill="#000000">lat</text>
<polygon fill="none" stroke="#000000" points="283.5,-425.7 283.5,-447.7 375.5,-447.7 375.5,-425.7 283.5,-425.7"/>
<text text-anchor="start" x="286.5" y="-433.4" font-family="Helvetica,sans-Serif" font-size="11.00" fill="#000000">float8[17,17]</text>
<polygon fill="#ffffff" stroke="transparent" points="178.5,-403.7 178.5,-425.7 283.5,-425.7 283.5,-403.7 178.5,-403.7"/>
<polygon fill="none" stroke="#000000" points="178.5,-403.7 178.5,-425.7 283.5,-425.7 283.5,-403.7 178.5,-403.7"/>
<text text-anchor="start" x="198.5" y="-410.8" font-family="Helvetica,sans-Serif" font-size="11.00" fill="#000000">lon</text>
<polygon fill="none" stroke="#000000" points="283.5,-403.7 283.5,-425.7 375.5,-425.7 375.5,-403.7 283.5,-403.7"/>
<text text-anchor="start" x="286.5" y="-411.4" font-family="Helvetica,sans-Serif" font-size="11.00" fill="#000000">float8[17,17]</text>
<polygon fill="none" stroke="#000000" points="178.5,-381.7 178.5,-403.7 283.5,-403.7 283.5,-381.7 178.5,-381.7"/>
<text text-anchor="start" x="198.5" y="-388.8" font-family="Helvetica,sans-Serif" font-size="11.00" fill="#000000">lat_err</text>
<polygon fill="none" stroke="#000000" points="283.5,-381.7 283.5,-403.7 375.5,-403.7 375.5,-381.7 283.5,-381.7"/>
<text text-anchor="start" x="286.5" y="-389.4" font-family="Helvetica,sans-Serif" font-size="11.00" fill="#000000">float8[17,17]</text>
<polygon fill="none" stroke="#000000" points="178.5,-359.7 178.5,-381.7 283.5,-381.7 283.5,-359.7 178.5,-359.7"/>
<text text-anchor="start" x="198.5" y="-366.8" font-family="Helvetica,sans-Serif" font-size="11.00" fill="#000000">lon_err</text>
<polygon fill="none" stroke="#000000" points="283.5,-359.7 283.5,-381.7 375.5,-381.7 375.5,-359.7 283.5,-359.7"/>
<text text-anchor="start" x="286.5" y="-367.4" font-family="Helvetica,sans-Serif" font-size="11.00" fill="#000000">float8[17,17]</text>
<polygon fill="none" stroke="#000000" points="178.5,-337.7 178.5,-359.7 283.5,-359.7 283.5,-337.7 178.5,-337.7"/>
<image xlink:href="../../images/primaryKeys.png" width="11px" height="12px" preserveAspectRatio="xMinYMin meet" x="183.5" y="-354.7"/>
<text text-anchor="start" x="198.5" y="-344.8" font-family="Helvetica,sans-Serif" font-size="11.00" fill="#000000">submission_id</text>
<polygon fill="none" stroke="#000000" points="283.5,-337.7 283.5,-359.7 375.5,-359.7 375.5,-337.7 283.5,-337.7"/>
<text text-anchor="start" x="286.5" y="-345.4" font-family="Helvetica,sans-Serif" font-size="11.00" fill="#000000">int8[19]</text>
<polygon fill="none" stroke="#000000" points="178.5,-315.7 178.5,-337.7 283.5,-337.7 283.5,-315.7 178.5,-315.7"/>
<image xlink:href="../../images/primaryKeys.png" width="11px" height="12px" preserveAspectRatio="xMinYMin meet" x="183.5" y="-332.7"/>
<text text-anchor="start" x="198.5" y="-322.8" font-family="Helvetica,sans-Serif" font-size="11.00" fill="#000000">tag_id</text>
<polygon fill="none" stroke="#000000" points="283.5,-315.7 283.5,-337.7 375.5,-337.7 375.5,-315.7 283.5,-315.7"/>
<text text-anchor="start" x="286.5" y="-323.4" font-family="Helvetica,sans-Serif" font-size="11.00" fill="#000000">int8[19]</text>
<polygon fill="none" stroke="#000000" points="178.5,-293.7 178.5,-315.7 283.5,-315.7 283.5,-293.7 178.5,-293.7"/>
<text text-anchor="start" x="198.5" y="-300.8" font-family="Helvetica,sans-Serif" font-size="11.00" fill="#000000">argosLC</text>
<polygon fill="none" stroke="#000000" points="283.5,-293.7 283.5,-315.7 375.5,-315.7 375.5,-293.7 283.5,-293.7"/>
<text text-anchor="start" x="286.5" y="-301.4" font-family="Helvetica,sans-Serif" font-size="11.00" fill="#000000">bpchar[1]</text>
<polygon fill="#ffffff" stroke="transparent" points="178.5,-274.7 178.5,-293.7 222.5,-293.7 222.5,-274.7 178.5,-274.7"/>
<polygon fill="none" stroke="#000000" points="178.5,-274.7 178.5,-293.7 222.5,-293.7 222.5,-274.7 178.5,-274.7"/>
<text text-anchor="start" x="181.5" y="-280.8" font-family="Helvetica,sans-Serif" font-size="11.00" fill="#000000">&lt; 1</text>
<polygon fill="#ffffff" stroke="transparent" points="222.5,-274.7 222.5,-293.7 283.5,-293.7 283.5,-274.7 222.5,-274.7"/>
<polygon fill="none" stroke="#000000" points="222.5,-274.7 222.5,-293.7 283.5,-293.7 283.5,-274.7 222.5,-274.7"/>
<text text-anchor="start" x="248.1105" y="-280.8" font-family="Helvetica,sans-Serif" font-size="11.00" fill="#000000">0 rows</text>
<polygon fill="#ffffff" stroke="transparent" points="283.5,-274.7 283.5,-293.7 375.5,-293.7 375.5,-274.7 283.5,-274.7"/>
<polygon fill="none" stroke="#000000" points="283.5,-274.7 283.5,-293.7 375.5,-293.7 375.5,-274.7 283.5,-274.7"/>
<text text-anchor="start" x="356.9053" y="-280.8" font-family="Helvetica,sans-Serif" font-size="11.00" fill="#000000">9 &gt;</text>
<polygon fill="none" stroke="#000000" stroke-width="2" points="177,-273.7 177,-493.7 376,-493.7 376,-273.7 177,-273.7"/>
</a>
</g>
</g>
<!-- data_histogram_bin_data&#45;&gt;data_position -->
<g id="edge1" class="edge">
<title>data_histogram_bin_data:w&#45;&gt;data_position:e</title>
<path fill="none" stroke="#000000" d="M412.6154,-509.9255C397.0899,-496.3831 403.1146,-458.7 375.5,-458.7"/>
<polygon fill="#000000" stroke="#000000" points="418.9348,-512.0985 425.3293,-518.1043 422.7174,-513.3992 426.5,-514.7 426.5,-514.7 426.5,-514.7 422.7174,-513.3992 427.6707,-511.2957 418.9348,-512.0985 418.9348,-512.0985"/>
<ellipse fill="none" stroke="#000000" cx="415.9087" cy="-511.0579" rx="3.2" ry="3.2"/>
</g>
<!-- data_histogram_bin_data&#45;&gt;data_position -->
<g id="edge2" class="edge">
<title>data_histogram_bin_data:w&#45;&gt;data_position:e</title>
<path fill="none" stroke="#000000" d="M413.2628,-618.9353C375.7977,-579.3008 432.5116,-348.7 375.5,-348.7"/>
<polygon fill="#000000" stroke="#000000" points="419.1653,-621.5058 425.0626,-628.0006 422.8327,-623.1029 426.5,-624.7 426.5,-624.7 426.5,-624.7 422.8327,-623.1029 427.9374,-621.3994 419.1653,-621.5058 419.1653,-621.5058"/>
<ellipse fill="none" stroke="#000000" cx="416.2315" cy="-620.2281" rx="3.2" ry="3.2"/>
</g>
<!-- data_histogram_bin_data&#45;&gt;data_position -->
<g id="edge4" class="edge">
<title>data_histogram_bin_data:w&#45;&gt;data_position:e</title>
<path fill="none" stroke="#000000" d="M413.2628,-596.9353C375.7977,-557.3008 432.5116,-326.7 375.5,-326.7"/>
<polygon fill="#000000" stroke="#000000" points="419.1653,-599.5058 425.0626,-606.0006 422.8327,-601.1029 426.5,-602.7 426.5,-602.7 426.5,-602.7 422.8327,-601.1029 427.9374,-599.3994 419.1653,-599.5058 419.1653,-599.5058"/>
<ellipse fill="none" stroke="#000000" cx="416.2315" cy="-598.2281" rx="3.2" ry="3.2"/>
</g>
<!-- submission -->
<g id="node3" class="node">
<title>submission</title>
<g id="a_node3"><a xlink:href="../../tables/submission.html" xlink:title="submission" target="_top">
<polygon fill="#ffffff" stroke="transparent" points="8,-385.2 8,-468.2 127,-468.2 127,-385.2 8,-385.2"/>
<polygon fill="#f5f5f5" stroke="transparent" points="8.5,-444.7 8.5,-467.7 127.5,-467.7 127.5,-444.7 8.5,-444.7"/>
<polygon fill="none" stroke="#000000" points="8.5,-444.7 8.5,-467.7 127.5,-467.7 127.5,-444.7 8.5,-444.7"/>
<text text-anchor="start" x="13.5" y="-453.8" font-family="Helvetica,sans-Serif" font-weight="bold" font-size="11.00" fill="#000000">submission</text>
<text text-anchor="start" x="92.5437" y="-452.8" font-family="Helvetica,sans-Serif" font-size="11.00" fill="#000000">[table]</text>
<polygon fill="none" stroke="#000000" points="8.5,-422.7 8.5,-444.7 127.5,-444.7 127.5,-422.7 8.5,-422.7"/>
<image xlink:href="../../images/primaryKeys.png" width="11px" height="12px" preserveAspectRatio="xMinYMin meet" x="13.5" y="-439.7"/>
<text text-anchor="start" x="28.5" y="-429.8" font-family="Helvetica,sans-Serif" font-size="11.00" fill="#000000">submission_id</text>
<polygon fill="none" stroke="#000000" points="8.5,-403.7 8.5,-422.7 127.5,-422.7 127.5,-403.7 8.5,-403.7"/>
<text text-anchor="start" x="11.5" y="-409.8" font-family="Helvetica,sans-Serif" font-size="11.00" fill="#000000">...</text>
<polygon fill="#ffffff" stroke="transparent" points="8.5,-384.7 8.5,-403.7 44.5,-403.7 44.5,-384.7 8.5,-384.7"/>
<polygon fill="none" stroke="#000000" points="8.5,-384.7 8.5,-403.7 44.5,-403.7 44.5,-384.7 8.5,-384.7"/>
<text text-anchor="start" x="11.5" y="-390.8" font-family="Helvetica,sans-Serif" font-size="11.00" fill="#000000"> &#160;</text>
<polygon fill="#ffffff" stroke="transparent" points="44.5,-384.7 44.5,-403.7 94.5,-403.7 94.5,-384.7 44.5,-384.7"/>
<polygon fill="none" stroke="#000000" points="44.5,-384.7 44.5,-403.7 94.5,-403.7 94.5,-384.7 44.5,-384.7"/>
<text text-anchor="start" x="59.1105" y="-390.8" font-family="Helvetica,sans-Serif" font-size="11.00" fill="#000000">0 rows</text>
<polygon fill="#ffffff" stroke="transparent" points="94.5,-384.7 94.5,-403.7 127.5,-403.7 127.5,-384.7 94.5,-384.7"/>
<polygon fill="none" stroke="#000000" points="94.5,-384.7 94.5,-403.7 127.5,-403.7 127.5,-384.7 94.5,-384.7"/>
<text text-anchor="start" x="108.9053" y="-390.8" font-family="Helvetica,sans-Serif" font-size="11.00" fill="#000000">6 &gt;</text>
</a>
</g>
</g>
<!-- data_histogram_bin_data&#45;&gt;submission -->
<g id="edge3" class="edge">
<title>data_histogram_bin_data:w&#45;&gt;submission:e</title>
<path fill="none" stroke="#000000" d="M411.8745,-624.6604C300.6467,-624.0047 252.4838,-614.3579 168,-533.7 133.3172,-500.5879 175.4511,-433.7 127.5,-433.7"/>
<polygon fill="#000000" stroke="#000000" points="418.5,-624.6783 426.4902,-628.3 422.5,-624.6891 426.5,-624.7 426.5,-624.7 426.5,-624.7 422.5,-624.6891 426.5098,-621.1 418.5,-624.6783 418.5,-624.6783"/>
<ellipse fill="none" stroke="#000000" cx="415.3" cy="-624.6696" rx="3.2" ry="3.2"/>
</g>
<!-- data_position&#45;&gt;submission -->
<g id="edge5" class="edge">
<title>data_position:w&#45;&gt;submission:e</title>
<path fill="none" stroke="#000000" d="M164.5669,-353.032C143.0746,-370.3534 165.5328,-433.7 127.5,-433.7"/>
<polygon fill="#000000" stroke="#000000" points="170.8607,-351.0752 179.5688,-352.1377 174.6804,-349.8876 178.5,-348.7 178.5,-348.7 178.5,-348.7 174.6804,-349.8876 177.4312,-345.2623 170.8607,-351.0752 170.8607,-351.0752"/>
<ellipse fill="none" stroke="#000000" cx="167.805" cy="-352.0253" rx="3.2" ry="3.2"/>
</g>
<!-- data_profile -->
<g id="node4" class="node">
<title>data_profile</title>
<g id="a_node4"><a xlink:href="../../tables/data_profile.html" xlink:title="data_profile" target="_top">
<polygon fill="#ffffff" stroke="transparent" points="444.5,-230.2 444.5,-423.2 574.5,-423.2 574.5,-230.2 444.5,-230.2"/>
<polygon fill="#f5f5f5" stroke="transparent" points="444.5,-399.7 444.5,-422.7 574.5,-422.7 574.5,-399.7 444.5,-399.7"/>
<polygon fill="none" stroke="#000000" points="444.5,-399.7 444.5,-422.7 574.5,-422.7 574.5,-399.7 444.5,-399.7"/>
<text text-anchor="start" x="449.5" y="-408.8" font-family="Helvetica,sans-Serif" font-weight="bold" font-size="11.00" fill="#000000">data_profile</text>
<text text-anchor="start" x="539.5437" y="-407.8" font-family="Helvetica,sans-Serif" font-size="11.00" fill="#000000">[table]</text>
<polygon fill="none" stroke="#000000" points="444.5,-377.7 444.5,-399.7 574.5,-399.7 574.5,-377.7 444.5,-377.7"/>
<image xlink:href="../../images/primaryKeys.png" width="11px" height="12px" preserveAspectRatio="xMinYMin meet" x="449.5" y="-394.7"/>
<text text-anchor="start" x="464.5" y="-384.8" font-family="Helvetica,sans-Serif" font-size="11.00" fill="#000000">submission_id</text>
<polygon fill="none" stroke="#000000" points="444.5,-355.7 444.5,-377.7 574.5,-377.7 574.5,-355.7 444.5,-355.7"/>
<image xlink:href="../../images/primaryKeys.png" width="11px" height="12px" preserveAspectRatio="xMinYMin meet" x="449.5" y="-372.7"/>
<text text-anchor="start" x="464.5" y="-362.8" font-family="Helvetica,sans-Serif" font-size="11.00" fill="#000000">tag_id</text>
<polygon fill="none" stroke="#000000" points="444.5,-333.7 444.5,-355.7 574.5,-355.7 574.5,-333.7 444.5,-333.7"/>
<image xlink:href="../../images/primaryKeys.png" width="11px" height="12px" preserveAspectRatio="xMinYMin meet" x="449.5" y="-350.7"/>
<text text-anchor="start" x="464.5" y="-340.8" font-family="Helvetica,sans-Serif" font-size="11.00" fill="#000000">variable_id</text>
<polygon fill="none" stroke="#000000" points="444.5,-311.7 444.5,-333.7 574.5,-333.7 574.5,-311.7 444.5,-311.7"/>
<image xlink:href="../../images/primaryKeys.png" width="11px" height="12px" preserveAspectRatio="xMinYMin meet" x="449.5" y="-328.7"/>
<text text-anchor="start" x="464.5" y="-318.8" font-family="Helvetica,sans-Serif" font-size="11.00" fill="#000000">date_time</text>
<polygon fill="none" stroke="#000000" points="444.5,-289.7 444.5,-311.7 574.5,-311.7 574.5,-289.7 444.5,-289.7"/>
<image xlink:href="../../images/primaryKeys.png" width="11px" height="12px" preserveAspectRatio="xMinYMin meet" x="449.5" y="-306.7"/>
<text text-anchor="start" x="464.5" y="-296.8" font-family="Helvetica,sans-Serif" font-size="11.00" fill="#000000">depth</text>
<polygon fill="#ffffff" stroke="transparent" points="444.5,-267.7 444.5,-289.7 574.5,-289.7 574.5,-267.7 444.5,-267.7"/>
<polygon fill="none" stroke="#000000" points="444.5,-267.7 444.5,-289.7 574.5,-289.7 574.5,-267.7 444.5,-267.7"/>
<image xlink:href="../../images/foreignKeys.png" width="11px" height="12px" preserveAspectRatio="xMinYMin meet" x="449.5" y="-284.7"/>
<text text-anchor="start" x="464.5" y="-274.8" font-family="Helvetica,sans-Serif" font-size="11.00" fill="#000000">position_date_time</text>
<polygon fill="none" stroke="#000000" points="444.5,-248.7 444.5,-267.7 574.5,-267.7 574.5,-248.7 444.5,-248.7"/>
<text text-anchor="start" x="447.5" y="-254.8" font-family="Helvetica,sans-Serif" font-size="11.00" fill="#000000">...</text>
<polygon fill="#ffffff" stroke="transparent" points="444.5,-229.7 444.5,-248.7 494.5,-248.7 494.5,-229.7 444.5,-229.7"/>
<polygon fill="none" stroke="#000000" points="444.5,-229.7 444.5,-248.7 494.5,-248.7 494.5,-229.7 444.5,-229.7"/>
<text text-anchor="start" x="447.5" y="-235.8" font-family="Helvetica,sans-Serif" font-size="11.00" fill="#000000">&lt; 5</text>
<polygon fill="#ffffff" stroke="transparent" points="494.5,-229.7 494.5,-248.7 547.5,-248.7 547.5,-229.7 494.5,-229.7"/>
<polygon fill="none" stroke="#000000" points="494.5,-229.7 494.5,-248.7 547.5,-248.7 547.5,-229.7 494.5,-229.7"/>
<text text-anchor="start" x="512.1105" y="-235.8" font-family="Helvetica,sans-Serif" font-size="11.00" fill="#000000">0 rows</text>
<polygon fill="#ffffff" stroke="transparent" points="547.5,-229.7 547.5,-248.7 574.5,-248.7 574.5,-229.7 547.5,-229.7"/>
<polygon fill="none" stroke="#000000" points="547.5,-229.7 547.5,-248.7 574.5,-248.7 574.5,-229.7 547.5,-229.7"/>
<text text-anchor="start" x="565.3862" y="-235.8" font-family="Helvetica,sans-Serif" font-size="11.00" fill="#000000"> &#160;</text>
</a>
</g>
</g>
<!-- data_profile&#45;&gt;data_position -->
<g id="edge6" class="edge">
<title>data_profile:w&#45;&gt;data_position:e</title>
<path fill="none" stroke="#000000" d="M430.1763,-280.8469C371.2364,-301.1554 455.6543,-458.7 375.5,-458.7"/>
<polygon fill="#000000" stroke="#000000" points="436.5884,-279.8859 445.0336,-282.2602 440.5442,-279.2929 444.5,-278.7 444.5,-278.7 444.5,-278.7 440.5442,-279.2929 443.9664,-275.1398 436.5884,-279.8859 436.5884,-279.8859"/>
<ellipse fill="none" stroke="#000000" cx="433.4237" cy="-280.3602" rx="3.2" ry="3.2"/>
</g>
<!-- data_profile&#45;&gt;data_position -->
<g id="edge7" class="edge">
<title>data_profile:w&#45;&gt;data_position:e</title>
<path fill="none" stroke="#000000" d="M430.3343,-386.0755C408.7332,-377.1766 405.4085,-348.7 375.5,-348.7"/>
<polygon fill="#000000" stroke="#000000" points="436.6339,-387.2426 443.8442,-392.2398 440.5669,-387.9713 444.5,-388.7 444.5,-388.7 444.5,-388.7 440.5669,-387.9713 445.1558,-385.1602 436.6339,-387.2426 436.6339,-387.2426"/>
<ellipse fill="none" stroke="#000000" cx="433.4874" cy="-386.6596" rx="3.2" ry="3.2"/>
</g>
<!-- data_profile&#45;&gt;data_position -->
<g id="edge9" class="edge">
<title>data_profile:w&#45;&gt;data_position:e</title>
<path fill="none" stroke="#000000" d="M430.3343,-364.0755C408.7332,-355.1766 405.4085,-326.7 375.5,-326.7"/>
<polygon fill="#000000" stroke="#000000" points="436.6339,-365.2426 443.8442,-370.2398 440.5669,-365.9713 444.5,-366.7 444.5,-366.7 444.5,-366.7 440.5669,-365.9713 445.1558,-363.1602 436.6339,-365.2426 436.6339,-365.2426"/>
<ellipse fill="none" stroke="#000000" cx="433.4874" cy="-364.6596" rx="3.2" ry="3.2"/>
</g>
<!-- data_profile&#45;&gt;submission -->
<g id="edge8" class="edge">
<title>data_profile:w&#45;&gt;submission:e</title>
<path fill="none" stroke="#000000" d="M430.26,-391.0161C394.5993,-404.8831 429.3037,-477.2704 385,-505.7 303.8302,-557.7865 251.2518,-554.3896 168,-505.7 136.3072,-487.1645 164.2151,-433.7 127.5,-433.7"/>
<polygon fill="#000000" stroke="#000000" points="436.6038,-389.9843 445.078,-392.2533 440.5519,-389.3422 444.5,-388.7 444.5,-388.7 444.5,-388.7 440.5519,-389.3422 443.922,-385.1467 436.6038,-389.9843 436.6038,-389.9843"/>
<ellipse fill="none" stroke="#000000" cx="433.4453" cy="-390.4981" rx="3.2" ry="3.2"/>
</g>
<!-- data_time_series -->
<g id="node5" class="node">
<title>data_time_series</title>
<g id="a_node5"><a xlink:href="../../tables/data_time_series.html" xlink:title="data_time_series" target="_top">
<polygon fill="#ffffff" stroke="transparent" points="444.5,-38.2 444.5,-209.2 574.5,-209.2 574.5,-38.2 444.5,-38.2"/>
<polygon fill="#f5f5f5" stroke="transparent" points="444.5,-185.7 444.5,-208.7 574.5,-208.7 574.5,-185.7 444.5,-185.7"/>
<polygon fill="none" stroke="#000000" points="444.5,-185.7 444.5,-208.7 574.5,-208.7 574.5,-185.7 444.5,-185.7"/>
<text text-anchor="start" x="449.5" y="-194.8" font-family="Helvetica,sans-Serif" font-weight="bold" font-size="11.00" fill="#000000">data_time_series</text>
<text text-anchor="start" x="539.5437" y="-193.8" font-family="Helvetica,sans-Serif" font-size="11.00" fill="#000000">[table]</text>
<polygon fill="none" stroke="#000000" points="444.5,-163.7 444.5,-185.7 574.5,-185.7 574.5,-163.7 444.5,-163.7"/>
<image xlink:href="../../images/primaryKeys.png" width="11px" height="12px" preserveAspectRatio="xMinYMin meet" x="449.5" y="-180.7"/>
<text text-anchor="start" x="464.5" y="-170.8" font-family="Helvetica,sans-Serif" font-size="11.00" fill="#000000">date_time</text>
<polygon fill="none" stroke="#000000" points="444.5,-141.7 444.5,-163.7 574.5,-163.7 574.5,-141.7 444.5,-141.7"/>
<image xlink:href="../../images/primaryKeys.png" width="11px" height="12px" preserveAspectRatio="xMinYMin meet" x="449.5" y="-158.7"/>
<text text-anchor="start" x="464.5" y="-148.8" font-family="Helvetica,sans-Serif" font-size="11.00" fill="#000000">variable_id</text>
<polygon fill="none" stroke="#000000" points="444.5,-119.7 444.5,-141.7 574.5,-141.7 574.5,-119.7 444.5,-119.7"/>
<image xlink:href="../../images/primaryKeys.png" width="11px" height="12px" preserveAspectRatio="xMinYMin meet" x="449.5" y="-136.7"/>
<text text-anchor="start" x="464.5" y="-126.8" font-family="Helvetica,sans-Serif" font-size="11.00" fill="#000000">submission_id</text>
<polygon fill="none" stroke="#000000" points="444.5,-97.7 444.5,-119.7 574.5,-119.7 574.5,-97.7 444.5,-97.7"/>
<image xlink:href="../../images/primaryKeys.png" width="11px" height="12px" preserveAspectRatio="xMinYMin meet" x="449.5" y="-114.7"/>
<text text-anchor="start" x="464.5" y="-104.8" font-family="Helvetica,sans-Serif" font-size="11.00" fill="#000000">tag_id</text>
<polygon fill="#ffffff" stroke="transparent" points="444.5,-75.7 444.5,-97.7 574.5,-97.7 574.5,-75.7 444.5,-75.7"/>
<polygon fill="none" stroke="#000000" points="444.5,-75.7 444.5,-97.7 574.5,-97.7 574.5,-75.7 444.5,-75.7"/>
<image xlink:href="../../images/foreignKeys.png" width="11px" height="12px" preserveAspectRatio="xMinYMin meet" x="449.5" y="-92.7"/>
<text text-anchor="start" x="464.5" y="-82.8" font-family="Helvetica,sans-Serif" font-size="11.00" fill="#000000">position_date_time</text>
<polygon fill="none" stroke="#000000" points="444.5,-56.7 444.5,-75.7 574.5,-75.7 574.5,-56.7 444.5,-56.7"/>
<text text-anchor="start" x="447.5" y="-62.8" font-family="Helvetica,sans-Serif" font-size="11.00" fill="#000000">...</text>
<polygon fill="#ffffff" stroke="transparent" points="444.5,-37.7 444.5,-56.7 494.5,-56.7 494.5,-37.7 444.5,-37.7"/>
<polygon fill="none" stroke="#000000" points="444.5,-37.7 444.5,-56.7 494.5,-56.7 494.5,-37.7 444.5,-37.7"/>
<text text-anchor="start" x="447.5" y="-43.8" font-family="Helvetica,sans-Serif" font-size="11.00" fill="#000000">&lt; 5</text>
<polygon fill="#ffffff" stroke="transparent" points="494.5,-37.7 494.5,-56.7 547.5,-56.7 547.5,-37.7 494.5,-37.7"/>
<polygon fill="none" stroke="#000000" points="494.5,-37.7 494.5,-56.7 547.5,-56.7 547.5,-37.7 494.5,-37.7"/>
<text text-anchor="start" x="512.1105" y="-43.8" font-family="Helvetica,sans-Serif" font-size="11.00" fill="#000000">0 rows</text>
<polygon fill="#ffffff" stroke="transparent" points="547.5,-37.7 547.5,-56.7 574.5,-56.7 574.5,-37.7 547.5,-37.7"/>
<polygon fill="none" stroke="#000000" points="547.5,-37.7 547.5,-56.7 574.5,-56.7 574.5,-37.7 547.5,-37.7"/>
<text text-anchor="start" x="565.3862" y="-43.8" font-family="Helvetica,sans-Serif" font-size="11.00" fill="#000000"> &#160;</text>
</a>
</g>
</g>
<!-- data_time_series&#45;&gt;data_position -->
<g id="edge10" class="edge">
<title>data_time_series:w&#45;&gt;data_position:e</title>
<path fill="none" stroke="#000000" d="M430.4284,-91.1369C372.4436,-133.1078 454.1577,-458.7 375.5,-458.7"/>
<polygon fill="#000000" stroke="#000000" points="436.8703,-89.1057 445.5826,-90.1334 440.6851,-87.9029 444.5,-86.7 444.5,-86.7 444.5,-86.7 440.6851,-87.9029 443.4174,-83.2666 436.8703,-89.1057 436.8703,-89.1057"/>
<ellipse fill="none" stroke="#000000" cx="433.8184" cy="-90.068" rx="3.2" ry="3.2"/>
</g>
<!-- data_time_series&#45;&gt;data_position -->
<g id="edge11" class="edge">
<title>data_time_series:w&#45;&gt;data_position:e</title>
<path fill="none" stroke="#000000" d="M429.8661,-132.5846C356.8521,-153.8918 471.5686,-348.7 375.5,-348.7"/>
<polygon fill="#000000" stroke="#000000" points="436.5655,-131.7219 444.9598,-134.2705 440.5328,-131.2109 444.5,-130.7 444.5,-130.7 444.5,-130.7 440.5328,-131.2109 444.0402,-127.1295 436.5655,-131.7219 436.5655,-131.7219"/>
<ellipse fill="none" stroke="#000000" cx="433.3917" cy="-132.1306" rx="3.2" ry="3.2"/>
</g>
<!-- data_time_series&#45;&gt;data_position -->
<g id="edge13" class="edge">
<title>data_time_series:w&#45;&gt;data_position:e</title>
<path fill="none" stroke="#000000" d="M429.8661,-110.5846C356.8521,-131.8918 471.5686,-326.7 375.5,-326.7"/>
<polygon fill="#000000" stroke="#000000" points="436.5655,-109.7219 444.9598,-112.2705 440.5328,-109.2109 444.5,-108.7 444.5,-108.7 444.5,-108.7 440.5328,-109.2109 444.0402,-105.1295 436.5655,-109.7219 436.5655,-109.7219"/>
<ellipse fill="none" stroke="#000000" cx="433.3917" cy="-110.1306" rx="3.2" ry="3.2"/>
</g>
<!-- data_time_series&#45;&gt;submission -->
<g id="edge12" class="edge">
<title>data_time_series:w&#45;&gt;submission:e</title>
<path fill="none" stroke="#000000" d="M430.0523,-130.8045C304.3248,-132.6852 250.427,-160.556 168,-262.7 118.9519,-323.4806 205.6025,-433.7 127.5,-433.7"/>
<polygon fill="#000000" stroke="#000000" points="436.5002,-130.7579 444.5261,-134.2999 440.5001,-130.729 444.5,-130.7 444.5,-130.7 444.5,-130.7 440.5001,-130.729 444.4739,-127.1001 436.5002,-130.7579 436.5002,-130.7579"/>
<ellipse fill="none" stroke="#000000" cx="433.3003" cy="-130.7811" rx="3.2" ry="3.2"/>
</g>
</g>
</svg>
