<?xml version="1.0" encoding="UTF-8" standalone="no"?>
<!DOCTYPE svg PUBLIC "-//W3C//DTD SVG 1.1//EN"
 "http://www.w3.org/Graphics/SVG/1.1/DTD/svg11.dtd">
<!-- Generated by graphviz version 2.40.1 (20161225.0304)
 -->
<!-- Title: oneDegreeRelationshipsDiagram Pages: 1 -->
<svg width="599pt" height="375pt"
 viewBox="0.00 0.00 599.00 375.20" xmlns="http://www.w3.org/2000/svg" xmlns:xlink="http://www.w3.org/1999/xlink">
<g id="graph0" class="graph" transform="scale(1 1) rotate(0) translate(4 371.2)">
<title>oneDegreeRelationshipsDiagram</title>
<polygon fill="#ffffff" stroke="transparent" points="-4,4 -4,-371.2 595,-371.2 595,4 -4,4"/>
<text text-anchor="middle" x="72.4936" y="-7.3" font-family="Helvetica,sans-Serif" font-size="11.00" fill="#000000">Generated by SchemaSpy</text>
<!-- data_position -->
<g id="node1" class="node">
<title>data_position</title>
<g id="a_node1"><a xlink:href="../../tables/data_position.html" xlink:title="data_position" target="_top">
<polygon fill="#ffffff" stroke="transparent" points="188,-38.2 188,-209.2 296,-209.2 296,-38.2 188,-38.2"/>
<polygon fill="#f5f5f5" stroke="transparent" points="188,-185.7 188,-208.7 296,-208.7 296,-185.7 188,-185.7"/>
<polygon fill="none" stroke="#000000" points="188,-185.7 188,-208.7 296,-208.7 296,-185.7 188,-185.7"/>
<text text-anchor="start" x="192.7926" y="-194.8" font-family="Helvetica,sans-Serif" font-weight="bold" font-size="11.00" fill="#000000">data_position</text>
<text text-anchor="start" x="261.5219" y="-193.8" font-family="Helvetica,sans-Serif" font-size="11.00" fill="#000000">[table]</text>
<polygon fill="none" stroke="#000000" points="188,-163.7 188,-185.7 296,-185.7 296,-163.7 188,-163.7"/>
<image xlink:href="../../images/primaryKeys.png" width="11px" height="12px" preserveAspectRatio="xMinYMin meet" x="193" y="-180.7"/>
<text text-anchor="start" x="210" y="-170.8" font-family="Helvetica,sans-Serif" font-size="11.00" fill="#000000">date_time</text>
<polygon fill="#ffffff" stroke="transparent" points="188,-141.7 188,-163.7 296,-163.7 296,-141.7 188,-141.7"/>
<polygon fill="none" stroke="#000000" points="188,-141.7 188,-163.7 296,-163.7 296,-141.7 188,-141.7"/>
<text text-anchor="start" x="210" y="-148.8" font-family="Helvetica,sans-Serif" font-size="11.00" fill="#000000">lat</text>
<polygon fill="#ffffff" stroke="transparent" points="188,-119.7 188,-141.7 296,-141.7 296,-119.7 188,-119.7"/>
<polygon fill="none" stroke="#000000" points="188,-119.7 188,-141.7 296,-141.7 296,-119.7 188,-119.7"/>
<text text-anchor="start" x="210" y="-126.8" font-family="Helvetica,sans-Serif" font-size="11.00" fill="#000000">lon</text>
<polygon fill="none" stroke="#000000" points="188,-97.7 188,-119.7 296,-119.7 296,-97.7 188,-97.7"/>
<image xlink:href="../../images/primaryKeys.png" width="11px" height="12px" preserveAspectRatio="xMinYMin meet" x="193" y="-114.7"/>
<text text-anchor="start" x="210" y="-104.8" font-family="Helvetica,sans-Serif" font-size="11.00" fill="#000000">submission_id</text>
<polygon fill="none" stroke="#000000" points="188,-75.7 188,-97.7 296,-97.7 296,-75.7 188,-75.7"/>
<image xlink:href="../../images/primaryKeys.png" width="11px" height="12px" preserveAspectRatio="xMinYMin meet" x="193" y="-92.7"/>
<text text-anchor="start" x="210" y="-82.8" font-family="Helvetica,sans-Serif" font-size="11.00" fill="#000000">tag_id</text>
<polygon fill="none" stroke="#000000" points="188,-56.7 188,-75.7 296,-75.7 296,-56.7 188,-56.7"/>
<text text-anchor="start" x="191" y="-62.8" font-family="Helvetica,sans-Serif" font-size="11.00" fill="#000000">...</text>
<polygon fill="#ffffff" stroke="transparent" points="188,-37.7 188,-56.7 223,-56.7 223,-37.7 188,-37.7"/>
<polygon fill="none" stroke="#000000" points="188,-37.7 188,-56.7 223,-56.7 223,-37.7 188,-37.7"/>
<text text-anchor="start" x="191" y="-43.8" font-family="Helvetica,sans-Serif" font-size="11.00" fill="#000000">&lt; 1</text>
<polygon fill="#ffffff" stroke="transparent" points="223,-37.7 223,-56.7 268,-56.7 268,-37.7 223,-37.7"/>
<polygon fill="none" stroke="#000000" points="223,-37.7 223,-56.7 268,-56.7 268,-37.7 223,-37.7"/>
<text text-anchor="start" x="232.6105" y="-43.8" font-family="Helvetica,sans-Serif" font-size="11.00" fill="#000000">0 rows</text>
<polygon fill="#ffffff" stroke="transparent" points="268,-37.7 268,-56.7 296,-56.7 296,-37.7 268,-37.7"/>
<polygon fill="none" stroke="#000000" points="268,-37.7 268,-56.7 296,-56.7 296,-37.7 268,-37.7"/>
<text text-anchor="start" x="277.4053" y="-43.8" font-family="Helvetica,sans-Serif" font-size="11.00" fill="#000000">9 &gt;</text>
</a>
</g>
</g>
<!-- submission -->
<g id="node2" class="node">
<title>submission</title>
<g id="a_node2"><a xlink:href="../../tables/submission.html" xlink:title="submission" target="_top">
<polygon fill="#ffffff" stroke="transparent" points="8,-122.2 8,-205.2 127,-205.2 127,-122.2 8,-122.2"/>
<polygon fill="#f5f5f5" stroke="transparent" points="8.5,-181.7 8.5,-204.7 127.5,-204.7 127.5,-181.7 8.5,-181.7"/>
<polygon fill="none" stroke="#000000" points="8.5,-181.7 8.5,-204.7 127.5,-204.7 127.5,-181.7 8.5,-181.7"/>
<text text-anchor="start" x="13.5" y="-190.8" font-family="Helvetica,sans-Serif" font-weight="bold" font-size="11.00" fill="#000000">submission</text>
<text text-anchor="start" x="92.5437" y="-189.8" font-family="Helvetica,sans-Serif" font-size="11.00" fill="#000000">[table]</text>
<polygon fill="none" stroke="#000000" points="8.5,-159.7 8.5,-181.7 127.5,-181.7 127.5,-159.7 8.5,-159.7"/>
<image xlink:href="../../images/primaryKeys.png" width="11px" height="12px" preserveAspectRatio="xMinYMin meet" x="13.5" y="-176.7"/>
<text text-anchor="start" x="28.5" y="-166.8" font-family="Helvetica,sans-Serif" font-size="11.00" fill="#000000">submission_id</text>
<polygon fill="none" stroke="#000000" points="8.5,-140.7 8.5,-159.7 127.5,-159.7 127.5,-140.7 8.5,-140.7"/>
<text text-anchor="start" x="11.5" y="-146.8" font-family="Helvetica,sans-Serif" font-size="11.00" fill="#000000">...</text>
<polygon fill="#ffffff" stroke="transparent" points="8.5,-121.7 8.5,-140.7 44.5,-140.7 44.5,-121.7 8.5,-121.7"/>
<polygon fill="none" stroke="#000000" points="8.5,-121.7 8.5,-140.7 44.5,-140.7 44.5,-121.7 8.5,-121.7"/>
<text text-anchor="start" x="11.5" y="-127.8" font-family="Helvetica,sans-Serif" font-size="11.00" fill="#000000"> &#160;</text>
<polygon fill="#ffffff" stroke="transparent" points="44.5,-121.7 44.5,-140.7 94.5,-140.7 94.5,-121.7 44.5,-121.7"/>
<polygon fill="none" stroke="#000000" points="44.5,-121.7 44.5,-140.7 94.5,-140.7 94.5,-121.7 44.5,-121.7"/>
<text text-anchor="start" x="59.1105" y="-127.8" font-family="Helvetica,sans-Serif" font-size="11.00" fill="#000000">0 rows</text>
<polygon fill="#ffffff" stroke="transparent" points="94.5,-121.7 94.5,-140.7 127.5,-140.7 127.5,-121.7 94.5,-121.7"/>
<polygon fill="none" stroke="#000000" points="94.5,-121.7 94.5,-140.7 127.5,-140.7 127.5,-121.7 94.5,-121.7"/>
<text text-anchor="start" x="108.9053" y="-127.8" font-family="Helvetica,sans-Serif" font-size="11.00" fill="#000000">6 &gt;</text>
</a>
</g>
</g>
<!-- data_position&#45;&gt;submission -->
<g id="edge1" class="edge">
<title>data_position:w&#45;&gt;submission:e</title>
<path fill="none" stroke="#000000" d="M173.8445,-112.5784C153.2504,-126.1517 160.1355,-170.7 127.5,-170.7"/>
<polygon fill="#000000" stroke="#000000" points="180.2844,-110.814 188.9513,-112.172 184.1422,-109.757 188,-108.7 188,-108.7 188,-108.7 184.1422,-109.757 187.0487,-105.228 180.2844,-110.814 180.2844,-110.814"/>
<ellipse fill="none" stroke="#000000" cx="177.1981" cy="-111.6596" rx="3.2" ry="3.2"/>
</g>
<!-- data_time_series -->
<g id="node3" class="node">
<title>data_time_series</title>
<g id="a_node3"><a xlink:href="../../tables/data_time_series.html" xlink:title="data_time_series" target="_top">
<polygon fill="#ffffff" stroke="transparent" points="357,-142.7 357,-320.7 583,-320.7 583,-142.7 357,-142.7"/>
<polygon fill="#f5f5f5" stroke="transparent" points="359,-295.7 359,-318.7 581,-318.7 581,-295.7 359,-295.7"/>
<polygon fill="none" stroke="#000000" points="359,-295.7 359,-318.7 581,-318.7 581,-295.7 359,-295.7"/>
<text text-anchor="start" x="364" y="-304.8" font-family="Helvetica,sans-Serif" font-weight="bold" font-size="11.00" fill="#000000">data_time_series</text>
<text text-anchor="start" x="546.0437" y="-303.8" font-family="Helvetica,sans-Serif" font-size="11.00" fill="#000000">[table]</text>
<polygon fill="none" stroke="#000000" points="359,-273.7 359,-295.7 489,-295.7 489,-273.7 359,-273.7"/>
<image xlink:href="../../images/primaryKeys.png" width="11px" height="12px" preserveAspectRatio="xMinYMin meet" x="364" y="-290.7"/>
<text text-anchor="start" x="379" y="-280.8" font-family="Helvetica,sans-Serif" font-size="11.00" fill="#000000">date_time</text>
<polygon fill="none" stroke="#000000" points="489,-273.7 489,-295.7 581,-295.7 581,-273.7 489,-273.7"/>
<text text-anchor="start" x="491.6023" y="-281.4" font-family="Helvetica,sans-Serif" font-size="11.00" fill="#000000">timestamptz[35,6]</text>
<polygon fill="none" stroke="#000000" points="359,-251.7 359,-273.7 489,-273.7 489,-251.7 359,-251.7"/>
<image xlink:href="../../images/primaryKeys.png" width="11px" height="12px" preserveAspectRatio="xMinYMin meet" x="364" y="-268.7"/>
<text text-anchor="start" x="379" y="-258.8" font-family="Helvetica,sans-Serif" font-size="11.00" fill="#000000">variable_id</text>
<polygon fill="none" stroke="#000000" points="489,-251.7 489,-273.7 581,-273.7 581,-251.7 489,-251.7"/>
<text text-anchor="start" x="492" y="-259.4" font-family="Helvetica,sans-Serif" font-size="11.00" fill="#000000">int8[19]</text>
<polygon fill="none" stroke="#000000" points="359,-229.7 359,-251.7 489,-251.7 489,-229.7 359,-229.7"/>
<text text-anchor="start" x="379" y="-236.8" font-family="Helvetica,sans-Serif" font-size="11.00" fill="#000000">variable_value</text>
<polygon fill="none" stroke="#000000" points="489,-229.7 489,-251.7 581,-251.7 581,-229.7 489,-229.7"/>
<text text-anchor="start" x="492" y="-237.4" font-family="Helvetica,sans-Serif" font-size="11.00" fill="#000000">float8[17,17]</text>
<polygon fill="none" stroke="#000000" points="359,-207.7 359,-229.7 489,-229.7 489,-207.7 359,-207.7"/>
<image xlink:href="../../images/primaryKeys.png" width="11px" height="12px" preserveAspectRatio="xMinYMin meet" x="364" y="-224.7"/>
<text text-anchor="start" x="379" y="-214.8" font-family="Helvetica,sans-Serif" font-size="11.00" fill="#000000">submission_id</text>
<polygon fill="none" stroke="#000000" points="489,-207.7 489,-229.7 581,-229.7 581,-207.7 489,-207.7"/>
<text text-anchor="start" x="492" y="-215.4" font-family="Helvetica,sans-Serif" font-size="11.00" fill="#000000">int8[19]</text>
<polygon fill="none" stroke="#000000" points="359,-185.7 359,-207.7 489,-207.7 489,-185.7 359,-185.7"/>
<image xlink:href="../../images/primaryKeys.png" width="11px" height="12px" preserveAspectRatio="xMinYMin meet" x="364" y="-202.7"/>
<text text-anchor="start" x="379" y="-192.8" font-family="Helvetica,sans-Serif" font-size="11.00" fill="#000000">tag_id</text>
<polygon fill="none" stroke="#000000" points="489,-185.7 489,-207.7 581,-207.7 581,-185.7 489,-185.7"/>
<text text-anchor="start" x="492" y="-193.4" font-family="Helvetica,sans-Serif" font-size="11.00" fill="#000000">int8[19]</text>
<polygon fill="#ffffff" stroke="transparent" points="359,-163.7 359,-185.7 489,-185.7 489,-163.7 359,-163.7"/>
<polygon fill="none" stroke="#000000" points="359,-163.7 359,-185.7 489,-185.7 489,-163.7 359,-163.7"/>
<image xlink:href="../../images/foreignKeys.png" width="11px" height="12px" preserveAspectRatio="xMinYMin meet" x="364" y="-180.7"/>
<text text-anchor="start" x="379" y="-170.8" font-family="Helvetica,sans-Serif" font-size="11.00" fill="#000000">position_date_time</text>
<polygon fill="none" stroke="#000000" points="489,-163.7 489,-185.7 581,-185.7 581,-163.7 489,-163.7"/>
<text text-anchor="start" x="491.6023" y="-171.4" font-family="Helvetica,sans-Serif" font-size="11.00" fill="#000000">timestamptz[35,6]</text>
<polygon fill="#ffffff" stroke="transparent" points="359,-144.7 359,-163.7 415,-163.7 415,-144.7 359,-144.7"/>
<polygon fill="none" stroke="#000000" points="359,-144.7 359,-163.7 415,-163.7 415,-144.7 359,-144.7"/>
<text text-anchor="start" x="362" y="-150.8" font-family="Helvetica,sans-Serif" font-size="11.00" fill="#000000">&lt; 5</text>
<polygon fill="#ffffff" stroke="transparent" points="415,-144.7 415,-163.7 489,-163.7 489,-144.7 415,-144.7"/>
<polygon fill="none" stroke="#000000" points="415,-144.7 415,-163.7 489,-163.7 489,-144.7 415,-144.7"/>
<text text-anchor="start" x="453.6105" y="-150.8" font-family="Helvetica,sans-Serif" font-size="11.00" fill="#000000">0 rows</text>
<polygon fill="#ffffff" stroke="transparent" points="489,-144.7 489,-163.7 581,-163.7 581,-144.7 489,-144.7"/>
<polygon fill="none" stroke="#000000" points="489,-144.7 489,-163.7 581,-163.7 581,-144.7 489,-144.7"/>
<text text-anchor="start" x="562.4053" y="-150.8" font-family="Helvetica,sans-Serif" font-size="11.00" fill="#000000">0 &gt;</text>
<polygon fill="none" stroke="#000000" stroke-width="2" points="358,-143.7 358,-319.7 582,-319.7 582,-143.7 358,-143.7"/>
</a>
</g>
</g>
<!-- data_time_series&#45;&gt;data_position -->
<g id="edge2" class="edge">
<title>data_time_series:w&#45;&gt;data_position:e</title>
<path fill="none" stroke="#000000" d="M344.1849,-174.7C327.2898,-174.7 318.3125,-174.7 296,-174.7"/>
<polygon fill="#000000" stroke="#000000" points="351,-174.7001 359,-178.3 355,-174.7 359,-174.7 359,-174.7 359,-174.7 355,-174.7 359,-171.1 351,-174.7001 351,-174.7001"/>
<ellipse fill="none" stroke="#000000" cx="347.8" cy="-174.7001" rx="3.2" ry="3.2"/>
</g>
<!-- data_time_series&#45;&gt;data_position -->
<g id="edge3" class="edge">
<title>data_time_series:w&#45;&gt;data_position:e</title>
<path fill="none" stroke="#000000" d="M344.8927,-215.5265C311.6581,-197.4909 346.6174,-108.7 296,-108.7"/>
<polygon fill="#000000" stroke="#000000" points="351.195,-216.9442 358.2099,-222.2122 355.0975,-217.8221 359,-218.7 359,-218.7 359,-218.7 355.0975,-217.8221 359.7901,-215.1878 351.195,-216.9442 351.195,-216.9442"/>
<ellipse fill="none" stroke="#000000" cx="348.0731" cy="-216.2419" rx="3.2" ry="3.2"/>
</g>
<!-- data_time_series&#45;&gt;data_position -->
<g id="edge5" class="edge">
<title>data_time_series:w&#45;&gt;data_position:e</title>
<path fill="none" stroke="#000000" d="M344.8927,-193.5265C311.6581,-175.4909 346.6174,-86.7 296,-86.7"/>
<polygon fill="#000000" stroke="#000000" points="351.195,-194.9442 358.2099,-200.2122 355.0975,-195.8221 359,-196.7 359,-196.7 359,-196.7 355.0975,-195.8221 359.7901,-193.1878 351.195,-194.9442 351.195,-194.9442"/>
<ellipse fill="none" stroke="#000000" cx="348.0731" cy="-194.2419" rx="3.2" ry="3.2"/>
</g>
<!-- data_time_series&#45;&gt;submission -->
<g id="edge4" class="edge">
<title>data_time_series:w&#45;&gt;submission:e</title>
<path fill="none" stroke="#000000" d="M344.1689,-219.0842C270.3869,-222.9312 240.1527,-253.6719 168,-219.7 142.4379,-207.6645 155.7537,-170.7 127.5,-170.7"/>
<polygon fill="#000000" stroke="#000000" points="351.0027,-218.9072 359.0932,-222.2988 355.0013,-218.8036 359,-218.7 359,-218.7 359,-218.7 355.0013,-218.8036 358.9068,-215.1012 351.0027,-218.9072 351.0027,-218.9072"/>
<ellipse fill="none" stroke="#000000" cx="347.8038" cy="-218.9901" rx="3.2" ry="3.2"/>
</g>
<!-- observation_types -->
<g id="node4" class="node">
<title>observation_types</title>
<g id="a_node4"><a xlink:href="../../tables/observation_types.html" xlink:title="observation_types" target="_top">
<polygon fill="#ffffff" stroke="transparent" points="176,-258.2 176,-363.2 308,-363.2 308,-258.2 176,-258.2"/>
<polygon fill="#f5f5f5" stroke="transparent" points="176,-339.7 176,-362.7 308,-362.7 308,-339.7 176,-339.7"/>
<polygon fill="none" stroke="#000000" points="176,-339.7 176,-362.7 308,-362.7 308,-339.7 176,-339.7"/>
<text text-anchor="start" x="180.8746" y="-348.8" font-family="Helvetica,sans-Serif" font-weight="bold" font-size="11.00" fill="#000000">observation_types</text>
<text text-anchor="start" x="273.5219" y="-347.8" font-family="Helvetica,sans-Serif" font-size="11.00" fill="#000000">[table]</text>
<polygon fill="none" stroke="#000000" points="176,-317.7 176,-339.7 308,-339.7 308,-317.7 176,-317.7"/>
<image xlink:href="../../images/primaryKeys.png" width="11px" height="12px" preserveAspectRatio="xMinYMin meet" x="181" y="-334.7"/>
<text text-anchor="start" x="199" y="-324.8" font-family="Helvetica,sans-Serif" font-size="11.00" fill="#000000">variable_id</text>
<polygon fill="#ffffff" stroke="transparent" points="176,-295.7 176,-317.7 308,-317.7 308,-295.7 176,-295.7"/>
<polygon fill="none" stroke="#000000" points="176,-295.7 176,-317.7 308,-317.7 308,-295.7 176,-295.7"/>
<text text-anchor="start" x="199" y="-302.8" font-family="Helvetica,sans-Serif" font-size="11.00" fill="#000000">variable_name</text>
<polygon fill="none" stroke="#000000" points="176,-276.7 176,-295.7 308,-295.7 308,-276.7 176,-276.7"/>
<text text-anchor="start" x="179" y="-282.8" font-family="Helvetica,sans-Serif" font-size="11.00" fill="#000000">...</text>
<polygon fill="#ffffff" stroke="transparent" points="176,-257.7 176,-276.7 212,-276.7 212,-257.7 176,-257.7"/>
<polygon fill="none" stroke="#000000" points="176,-257.7 176,-276.7 212,-276.7 212,-257.7 176,-257.7"/>
<text text-anchor="start" x="179" y="-263.8" font-family="Helvetica,sans-Serif" font-size="11.00" fill="#000000"> &#160;</text>
<polygon fill="#ffffff" stroke="transparent" points="212,-257.7 212,-276.7 274,-276.7 274,-257.7 212,-257.7"/>
<polygon fill="none" stroke="#000000" points="212,-257.7 212,-276.7 274,-276.7 274,-257.7 212,-257.7"/>
<text text-anchor="start" x="226.3807" y="-263.8" font-family="Helvetica,sans-Serif" font-size="11.00" fill="#000000">204 rows</text>
<polygon fill="#ffffff" stroke="transparent" points="274,-257.7 274,-276.7 308,-276.7 308,-257.7 274,-257.7"/>
<polygon fill="none" stroke="#000000" points="274,-257.7 274,-276.7 308,-276.7 308,-257.7 274,-257.7"/>
<text text-anchor="start" x="289.4053" y="-263.8" font-family="Helvetica,sans-Serif" font-size="11.00" fill="#000000">5 &gt;</text>
</a>
</g>
</g>
<!-- data_time_series&#45;&gt;observation_types -->
<g id="edge6" class="edge">
<title>data_time_series:w&#45;&gt;observation_types:e</title>
<path fill="none" stroke="#000000" d="M345.0846,-267.4466C327.902,-282.5798 338.9886,-328.7 308,-328.7"/>
<polygon fill="#000000" stroke="#000000" points="351.4284,-265.2827 360.1622,-266.1072 355.2142,-263.9914 359,-262.7 359,-262.7 359,-262.7 355.2142,-263.9914 357.8378,-259.2928 351.4284,-265.2827 351.4284,-265.2827"/>
<ellipse fill="none" stroke="#000000" cx="348.3997" cy="-266.3158" rx="3.2" ry="3.2"/>
</g>
</g>
</svg>
