<?xml version="1.0" encoding="UTF-8" standalone="no"?>
<!DOCTYPE svg PUBLIC "-//W3C//DTD SVG 1.1//EN"
 "http://www.w3.org/Graphics/SVG/1.1/DTD/svg11.dtd">
<!-- Generated by graphviz version 2.40.1 (20161225.0304)
 -->
<!-- Title: oneDegreeRelationshipsDiagram Pages: 1 -->
<svg width="679pt" height="463pt"
 viewBox="0.00 0.00 679.00 462.69" xmlns="http://www.w3.org/2000/svg" xmlns:xlink="http://www.w3.org/1999/xlink">
<g id="graph0" class="graph" transform="scale(1 1) rotate(0) translate(4 458.693)">
<title>oneDegreeRelationshipsDiagram</title>
<polygon fill="#ffffff" stroke="transparent" points="-4,4 -4,-458.693 675,-458.693 675,4 -4,4"/>
<text text-anchor="middle" x="72.4936" y="-7.3" font-family="Helvetica,sans-Serif" font-size="11.00" fill="#000000">Generated by SchemaSpy</text>
<!-- data_histogram_bin_data -->
<g id="node1" class="node">
<title>data_histogram_bin_data</title>
<g id="a_node1"><a xlink:href="../../tables/data_histogram_bin_data.html" xlink:title="data_histogram_bin_data" target="_top">
<polygon fill="#ffffff" stroke="transparent" points="401,-128.7 401,-350.7 663,-350.7 663,-128.7 401,-128.7"/>
<polygon fill="#f5f5f5" stroke="transparent" points="403,-325.7 403,-348.7 661,-348.7 661,-325.7 403,-325.7"/>
<polygon fill="none" stroke="#000000" points="403,-325.7 403,-348.7 661,-348.7 661,-325.7 403,-325.7"/>
<text text-anchor="start" x="408" y="-334.8" font-family="Helvetica,sans-Serif" font-weight="bold" font-size="11.00" fill="#000000">data_histogram_bin_data</text>
<text text-anchor="start" x="626.0437" y="-333.8" font-family="Helvetica,sans-Serif" font-size="11.00" fill="#000000">[table]</text>
<polygon fill="none" stroke="#000000" points="403,-303.7 403,-325.7 569,-325.7 569,-303.7 403,-303.7"/>
<image xlink:href="../../images/primaryKeys.png" width="11px" height="12px" preserveAspectRatio="xMinYMin meet" x="408" y="-320.7"/>
<text text-anchor="start" x="423" y="-310.8" font-family="Helvetica,sans-Serif" font-size="11.00" fill="#000000">submission_id</text>
<polygon fill="none" stroke="#000000" points="569,-303.7 569,-325.7 661,-325.7 661,-303.7 569,-303.7"/>
<text text-anchor="start" x="572" y="-311.4" font-family="Helvetica,sans-Serif" font-size="11.00" fill="#000000">int8[19]</text>
<polygon fill="none" stroke="#000000" points="403,-281.7 403,-303.7 569,-303.7 569,-281.7 403,-281.7"/>
<image xlink:href="../../images/primaryKeys.png" width="11px" height="12px" preserveAspectRatio="xMinYMin meet" x="408" y="-298.7"/>
<text text-anchor="start" x="423" y="-288.8" font-family="Helvetica,sans-Serif" font-size="11.00" fill="#000000">tag_id</text>
<polygon fill="none" stroke="#000000" points="569,-281.7 569,-303.7 661,-303.7 661,-281.7 569,-281.7"/>
<text text-anchor="start" x="572" y="-289.4" font-family="Helvetica,sans-Serif" font-size="11.00" fill="#000000">int8[19]</text>
<polygon fill="none" stroke="#000000" points="403,-259.7 403,-281.7 569,-281.7 569,-259.7 403,-259.7"/>
<image xlink:href="../../images/primaryKeys.png" width="11px" height="12px" preserveAspectRatio="xMinYMin meet" x="408" y="-276.7"/>
<text text-anchor="start" x="423" y="-266.8" font-family="Helvetica,sans-Serif" font-size="11.00" fill="#000000">bin_id</text>
<polygon fill="none" stroke="#000000" points="569,-259.7 569,-281.7 661,-281.7 661,-259.7 569,-259.7"/>
<text text-anchor="start" x="572" y="-267.4" font-family="Helvetica,sans-Serif" font-size="11.00" fill="#000000">int8[19]</text>
<polygon fill="none" stroke="#000000" points="403,-237.7 403,-259.7 569,-259.7 569,-237.7 403,-237.7"/>
<image xlink:href="../../images/primaryKeys.png" width="11px" height="12px" preserveAspectRatio="xMinYMin meet" x="408" y="-254.7"/>
<text text-anchor="start" x="423" y="-244.8" font-family="Helvetica,sans-Serif" font-size="11.00" fill="#000000">bin_class</text>
<polygon fill="none" stroke="#000000" points="569,-237.7 569,-259.7 661,-259.7 661,-237.7 569,-237.7"/>
<text text-anchor="start" x="572" y="-245.4" font-family="Helvetica,sans-Serif" font-size="11.00" fill="#000000">int4[10]</text>
<polygon fill="none" stroke="#000000" points="403,-215.7 403,-237.7 569,-237.7 569,-215.7 403,-215.7"/>
<image xlink:href="../../images/primaryKeys.png" width="11px" height="12px" preserveAspectRatio="xMinYMin meet" x="408" y="-232.7"/>
<text text-anchor="start" x="423" y="-222.8" font-family="Helvetica,sans-Serif" font-size="11.00" fill="#000000">date_time</text>
<polygon fill="none" stroke="#000000" points="569,-215.7 569,-237.7 661,-237.7 661,-215.7 569,-215.7"/>
<text text-anchor="start" x="571.6023" y="-223.4" font-family="Helvetica,sans-Serif" font-size="11.00" fill="#000000">timestamptz[35,6]</text>
<polygon fill="none" stroke="#000000" points="403,-193.7 403,-215.7 569,-215.7 569,-193.7 403,-193.7"/>
<text text-anchor="start" x="423" y="-200.8" font-family="Helvetica,sans-Serif" font-size="11.00" fill="#000000">variable_value</text>
<polygon fill="none" stroke="#000000" points="569,-193.7 569,-215.7 661,-215.7 661,-193.7 569,-193.7"/>
<text text-anchor="start" x="572" y="-201.4" font-family="Helvetica,sans-Serif" font-size="11.00" fill="#000000">float8[17,17]</text>
<polygon fill="#ffffff" stroke="transparent" points="403,-171.7 403,-193.7 569,-193.7 569,-171.7 403,-171.7"/>
<polygon fill="none" stroke="#000000" points="403,-171.7 403,-193.7 569,-193.7 569,-171.7 403,-171.7"/>
<image xlink:href="../../images/foreignKeys.png" width="11px" height="12px" preserveAspectRatio="xMinYMin meet" x="408" y="-188.7"/>
<text text-anchor="start" x="423" y="-178.8" font-family="Helvetica,sans-Serif" font-size="11.00" fill="#000000">position_date_time</text>
<polygon fill="none" stroke="#000000" points="569,-171.7 569,-193.7 661,-193.7 661,-171.7 569,-171.7"/>
<text text-anchor="start" x="571.6023" y="-179.4" font-family="Helvetica,sans-Serif" font-size="11.00" fill="#000000">timestamptz[35,6]</text>
<polygon fill="none" stroke="#000000" points="403,-149.7 403,-171.7 569,-171.7 569,-149.7 403,-149.7"/>
<image xlink:href="../../images/primaryKeys.png" width="11px" height="12px" preserveAspectRatio="xMinYMin meet" x="408" y="-166.7"/>
<text text-anchor="start" x="423" y="-156.8" font-family="Helvetica,sans-Serif" font-size="11.00" fill="#000000">variable_id</text>
<polygon fill="none" stroke="#000000" points="569,-149.7 569,-171.7 661,-171.7 661,-149.7 569,-149.7"/>
<text text-anchor="start" x="572" y="-157.4" font-family="Helvetica,sans-Serif" font-size="11.00" fill="#000000">int8[19]</text>
<polygon fill="#ffffff" stroke="transparent" points="403,-130.7 403,-149.7 477,-149.7 477,-130.7 403,-130.7"/>
<polygon fill="none" stroke="#000000" points="403,-130.7 403,-149.7 477,-149.7 477,-130.7 403,-130.7"/>
<text text-anchor="start" x="406" y="-136.8" font-family="Helvetica,sans-Serif" font-size="11.00" fill="#000000">&lt; 7</text>
<polygon fill="#ffffff" stroke="transparent" points="477,-130.7 477,-149.7 569,-149.7 569,-130.7 477,-130.7"/>
<polygon fill="none" stroke="#000000" points="477,-130.7 477,-149.7 569,-149.7 569,-130.7 477,-130.7"/>
<text text-anchor="start" x="533.6105" y="-136.8" font-family="Helvetica,sans-Serif" font-size="11.00" fill="#000000">0 rows</text>
<polygon fill="#ffffff" stroke="transparent" points="569,-130.7 569,-149.7 661,-149.7 661,-130.7 569,-130.7"/>
<polygon fill="none" stroke="#000000" points="569,-130.7 569,-149.7 661,-149.7 661,-130.7 569,-130.7"/>
<text text-anchor="start" x="642.4053" y="-136.8" font-family="Helvetica,sans-Serif" font-size="11.00" fill="#000000">0 &gt;</text>
<polygon fill="none" stroke="#000000" stroke-width="2" points="402,-129.7 402,-349.7 662,-349.7 662,-129.7 402,-129.7"/>
</a>
</g>
</g>
<!-- data_histogram_bin_info -->
<g id="node2" class="node">
<title>data_histogram_bin_info</title>
<g id="a_node2"><a xlink:href="../../tables/data_histogram_bin_info.html" xlink:title="data_histogram_bin_info" target="_top">
<polygon fill="#ffffff" stroke="transparent" points="189,-96.2 189,-223.2 352,-223.2 352,-96.2 189,-96.2"/>
<polygon fill="#f5f5f5" stroke="transparent" points="189.5,-199.7 189.5,-222.7 352.5,-222.7 352.5,-199.7 189.5,-199.7"/>
<polygon fill="none" stroke="#000000" points="189.5,-199.7 189.5,-222.7 352.5,-222.7 352.5,-199.7 189.5,-199.7"/>
<text text-anchor="start" x="194.2871" y="-208.8" font-family="Helvetica,sans-Serif" font-weight="bold" font-size="11.00" fill="#000000">data_histogram_bin_info</text>
<text text-anchor="start" x="318.0219" y="-207.8" font-family="Helvetica,sans-Serif" font-size="11.00" fill="#000000">[table]</text>
<polygon fill="none" stroke="#000000" points="189.5,-177.7 189.5,-199.7 352.5,-199.7 352.5,-177.7 189.5,-177.7"/>
<image xlink:href="../../images/primaryKeys.png" width="11px" height="12px" preserveAspectRatio="xMinYMin meet" x="194.5" y="-194.7"/>
<text text-anchor="start" x="209.5" y="-184.8" font-family="Helvetica,sans-Serif" font-size="11.00" fill="#000000">bin_id</text>
<polygon fill="none" stroke="#000000" points="189.5,-155.7 189.5,-177.7 352.5,-177.7 352.5,-155.7 189.5,-155.7"/>
<image xlink:href="../../images/primaryKeys.png" width="11px" height="12px" preserveAspectRatio="xMinYMin meet" x="194.5" y="-172.7"/>
<text text-anchor="start" x="209.5" y="-162.8" font-family="Helvetica,sans-Serif" font-size="11.00" fill="#000000">bin_class</text>
<polygon fill="none" stroke="#000000" points="189.5,-133.7 189.5,-155.7 352.5,-155.7 352.5,-133.7 189.5,-133.7"/>
<image xlink:href="../../images/primaryKeys.png" width="11px" height="12px" preserveAspectRatio="xMinYMin meet" x="194.5" y="-150.7"/>
<text text-anchor="start" x="209.5" y="-140.8" font-family="Helvetica,sans-Serif" font-size="11.00" fill="#000000">variable_id</text>
<polygon fill="none" stroke="#000000" points="189.5,-114.7 189.5,-133.7 352.5,-133.7 352.5,-114.7 189.5,-114.7"/>
<text text-anchor="start" x="192.5" y="-120.8" font-family="Helvetica,sans-Serif" font-size="11.00" fill="#000000">...</text>
<polygon fill="#ffffff" stroke="transparent" points="189.5,-95.7 189.5,-114.7 251.5,-114.7 251.5,-95.7 189.5,-95.7"/>
<polygon fill="none" stroke="#000000" points="189.5,-95.7 189.5,-114.7 251.5,-114.7 251.5,-95.7 189.5,-95.7"/>
<text text-anchor="start" x="192.5" y="-101.8" font-family="Helvetica,sans-Serif" font-size="11.00" fill="#000000">&lt; 1</text>
<polygon fill="#ffffff" stroke="transparent" points="251.5,-95.7 251.5,-114.7 310.5,-114.7 310.5,-95.7 251.5,-95.7"/>
<polygon fill="none" stroke="#000000" points="251.5,-95.7 251.5,-114.7 310.5,-114.7 310.5,-95.7 251.5,-95.7"/>
<text text-anchor="start" x="275.1105" y="-101.8" font-family="Helvetica,sans-Serif" font-size="11.00" fill="#000000">0 rows</text>
<polygon fill="#ffffff" stroke="transparent" points="310.5,-95.7 310.5,-114.7 352.5,-114.7 352.5,-95.7 310.5,-95.7"/>
<polygon fill="none" stroke="#000000" points="310.5,-95.7 310.5,-114.7 352.5,-114.7 352.5,-95.7 310.5,-95.7"/>
<text text-anchor="start" x="333.9053" y="-101.8" font-family="Helvetica,sans-Serif" font-size="11.00" fill="#000000">2 &gt;</text>
</a>
</g>
</g>
<!-- data_histogram_bin_data&#45;&gt;data_histogram_bin_info -->
<g id="edge1" class="edge">
<title>data_histogram_bin_data:w&#45;&gt;data_histogram_bin_info:e</title>
<path fill="none" stroke="#000000" d="M389.1317,-244.2913C368.5307,-227.2591 389.2824,-166.7 352.5,-166.7"/>
<polygon fill="#000000" stroke="#000000" points="395.376,-246.2763 401.9093,-252.1308 399.188,-247.4882 403,-248.7 403,-248.7 403,-248.7 399.188,-247.4882 404.0907,-245.2692 395.376,-246.2763 395.376,-246.2763"/>
<ellipse fill="none" stroke="#000000" cx="392.3263" cy="-245.3068" rx="3.2" ry="3.2"/>
</g>
<!-- data_histogram_bin_data&#45;&gt;data_histogram_bin_info -->
<g id="edge2" class="edge">
<title>data_histogram_bin_data:w&#45;&gt;data_histogram_bin_info:e</title>
<path fill="none" stroke="#000000" d="M389.1317,-266.2913C368.5307,-249.2591 389.2824,-188.7 352.5,-188.7"/>
<polygon fill="#000000" stroke="#000000" points="395.376,-268.2763 401.9093,-274.1308 399.188,-269.4882 403,-270.7 403,-270.7 403,-270.7 399.188,-269.4882 404.0907,-267.2692 395.376,-268.2763 395.376,-268.2763"/>
<ellipse fill="none" stroke="#000000" cx="392.3263" cy="-267.3068" rx="3.2" ry="3.2"/>
</g>
<!-- data_position -->
<g id="node3" class="node">
<title>data_position</title>
<g id="a_node3"><a xlink:href="../../tables/data_position.html" xlink:title="data_position" target="_top">
<polygon fill="#ffffff" stroke="transparent" points="216.5,-244.2 216.5,-415.2 324.5,-415.2 324.5,-244.2 216.5,-244.2"/>
<polygon fill="#f5f5f5" stroke="transparent" points="216.5,-391.7 216.5,-414.7 324.5,-414.7 324.5,-391.7 216.5,-391.7"/>
<polygon fill="none" stroke="#000000" points="216.5,-391.7 216.5,-414.7 324.5,-414.7 324.5,-391.7 216.5,-391.7"/>
<text text-anchor="start" x="221.2926" y="-400.8" font-family="Helvetica,sans-Serif" font-weight="bold" font-size="11.00" fill="#000000">data_position</text>
<text text-anchor="start" x="290.0219" y="-399.8" font-family="Helvetica,sans-Serif" font-size="11.00" fill="#000000">[table]</text>
<polygon fill="none" stroke="#000000" points="216.5,-369.7 216.5,-391.7 324.5,-391.7 324.5,-369.7 216.5,-369.7"/>
<image xlink:href="../../images/primaryKeys.png" width="11px" height="12px" preserveAspectRatio="xMinYMin meet" x="221.5" y="-386.7"/>
<text text-anchor="start" x="238.5" y="-376.8" font-family="Helvetica,sans-Serif" font-size="11.00" fill="#000000">date_time</text>
<polygon fill="#ffffff" stroke="transparent" points="216.5,-347.7 216.5,-369.7 324.5,-369.7 324.5,-347.7 216.5,-347.7"/>
<polygon fill="none" stroke="#000000" points="216.5,-347.7 216.5,-369.7 324.5,-369.7 324.5,-347.7 216.5,-347.7"/>
<text text-anchor="start" x="238.5" y="-354.8" font-family="Helvetica,sans-Serif" font-size="11.00" fill="#000000">lat</text>
<polygon fill="#ffffff" stroke="transparent" points="216.5,-325.7 216.5,-347.7 324.5,-347.7 324.5,-325.7 216.5,-325.7"/>
<polygon fill="none" stroke="#000000" points="216.5,-325.7 216.5,-347.7 324.5,-347.7 324.5,-325.7 216.5,-325.7"/>
<text text-anchor="start" x="238.5" y="-332.8" font-family="Helvetica,sans-Serif" font-size="11.00" fill="#000000">lon</text>
<polygon fill="none" stroke="#000000" points="216.5,-303.7 216.5,-325.7 324.5,-325.7 324.5,-303.7 216.5,-303.7"/>
<image xlink:href="../../images/primaryKeys.png" width="11px" height="12px" preserveAspectRatio="xMinYMin meet" x="221.5" y="-320.7"/>
<text text-anchor="start" x="238.5" y="-310.8" font-family="Helvetica,sans-Serif" font-size="11.00" fill="#000000">submission_id</text>
<polygon fill="none" stroke="#000000" points="216.5,-281.7 216.5,-303.7 324.5,-303.7 324.5,-281.7 216.5,-281.7"/>
<image xlink:href="../../images/primaryKeys.png" width="11px" height="12px" preserveAspectRatio="xMinYMin meet" x="221.5" y="-298.7"/>
<text text-anchor="start" x="238.5" y="-288.8" font-family="Helvetica,sans-Serif" font-size="11.00" fill="#000000">tag_id</text>
<polygon fill="none" stroke="#000000" points="216.5,-262.7 216.5,-281.7 324.5,-281.7 324.5,-262.7 216.5,-262.7"/>
<text text-anchor="start" x="219.5" y="-268.8" font-family="Helvetica,sans-Serif" font-size="11.00" fill="#000000">...</text>
<polygon fill="#ffffff" stroke="transparent" points="216.5,-243.7 216.5,-262.7 251.5,-262.7 251.5,-243.7 216.5,-243.7"/>
<polygon fill="none" stroke="#000000" points="216.5,-243.7 216.5,-262.7 251.5,-262.7 251.5,-243.7 216.5,-243.7"/>
<text text-anchor="start" x="219.5" y="-249.8" font-family="Helvetica,sans-Serif" font-size="11.00" fill="#000000">&lt; 1</text>
<polygon fill="#ffffff" stroke="transparent" points="251.5,-243.7 251.5,-262.7 296.5,-262.7 296.5,-243.7 251.5,-243.7"/>
<polygon fill="none" stroke="#000000" points="251.5,-243.7 251.5,-262.7 296.5,-262.7 296.5,-243.7 251.5,-243.7"/>
<text text-anchor="start" x="261.1105" y="-249.8" font-family="Helvetica,sans-Serif" font-size="11.00" fill="#000000">0 rows</text>
<polygon fill="#ffffff" stroke="transparent" points="296.5,-243.7 296.5,-262.7 324.5,-262.7 324.5,-243.7 296.5,-243.7"/>
<polygon fill="none" stroke="#000000" points="296.5,-243.7 296.5,-262.7 324.5,-262.7 324.5,-243.7 296.5,-243.7"/>
<text text-anchor="start" x="305.9053" y="-249.8" font-family="Helvetica,sans-Serif" font-size="11.00" fill="#000000">9 &gt;</text>
</a>
</g>
</g>
<!-- data_histogram_bin_data&#45;&gt;data_position -->
<g id="edge3" class="edge">
<title>data_histogram_bin_data:w&#45;&gt;data_position:e</title>
<path fill="none" stroke="#000000" d="M388.3937,-184.6597C320.6183,-205.2233 413.6171,-380.7 324.5,-380.7"/>
<polygon fill="#000000" stroke="#000000" points="395.071,-183.7638 403.4787,-186.268 399.0355,-183.2319 403,-182.7 403,-182.7 403,-182.7 399.0355,-183.2319 402.5213,-179.132 395.071,-183.7638 395.071,-183.7638"/>
<ellipse fill="none" stroke="#000000" cx="391.8995" cy="-184.1894" rx="3.2" ry="3.2"/>
</g>
<!-- data_histogram_bin_data&#45;&gt;data_position -->
<g id="edge4" class="edge">
<title>data_histogram_bin_data:w&#45;&gt;data_position:e</title>
<path fill="none" stroke="#000000" d="M388.3627,-314.7C364.7466,-314.7 353.9375,-314.7 324.5,-314.7"/>
<polygon fill="#000000" stroke="#000000" points="395,-314.7001 403,-318.3 399,-314.7 403,-314.7 403,-314.7 403,-314.7 399,-314.7 403,-311.1 395,-314.7001 395,-314.7001"/>
<ellipse fill="none" stroke="#000000" cx="391.8" cy="-314.7001" rx="3.2" ry="3.2"/>
</g>
<!-- data_histogram_bin_data&#45;&gt;data_position -->
<g id="edge6" class="edge">
<title>data_histogram_bin_data:w&#45;&gt;data_position:e</title>
<path fill="none" stroke="#000000" d="M388.3627,-292.7C364.7466,-292.7 353.9375,-292.7 324.5,-292.7"/>
<polygon fill="#000000" stroke="#000000" points="395,-292.7001 403,-296.3 399,-292.7 403,-292.7 403,-292.7 403,-292.7 399,-292.7 403,-289.1 395,-292.7001 395,-292.7001"/>
<ellipse fill="none" stroke="#000000" cx="391.8" cy="-292.7001" rx="3.2" ry="3.2"/>
</g>
<!-- submission -->
<g id="node4" class="node">
<title>submission</title>
<g id="a_node4"><a xlink:href="../../tables/submission.html" xlink:title="submission" target="_top">
<polygon fill="#ffffff" stroke="transparent" points="14.5,-328.2 14.5,-411.2 133.5,-411.2 133.5,-328.2 14.5,-328.2"/>
<polygon fill="#f5f5f5" stroke="transparent" points="15,-387.7 15,-410.7 134,-410.7 134,-387.7 15,-387.7"/>
<polygon fill="none" stroke="#000000" points="15,-387.7 15,-410.7 134,-410.7 134,-387.7 15,-387.7"/>
<text text-anchor="start" x="20" y="-396.8" font-family="Helvetica,sans-Serif" font-weight="bold" font-size="11.00" fill="#000000">submission</text>
<text text-anchor="start" x="99.0437" y="-395.8" font-family="Helvetica,sans-Serif" font-size="11.00" fill="#000000">[table]</text>
<polygon fill="none" stroke="#000000" points="15,-365.7 15,-387.7 134,-387.7 134,-365.7 15,-365.7"/>
<image xlink:href="../../images/primaryKeys.png" width="11px" height="12px" preserveAspectRatio="xMinYMin meet" x="20" y="-382.7"/>
<text text-anchor="start" x="35" y="-372.8" font-family="Helvetica,sans-Serif" font-size="11.00" fill="#000000">submission_id</text>
<polygon fill="none" stroke="#000000" points="15,-346.7 15,-365.7 134,-365.7 134,-346.7 15,-346.7"/>
<text text-anchor="start" x="18" y="-352.8" font-family="Helvetica,sans-Serif" font-size="11.00" fill="#000000">...</text>
<polygon fill="#ffffff" stroke="transparent" points="15,-327.7 15,-346.7 51,-346.7 51,-327.7 15,-327.7"/>
<polygon fill="none" stroke="#000000" points="15,-327.7 15,-346.7 51,-346.7 51,-327.7 15,-327.7"/>
<text text-anchor="start" x="18" y="-333.8" font-family="Helvetica,sans-Serif" font-size="11.00" fill="#000000"> &#160;</text>
<polygon fill="#ffffff" stroke="transparent" points="51,-327.7 51,-346.7 101,-346.7 101,-327.7 51,-327.7"/>
<polygon fill="none" stroke="#000000" points="51,-327.7 51,-346.7 101,-346.7 101,-327.7 51,-327.7"/>
<text text-anchor="start" x="65.6105" y="-333.8" font-family="Helvetica,sans-Serif" font-size="11.00" fill="#000000">0 rows</text>
<polygon fill="#ffffff" stroke="transparent" points="101,-327.7 101,-346.7 134,-346.7 134,-327.7 101,-327.7"/>
<polygon fill="none" stroke="#000000" points="101,-327.7 101,-346.7 134,-346.7 134,-327.7 101,-327.7"/>
<text text-anchor="start" x="115.4053" y="-333.8" font-family="Helvetica,sans-Serif" font-size="11.00" fill="#000000">6 &gt;</text>
</a>
</g>
</g>
<!-- data_histogram_bin_data&#45;&gt;submission -->
<g id="edge5" class="edge">
<title>data_histogram_bin_data:w&#45;&gt;submission:e</title>
<path fill="none" stroke="#000000" d="M388.8227,-317.6299C360.98,-332.4173 398.7025,-399.1878 360,-425.7 294.3672,-470.6602 254.1787,-456.9084 181,-425.7 153.2424,-413.8622 164.1764,-376.7 134,-376.7"/>
<polygon fill="#000000" stroke="#000000" points="395.1655,-316.3191 403.7286,-318.2255 399.0828,-315.5096 403,-314.7 403,-314.7 403,-314.7 399.0828,-315.5096 402.2714,-311.1745 395.1655,-316.3191 395.1655,-316.3191"/>
<ellipse fill="none" stroke="#000000" cx="392.0318" cy="-316.9668" rx="3.2" ry="3.2"/>
</g>
<!-- observation_types -->
<g id="node5" class="node">
<title>observation_types</title>
<g id="a_node5"><a xlink:href="../../tables/observation_types.html" xlink:title="observation_types" target="_top">
<polygon fill="#ffffff" stroke="transparent" points="8,-38.2 8,-143.2 140,-143.2 140,-38.2 8,-38.2"/>
<polygon fill="#f5f5f5" stroke="transparent" points="8,-119.7 8,-142.7 140,-142.7 140,-119.7 8,-119.7"/>
<polygon fill="none" stroke="#000000" points="8,-119.7 8,-142.7 140,-142.7 140,-119.7 8,-119.7"/>
<text text-anchor="start" x="12.8746" y="-128.8" font-family="Helvetica,sans-Serif" font-weight="bold" font-size="11.00" fill="#000000">observation_types</text>
<text text-anchor="start" x="105.5219" y="-127.8" font-family="Helvetica,sans-Serif" font-size="11.00" fill="#000000">[table]</text>
<polygon fill="none" stroke="#000000" points="8,-97.7 8,-119.7 140,-119.7 140,-97.7 8,-97.7"/>
<image xlink:href="../../images/primaryKeys.png" width="11px" height="12px" preserveAspectRatio="xMinYMin meet" x="13" y="-114.7"/>
<text text-anchor="start" x="31" y="-104.8" font-family="Helvetica,sans-Serif" font-size="11.00" fill="#000000">variable_id</text>
<polygon fill="#ffffff" stroke="transparent" points="8,-75.7 8,-97.7 140,-97.7 140,-75.7 8,-75.7"/>
<polygon fill="none" stroke="#000000" points="8,-75.7 8,-97.7 140,-97.7 140,-75.7 8,-75.7"/>
<text text-anchor="start" x="31" y="-82.8" font-family="Helvetica,sans-Serif" font-size="11.00" fill="#000000">variable_name</text>
<polygon fill="none" stroke="#000000" points="8,-56.7 8,-75.7 140,-75.7 140,-56.7 8,-56.7"/>
<text text-anchor="start" x="11" y="-62.8" font-family="Helvetica,sans-Serif" font-size="11.00" fill="#000000">...</text>
<polygon fill="#ffffff" stroke="transparent" points="8,-37.7 8,-56.7 44,-56.7 44,-37.7 8,-37.7"/>
<polygon fill="none" stroke="#000000" points="8,-37.7 8,-56.7 44,-56.7 44,-37.7 8,-37.7"/>
<text text-anchor="start" x="11" y="-43.8" font-family="Helvetica,sans-Serif" font-size="11.00" fill="#000000"> &#160;</text>
<polygon fill="#ffffff" stroke="transparent" points="44,-37.7 44,-56.7 106,-56.7 106,-37.7 44,-37.7"/>
<polygon fill="none" stroke="#000000" points="44,-37.7 44,-56.7 106,-56.7 106,-37.7 44,-37.7"/>
<text text-anchor="start" x="58.3807" y="-43.8" font-family="Helvetica,sans-Serif" font-size="11.00" fill="#000000">204 rows</text>
<polygon fill="#ffffff" stroke="transparent" points="106,-37.7 106,-56.7 140,-56.7 140,-37.7 106,-37.7"/>
<polygon fill="none" stroke="#000000" points="106,-37.7 106,-56.7 140,-56.7 140,-37.7 106,-37.7"/>
<text text-anchor="start" x="121.4053" y="-43.8" font-family="Helvetica,sans-Serif" font-size="11.00" fill="#000000">5 &gt;</text>
</a>
</g>
</g>
<!-- data_histogram_bin_data&#45;&gt;observation_types -->
<g id="edge7" class="edge">
<title>data_histogram_bin_data:w&#45;&gt;observation_types:e</title>
<path fill="none" stroke="#000000" d="M388.9366,-156.6064C372.3174,-143.3927 387.792,-101.8017 360,-85.7 291.163,-45.8183 257.9706,-65.5851 181,-85.7 160.7853,-90.9828 160.8936,-108.7 140,-108.7"/>
<polygon fill="#000000" stroke="#000000" points="395.3188,-158.4641 401.9938,-164.1565 399.1594,-159.582 403,-160.7 403,-160.7 403,-160.7 399.1594,-159.582 404.0062,-157.2435 395.3188,-158.4641 395.3188,-158.4641"/>
<ellipse fill="none" stroke="#000000" cx="392.2463" cy="-157.5697" rx="3.2" ry="3.2"/>
</g>
<!-- data_histogram_bin_info&#45;&gt;observation_types -->
<g id="edge8" class="edge">
<title>data_histogram_bin_info:w&#45;&gt;observation_types:e</title>
<path fill="none" stroke="#000000" d="M175.5852,-140.2857C162.9069,-130.6727 161.2523,-108.7 140,-108.7"/>
<polygon fill="#000000" stroke="#000000" points="181.8745,-142.2809 188.4114,-148.1315 185.6873,-143.4904 189.5,-144.7 189.5,-144.7 189.5,-144.7 185.6873,-143.4904 190.5886,-141.2685 181.8745,-142.2809 181.8745,-142.2809"/>
<ellipse fill="none" stroke="#000000" cx="178.8243" cy="-141.3132" rx="3.2" ry="3.2"/>
</g>
<!-- data_position&#45;&gt;submission -->
<g id="edge9" class="edge">
<title>data_position:w&#45;&gt;submission:e</title>
<path fill="none" stroke="#000000" d="M202.0657,-317.2073C172.0615,-328.8065 174.3125,-376.7 134,-376.7"/>
<polygon fill="#000000" stroke="#000000" points="208.618,-316.0692 217.1161,-318.2469 212.559,-315.3846 216.5,-314.7 216.5,-314.7 216.5,-314.7 212.559,-315.3846 215.8839,-311.1531 208.618,-316.0692 208.618,-316.0692"/>
<ellipse fill="none" stroke="#000000" cx="205.4652" cy="-316.6168" rx="3.2" ry="3.2"/>
</g>
</g>
</svg>
