<?xml version="1.0" encoding="UTF-8" standalone="no"?>
<!DOCTYPE svg PUBLIC "-//W3C//DTD SVG 1.1//EN"
 "http://www.w3.org/Graphics/SVG/1.1/DTD/svg11.dtd">
<!-- Generated by graphviz version 2.40.1 (20161225.0304)
 -->
<!-- Title: twoDegreesRelationshipsDiagram Pages: 1 -->
<svg width="679pt" height="720pt"
 viewBox="0.00 0.00 679.00 720.49" xmlns="http://www.w3.org/2000/svg" xmlns:xlink="http://www.w3.org/1999/xlink">
<g id="graph0" class="graph" transform="scale(1 1) rotate(0) translate(4 716.4882)">
<title>twoDegreesRelationshipsDiagram</title>
<polygon fill="#ffffff" stroke="transparent" points="-4,4 -4,-716.4882 675,-716.4882 675,4 -4,4"/>
<text text-anchor="middle" x="72.4936" y="-7.3" font-family="Helvetica,sans-Serif" font-size="11.00" fill="#000000">Generated by SchemaSpy</text>
<!-- data_histogram_bin_data -->
<g id="node1" class="node">
<title>data_histogram_bin_data</title>
<g id="a_node1"><a xlink:href="../../tables/data_histogram_bin_data.html" xlink:title="data_histogram_bin_data" target="_top">
<polygon fill="#ffffff" stroke="transparent" points="401,-486.4882 401,-708.4882 663,-708.4882 663,-486.4882 401,-486.4882"/>
<polygon fill="#f5f5f5" stroke="transparent" points="403,-683.4882 403,-706.4882 661,-706.4882 661,-683.4882 403,-683.4882"/>
<polygon fill="none" stroke="#000000" points="403,-683.4882 403,-706.4882 661,-706.4882 661,-683.4882 403,-683.4882"/>
<text text-anchor="start" x="408" y="-692.5882" font-family="Helvetica,sans-Serif" font-weight="bold" font-size="11.00" fill="#000000">data_histogram_bin_data</text>
<text text-anchor="start" x="626.0437" y="-691.5882" font-family="Helvetica,sans-Serif" font-size="11.00" fill="#000000">[table]</text>
<polygon fill="none" stroke="#000000" points="403,-661.4882 403,-683.4882 569,-683.4882 569,-661.4882 403,-661.4882"/>
<image xlink:href="../../images/primaryKeys.png" width="11px" height="12px" preserveAspectRatio="xMinYMin meet" x="408" y="-678.488"/>
<text text-anchor="start" x="423" y="-668.5882" font-family="Helvetica,sans-Serif" font-size="11.00" fill="#000000">submission_id</text>
<polygon fill="none" stroke="#000000" points="569,-661.4882 569,-683.4882 661,-683.4882 661,-661.4882 569,-661.4882"/>
<text text-anchor="start" x="572" y="-669.1882" font-family="Helvetica,sans-Serif" font-size="11.00" fill="#000000">int8[19]</text>
<polygon fill="none" stroke="#000000" points="403,-639.4882 403,-661.4882 569,-661.4882 569,-639.4882 403,-639.4882"/>
<image xlink:href="../../images/primaryKeys.png" width="11px" height="12px" preserveAspectRatio="xMinYMin meet" x="408" y="-656.488"/>
<text text-anchor="start" x="423" y="-646.5882" font-family="Helvetica,sans-Serif" font-size="11.00" fill="#000000">tag_id</text>
<polygon fill="none" stroke="#000000" points="569,-639.4882 569,-661.4882 661,-661.4882 661,-639.4882 569,-639.4882"/>
<text text-anchor="start" x="572" y="-647.1882" font-family="Helvetica,sans-Serif" font-size="11.00" fill="#000000">int8[19]</text>
<polygon fill="none" stroke="#000000" points="403,-617.4882 403,-639.4882 569,-639.4882 569,-617.4882 403,-617.4882"/>
<image xlink:href="../../images/primaryKeys.png" width="11px" height="12px" preserveAspectRatio="xMinYMin meet" x="408" y="-634.488"/>
<text text-anchor="start" x="423" y="-624.5882" font-family="Helvetica,sans-Serif" font-size="11.00" fill="#000000">bin_id</text>
<polygon fill="none" stroke="#000000" points="569,-617.4882 569,-639.4882 661,-639.4882 661,-617.4882 569,-617.4882"/>
<text text-anchor="start" x="572" y="-625.1882" font-family="Helvetica,sans-Serif" font-size="11.00" fill="#000000">int8[19]</text>
<polygon fill="none" stroke="#000000" points="403,-595.4882 403,-617.4882 569,-617.4882 569,-595.4882 403,-595.4882"/>
<image xlink:href="../../images/primaryKeys.png" width="11px" height="12px" preserveAspectRatio="xMinYMin meet" x="408" y="-612.488"/>
<text text-anchor="start" x="423" y="-602.5882" font-family="Helvetica,sans-Serif" font-size="11.00" fill="#000000">bin_class</text>
<polygon fill="none" stroke="#000000" points="569,-595.4882 569,-617.4882 661,-617.4882 661,-595.4882 569,-595.4882"/>
<text text-anchor="start" x="572" y="-603.1882" font-family="Helvetica,sans-Serif" font-size="11.00" fill="#000000">int4[10]</text>
<polygon fill="none" stroke="#000000" points="403,-573.4882 403,-595.4882 569,-595.4882 569,-573.4882 403,-573.4882"/>
<image xlink:href="../../images/primaryKeys.png" width="11px" height="12px" preserveAspectRatio="xMinYMin meet" x="408" y="-590.488"/>
<text text-anchor="start" x="423" y="-580.5882" font-family="Helvetica,sans-Serif" font-size="11.00" fill="#000000">date_time</text>
<polygon fill="none" stroke="#000000" points="569,-573.4882 569,-595.4882 661,-595.4882 661,-573.4882 569,-573.4882"/>
<text text-anchor="start" x="571.6023" y="-581.1882" font-family="Helvetica,sans-Serif" font-size="11.00" fill="#000000">timestamptz[35,6]</text>
<polygon fill="none" stroke="#000000" points="403,-551.4882 403,-573.4882 569,-573.4882 569,-551.4882 403,-551.4882"/>
<text text-anchor="start" x="423" y="-558.5882" font-family="Helvetica,sans-Serif" font-size="11.00" fill="#000000">variable_value</text>
<polygon fill="none" stroke="#000000" points="569,-551.4882 569,-573.4882 661,-573.4882 661,-551.4882 569,-551.4882"/>
<text text-anchor="start" x="572" y="-559.1882" font-family="Helvetica,sans-Serif" font-size="11.00" fill="#000000">float8[17,17]</text>
<polygon fill="#ffffff" stroke="transparent" points="403,-529.4882 403,-551.4882 569,-551.4882 569,-529.4882 403,-529.4882"/>
<polygon fill="none" stroke="#000000" points="403,-529.4882 403,-551.4882 569,-551.4882 569,-529.4882 403,-529.4882"/>
<image xlink:href="../../images/foreignKeys.png" width="11px" height="12px" preserveAspectRatio="xMinYMin meet" x="408" y="-546.488"/>
<text text-anchor="start" x="423" y="-536.5882" font-family="Helvetica,sans-Serif" font-size="11.00" fill="#000000">position_date_time</text>
<polygon fill="none" stroke="#000000" points="569,-529.4882 569,-551.4882 661,-551.4882 661,-529.4882 569,-529.4882"/>
<text text-anchor="start" x="571.6023" y="-537.1882" font-family="Helvetica,sans-Serif" font-size="11.00" fill="#000000">timestamptz[35,6]</text>
<polygon fill="none" stroke="#000000" points="403,-507.4882 403,-529.4882 569,-529.4882 569,-507.4882 403,-507.4882"/>
<image xlink:href="../../images/primaryKeys.png" width="11px" height="12px" preserveAspectRatio="xMinYMin meet" x="408" y="-524.488"/>
<text text-anchor="start" x="423" y="-514.5882" font-family="Helvetica,sans-Serif" font-size="11.00" fill="#000000">variable_id</text>
<polygon fill="none" stroke="#000000" points="569,-507.4882 569,-529.4882 661,-529.4882 661,-507.4882 569,-507.4882"/>
<text text-anchor="start" x="572" y="-515.1882" font-family="Helvetica,sans-Serif" font-size="11.00" fill="#000000">int8[19]</text>
<polygon fill="#ffffff" stroke="transparent" points="403,-488.4882 403,-507.4882 477,-507.4882 477,-488.4882 403,-488.4882"/>
<polygon fill="none" stroke="#000000" points="403,-488.4882 403,-507.4882 477,-507.4882 477,-488.4882 403,-488.4882"/>
<text text-anchor="start" x="406" y="-494.5882" font-family="Helvetica,sans-Serif" font-size="11.00" fill="#000000">&lt; 7</text>
<polygon fill="#ffffff" stroke="transparent" points="477,-488.4882 477,-507.4882 569,-507.4882 569,-488.4882 477,-488.4882"/>
<polygon fill="none" stroke="#000000" points="477,-488.4882 477,-507.4882 569,-507.4882 569,-488.4882 477,-488.4882"/>
<text text-anchor="start" x="533.6105" y="-494.5882" font-family="Helvetica,sans-Serif" font-size="11.00" fill="#000000">0 rows</text>
<polygon fill="#ffffff" stroke="transparent" points="569,-488.4882 569,-507.4882 661,-507.4882 661,-488.4882 569,-488.4882"/>
<polygon fill="none" stroke="#000000" points="569,-488.4882 569,-507.4882 661,-507.4882 661,-488.4882 569,-488.4882"/>
<text text-anchor="start" x="642.4053" y="-494.5882" font-family="Helvetica,sans-Serif" font-size="11.00" fill="#000000">0 &gt;</text>
<polygon fill="none" stroke="#000000" stroke-width="2" points="402,-487.4882 402,-707.4882 662,-707.4882 662,-487.4882 402,-487.4882"/>
</a>
</g>
</g>
<!-- data_histogram_bin_info -->
<g id="node2" class="node">
<title>data_histogram_bin_info</title>
<g id="a_node2"><a xlink:href="../../tables/data_histogram_bin_info.html" xlink:title="data_histogram_bin_info" target="_top">
<polygon fill="#ffffff" stroke="transparent" points="189,-542.9882 189,-669.9882 352,-669.9882 352,-542.9882 189,-542.9882"/>
<polygon fill="#f5f5f5" stroke="transparent" points="189.5,-646.4882 189.5,-669.4882 352.5,-669.4882 352.5,-646.4882 189.5,-646.4882"/>
<polygon fill="none" stroke="#000000" points="189.5,-646.4882 189.5,-669.4882 352.5,-669.4882 352.5,-646.4882 189.5,-646.4882"/>
<text text-anchor="start" x="194.2871" y="-655.5882" font-family="Helvetica,sans-Serif" font-weight="bold" font-size="11.00" fill="#000000">data_histogram_bin_info</text>
<text text-anchor="start" x="318.0219" y="-654.5882" font-family="Helvetica,sans-Serif" font-size="11.00" fill="#000000">[table]</text>
<polygon fill="none" stroke="#000000" points="189.5,-624.4882 189.5,-646.4882 352.5,-646.4882 352.5,-624.4882 189.5,-624.4882"/>
<image xlink:href="../../images/primaryKeys.png" width="11px" height="12px" preserveAspectRatio="xMinYMin meet" x="194.5" y="-641.488"/>
<text text-anchor="start" x="209.5" y="-631.5882" font-family="Helvetica,sans-Serif" font-size="11.00" fill="#000000">bin_id</text>
<polygon fill="none" stroke="#000000" points="189.5,-602.4882 189.5,-624.4882 352.5,-624.4882 352.5,-602.4882 189.5,-602.4882"/>
<image xlink:href="../../images/primaryKeys.png" width="11px" height="12px" preserveAspectRatio="xMinYMin meet" x="194.5" y="-619.488"/>
<text text-anchor="start" x="209.5" y="-609.5882" font-family="Helvetica,sans-Serif" font-size="11.00" fill="#000000">bin_class</text>
<polygon fill="none" stroke="#000000" points="189.5,-580.4882 189.5,-602.4882 352.5,-602.4882 352.5,-580.4882 189.5,-580.4882"/>
<image xlink:href="../../images/primaryKeys.png" width="11px" height="12px" preserveAspectRatio="xMinYMin meet" x="194.5" y="-597.488"/>
<text text-anchor="start" x="209.5" y="-587.5882" font-family="Helvetica,sans-Serif" font-size="11.00" fill="#000000">variable_id</text>
<polygon fill="none" stroke="#000000" points="189.5,-561.4882 189.5,-580.4882 352.5,-580.4882 352.5,-561.4882 189.5,-561.4882"/>
<text text-anchor="start" x="192.5" y="-567.5882" font-family="Helvetica,sans-Serif" font-size="11.00" fill="#000000">...</text>
<polygon fill="#ffffff" stroke="transparent" points="189.5,-542.4882 189.5,-561.4882 251.5,-561.4882 251.5,-542.4882 189.5,-542.4882"/>
<polygon fill="none" stroke="#000000" points="189.5,-542.4882 189.5,-561.4882 251.5,-561.4882 251.5,-542.4882 189.5,-542.4882"/>
<text text-anchor="start" x="192.5" y="-548.5882" font-family="Helvetica,sans-Serif" font-size="11.00" fill="#000000">&lt; 1</text>
<polygon fill="#ffffff" stroke="transparent" points="251.5,-542.4882 251.5,-561.4882 310.5,-561.4882 310.5,-542.4882 251.5,-542.4882"/>
<polygon fill="none" stroke="#000000" points="251.5,-542.4882 251.5,-561.4882 310.5,-561.4882 310.5,-542.4882 251.5,-542.4882"/>
<text text-anchor="start" x="275.1105" y="-548.5882" font-family="Helvetica,sans-Serif" font-size="11.00" fill="#000000">0 rows</text>
<polygon fill="#ffffff" stroke="transparent" points="310.5,-542.4882 310.5,-561.4882 352.5,-561.4882 352.5,-542.4882 310.5,-542.4882"/>
<polygon fill="none" stroke="#000000" points="310.5,-542.4882 310.5,-561.4882 352.5,-561.4882 352.5,-542.4882 310.5,-542.4882"/>
<text text-anchor="start" x="333.9053" y="-548.5882" font-family="Helvetica,sans-Serif" font-size="11.00" fill="#000000">2 &gt;</text>
</a>
</g>
</g>
<!-- data_histogram_bin_data&#45;&gt;data_histogram_bin_info -->
<g id="edge1" class="edge">
<title>data_histogram_bin_data:w&#45;&gt;data_histogram_bin_info:e</title>
<path fill="none" stroke="#000000" d="M388.3606,-607.6441C376.5074,-609.6323 369.3173,-613.4882 352.5,-613.4882"/>
<polygon fill="#000000" stroke="#000000" points="395.0248,-607.1179 403.2834,-610.077 399.0124,-606.803 403,-606.4882 403,-606.4882 403,-606.4882 399.0124,-606.803 402.7166,-602.8993 395.0248,-607.1179 395.0248,-607.1179"/>
<ellipse fill="none" stroke="#000000" cx="391.8348" cy="-607.3698" rx="3.2" ry="3.2"/>
</g>
<!-- data_histogram_bin_data&#45;&gt;data_histogram_bin_info -->
<g id="edge2" class="edge">
<title>data_histogram_bin_data:w&#45;&gt;data_histogram_bin_info:e</title>
<path fill="none" stroke="#000000" d="M388.3606,-629.6441C376.5074,-631.6323 369.3173,-635.4882 352.5,-635.4882"/>
<polygon fill="#000000" stroke="#000000" points="395.0248,-629.1179 403.2834,-632.077 399.0124,-628.803 403,-628.4882 403,-628.4882 403,-628.4882 399.0124,-628.803 402.7166,-624.8993 395.0248,-629.1179 395.0248,-629.1179"/>
<ellipse fill="none" stroke="#000000" cx="391.8348" cy="-629.3698" rx="3.2" ry="3.2"/>
</g>
<!-- data_position -->
<g id="node3" class="node">
<title>data_position</title>
<g id="a_node3"><a xlink:href="../../tables/data_position.html" xlink:title="data_position" target="_top">
<polygon fill="#ffffff" stroke="transparent" points="216.5,-213.9882 216.5,-384.9882 324.5,-384.9882 324.5,-213.9882 216.5,-213.9882"/>
<polygon fill="#f5f5f5" stroke="transparent" points="216.5,-361.4882 216.5,-384.4882 324.5,-384.4882 324.5,-361.4882 216.5,-361.4882"/>
<polygon fill="none" stroke="#000000" points="216.5,-361.4882 216.5,-384.4882 324.5,-384.4882 324.5,-361.4882 216.5,-361.4882"/>
<text text-anchor="start" x="221.2926" y="-370.5882" font-family="Helvetica,sans-Serif" font-weight="bold" font-size="11.00" fill="#000000">data_position</text>
<text text-anchor="start" x="290.0219" y="-369.5882" font-family="Helvetica,sans-Serif" font-size="11.00" fill="#000000">[table]</text>
<polygon fill="none" stroke="#000000" points="216.5,-339.4882 216.5,-361.4882 324.5,-361.4882 324.5,-339.4882 216.5,-339.4882"/>
<image xlink:href="../../images/primaryKeys.png" width="11px" height="12px" preserveAspectRatio="xMinYMin meet" x="221.5" y="-356.488"/>
<text text-anchor="start" x="238.5" y="-346.5882" font-family="Helvetica,sans-Serif" font-size="11.00" fill="#000000">date_time</text>
<polygon fill="#ffffff" stroke="transparent" points="216.5,-317.4882 216.5,-339.4882 324.5,-339.4882 324.5,-317.4882 216.5,-317.4882"/>
<polygon fill="none" stroke="#000000" points="216.5,-317.4882 216.5,-339.4882 324.5,-339.4882 324.5,-317.4882 216.5,-317.4882"/>
<text text-anchor="start" x="238.5" y="-324.5882" font-family="Helvetica,sans-Serif" font-size="11.00" fill="#000000">lat</text>
<polygon fill="#ffffff" stroke="transparent" points="216.5,-295.4882 216.5,-317.4882 324.5,-317.4882 324.5,-295.4882 216.5,-295.4882"/>
<polygon fill="none" stroke="#000000" points="216.5,-295.4882 216.5,-317.4882 324.5,-317.4882 324.5,-295.4882 216.5,-295.4882"/>
<text text-anchor="start" x="238.5" y="-302.5882" font-family="Helvetica,sans-Serif" font-size="11.00" fill="#000000">lon</text>
<polygon fill="none" stroke="#000000" points="216.5,-273.4882 216.5,-295.4882 324.5,-295.4882 324.5,-273.4882 216.5,-273.4882"/>
<image xlink:href="../../images/primaryKeys.png" width="11px" height="12px" preserveAspectRatio="xMinYMin meet" x="221.5" y="-290.488"/>
<text text-anchor="start" x="238.5" y="-280.5882" font-family="Helvetica,sans-Serif" font-size="11.00" fill="#000000">submission_id</text>
<polygon fill="none" stroke="#000000" points="216.5,-251.4882 216.5,-273.4882 324.5,-273.4882 324.5,-251.4882 216.5,-251.4882"/>
<image xlink:href="../../images/primaryKeys.png" width="11px" height="12px" preserveAspectRatio="xMinYMin meet" x="221.5" y="-268.488"/>
<text text-anchor="start" x="238.5" y="-258.5882" font-family="Helvetica,sans-Serif" font-size="11.00" fill="#000000">tag_id</text>
<polygon fill="none" stroke="#000000" points="216.5,-232.4882 216.5,-251.4882 324.5,-251.4882 324.5,-232.4882 216.5,-232.4882"/>
<text text-anchor="start" x="219.5" y="-238.5882" font-family="Helvetica,sans-Serif" font-size="11.00" fill="#000000">...</text>
<polygon fill="#ffffff" stroke="transparent" points="216.5,-213.4882 216.5,-232.4882 251.5,-232.4882 251.5,-213.4882 216.5,-213.4882"/>
<polygon fill="none" stroke="#000000" points="216.5,-213.4882 216.5,-232.4882 251.5,-232.4882 251.5,-213.4882 216.5,-213.4882"/>
<text text-anchor="start" x="219.5" y="-219.5882" font-family="Helvetica,sans-Serif" font-size="11.00" fill="#000000">&lt; 1</text>
<polygon fill="#ffffff" stroke="transparent" points="251.5,-213.4882 251.5,-232.4882 296.5,-232.4882 296.5,-213.4882 251.5,-213.4882"/>
<polygon fill="none" stroke="#000000" points="251.5,-213.4882 251.5,-232.4882 296.5,-232.4882 296.5,-213.4882 251.5,-213.4882"/>
<text text-anchor="start" x="261.1105" y="-219.5882" font-family="Helvetica,sans-Serif" font-size="11.00" fill="#000000">0 rows</text>
<polygon fill="#ffffff" stroke="transparent" points="296.5,-213.4882 296.5,-232.4882 324.5,-232.4882 324.5,-213.4882 296.5,-213.4882"/>
<polygon fill="none" stroke="#000000" points="296.5,-213.4882 296.5,-232.4882 324.5,-232.4882 324.5,-213.4882 296.5,-213.4882"/>
<text text-anchor="start" x="305.9053" y="-219.5882" font-family="Helvetica,sans-Serif" font-size="11.00" fill="#000000">9 &gt;</text>
</a>
</g>
</g>
<!-- data_histogram_bin_data&#45;&gt;data_position -->
<g id="edge3" class="edge">
<title>data_histogram_bin_data:w&#45;&gt;data_position:e</title>
<path fill="none" stroke="#000000" d="M388.4682,-538.4829C323.5373,-518.1769 410.3359,-350.4882 324.5,-350.4882"/>
<polygon fill="#000000" stroke="#000000" points="395.0751,-539.3945 402.5079,-544.0544 399.0375,-539.9413 403,-540.4882 403,-540.4882 403,-540.4882 399.0375,-539.9413 403.4921,-536.9219 395.0751,-539.3945 395.0751,-539.3945"/>
<ellipse fill="none" stroke="#000000" cx="391.9051" cy="-538.9571" rx="3.2" ry="3.2"/>
</g>
<!-- data_histogram_bin_data&#45;&gt;data_position -->
<g id="edge4" class="edge">
<title>data_histogram_bin_data:w&#45;&gt;data_position:e</title>
<path fill="none" stroke="#000000" d="M388.978,-668.3933C326.1503,-626.9262 407.1429,-284.4882 324.5,-284.4882"/>
<polygon fill="#000000" stroke="#000000" points="395.3208,-670.2455 401.9908,-675.9438 399.1604,-671.3668 403,-672.4882 403,-672.4882 403,-672.4882 399.1604,-671.3668 404.0092,-669.0325 395.3208,-670.2455 395.3208,-670.2455"/>
<ellipse fill="none" stroke="#000000" cx="392.2491" cy="-669.3485" rx="3.2" ry="3.2"/>
</g>
<!-- data_histogram_bin_data&#45;&gt;data_position -->
<g id="edge6" class="edge">
<title>data_histogram_bin_data:w&#45;&gt;data_position:e</title>
<path fill="none" stroke="#000000" d="M388.978,-646.3933C326.1503,-604.9262 407.1429,-262.4882 324.5,-262.4882"/>
<polygon fill="#000000" stroke="#000000" points="395.3208,-648.2455 401.9908,-653.9438 399.1604,-649.3668 403,-650.4882 403,-650.4882 403,-650.4882 399.1604,-649.3668 404.0092,-647.0325 395.3208,-648.2455 395.3208,-648.2455"/>
<ellipse fill="none" stroke="#000000" cx="392.2491" cy="-647.3485" rx="3.2" ry="3.2"/>
</g>
<!-- submission -->
<g id="node4" class="node">
<title>submission</title>
<g id="a_node4"><a xlink:href="../../tables/submission.html" xlink:title="submission" target="_top">
<polygon fill="#ffffff" stroke="transparent" points="14.5,-174.9882 14.5,-257.9882 133.5,-257.9882 133.5,-174.9882 14.5,-174.9882"/>
<polygon fill="#f5f5f5" stroke="transparent" points="15,-234.4882 15,-257.4882 134,-257.4882 134,-234.4882 15,-234.4882"/>
<polygon fill="none" stroke="#000000" points="15,-234.4882 15,-257.4882 134,-257.4882 134,-234.4882 15,-234.4882"/>
<text text-anchor="start" x="20" y="-243.5882" font-family="Helvetica,sans-Serif" font-weight="bold" font-size="11.00" fill="#000000">submission</text>
<text text-anchor="start" x="99.0437" y="-242.5882" font-family="Helvetica,sans-Serif" font-size="11.00" fill="#000000">[table]</text>
<polygon fill="none" stroke="#000000" points="15,-212.4882 15,-234.4882 134,-234.4882 134,-212.4882 15,-212.4882"/>
<image xlink:href="../../images/primaryKeys.png" width="11px" height="12px" preserveAspectRatio="xMinYMin meet" x="20" y="-229.488"/>
<text text-anchor="start" x="35" y="-219.5882" font-family="Helvetica,sans-Serif" font-size="11.00" fill="#000000">submission_id</text>
<polygon fill="none" stroke="#000000" points="15,-193.4882 15,-212.4882 134,-212.4882 134,-193.4882 15,-193.4882"/>
<text text-anchor="start" x="18" y="-199.5882" font-family="Helvetica,sans-Serif" font-size="11.00" fill="#000000">...</text>
<polygon fill="#ffffff" stroke="transparent" points="15,-174.4882 15,-193.4882 51,-193.4882 51,-174.4882 15,-174.4882"/>
<polygon fill="none" stroke="#000000" points="15,-174.4882 15,-193.4882 51,-193.4882 51,-174.4882 15,-174.4882"/>
<text text-anchor="start" x="18" y="-180.5882" font-family="Helvetica,sans-Serif" font-size="11.00" fill="#000000"> &#160;</text>
<polygon fill="#ffffff" stroke="transparent" points="51,-174.4882 51,-193.4882 101,-193.4882 101,-174.4882 51,-174.4882"/>
<polygon fill="none" stroke="#000000" points="51,-174.4882 51,-193.4882 101,-193.4882 101,-174.4882 51,-174.4882"/>
<text text-anchor="start" x="65.6105" y="-180.5882" font-family="Helvetica,sans-Serif" font-size="11.00" fill="#000000">0 rows</text>
<polygon fill="#ffffff" stroke="transparent" points="101,-174.4882 101,-193.4882 134,-193.4882 134,-174.4882 101,-174.4882"/>
<polygon fill="none" stroke="#000000" points="101,-174.4882 101,-193.4882 134,-193.4882 134,-174.4882 101,-174.4882"/>
<text text-anchor="start" x="115.4053" y="-180.5882" font-family="Helvetica,sans-Serif" font-size="11.00" fill="#000000">6 &gt;</text>
</a>
</g>
</g>
<!-- data_histogram_bin_data&#45;&gt;submission -->
<g id="edge5" class="edge">
<title>data_histogram_bin_data:w&#45;&gt;submission:e</title>
<path fill="none" stroke="#000000" d="M388.615,-673.9179C379.5924,-675.864 373.4591,-679.2468 360,-680.4882 280.7807,-687.7947 240.0618,-733.7873 181,-680.4882 105.2078,-612.091 236.0912,-223.4882 134,-223.4882"/>
<polygon fill="#000000" stroke="#000000" points="395.0392,-673.2794 403.3561,-676.0705 399.0196,-672.8838 403,-672.4882 403,-672.4882 403,-672.4882 399.0196,-672.8838 402.6439,-668.9058 395.0392,-673.2794 395.0392,-673.2794"/>
<ellipse fill="none" stroke="#000000" cx="391.8549" cy="-673.5959" rx="3.2" ry="3.2"/>
</g>
<!-- observation_types -->
<g id="node5" class="node">
<title>observation_types</title>
<g id="a_node5"><a xlink:href="../../tables/observation_types.html" xlink:title="observation_types" target="_top">
<polygon fill="#ffffff" stroke="transparent" points="8,-420.9882 8,-525.9882 140,-525.9882 140,-420.9882 8,-420.9882"/>
<polygon fill="#f5f5f5" stroke="transparent" points="8,-502.4882 8,-525.4882 140,-525.4882 140,-502.4882 8,-502.4882"/>
<polygon fill="none" stroke="#000000" points="8,-502.4882 8,-525.4882 140,-525.4882 140,-502.4882 8,-502.4882"/>
<text text-anchor="start" x="12.8746" y="-511.5882" font-family="Helvetica,sans-Serif" font-weight="bold" font-size="11.00" fill="#000000">observation_types</text>
<text text-anchor="start" x="105.5219" y="-510.5882" font-family="Helvetica,sans-Serif" font-size="11.00" fill="#000000">[table]</text>
<polygon fill="none" stroke="#000000" points="8,-480.4882 8,-502.4882 140,-502.4882 140,-480.4882 8,-480.4882"/>
<image xlink:href="../../images/primaryKeys.png" width="11px" height="12px" preserveAspectRatio="xMinYMin meet" x="13" y="-497.488"/>
<text text-anchor="start" x="31" y="-487.5882" font-family="Helvetica,sans-Serif" font-size="11.00" fill="#000000">variable_id</text>
<polygon fill="#ffffff" stroke="transparent" points="8,-458.4882 8,-480.4882 140,-480.4882 140,-458.4882 8,-458.4882"/>
<polygon fill="none" stroke="#000000" points="8,-458.4882 8,-480.4882 140,-480.4882 140,-458.4882 8,-458.4882"/>
<text text-anchor="start" x="31" y="-465.5882" font-family="Helvetica,sans-Serif" font-size="11.00" fill="#000000">variable_name</text>
<polygon fill="none" stroke="#000000" points="8,-439.4882 8,-458.4882 140,-458.4882 140,-439.4882 8,-439.4882"/>
<text text-anchor="start" x="11" y="-445.5882" font-family="Helvetica,sans-Serif" font-size="11.00" fill="#000000">...</text>
<polygon fill="#ffffff" stroke="transparent" points="8,-420.4882 8,-439.4882 44,-439.4882 44,-420.4882 8,-420.4882"/>
<polygon fill="none" stroke="#000000" points="8,-420.4882 8,-439.4882 44,-439.4882 44,-420.4882 8,-420.4882"/>
<text text-anchor="start" x="11" y="-426.5882" font-family="Helvetica,sans-Serif" font-size="11.00" fill="#000000"> &#160;</text>
<polygon fill="#ffffff" stroke="transparent" points="44,-420.4882 44,-439.4882 106,-439.4882 106,-420.4882 44,-420.4882"/>
<polygon fill="none" stroke="#000000" points="44,-420.4882 44,-439.4882 106,-439.4882 106,-420.4882 44,-420.4882"/>
<text text-anchor="start" x="58.3807" y="-426.5882" font-family="Helvetica,sans-Serif" font-size="11.00" fill="#000000">204 rows</text>
<polygon fill="#ffffff" stroke="transparent" points="106,-420.4882 106,-439.4882 140,-439.4882 140,-420.4882 106,-420.4882"/>
<polygon fill="none" stroke="#000000" points="106,-420.4882 106,-439.4882 140,-439.4882 140,-420.4882 106,-420.4882"/>
<text text-anchor="start" x="121.4053" y="-426.5882" font-family="Helvetica,sans-Serif" font-size="11.00" fill="#000000">5 &gt;</text>
</a>
</g>
</g>
<!-- data_histogram_bin_data&#45;&gt;observation_types -->
<g id="edge7" class="edge">
<title>data_histogram_bin_data:w&#45;&gt;observation_types:e</title>
<path fill="none" stroke="#000000" d="M388.4753,-518.4753C301.2863,-518.3048 273.763,-516.2517 181,-501.4882 162.4767,-498.5401 158.7564,-491.4882 140,-491.4882"/>
<polygon fill="#000000" stroke="#000000" points="395,-518.481 402.9968,-522.0881 399,-518.4846 403,-518.4882 403,-518.4882 403,-518.4882 399,-518.4846 403.0032,-514.8882 395,-518.481 395,-518.481"/>
<ellipse fill="none" stroke="#000000" cx="391.8" cy="-518.4782" rx="3.2" ry="3.2"/>
</g>
<!-- data_histogram_bin_info&#45;&gt;observation_types -->
<g id="edge8" class="edge">
<title>data_histogram_bin_info:w&#45;&gt;observation_types:e</title>
<path fill="none" stroke="#000000" d="M175.499,-587.4442C150.4854,-568.7358 183.5862,-491.4882 140,-491.4882"/>
<polygon fill="#000000" stroke="#000000" points="181.8142,-589.2682 188.501,-594.9468 185.6571,-590.3782 189.5,-591.4882 189.5,-591.4882 189.5,-591.4882 185.6571,-590.3782 190.499,-588.0295 181.8142,-589.2682 181.8142,-589.2682"/>
<ellipse fill="none" stroke="#000000" cx="178.7398" cy="-588.3802" rx="3.2" ry="3.2"/>
</g>
<!-- data_position&#45;&gt;submission -->
<g id="edge9" class="edge">
<title>data_position:w&#45;&gt;submission:e</title>
<path fill="none" stroke="#000000" d="M202.13,-282.0213C172.2102,-270.6092 174.0791,-223.4882 134,-223.4882"/>
<polygon fill="#000000" stroke="#000000" points="208.6153,-283.1346 215.8909,-288.0363 212.5577,-283.8114 216.5,-284.4882 216.5,-284.4882 216.5,-284.4882 212.5577,-283.8114 217.1091,-280.94 208.6153,-283.1346 208.6153,-283.1346"/>
<ellipse fill="none" stroke="#000000" cx="205.4615" cy="-282.5932" rx="3.2" ry="3.2"/>
</g>
<!-- data_profile -->
<g id="node6" class="node">
<title>data_profile</title>
<g id="a_node6"><a xlink:href="../../tables/data_profile.html" xlink:title="data_profile" target="_top">
<polygon fill="#ffffff" stroke="transparent" points="482,-286.9882 482,-347.9882 582,-347.9882 582,-286.9882 482,-286.9882"/>
<polygon fill="#f5f5f5" stroke="transparent" points="482,-324.4882 482,-347.4882 582,-347.4882 582,-324.4882 482,-324.4882"/>
<polygon fill="none" stroke="#000000" points="482,-324.4882 482,-347.4882 582,-347.4882 582,-324.4882 482,-324.4882"/>
<text text-anchor="start" x="486.7691" y="-333.5882" font-family="Helvetica,sans-Serif" font-weight="bold" font-size="11.00" fill="#000000">data_profile</text>
<text text-anchor="start" x="547.5219" y="-332.5882" font-family="Helvetica,sans-Serif" font-size="11.00" fill="#000000">[table]</text>
<polygon fill="none" stroke="#000000" points="482,-305.4882 482,-324.4882 582,-324.4882 582,-305.4882 482,-305.4882"/>
<text text-anchor="start" x="485" y="-311.5882" font-family="Helvetica,sans-Serif" font-size="11.00" fill="#000000">...</text>
<polygon fill="#ffffff" stroke="transparent" points="482,-286.4882 482,-305.4882 517,-305.4882 517,-286.4882 482,-286.4882"/>
<polygon fill="none" stroke="#000000" points="482,-286.4882 482,-305.4882 517,-305.4882 517,-286.4882 482,-286.4882"/>
<text text-anchor="start" x="485" y="-292.5882" font-family="Helvetica,sans-Serif" font-size="11.00" fill="#000000">&lt; 5</text>
<polygon fill="#ffffff" stroke="transparent" points="517,-286.4882 517,-305.4882 562,-305.4882 562,-286.4882 517,-286.4882"/>
<polygon fill="none" stroke="#000000" points="517,-286.4882 517,-305.4882 562,-305.4882 562,-286.4882 517,-286.4882"/>
<text text-anchor="start" x="526.6105" y="-292.5882" font-family="Helvetica,sans-Serif" font-size="11.00" fill="#000000">0 rows</text>
<polygon fill="#ffffff" stroke="transparent" points="562,-286.4882 562,-305.4882 582,-305.4882 582,-286.4882 562,-286.4882"/>
<polygon fill="none" stroke="#000000" points="562,-286.4882 562,-305.4882 582,-305.4882 582,-286.4882 562,-286.4882"/>
<text text-anchor="start" x="572.8862" y="-292.5882" font-family="Helvetica,sans-Serif" font-size="11.00" fill="#000000"> &#160;</text>
</a>
</g>
</g>
<!-- data_profile&#45;&gt;data_position -->
<g id="edge10" class="edge">
<title>data_profile:w&#45;&gt;data_position:e</title>
<path fill="none" stroke="#000000" d="M467.2965,-315.025C407.8848,-319.5033 391.1162,-350.4882 324.5,-350.4882"/>
<polygon fill="#000000" stroke="#000000" points="474.0053,-314.7801 482.1314,-318.0858 478.0027,-314.6341 482,-314.4882 482,-314.4882 482,-314.4882 478.0027,-314.6341 481.8686,-310.8905 474.0053,-314.7801 474.0053,-314.7801"/>
<ellipse fill="none" stroke="#000000" cx="470.8075" cy="-314.8969" rx="3.2" ry="3.2"/>
</g>
<!-- data_profile&#45;&gt;data_position -->
<g id="edge11" class="edge">
<title>data_profile:w&#45;&gt;data_position:e</title>
<path fill="none" stroke="#000000" d="M467.3906,-314.0408C408.2821,-310.3089 390.609,-284.4882 324.5,-284.4882"/>
<polygon fill="#000000" stroke="#000000" points="474.0037,-314.2432 481.8898,-318.0865 478.0019,-314.3657 482,-314.4882 482,-314.4882 482,-314.4882 478.0019,-314.3657 482.1102,-310.8898 474.0037,-314.2432 474.0037,-314.2432"/>
<ellipse fill="none" stroke="#000000" cx="470.8052" cy="-314.1453" rx="3.2" ry="3.2"/>
</g>
<!-- data_profile&#45;&gt;data_position -->
<g id="edge13" class="edge">
<title>data_profile:w&#45;&gt;data_position:e</title>
<path fill="none" stroke="#000000" d="M467.3502,-313.7531C406.5531,-307.4327 393.0333,-262.4882 324.5,-262.4882"/>
<polygon fill="#000000" stroke="#000000" points="474.0101,-314.0872 481.8196,-318.0836 478.005,-314.2877 482,-314.4882 482,-314.4882 482,-314.4882 478.005,-314.2877 482.1804,-310.8927 474.0101,-314.0872 474.0101,-314.0872"/>
<ellipse fill="none" stroke="#000000" cx="470.8141" cy="-313.9268" rx="3.2" ry="3.2"/>
</g>
<!-- data_profile&#45;&gt;submission -->
<g id="edge12" class="edge">
<title>data_profile:w&#45;&gt;submission:e</title>
<path fill="none" stroke="#000000" d="M467.5193,-314.1149C435.0674,-312.2475 420.0095,-302.9357 393,-276.4882 367.5598,-251.5773 389.9163,-222.7954 360,-203.4882 293.1563,-160.3488 258.9513,-187.5924 181,-203.4882 158.7563,-208.0241 156.7015,-223.4882 134,-223.4882"/>
<polygon fill="#000000" stroke="#000000" points="474.0027,-314.282 481.9072,-318.087 478.0013,-314.3851 482,-314.4882 482,-314.4882 482,-314.4882 478.0013,-314.3851 482.0928,-310.8893 474.0027,-314.282 474.0027,-314.282"/>
<ellipse fill="none" stroke="#000000" cx="470.8037" cy="-314.1995" rx="3.2" ry="3.2"/>
</g>
<!-- data_profile&#45;&gt;observation_types -->
<g id="edge14" class="edge">
<title>data_profile:w&#45;&gt;observation_types:e</title>
<path fill="none" stroke="#000000" d="M467.4674,-315.6839C396.7068,-328.2799 434.9247,-436.9532 360,-477.4882 316.9136,-500.7983 188.9878,-491.4882 140,-491.4882"/>
<polygon fill="#000000" stroke="#000000" points="474.0269,-315.1442 482.2952,-318.076 478.0135,-314.8162 482,-314.4882 482,-314.4882 482,-314.4882 478.0135,-314.8162 481.7048,-310.9003 474.0269,-315.1442 474.0269,-315.1442"/>
<ellipse fill="none" stroke="#000000" cx="470.8377" cy="-315.4067" rx="3.2" ry="3.2"/>
</g>
<!-- data_time_series -->
<g id="node7" class="node">
<title>data_time_series</title>
<g id="a_node7"><a xlink:href="../../tables/data_time_series.html" xlink:title="data_time_series" target="_top">
<polygon fill="#ffffff" stroke="transparent" points="469,-204.9882 469,-265.9882 595,-265.9882 595,-204.9882 469,-204.9882"/>
<polygon fill="#f5f5f5" stroke="transparent" points="469,-242.4882 469,-265.4882 595,-265.4882 595,-242.4882 469,-242.4882"/>
<polygon fill="none" stroke="#000000" points="469,-242.4882 469,-265.4882 595,-265.4882 595,-242.4882 469,-242.4882"/>
<text text-anchor="start" x="473.6307" y="-251.5882" font-family="Helvetica,sans-Serif" font-weight="bold" font-size="11.00" fill="#000000">data_time_series</text>
<text text-anchor="start" x="560.5219" y="-250.5882" font-family="Helvetica,sans-Serif" font-size="11.00" fill="#000000">[table]</text>
<polygon fill="none" stroke="#000000" points="469,-223.4882 469,-242.4882 595,-242.4882 595,-223.4882 469,-223.4882"/>
<text text-anchor="start" x="472" y="-229.5882" font-family="Helvetica,sans-Serif" font-size="11.00" fill="#000000">...</text>
<polygon fill="#ffffff" stroke="transparent" points="469,-204.4882 469,-223.4882 517,-223.4882 517,-204.4882 469,-204.4882"/>
<polygon fill="none" stroke="#000000" points="469,-204.4882 469,-223.4882 517,-223.4882 517,-204.4882 469,-204.4882"/>
<text text-anchor="start" x="472" y="-210.5882" font-family="Helvetica,sans-Serif" font-size="11.00" fill="#000000">&lt; 5</text>
<polygon fill="#ffffff" stroke="transparent" points="517,-204.4882 517,-223.4882 569,-223.4882 569,-204.4882 517,-204.4882"/>
<polygon fill="none" stroke="#000000" points="517,-204.4882 517,-223.4882 569,-223.4882 569,-204.4882 517,-204.4882"/>
<text text-anchor="start" x="533.6105" y="-210.5882" font-family="Helvetica,sans-Serif" font-size="11.00" fill="#000000">0 rows</text>
<polygon fill="#ffffff" stroke="transparent" points="569,-204.4882 569,-223.4882 595,-223.4882 595,-204.4882 569,-204.4882"/>
<polygon fill="none" stroke="#000000" points="569,-204.4882 569,-223.4882 595,-223.4882 595,-204.4882 569,-204.4882"/>
<text text-anchor="start" x="585.8862" y="-210.5882" font-family="Helvetica,sans-Serif" font-size="11.00" fill="#000000"> &#160;</text>
</a>
</g>
</g>
<!-- data_time_series&#45;&gt;data_position -->
<g id="edge15" class="edge">
<title>data_time_series:w&#45;&gt;data_position:e</title>
<path fill="none" stroke="#000000" d="M454.3077,-233.6113C427.6716,-238.1025 419.199,-255.5442 393,-276.4882 357.994,-304.4725 369.3168,-350.4882 324.5,-350.4882"/>
<polygon fill="#000000" stroke="#000000" points="461.0233,-233.098 469.2744,-236.0777 465.0116,-232.7931 469,-232.4882 469,-232.4882 469,-232.4882 465.0116,-232.7931 468.7256,-228.8986 461.0233,-233.098 461.0233,-233.098"/>
<ellipse fill="none" stroke="#000000" cx="457.8326" cy="-233.3419" rx="3.2" ry="3.2"/>
</g>
<!-- data_time_series&#45;&gt;data_position -->
<g id="edge16" class="edge">
<title>data_time_series:w&#45;&gt;data_position:e</title>
<path fill="none" stroke="#000000" d="M454.3986,-233.3473C399.1788,-240.1083 387.555,-284.4882 324.5,-284.4882"/>
<polygon fill="#000000" stroke="#000000" points="461.0138,-232.9581 469.2115,-236.0819 465.0069,-232.7231 469,-232.4882 469,-232.4882 469,-232.4882 465.0069,-232.7231 468.7885,-228.8944 461.0138,-232.9581 461.0138,-232.9581"/>
<ellipse fill="none" stroke="#000000" cx="457.8193" cy="-233.1461" rx="3.2" ry="3.2"/>
</g>
<!-- data_time_series&#45;&gt;data_position -->
<g id="edge18" class="edge">
<title>data_time_series:w&#45;&gt;data_position:e</title>
<path fill="none" stroke="#000000" d="M454.5343,-233.0089C401.0085,-236.9925 384.9674,-262.4882 324.5,-262.4882"/>
<polygon fill="#000000" stroke="#000000" points="461.0052,-232.776 469.1295,-236.0858 465.0026,-232.6321 469,-232.4882 469,-232.4882 469,-232.4882 465.0026,-232.6321 468.8705,-228.8905 461.0052,-232.776 461.0052,-232.776"/>
<ellipse fill="none" stroke="#000000" cx="457.8072" cy="-232.8911" rx="3.2" ry="3.2"/>
</g>
<!-- data_time_series&#45;&gt;submission -->
<g id="edge17" class="edge">
<title>data_time_series:w&#45;&gt;submission:e</title>
<path fill="none" stroke="#000000" d="M454.5029,-231.1693C387.1396,-217.7638 432.9689,-105.8683 360,-66.4882 289.9894,-28.7046 244.813,-18.9804 181,-66.4882 122.5758,-109.9841 206.8374,-223.4882 134,-223.4882"/>
<polygon fill="#000000" stroke="#000000" points="461.0329,-231.7633 468.6738,-236.0733 465.0165,-232.1257 469,-232.4882 469,-232.4882 469,-232.4882 465.0165,-232.1257 469.3262,-228.903 461.0329,-231.7633 461.0329,-231.7633"/>
<ellipse fill="none" stroke="#000000" cx="457.8461" cy="-231.4734" rx="3.2" ry="3.2"/>
</g>
<!-- data_time_series&#45;&gt;observation_types -->
<g id="edge19" class="edge">
<title>data_time_series:w&#45;&gt;observation_types:e</title>
<path fill="none" stroke="#000000" d="M454.4101,-231.7825C416.4863,-227.9199 404.4641,-209.302 360,-203.4882 281.1159,-193.1738 241.0879,-151.3486 181,-203.4882 132.1738,-245.8557 204.6453,-491.4882 140,-491.4882"/>
<polygon fill="#000000" stroke="#000000" points="461.0093,-232.1016 468.8261,-236.0839 465.0047,-232.2949 469,-232.4882 469,-232.4882 469,-232.4882 465.0047,-232.2949 469.1739,-228.8924 461.0093,-232.1016 461.0093,-232.1016"/>
<ellipse fill="none" stroke="#000000" cx="457.8131" cy="-231.947" rx="3.2" ry="3.2"/>
</g>
<!-- metadata -->
<g id="node8" class="node">
<title>metadata</title>
<g id="a_node8"><a xlink:href="../../tables/metadata.html" xlink:title="metadata" target="_top">
<polygon fill="#ffffff" stroke="transparent" points="226.5,-76.9882 226.5,-137.9882 314.5,-137.9882 314.5,-76.9882 226.5,-76.9882"/>
<polygon fill="#f5f5f5" stroke="transparent" points="226.5,-114.4882 226.5,-137.4882 314.5,-137.4882 314.5,-114.4882 226.5,-114.4882"/>
<polygon fill="none" stroke="#000000" points="226.5,-114.4882 226.5,-137.4882 314.5,-137.4882 314.5,-114.4882 226.5,-114.4882"/>
<text text-anchor="start" x="231.0749" y="-123.5882" font-family="Helvetica,sans-Serif" font-weight="bold" font-size="11.00" fill="#000000">metadata</text>
<text text-anchor="start" x="280.0219" y="-122.5882" font-family="Helvetica,sans-Serif" font-size="11.00" fill="#000000">[table]</text>
<polygon fill="none" stroke="#000000" points="226.5,-95.4882 226.5,-114.4882 314.5,-114.4882 314.5,-95.4882 226.5,-95.4882"/>
<text text-anchor="start" x="229.5" y="-101.5882" font-family="Helvetica,sans-Serif" font-size="11.00" fill="#000000">...</text>
<polygon fill="#ffffff" stroke="transparent" points="226.5,-76.4882 226.5,-95.4882 255.5,-95.4882 255.5,-76.4882 226.5,-76.4882"/>
<polygon fill="none" stroke="#000000" points="226.5,-76.4882 226.5,-95.4882 255.5,-95.4882 255.5,-76.4882 226.5,-76.4882"/>
<text text-anchor="start" x="229.5" y="-82.5882" font-family="Helvetica,sans-Serif" font-size="11.00" fill="#000000">&lt; 2</text>
<polygon fill="#ffffff" stroke="transparent" points="255.5,-76.4882 255.5,-95.4882 297.5,-95.4882 297.5,-76.4882 255.5,-76.4882"/>
<polygon fill="none" stroke="#000000" points="255.5,-76.4882 255.5,-95.4882 297.5,-95.4882 297.5,-76.4882 255.5,-76.4882"/>
<text text-anchor="start" x="262.1105" y="-82.5882" font-family="Helvetica,sans-Serif" font-size="11.00" fill="#000000">0 rows</text>
<polygon fill="#ffffff" stroke="transparent" points="297.5,-76.4882 297.5,-95.4882 314.5,-95.4882 314.5,-76.4882 297.5,-76.4882"/>
<polygon fill="none" stroke="#000000" points="297.5,-76.4882 297.5,-95.4882 314.5,-95.4882 314.5,-76.4882 297.5,-76.4882"/>
<text text-anchor="start" x="305.3862" y="-82.5882" font-family="Helvetica,sans-Serif" font-size="11.00" fill="#000000"> &#160;</text>
</a>
</g>
</g>
<!-- metadata&#45;&gt;submission -->
<g id="edge20" class="edge">
<title>metadata:w&#45;&gt;submission:e</title>
<path fill="none" stroke="#000000" d="M212.0605,-107.3555C197.149,-114.559 195.5772,-134.1528 181,-152.4882 157.4494,-182.1102 171.8431,-223.4882 134,-223.4882"/>
<polygon fill="#000000" stroke="#000000" points="218.6532,-106.0464 227.2012,-108.0192 222.5766,-105.2673 226.5,-104.4882 226.5,-104.4882 226.5,-104.4882 222.5766,-105.2673 225.7988,-100.9571 218.6532,-106.0464 218.6532,-106.0464"/>
<ellipse fill="none" stroke="#000000" cx="215.5145" cy="-106.6696" rx="3.2" ry="3.2"/>
</g>
<!-- proc_observations -->
<g id="node9" class="node">
<title>proc_observations</title>
<g id="a_node9"><a xlink:href="../../tables/proc_observations.html" xlink:title="proc_observations" target="_top">
<polygon fill="#ffffff" stroke="transparent" points="204.5,-405.9882 204.5,-466.9882 336.5,-466.9882 336.5,-405.9882 204.5,-405.9882"/>
<polygon fill="#f5f5f5" stroke="transparent" points="204.5,-443.4882 204.5,-466.4882 336.5,-466.4882 336.5,-443.4882 204.5,-443.4882"/>
<polygon fill="none" stroke="#000000" points="204.5,-443.4882 204.5,-466.4882 336.5,-466.4882 336.5,-443.4882 204.5,-443.4882"/>
<text text-anchor="start" x="209.0722" y="-452.5882" font-family="Helvetica,sans-Serif" font-weight="bold" font-size="11.00" fill="#000000">proc_observations</text>
<text text-anchor="start" x="302.0219" y="-451.5882" font-family="Helvetica,sans-Serif" font-size="11.00" fill="#000000">[table]</text>
<polygon fill="none" stroke="#000000" points="204.5,-424.4882 204.5,-443.4882 336.5,-443.4882 336.5,-424.4882 204.5,-424.4882"/>
<text text-anchor="start" x="207.5" y="-430.5882" font-family="Helvetica,sans-Serif" font-size="11.00" fill="#000000">...</text>
<polygon fill="#ffffff" stroke="transparent" points="204.5,-405.4882 204.5,-424.4882 255.5,-424.4882 255.5,-405.4882 204.5,-405.4882"/>
<polygon fill="none" stroke="#000000" points="204.5,-405.4882 204.5,-424.4882 255.5,-424.4882 255.5,-405.4882 204.5,-405.4882"/>
<text text-anchor="start" x="207.5" y="-411.5882" font-family="Helvetica,sans-Serif" font-size="11.00" fill="#000000">&lt; 2</text>
<polygon fill="#ffffff" stroke="transparent" points="255.5,-405.4882 255.5,-424.4882 308.5,-424.4882 308.5,-405.4882 255.5,-405.4882"/>
<polygon fill="none" stroke="#000000" points="255.5,-405.4882 255.5,-424.4882 308.5,-424.4882 308.5,-405.4882 255.5,-405.4882"/>
<text text-anchor="start" x="273.1105" y="-411.5882" font-family="Helvetica,sans-Serif" font-size="11.00" fill="#000000">0 rows</text>
<polygon fill="#ffffff" stroke="transparent" points="308.5,-405.4882 308.5,-424.4882 336.5,-424.4882 336.5,-405.4882 308.5,-405.4882"/>
<polygon fill="none" stroke="#000000" points="308.5,-405.4882 308.5,-424.4882 336.5,-424.4882 336.5,-405.4882 308.5,-405.4882"/>
<text text-anchor="start" x="327.3862" y="-411.5882" font-family="Helvetica,sans-Serif" font-size="11.00" fill="#000000"> &#160;</text>
</a>
</g>
</g>
<!-- proc_observations&#45;&gt;submission -->
<g id="edge21" class="edge">
<title>proc_observations:w&#45;&gt;submission:e</title>
<path fill="none" stroke="#000000" d="M189.8532,-431.5433C119.6455,-410.3728 226.8761,-223.4882 134,-223.4882"/>
<polygon fill="#000000" stroke="#000000" points="196.5696,-432.4351 204.0261,-437.0568 200.5348,-432.9616 204.5,-433.4882 204.5,-433.4882 204.5,-433.4882 200.5348,-432.9616 204.9739,-429.9195 196.5696,-432.4351 196.5696,-432.4351"/>
<ellipse fill="none" stroke="#000000" cx="193.3974" cy="-432.0139" rx="3.2" ry="3.2"/>
</g>
<!-- proc_observations&#45;&gt;observation_types -->
<g id="edge22" class="edge">
<title>proc_observations:w&#45;&gt;observation_types:e</title>
<path fill="none" stroke="#000000" d="M190.3791,-436.9426C168.5626,-449.4289 172.8296,-491.4882 140,-491.4882"/>
<polygon fill="#000000" stroke="#000000" points="196.7291,-435.3892 205.3555,-436.985 200.6146,-434.4387 204.5,-433.4882 204.5,-433.4882 204.5,-433.4882 200.6146,-434.4387 203.6445,-429.9913 196.7291,-435.3892 196.7291,-435.3892"/>
<ellipse fill="none" stroke="#000000" cx="193.6208" cy="-436.1496" rx="3.2" ry="3.2"/>
</g>
</g>
</svg>
