<?xml version="1.0" encoding="UTF-8" standalone="no"?>
<!DOCTYPE svg PUBLIC "-//W3C//DTD SVG 1.1//EN"
 "http://www.w3.org/Graphics/SVG/1.1/DTD/svg11.dtd">
<!-- Generated by graphviz version 2.40.1 (20161225.0304)
 -->
<!-- Title: oneDegreeRelationshipsDiagram Pages: 1 -->
<svg width="654pt" height="315pt"
 viewBox="0.00 0.00 654.00 315.20" xmlns="http://www.w3.org/2000/svg" xmlns:xlink="http://www.w3.org/1999/xlink">
<g id="graph0" class="graph" transform="scale(1 1) rotate(0) translate(4 311.2)">
<title>oneDegreeRelationshipsDiagram</title>
<polygon fill="#ffffff" stroke="transparent" points="-4,4 -4,-311.2 650,-311.2 650,4 -4,4"/>
<text text-anchor="middle" x="72.4936" y="-7.3" font-family="Helvetica,sans-Serif" font-size="11.00" fill="#000000">Generated by SchemaSpy</text>
<!-- data_histogram_bin_data -->
<g id="node1" class="node">
<title>data_histogram_bin_data</title>
<g id="a_node1"><a xlink:href="../../tables/data_histogram_bin_data.html" xlink:title="data_histogram_bin_data" target="_top">
<polygon fill="#ffffff" stroke="transparent" points="471,-88.2 471,-303.2 638,-303.2 638,-88.2 471,-88.2"/>
<polygon fill="#f5f5f5" stroke="transparent" points="471.5,-279.7 471.5,-302.7 638.5,-302.7 638.5,-279.7 471.5,-279.7"/>
<polygon fill="none" stroke="#000000" points="471.5,-279.7 471.5,-302.7 638.5,-302.7 638.5,-279.7 471.5,-279.7"/>
<text text-anchor="start" x="476.4501" y="-288.8" font-family="Helvetica,sans-Serif" font-weight="bold" font-size="11.00" fill="#000000">data_histogram_bin_data</text>
<text text-anchor="start" x="604.0219" y="-287.8" font-family="Helvetica,sans-Serif" font-size="11.00" fill="#000000">[table]</text>
<polygon fill="none" stroke="#000000" points="471.5,-257.7 471.5,-279.7 638.5,-279.7 638.5,-257.7 471.5,-257.7"/>
<image xlink:href="../../images/primaryKeys.png" width="11px" height="12px" preserveAspectRatio="xMinYMin meet" x="476.5" y="-274.7"/>
<text text-anchor="start" x="492.5" y="-264.8" font-family="Helvetica,sans-Serif" font-size="11.00" fill="#000000">submission_id</text>
<polygon fill="none" stroke="#000000" points="471.5,-235.7 471.5,-257.7 638.5,-257.7 638.5,-235.7 471.5,-235.7"/>
<image xlink:href="../../images/primaryKeys.png" width="11px" height="12px" preserveAspectRatio="xMinYMin meet" x="476.5" y="-252.7"/>
<text text-anchor="start" x="492.5" y="-242.8" font-family="Helvetica,sans-Serif" font-size="11.00" fill="#000000">tag_id</text>
<polygon fill="none" stroke="#000000" points="471.5,-213.7 471.5,-235.7 638.5,-235.7 638.5,-213.7 471.5,-213.7"/>
<image xlink:href="../../images/primaryKeys.png" width="11px" height="12px" preserveAspectRatio="xMinYMin meet" x="476.5" y="-230.7"/>
<text text-anchor="start" x="492.5" y="-220.8" font-family="Helvetica,sans-Serif" font-size="11.00" fill="#000000">bin_id</text>
<polygon fill="none" stroke="#000000" points="471.5,-191.7 471.5,-213.7 638.5,-213.7 638.5,-191.7 471.5,-191.7"/>
<image xlink:href="../../images/primaryKeys.png" width="11px" height="12px" preserveAspectRatio="xMinYMin meet" x="476.5" y="-208.7"/>
<text text-anchor="start" x="492.5" y="-198.8" font-family="Helvetica,sans-Serif" font-size="11.00" fill="#000000">bin_class</text>
<polygon fill="none" stroke="#000000" points="471.5,-169.7 471.5,-191.7 638.5,-191.7 638.5,-169.7 471.5,-169.7"/>
<image xlink:href="../../images/primaryKeys.png" width="11px" height="12px" preserveAspectRatio="xMinYMin meet" x="476.5" y="-186.7"/>
<text text-anchor="start" x="492.5" y="-176.8" font-family="Helvetica,sans-Serif" font-size="11.00" fill="#000000">date_time</text>
<polygon fill="#ffffff" stroke="transparent" points="471.5,-147.7 471.5,-169.7 638.5,-169.7 638.5,-147.7 471.5,-147.7"/>
<polygon fill="none" stroke="#000000" points="471.5,-147.7 471.5,-169.7 638.5,-169.7 638.5,-147.7 471.5,-147.7"/>
<image xlink:href="../../images/foreignKeys.png" width="11px" height="12px" preserveAspectRatio="xMinYMin meet" x="476.5" y="-164.7"/>
<text text-anchor="start" x="492.5" y="-154.8" font-family="Helvetica,sans-Serif" font-size="11.00" fill="#000000">position_date_time</text>
<polygon fill="none" stroke="#000000" points="471.5,-125.7 471.5,-147.7 638.5,-147.7 638.5,-125.7 471.5,-125.7"/>
<image xlink:href="../../images/primaryKeys.png" width="11px" height="12px" preserveAspectRatio="xMinYMin meet" x="476.5" y="-142.7"/>
<text text-anchor="start" x="492.5" y="-132.8" font-family="Helvetica,sans-Serif" font-size="11.00" fill="#000000">variable_id</text>
<polygon fill="none" stroke="#000000" points="471.5,-106.7 471.5,-125.7 638.5,-125.7 638.5,-106.7 471.5,-106.7"/>
<text text-anchor="start" x="474.5" y="-112.8" font-family="Helvetica,sans-Serif" font-size="11.00" fill="#000000">...</text>
<polygon fill="#ffffff" stroke="transparent" points="471.5,-87.7 471.5,-106.7 540.5,-106.7 540.5,-87.7 471.5,-87.7"/>
<polygon fill="none" stroke="#000000" points="471.5,-87.7 471.5,-106.7 540.5,-106.7 540.5,-87.7 471.5,-87.7"/>
<text text-anchor="start" x="474.5" y="-93.8" font-family="Helvetica,sans-Serif" font-size="11.00" fill="#000000">&lt; 7</text>
<polygon fill="#ffffff" stroke="transparent" points="540.5,-87.7 540.5,-106.7 602.5,-106.7 602.5,-87.7 540.5,-87.7"/>
<polygon fill="none" stroke="#000000" points="540.5,-87.7 540.5,-106.7 602.5,-106.7 602.5,-87.7 540.5,-87.7"/>
<text text-anchor="start" x="567.1105" y="-93.8" font-family="Helvetica,sans-Serif" font-size="11.00" fill="#000000">0 rows</text>
<polygon fill="#ffffff" stroke="transparent" points="602.5,-87.7 602.5,-106.7 638.5,-106.7 638.5,-87.7 602.5,-87.7"/>
<polygon fill="none" stroke="#000000" points="602.5,-87.7 602.5,-106.7 638.5,-106.7 638.5,-87.7 602.5,-87.7"/>
<text text-anchor="start" x="629.3862" y="-93.8" font-family="Helvetica,sans-Serif" font-size="11.00" fill="#000000"> &#160;</text>
</a>
</g>
</g>
<!-- data_histogram_bin_info -->
<g id="node2" class="node">
<title>data_histogram_bin_info</title>
<g id="a_node2"><a xlink:href="../../tables/data_histogram_bin_info.html" xlink:title="data_histogram_bin_info" target="_top">
<polygon fill="#ffffff" stroke="transparent" points="189,-104.7 189,-260.7 422,-260.7 422,-104.7 189,-104.7"/>
<polygon fill="#f5f5f5" stroke="transparent" points="191.5,-235.7 191.5,-258.7 420.5,-258.7 420.5,-235.7 191.5,-235.7"/>
<polygon fill="none" stroke="#000000" points="191.5,-235.7 191.5,-258.7 420.5,-258.7 420.5,-235.7 191.5,-235.7"/>
<text text-anchor="start" x="196.5" y="-244.8" font-family="Helvetica,sans-Serif" font-weight="bold" font-size="11.00" fill="#000000">data_histogram_bin_info</text>
<text text-anchor="start" x="385.5437" y="-243.8" font-family="Helvetica,sans-Serif" font-size="11.00" fill="#000000">[table]</text>
<polygon fill="none" stroke="#000000" points="191.5,-213.7 191.5,-235.7 354.5,-235.7 354.5,-213.7 191.5,-213.7"/>
<image xlink:href="../../images/primaryKeys.png" width="11px" height="12px" preserveAspectRatio="xMinYMin meet" x="196.5" y="-230.7"/>
<text text-anchor="start" x="211.5" y="-220.8" font-family="Helvetica,sans-Serif" font-size="11.00" fill="#000000">bin_id</text>
<polygon fill="none" stroke="#000000" points="354.5,-213.7 354.5,-235.7 420.5,-235.7 420.5,-213.7 354.5,-213.7"/>
<text text-anchor="start" x="357.5" y="-221.4" font-family="Helvetica,sans-Serif" font-size="11.00" fill="#000000">int8[19]</text>
<polygon fill="none" stroke="#000000" points="191.5,-191.7 191.5,-213.7 354.5,-213.7 354.5,-191.7 191.5,-191.7"/>
<image xlink:href="../../images/primaryKeys.png" width="11px" height="12px" preserveAspectRatio="xMinYMin meet" x="196.5" y="-208.7"/>
<text text-anchor="start" x="211.5" y="-198.8" font-family="Helvetica,sans-Serif" font-size="11.00" fill="#000000">bin_class</text>
<polygon fill="none" stroke="#000000" points="354.5,-191.7 354.5,-213.7 420.5,-213.7 420.5,-191.7 354.5,-191.7"/>
<text text-anchor="start" x="357.5" y="-199.4" font-family="Helvetica,sans-Serif" font-size="11.00" fill="#000000">int4[10]</text>
<polygon fill="none" stroke="#000000" points="191.5,-169.7 191.5,-191.7 354.5,-191.7 354.5,-169.7 191.5,-169.7"/>
<text text-anchor="start" x="211.5" y="-176.8" font-family="Helvetica,sans-Serif" font-size="11.00" fill="#000000">min_value</text>
<polygon fill="none" stroke="#000000" points="354.5,-169.7 354.5,-191.7 420.5,-191.7 420.5,-169.7 354.5,-169.7"/>
<text text-anchor="start" x="357.2351" y="-177.4" font-family="Helvetica,sans-Serif" font-size="11.00" fill="#000000">float8[17,17]</text>
<polygon fill="none" stroke="#000000" points="191.5,-147.7 191.5,-169.7 354.5,-169.7 354.5,-147.7 191.5,-147.7"/>
<text text-anchor="start" x="211.5" y="-154.8" font-family="Helvetica,sans-Serif" font-size="11.00" fill="#000000">max_value</text>
<polygon fill="none" stroke="#000000" points="354.5,-147.7 354.5,-169.7 420.5,-169.7 420.5,-147.7 354.5,-147.7"/>
<text text-anchor="start" x="357.2351" y="-155.4" font-family="Helvetica,sans-Serif" font-size="11.00" fill="#000000">float8[17,17]</text>
<polygon fill="none" stroke="#000000" points="191.5,-125.7 191.5,-147.7 354.5,-147.7 354.5,-125.7 191.5,-125.7"/>
<image xlink:href="../../images/primaryKeys.png" width="11px" height="12px" preserveAspectRatio="xMinYMin meet" x="196.5" y="-142.7"/>
<text text-anchor="start" x="211.5" y="-132.8" font-family="Helvetica,sans-Serif" font-size="11.00" fill="#000000">variable_id</text>
<polygon fill="none" stroke="#000000" points="354.5,-125.7 354.5,-147.7 420.5,-147.7 420.5,-125.7 354.5,-125.7"/>
<text text-anchor="start" x="357.5" y="-133.4" font-family="Helvetica,sans-Serif" font-size="11.00" fill="#000000">int8[19]</text>
<polygon fill="#ffffff" stroke="transparent" points="191.5,-106.7 191.5,-125.7 264.5,-125.7 264.5,-106.7 191.5,-106.7"/>
<polygon fill="none" stroke="#000000" points="191.5,-106.7 191.5,-125.7 264.5,-125.7 264.5,-106.7 191.5,-106.7"/>
<text text-anchor="start" x="194.5" y="-112.8" font-family="Helvetica,sans-Serif" font-size="11.00" fill="#000000">&lt; 1</text>
<polygon fill="#ffffff" stroke="transparent" points="264.5,-106.7 264.5,-125.7 354.5,-125.7 354.5,-106.7 264.5,-106.7"/>
<polygon fill="none" stroke="#000000" points="264.5,-106.7 264.5,-125.7 354.5,-125.7 354.5,-106.7 264.5,-106.7"/>
<text text-anchor="start" x="319.1105" y="-112.8" font-family="Helvetica,sans-Serif" font-size="11.00" fill="#000000">0 rows</text>
<polygon fill="#ffffff" stroke="transparent" points="354.5,-106.7 354.5,-125.7 420.5,-125.7 420.5,-106.7 354.5,-106.7"/>
<polygon fill="none" stroke="#000000" points="354.5,-106.7 354.5,-125.7 420.5,-125.7 420.5,-106.7 354.5,-106.7"/>
<text text-anchor="start" x="401.9053" y="-112.8" font-family="Helvetica,sans-Serif" font-size="11.00" fill="#000000">2 &gt;</text>
<polygon fill="none" stroke="#000000" stroke-width="2" points="190,-105.7 190,-259.7 421,-259.7 421,-105.7 190,-105.7"/>
</a>
</g>
</g>
<!-- data_histogram_bin_data&#45;&gt;data_histogram_bin_info -->
<g id="edge1" class="edge">
<title>data_histogram_bin_data:w&#45;&gt;data_histogram_bin_info:e</title>
<path fill="none" stroke="#000000" d="M456.776,-202.7C444.7815,-202.7 437.3229,-202.7 420.5,-202.7"/>
<polygon fill="#000000" stroke="#000000" points="463.5,-202.7001 471.5,-206.3 467.5,-202.7 471.5,-202.7 471.5,-202.7 471.5,-202.7 467.5,-202.7 471.5,-199.1 463.5,-202.7001 463.5,-202.7001"/>
<ellipse fill="none" stroke="#000000" cx="460.3" cy="-202.7001" rx="3.2" ry="3.2"/>
</g>
<!-- data_histogram_bin_data&#45;&gt;data_histogram_bin_info -->
<g id="edge2" class="edge">
<title>data_histogram_bin_data:w&#45;&gt;data_histogram_bin_info:e</title>
<path fill="none" stroke="#000000" d="M456.776,-224.7C444.7815,-224.7 437.3229,-224.7 420.5,-224.7"/>
<polygon fill="#000000" stroke="#000000" points="463.5,-224.7001 471.5,-228.3 467.5,-224.7 471.5,-224.7 471.5,-224.7 471.5,-224.7 467.5,-224.7 471.5,-221.1 463.5,-224.7001 463.5,-224.7001"/>
<ellipse fill="none" stroke="#000000" cx="460.3" cy="-224.7001" rx="3.2" ry="3.2"/>
</g>
<!-- observation_types -->
<g id="node3" class="node">
<title>observation_types</title>
<g id="a_node3"><a xlink:href="../../tables/observation_types.html" xlink:title="observation_types" target="_top">
<polygon fill="#ffffff" stroke="transparent" points="8,-38.2 8,-143.2 140,-143.2 140,-38.2 8,-38.2"/>
<polygon fill="#f5f5f5" stroke="transparent" points="8,-119.7 8,-142.7 140,-142.7 140,-119.7 8,-119.7"/>
<polygon fill="none" stroke="#000000" points="8,-119.7 8,-142.7 140,-142.7 140,-119.7 8,-119.7"/>
<text text-anchor="start" x="12.8746" y="-128.8" font-family="Helvetica,sans-Serif" font-weight="bold" font-size="11.00" fill="#000000">observation_types</text>
<text text-anchor="start" x="105.5219" y="-127.8" font-family="Helvetica,sans-Serif" font-size="11.00" fill="#000000">[table]</text>
<polygon fill="none" stroke="#000000" points="8,-97.7 8,-119.7 140,-119.7 140,-97.7 8,-97.7"/>
<image xlink:href="../../images/primaryKeys.png" width="11px" height="12px" preserveAspectRatio="xMinYMin meet" x="13" y="-114.7"/>
<text text-anchor="start" x="31" y="-104.8" font-family="Helvetica,sans-Serif" font-size="11.00" fill="#000000">variable_id</text>
<polygon fill="#ffffff" stroke="transparent" points="8,-75.7 8,-97.7 140,-97.7 140,-75.7 8,-75.7"/>
<polygon fill="none" stroke="#000000" points="8,-75.7 8,-97.7 140,-97.7 140,-75.7 8,-75.7"/>
<text text-anchor="start" x="31" y="-82.8" font-family="Helvetica,sans-Serif" font-size="11.00" fill="#000000">variable_name</text>
<polygon fill="none" stroke="#000000" points="8,-56.7 8,-75.7 140,-75.7 140,-56.7 8,-56.7"/>
<text text-anchor="start" x="11" y="-62.8" font-family="Helvetica,sans-Serif" font-size="11.00" fill="#000000">...</text>
<polygon fill="#ffffff" stroke="transparent" points="8,-37.7 8,-56.7 44,-56.7 44,-37.7 8,-37.7"/>
<polygon fill="none" stroke="#000000" points="8,-37.7 8,-56.7 44,-56.7 44,-37.7 8,-37.7"/>
<text text-anchor="start" x="11" y="-43.8" font-family="Helvetica,sans-Serif" font-size="11.00" fill="#000000"> &#160;</text>
<polygon fill="#ffffff" stroke="transparent" points="44,-37.7 44,-56.7 106,-56.7 106,-37.7 44,-37.7"/>
<polygon fill="none" stroke="#000000" points="44,-37.7 44,-56.7 106,-56.7 106,-37.7 44,-37.7"/>
<text text-anchor="start" x="58.3807" y="-43.8" font-family="Helvetica,sans-Serif" font-size="11.00" fill="#000000">204 rows</text>
<polygon fill="#ffffff" stroke="transparent" points="106,-37.7 106,-56.7 140,-56.7 140,-37.7 106,-37.7"/>
<polygon fill="none" stroke="#000000" points="106,-37.7 106,-56.7 140,-56.7 140,-37.7 106,-37.7"/>
<text text-anchor="start" x="121.4053" y="-43.8" font-family="Helvetica,sans-Serif" font-size="11.00" fill="#000000">5 &gt;</text>
</a>
</g>
</g>
<!-- data_histogram_bin_data&#45;&gt;observation_types -->
<g id="edge3" class="edge">
<title>data_histogram_bin_data:w&#45;&gt;observation_types:e</title>
<path fill="none" stroke="#000000" d="M457.656,-131.8516C447.6506,-122.5326 448.3499,-102.3652 430,-94.7 327.8846,-52.0438 290.1723,-76.5746 181,-94.7 162.0047,-97.8537 159.2553,-108.7 140,-108.7"/>
<polygon fill="#000000" stroke="#000000" points="463.9496,-134.0557 470.3101,-140.0977 467.7248,-135.3778 471.5,-136.7 471.5,-136.7 471.5,-136.7 467.7248,-135.3778 472.6899,-133.3023 463.9496,-134.0557 463.9496,-134.0557"/>
<ellipse fill="none" stroke="#000000" cx="460.9295" cy="-132.998" rx="3.2" ry="3.2"/>
</g>
<!-- data_histogram_bin_info&#45;&gt;observation_types -->
<g id="edge4" class="edge">
<title>data_histogram_bin_info:w&#45;&gt;observation_types:e</title>
<path fill="none" stroke="#000000" d="M177.2773,-133.0395C164.3531,-125.4498 160.1505,-108.7 140,-108.7"/>
<polygon fill="#000000" stroke="#000000" points="183.7525,-134.706 190.6027,-140.1864 187.6262,-135.703 191.5,-136.7 191.5,-136.7 191.5,-136.7 187.6262,-135.703 192.3973,-133.2136 183.7525,-134.706 183.7525,-134.706"/>
<ellipse fill="none" stroke="#000000" cx="180.6535" cy="-133.9084" rx="3.2" ry="3.2"/>
</g>
</g>
</svg>
