<?xml version="1.0" encoding="UTF-8" standalone="no"?>
<!DOCTYPE svg PUBLIC "-//W3C//DTD SVG 1.1//EN"
 "http://www.w3.org/Graphics/SVG/1.1/DTD/svg11.dtd">
<!-- Generated by graphviz version 2.40.1 (20161225.0304)
 -->
<!-- Title: twoDegreesRelationshipsDiagram Pages: 1 -->
<svg width="622pt" height="714pt"
 viewBox="0.00 0.00 622.00 714.20" xmlns="http://www.w3.org/2000/svg" xmlns:xlink="http://www.w3.org/1999/xlink">
<g id="graph0" class="graph" transform="scale(1 1) rotate(0) translate(4 710.2)">
<title>twoDegreesRelationshipsDiagram</title>
<polygon fill="#ffffff" stroke="transparent" points="-4,4 -4,-710.2 618,-710.2 618,4 -4,4"/>
<text text-anchor="middle" x="72.4936" y="-7.3" font-family="Helvetica,sans-Serif" font-size="11.00" fill="#000000">Generated by SchemaSpy</text>
<!-- data_histogram_bin_data -->
<g id="node1" class="node">
<title>data_histogram_bin_data</title>
<g id="a_node1"><a xlink:href="../../tables/data_histogram_bin_data.html" xlink:title="data_histogram_bin_data" target="_top">
<polygon fill="#ffffff" stroke="transparent" points="439,-487.2 439,-702.2 606,-702.2 606,-487.2 439,-487.2"/>
<polygon fill="#f5f5f5" stroke="transparent" points="439.5,-678.7 439.5,-701.7 606.5,-701.7 606.5,-678.7 439.5,-678.7"/>
<polygon fill="none" stroke="#000000" points="439.5,-678.7 439.5,-701.7 606.5,-701.7 606.5,-678.7 439.5,-678.7"/>
<text text-anchor="start" x="444.4501" y="-687.8" font-family="Helvetica,sans-Serif" font-weight="bold" font-size="11.00" fill="#000000">data_histogram_bin_data</text>
<text text-anchor="start" x="572.0219" y="-686.8" font-family="Helvetica,sans-Serif" font-size="11.00" fill="#000000">[table]</text>
<polygon fill="none" stroke="#000000" points="439.5,-656.7 439.5,-678.7 606.5,-678.7 606.5,-656.7 439.5,-656.7"/>
<image xlink:href="../../images/primaryKeys.png" width="11px" height="12px" preserveAspectRatio="xMinYMin meet" x="444.5" y="-673.7"/>
<text text-anchor="start" x="460.5" y="-663.8" font-family="Helvetica,sans-Serif" font-size="11.00" fill="#000000">submission_id</text>
<polygon fill="none" stroke="#000000" points="439.5,-634.7 439.5,-656.7 606.5,-656.7 606.5,-634.7 439.5,-634.7"/>
<image xlink:href="../../images/primaryKeys.png" width="11px" height="12px" preserveAspectRatio="xMinYMin meet" x="444.5" y="-651.7"/>
<text text-anchor="start" x="460.5" y="-641.8" font-family="Helvetica,sans-Serif" font-size="11.00" fill="#000000">tag_id</text>
<polygon fill="none" stroke="#000000" points="439.5,-612.7 439.5,-634.7 606.5,-634.7 606.5,-612.7 439.5,-612.7"/>
<image xlink:href="../../images/primaryKeys.png" width="11px" height="12px" preserveAspectRatio="xMinYMin meet" x="444.5" y="-629.7"/>
<text text-anchor="start" x="460.5" y="-619.8" font-family="Helvetica,sans-Serif" font-size="11.00" fill="#000000">bin_id</text>
<polygon fill="none" stroke="#000000" points="439.5,-590.7 439.5,-612.7 606.5,-612.7 606.5,-590.7 439.5,-590.7"/>
<image xlink:href="../../images/primaryKeys.png" width="11px" height="12px" preserveAspectRatio="xMinYMin meet" x="444.5" y="-607.7"/>
<text text-anchor="start" x="460.5" y="-597.8" font-family="Helvetica,sans-Serif" font-size="11.00" fill="#000000">bin_class</text>
<polygon fill="none" stroke="#000000" points="439.5,-568.7 439.5,-590.7 606.5,-590.7 606.5,-568.7 439.5,-568.7"/>
<image xlink:href="../../images/primaryKeys.png" width="11px" height="12px" preserveAspectRatio="xMinYMin meet" x="444.5" y="-585.7"/>
<text text-anchor="start" x="460.5" y="-575.8" font-family="Helvetica,sans-Serif" font-size="11.00" fill="#000000">date_time</text>
<polygon fill="#ffffff" stroke="transparent" points="439.5,-546.7 439.5,-568.7 606.5,-568.7 606.5,-546.7 439.5,-546.7"/>
<polygon fill="none" stroke="#000000" points="439.5,-546.7 439.5,-568.7 606.5,-568.7 606.5,-546.7 439.5,-546.7"/>
<image xlink:href="../../images/foreignKeys.png" width="11px" height="12px" preserveAspectRatio="xMinYMin meet" x="444.5" y="-563.7"/>
<text text-anchor="start" x="460.5" y="-553.8" font-family="Helvetica,sans-Serif" font-size="11.00" fill="#000000">position_date_time</text>
<polygon fill="none" stroke="#000000" points="439.5,-524.7 439.5,-546.7 606.5,-546.7 606.5,-524.7 439.5,-524.7"/>
<image xlink:href="../../images/primaryKeys.png" width="11px" height="12px" preserveAspectRatio="xMinYMin meet" x="444.5" y="-541.7"/>
<text text-anchor="start" x="460.5" y="-531.8" font-family="Helvetica,sans-Serif" font-size="11.00" fill="#000000">variable_id</text>
<polygon fill="none" stroke="#000000" points="439.5,-505.7 439.5,-524.7 606.5,-524.7 606.5,-505.7 439.5,-505.7"/>
<text text-anchor="start" x="442.5" y="-511.8" font-family="Helvetica,sans-Serif" font-size="11.00" fill="#000000">...</text>
<polygon fill="#ffffff" stroke="transparent" points="439.5,-486.7 439.5,-505.7 508.5,-505.7 508.5,-486.7 439.5,-486.7"/>
<polygon fill="none" stroke="#000000" points="439.5,-486.7 439.5,-505.7 508.5,-505.7 508.5,-486.7 439.5,-486.7"/>
<text text-anchor="start" x="442.5" y="-492.8" font-family="Helvetica,sans-Serif" font-size="11.00" fill="#000000">&lt; 7</text>
<polygon fill="#ffffff" stroke="transparent" points="508.5,-486.7 508.5,-505.7 570.5,-505.7 570.5,-486.7 508.5,-486.7"/>
<polygon fill="none" stroke="#000000" points="508.5,-486.7 508.5,-505.7 570.5,-505.7 570.5,-486.7 508.5,-486.7"/>
<text text-anchor="start" x="535.1105" y="-492.8" font-family="Helvetica,sans-Serif" font-size="11.00" fill="#000000">0 rows</text>
<polygon fill="#ffffff" stroke="transparent" points="570.5,-486.7 570.5,-505.7 606.5,-505.7 606.5,-486.7 570.5,-486.7"/>
<polygon fill="none" stroke="#000000" points="570.5,-486.7 570.5,-505.7 606.5,-505.7 606.5,-486.7 570.5,-486.7"/>
<text text-anchor="start" x="597.3862" y="-492.8" font-family="Helvetica,sans-Serif" font-size="11.00" fill="#000000"> &#160;</text>
</a>
</g>
</g>
<!-- data_histogram_bin_info -->
<g id="node2" class="node">
<title>data_histogram_bin_info</title>
<g id="a_node2"><a xlink:href="../../tables/data_histogram_bin_info.html" xlink:title="data_histogram_bin_info" target="_top">
<polygon fill="#ffffff" stroke="transparent" points="208,-582.2 208,-643.2 371,-643.2 371,-582.2 208,-582.2"/>
<polygon fill="#f5f5f5" stroke="transparent" points="208.5,-619.7 208.5,-642.7 371.5,-642.7 371.5,-619.7 208.5,-619.7"/>
<polygon fill="none" stroke="#000000" points="208.5,-619.7 208.5,-642.7 371.5,-642.7 371.5,-619.7 208.5,-619.7"/>
<text text-anchor="start" x="213.2871" y="-628.8" font-family="Helvetica,sans-Serif" font-weight="bold" font-size="11.00" fill="#000000">data_histogram_bin_info</text>
<text text-anchor="start" x="337.0219" y="-627.8" font-family="Helvetica,sans-Serif" font-size="11.00" fill="#000000">[table]</text>
<polygon fill="none" stroke="#000000" points="208.5,-600.7 208.5,-619.7 371.5,-619.7 371.5,-600.7 208.5,-600.7"/>
<text text-anchor="start" x="211.5" y="-606.8" font-family="Helvetica,sans-Serif" font-size="11.00" fill="#000000">...</text>
<polygon fill="#ffffff" stroke="transparent" points="208.5,-581.7 208.5,-600.7 270.5,-600.7 270.5,-581.7 208.5,-581.7"/>
<polygon fill="none" stroke="#000000" points="208.5,-581.7 208.5,-600.7 270.5,-600.7 270.5,-581.7 208.5,-581.7"/>
<text text-anchor="start" x="211.5" y="-587.8" font-family="Helvetica,sans-Serif" font-size="11.00" fill="#000000">&lt; 1</text>
<polygon fill="#ffffff" stroke="transparent" points="270.5,-581.7 270.5,-600.7 329.5,-600.7 329.5,-581.7 270.5,-581.7"/>
<polygon fill="none" stroke="#000000" points="270.5,-581.7 270.5,-600.7 329.5,-600.7 329.5,-581.7 270.5,-581.7"/>
<text text-anchor="start" x="294.1105" y="-587.8" font-family="Helvetica,sans-Serif" font-size="11.00" fill="#000000">0 rows</text>
<polygon fill="#ffffff" stroke="transparent" points="329.5,-581.7 329.5,-600.7 371.5,-600.7 371.5,-581.7 329.5,-581.7"/>
<polygon fill="none" stroke="#000000" points="329.5,-581.7 329.5,-600.7 371.5,-600.7 371.5,-581.7 329.5,-581.7"/>
<text text-anchor="start" x="352.9053" y="-587.8" font-family="Helvetica,sans-Serif" font-size="11.00" fill="#000000">2 &gt;</text>
</a>
</g>
</g>
<!-- data_histogram_bin_data&#45;&gt;data_histogram_bin_info -->
<g id="edge1" class="edge">
<title>data_histogram_bin_data:w&#45;&gt;data_histogram_bin_info:e</title>
<path fill="none" stroke="#000000" d="M425.0818,-602.3821C405.7518,-604.3167 396.4626,-609.7 371.5,-609.7"/>
<polygon fill="#000000" stroke="#000000" points="431.5089,-602.0781 439.6701,-605.296 435.5045,-601.889 439.5,-601.7 439.5,-601.7 439.5,-601.7 435.5045,-601.889 439.3299,-598.104 431.5089,-602.0781 431.5089,-602.0781"/>
<ellipse fill="none" stroke="#000000" cx="428.3125" cy="-602.2293" rx="3.2" ry="3.2"/>
</g>
<!-- data_histogram_bin_data&#45;&gt;data_histogram_bin_info -->
<g id="edge2" class="edge">
<title>data_histogram_bin_data:w&#45;&gt;data_histogram_bin_info:e</title>
<path fill="none" stroke="#000000" d="M424.9613,-622.5064C405.591,-619.1208 396.8116,-609.7 371.5,-609.7"/>
<polygon fill="#000000" stroke="#000000" points="431.5268,-623.0453 439.2054,-627.2879 435.5134,-623.3727 439.5,-623.7 439.5,-623.7 439.5,-623.7 435.5134,-623.3727 439.7946,-620.1121 431.5268,-623.0453 431.5268,-623.0453"/>
<ellipse fill="none" stroke="#000000" cx="428.3376" cy="-622.7835" rx="3.2" ry="3.2"/>
</g>
<!-- data_position -->
<g id="node3" class="node">
<title>data_position</title>
<g id="a_node3"><a xlink:href="../../tables/data_position.html" xlink:title="data_position" target="_top">
<polygon fill="#ffffff" stroke="transparent" points="189,-174.7 189,-396.7 390,-396.7 390,-174.7 189,-174.7"/>
<polygon fill="#f5f5f5" stroke="transparent" points="191.5,-371.7 191.5,-394.7 388.5,-394.7 388.5,-371.7 191.5,-371.7"/>
<polygon fill="none" stroke="#000000" points="191.5,-371.7 191.5,-394.7 388.5,-394.7 388.5,-371.7 191.5,-371.7"/>
<text text-anchor="start" x="196.5" y="-380.8" font-family="Helvetica,sans-Serif" font-weight="bold" font-size="11.00" fill="#000000">data_position</text>
<text text-anchor="start" x="353.5437" y="-379.8" font-family="Helvetica,sans-Serif" font-size="11.00" fill="#000000">[table]</text>
<polygon fill="none" stroke="#000000" points="191.5,-349.7 191.5,-371.7 296.5,-371.7 296.5,-349.7 191.5,-349.7"/>
<image xlink:href="../../images/primaryKeys.png" width="11px" height="12px" preserveAspectRatio="xMinYMin meet" x="196.5" y="-366.7"/>
<text text-anchor="start" x="211.5" y="-356.8" font-family="Helvetica,sans-Serif" font-size="11.00" fill="#000000">date_time</text>
<polygon fill="none" stroke="#000000" points="296.5,-349.7 296.5,-371.7 388.5,-371.7 388.5,-349.7 296.5,-349.7"/>
<text text-anchor="start" x="299.1023" y="-357.4" font-family="Helvetica,sans-Serif" font-size="11.00" fill="#000000">timestamptz[35,6]</text>
<polygon fill="#ffffff" stroke="transparent" points="191.5,-327.7 191.5,-349.7 296.5,-349.7 296.5,-327.7 191.5,-327.7"/>
<polygon fill="none" stroke="#000000" points="191.5,-327.7 191.5,-349.7 296.5,-349.7 296.5,-327.7 191.5,-327.7"/>
<text text-anchor="start" x="211.5" y="-334.8" font-family="Helvetica,sans-Serif" font-size="11.00" fill="#000000">lat</text>
<polygon fill="none" stroke="#000000" points="296.5,-327.7 296.5,-349.7 388.5,-349.7 388.5,-327.7 296.5,-327.7"/>
<text text-anchor="start" x="299.5" y="-335.4" font-family="Helvetica,sans-Serif" font-size="11.00" fill="#000000">float8[17,17]</text>
<polygon fill="#ffffff" stroke="transparent" points="191.5,-305.7 191.5,-327.7 296.5,-327.7 296.5,-305.7 191.5,-305.7"/>
<polygon fill="none" stroke="#000000" points="191.5,-305.7 191.5,-327.7 296.5,-327.7 296.5,-305.7 191.5,-305.7"/>
<text text-anchor="start" x="211.5" y="-312.8" font-family="Helvetica,sans-Serif" font-size="11.00" fill="#000000">lon</text>
<polygon fill="none" stroke="#000000" points="296.5,-305.7 296.5,-327.7 388.5,-327.7 388.5,-305.7 296.5,-305.7"/>
<text text-anchor="start" x="299.5" y="-313.4" font-family="Helvetica,sans-Serif" font-size="11.00" fill="#000000">float8[17,17]</text>
<polygon fill="none" stroke="#000000" points="191.5,-283.7 191.5,-305.7 296.5,-305.7 296.5,-283.7 191.5,-283.7"/>
<text text-anchor="start" x="211.5" y="-290.8" font-family="Helvetica,sans-Serif" font-size="11.00" fill="#000000">lat_err</text>
<polygon fill="none" stroke="#000000" points="296.5,-283.7 296.5,-305.7 388.5,-305.7 388.5,-283.7 296.5,-283.7"/>
<text text-anchor="start" x="299.5" y="-291.4" font-family="Helvetica,sans-Serif" font-size="11.00" fill="#000000">float8[17,17]</text>
<polygon fill="none" stroke="#000000" points="191.5,-261.7 191.5,-283.7 296.5,-283.7 296.5,-261.7 191.5,-261.7"/>
<text text-anchor="start" x="211.5" y="-268.8" font-family="Helvetica,sans-Serif" font-size="11.00" fill="#000000">lon_err</text>
<polygon fill="none" stroke="#000000" points="296.5,-261.7 296.5,-283.7 388.5,-283.7 388.5,-261.7 296.5,-261.7"/>
<text text-anchor="start" x="299.5" y="-269.4" font-family="Helvetica,sans-Serif" font-size="11.00" fill="#000000">float8[17,17]</text>
<polygon fill="none" stroke="#000000" points="191.5,-239.7 191.5,-261.7 296.5,-261.7 296.5,-239.7 191.5,-239.7"/>
<image xlink:href="../../images/primaryKeys.png" width="11px" height="12px" preserveAspectRatio="xMinYMin meet" x="196.5" y="-256.7"/>
<text text-anchor="start" x="211.5" y="-246.8" font-family="Helvetica,sans-Serif" font-size="11.00" fill="#000000">submission_id</text>
<polygon fill="none" stroke="#000000" points="296.5,-239.7 296.5,-261.7 388.5,-261.7 388.5,-239.7 296.5,-239.7"/>
<text text-anchor="start" x="299.5" y="-247.4" font-family="Helvetica,sans-Serif" font-size="11.00" fill="#000000">int8[19]</text>
<polygon fill="none" stroke="#000000" points="191.5,-217.7 191.5,-239.7 296.5,-239.7 296.5,-217.7 191.5,-217.7"/>
<image xlink:href="../../images/primaryKeys.png" width="11px" height="12px" preserveAspectRatio="xMinYMin meet" x="196.5" y="-234.7"/>
<text text-anchor="start" x="211.5" y="-224.8" font-family="Helvetica,sans-Serif" font-size="11.00" fill="#000000">tag_id</text>
<polygon fill="none" stroke="#000000" points="296.5,-217.7 296.5,-239.7 388.5,-239.7 388.5,-217.7 296.5,-217.7"/>
<text text-anchor="start" x="299.5" y="-225.4" font-family="Helvetica,sans-Serif" font-size="11.00" fill="#000000">int8[19]</text>
<polygon fill="none" stroke="#000000" points="191.5,-195.7 191.5,-217.7 296.5,-217.7 296.5,-195.7 191.5,-195.7"/>
<text text-anchor="start" x="211.5" y="-202.8" font-family="Helvetica,sans-Serif" font-size="11.00" fill="#000000">argosLC</text>
<polygon fill="none" stroke="#000000" points="296.5,-195.7 296.5,-217.7 388.5,-217.7 388.5,-195.7 296.5,-195.7"/>
<text text-anchor="start" x="299.5" y="-203.4" font-family="Helvetica,sans-Serif" font-size="11.00" fill="#000000">bpchar[1]</text>
<polygon fill="#ffffff" stroke="transparent" points="191.5,-176.7 191.5,-195.7 235.5,-195.7 235.5,-176.7 191.5,-176.7"/>
<polygon fill="none" stroke="#000000" points="191.5,-176.7 191.5,-195.7 235.5,-195.7 235.5,-176.7 191.5,-176.7"/>
<text text-anchor="start" x="194.5" y="-182.8" font-family="Helvetica,sans-Serif" font-size="11.00" fill="#000000">&lt; 1</text>
<polygon fill="#ffffff" stroke="transparent" points="235.5,-176.7 235.5,-195.7 296.5,-195.7 296.5,-176.7 235.5,-176.7"/>
<polygon fill="none" stroke="#000000" points="235.5,-176.7 235.5,-195.7 296.5,-195.7 296.5,-176.7 235.5,-176.7"/>
<text text-anchor="start" x="261.1105" y="-182.8" font-family="Helvetica,sans-Serif" font-size="11.00" fill="#000000">0 rows</text>
<polygon fill="#ffffff" stroke="transparent" points="296.5,-176.7 296.5,-195.7 388.5,-195.7 388.5,-176.7 296.5,-176.7"/>
<polygon fill="none" stroke="#000000" points="296.5,-176.7 296.5,-195.7 388.5,-195.7 388.5,-176.7 296.5,-176.7"/>
<text text-anchor="start" x="369.9053" y="-182.8" font-family="Helvetica,sans-Serif" font-size="11.00" fill="#000000">9 &gt;</text>
<polygon fill="none" stroke="#000000" stroke-width="2" points="190,-175.7 190,-395.7 389,-395.7 389,-175.7 190,-175.7"/>
</a>
</g>
</g>
<!-- data_histogram_bin_data&#45;&gt;data_position -->
<g id="edge3" class="edge">
<title>data_histogram_bin_data:w&#45;&gt;data_position:e</title>
<path fill="none" stroke="#000000" d="M425.0165,-555.4876C364.4329,-533.8445 473.2894,-360.7 388.5,-360.7"/>
<polygon fill="#000000" stroke="#000000" points="431.5917,-556.4919 438.9564,-561.2587 435.5459,-557.096 439.5,-557.7 439.5,-557.7 439.5,-557.7 435.5459,-557.096 440.0436,-554.1413 431.5917,-556.4919 431.5917,-556.4919"/>
<ellipse fill="none" stroke="#000000" cx="428.4284" cy="-556.0087" rx="3.2" ry="3.2"/>
</g>
<!-- data_histogram_bin_data&#45;&gt;data_position -->
<g id="edge4" class="edge">
<title>data_histogram_bin_data:w&#45;&gt;data_position:e</title>
<path fill="none" stroke="#000000" d="M425.3568,-663.5728C361.2604,-620.2645 476.387,-250.7 388.5,-250.7"/>
<polygon fill="#000000" stroke="#000000" points="431.8203,-665.4589 438.4915,-671.1559 435.6602,-666.5795 439.5,-667.7 439.5,-667.7 439.5,-667.7 435.6602,-666.5795 440.5085,-664.2441 431.8203,-665.4589 431.8203,-665.4589"/>
<ellipse fill="none" stroke="#000000" cx="428.7484" cy="-664.5625" rx="3.2" ry="3.2"/>
</g>
<!-- data_histogram_bin_data&#45;&gt;data_position -->
<g id="edge6" class="edge">
<title>data_histogram_bin_data:w&#45;&gt;data_position:e</title>
<path fill="none" stroke="#000000" d="M425.3568,-641.5728C361.2604,-598.2645 476.387,-228.7 388.5,-228.7"/>
<polygon fill="#000000" stroke="#000000" points="431.8203,-643.4589 438.4915,-649.1559 435.6602,-644.5795 439.5,-645.7 439.5,-645.7 439.5,-645.7 435.6602,-644.5795 440.5085,-642.2441 431.8203,-643.4589 431.8203,-643.4589"/>
<ellipse fill="none" stroke="#000000" cx="428.7484" cy="-642.5625" rx="3.2" ry="3.2"/>
</g>
<!-- submission -->
<g id="node4" class="node">
<title>submission</title>
<g id="a_node4"><a xlink:href="../../tables/submission.html" xlink:title="submission" target="_top">
<polygon fill="#ffffff" stroke="transparent" points="14.5,-287.2 14.5,-370.2 133.5,-370.2 133.5,-287.2 14.5,-287.2"/>
<polygon fill="#f5f5f5" stroke="transparent" points="15,-346.7 15,-369.7 134,-369.7 134,-346.7 15,-346.7"/>
<polygon fill="none" stroke="#000000" points="15,-346.7 15,-369.7 134,-369.7 134,-346.7 15,-346.7"/>
<text text-anchor="start" x="20" y="-355.8" font-family="Helvetica,sans-Serif" font-weight="bold" font-size="11.00" fill="#000000">submission</text>
<text text-anchor="start" x="99.0437" y="-354.8" font-family="Helvetica,sans-Serif" font-size="11.00" fill="#000000">[table]</text>
<polygon fill="none" stroke="#000000" points="15,-324.7 15,-346.7 134,-346.7 134,-324.7 15,-324.7"/>
<image xlink:href="../../images/primaryKeys.png" width="11px" height="12px" preserveAspectRatio="xMinYMin meet" x="20" y="-341.7"/>
<text text-anchor="start" x="35" y="-331.8" font-family="Helvetica,sans-Serif" font-size="11.00" fill="#000000">submission_id</text>
<polygon fill="none" stroke="#000000" points="15,-305.7 15,-324.7 134,-324.7 134,-305.7 15,-305.7"/>
<text text-anchor="start" x="18" y="-311.8" font-family="Helvetica,sans-Serif" font-size="11.00" fill="#000000">...</text>
<polygon fill="#ffffff" stroke="transparent" points="15,-286.7 15,-305.7 51,-305.7 51,-286.7 15,-286.7"/>
<polygon fill="none" stroke="#000000" points="15,-286.7 15,-305.7 51,-305.7 51,-286.7 15,-286.7"/>
<text text-anchor="start" x="18" y="-292.8" font-family="Helvetica,sans-Serif" font-size="11.00" fill="#000000"> &#160;</text>
<polygon fill="#ffffff" stroke="transparent" points="51,-286.7 51,-305.7 101,-305.7 101,-286.7 51,-286.7"/>
<polygon fill="none" stroke="#000000" points="51,-286.7 51,-305.7 101,-305.7 101,-286.7 51,-286.7"/>
<text text-anchor="start" x="65.6105" y="-292.8" font-family="Helvetica,sans-Serif" font-size="11.00" fill="#000000">0 rows</text>
<polygon fill="#ffffff" stroke="transparent" points="101,-286.7 101,-305.7 134,-305.7 134,-286.7 101,-286.7"/>
<polygon fill="none" stroke="#000000" points="101,-286.7 101,-305.7 134,-305.7 134,-286.7 101,-286.7"/>
<text text-anchor="start" x="115.4053" y="-292.8" font-family="Helvetica,sans-Serif" font-size="11.00" fill="#000000">6 &gt;</text>
</a>
</g>
</g>
<!-- data_histogram_bin_data&#45;&gt;submission -->
<g id="edge5" class="edge">
<title>data_histogram_bin_data:w&#45;&gt;submission:e</title>
<path fill="none" stroke="#000000" d="M424.9756,-668.0355C319.3744,-672.897 262.3833,-727.8735 181,-653.7 128.2038,-605.5811 205.4343,-335.7 134,-335.7"/>
<polygon fill="#000000" stroke="#000000" points="431.5021,-667.8848 439.5832,-671.299 435.5011,-667.7924 439.5,-667.7 439.5,-667.7 439.5,-667.7 435.5011,-667.7924 439.4168,-664.101 431.5021,-667.8848 431.5021,-667.8848"/>
<ellipse fill="none" stroke="#000000" cx="428.303" cy="-667.9587" rx="3.2" ry="3.2"/>
</g>
<!-- observation_types -->
<g id="node5" class="node">
<title>observation_types</title>
<g id="a_node5"><a xlink:href="../../tables/observation_types.html" xlink:title="observation_types" target="_top">
<polygon fill="#ffffff" stroke="transparent" points="8,-503.2 8,-564.2 140,-564.2 140,-503.2 8,-503.2"/>
<polygon fill="#f5f5f5" stroke="transparent" points="8,-540.7 8,-563.7 140,-563.7 140,-540.7 8,-540.7"/>
<polygon fill="none" stroke="#000000" points="8,-540.7 8,-563.7 140,-563.7 140,-540.7 8,-540.7"/>
<text text-anchor="start" x="12.8746" y="-549.8" font-family="Helvetica,sans-Serif" font-weight="bold" font-size="11.00" fill="#000000">observation_types</text>
<text text-anchor="start" x="105.5219" y="-548.8" font-family="Helvetica,sans-Serif" font-size="11.00" fill="#000000">[table]</text>
<polygon fill="none" stroke="#000000" points="8,-521.7 8,-540.7 140,-540.7 140,-521.7 8,-521.7"/>
<text text-anchor="start" x="11" y="-527.8" font-family="Helvetica,sans-Serif" font-size="11.00" fill="#000000">...</text>
<polygon fill="#ffffff" stroke="transparent" points="8,-502.7 8,-521.7 44,-521.7 44,-502.7 8,-502.7"/>
<polygon fill="none" stroke="#000000" points="8,-502.7 8,-521.7 44,-521.7 44,-502.7 8,-502.7"/>
<text text-anchor="start" x="11" y="-508.8" font-family="Helvetica,sans-Serif" font-size="11.00" fill="#000000"> &#160;</text>
<polygon fill="#ffffff" stroke="transparent" points="44,-502.7 44,-521.7 106,-521.7 106,-502.7 44,-502.7"/>
<polygon fill="none" stroke="#000000" points="44,-502.7 44,-521.7 106,-521.7 106,-502.7 44,-502.7"/>
<text text-anchor="start" x="58.3807" y="-508.8" font-family="Helvetica,sans-Serif" font-size="11.00" fill="#000000">204 rows</text>
<polygon fill="#ffffff" stroke="transparent" points="106,-502.7 106,-521.7 140,-521.7 140,-502.7 106,-502.7"/>
<polygon fill="none" stroke="#000000" points="106,-502.7 106,-521.7 140,-521.7 140,-502.7 106,-502.7"/>
<text text-anchor="start" x="121.4053" y="-508.8" font-family="Helvetica,sans-Serif" font-size="11.00" fill="#000000">5 &gt;</text>
</a>
</g>
</g>
<!-- data_histogram_bin_data&#45;&gt;observation_types -->
<g id="edge7" class="edge">
<title>data_histogram_bin_data:w&#45;&gt;observation_types:e</title>
<path fill="none" stroke="#000000" d="M425.0864,-536.6775C416.6642,-537.9054 410.6044,-539.9434 398,-540.7 301.7288,-546.4786 276.7553,-552.2088 181,-540.7 162.3776,-538.4618 158.7564,-530.7 140,-530.7"/>
<polygon fill="#000000" stroke="#000000" points="431.5183,-536.2413 439.7436,-539.2917 435.5092,-535.9707 439.5,-535.7 439.5,-535.7 439.5,-535.7 435.5092,-535.9707 439.2564,-532.1083 431.5183,-536.2413 431.5183,-536.2413"/>
<ellipse fill="none" stroke="#000000" cx="428.3257" cy="-536.4579" rx="3.2" ry="3.2"/>
</g>
<!-- data_histogram_bin_info&#45;&gt;observation_types -->
<g id="edge8" class="edge">
<title>data_histogram_bin_info:w&#45;&gt;observation_types:e</title>
<path fill="none" stroke="#000000" d="M194.1202,-606.3055C167.0309,-591.1844 180.6631,-530.7 140,-530.7"/>
<polygon fill="#000000" stroke="#000000" points="200.714,-607.862 207.6729,-613.2037 204.607,-608.781 208.5,-609.7 208.5,-609.7 208.5,-609.7 204.607,-608.781 209.3271,-606.1963 200.714,-607.862 200.714,-607.862"/>
<ellipse fill="none" stroke="#000000" cx="197.5996" cy="-607.1268" rx="3.2" ry="3.2"/>
</g>
<!-- data_position&#45;&gt;submission -->
<g id="edge9" class="edge">
<title>data_position:w&#45;&gt;submission:e</title>
<path fill="none" stroke="#000000" d="M177.4766,-254.5731C153.2654,-271.2016 173.7303,-335.7 134,-335.7"/>
<polygon fill="#000000" stroke="#000000" points="183.7887,-252.8298 192.4584,-254.1701 187.6444,-251.7649 191.5,-250.7 191.5,-250.7 191.5,-250.7 187.6444,-251.7649 190.5416,-247.2299 183.7887,-252.8298 183.7887,-252.8298"/>
<ellipse fill="none" stroke="#000000" cx="180.7042" cy="-253.6818" rx="3.2" ry="3.2"/>
</g>
<!-- data_profile -->
<g id="node6" class="node">
<title>data_profile</title>
<g id="a_node6"><a xlink:href="../../tables/data_profile.html" xlink:title="data_profile" target="_top">
<polygon fill="#ffffff" stroke="transparent" points="457.5,-81.2 457.5,-274.2 587.5,-274.2 587.5,-81.2 457.5,-81.2"/>
<polygon fill="#f5f5f5" stroke="transparent" points="457.5,-250.7 457.5,-273.7 587.5,-273.7 587.5,-250.7 457.5,-250.7"/>
<polygon fill="none" stroke="#000000" points="457.5,-250.7 457.5,-273.7 587.5,-273.7 587.5,-250.7 457.5,-250.7"/>
<text text-anchor="start" x="462.5" y="-259.8" font-family="Helvetica,sans-Serif" font-weight="bold" font-size="11.00" fill="#000000">data_profile</text>
<text text-anchor="start" x="552.5437" y="-258.8" font-family="Helvetica,sans-Serif" font-size="11.00" fill="#000000">[table]</text>
<polygon fill="none" stroke="#000000" points="457.5,-228.7 457.5,-250.7 587.5,-250.7 587.5,-228.7 457.5,-228.7"/>
<image xlink:href="../../images/primaryKeys.png" width="11px" height="12px" preserveAspectRatio="xMinYMin meet" x="462.5" y="-245.7"/>
<text text-anchor="start" x="477.5" y="-235.8" font-family="Helvetica,sans-Serif" font-size="11.00" fill="#000000">submission_id</text>
<polygon fill="none" stroke="#000000" points="457.5,-206.7 457.5,-228.7 587.5,-228.7 587.5,-206.7 457.5,-206.7"/>
<image xlink:href="../../images/primaryKeys.png" width="11px" height="12px" preserveAspectRatio="xMinYMin meet" x="462.5" y="-223.7"/>
<text text-anchor="start" x="477.5" y="-213.8" font-family="Helvetica,sans-Serif" font-size="11.00" fill="#000000">tag_id</text>
<polygon fill="none" stroke="#000000" points="457.5,-184.7 457.5,-206.7 587.5,-206.7 587.5,-184.7 457.5,-184.7"/>
<image xlink:href="../../images/primaryKeys.png" width="11px" height="12px" preserveAspectRatio="xMinYMin meet" x="462.5" y="-201.7"/>
<text text-anchor="start" x="477.5" y="-191.8" font-family="Helvetica,sans-Serif" font-size="11.00" fill="#000000">variable_id</text>
<polygon fill="none" stroke="#000000" points="457.5,-162.7 457.5,-184.7 587.5,-184.7 587.5,-162.7 457.5,-162.7"/>
<image xlink:href="../../images/primaryKeys.png" width="11px" height="12px" preserveAspectRatio="xMinYMin meet" x="462.5" y="-179.7"/>
<text text-anchor="start" x="477.5" y="-169.8" font-family="Helvetica,sans-Serif" font-size="11.00" fill="#000000">date_time</text>
<polygon fill="none" stroke="#000000" points="457.5,-140.7 457.5,-162.7 587.5,-162.7 587.5,-140.7 457.5,-140.7"/>
<image xlink:href="../../images/primaryKeys.png" width="11px" height="12px" preserveAspectRatio="xMinYMin meet" x="462.5" y="-157.7"/>
<text text-anchor="start" x="477.5" y="-147.8" font-family="Helvetica,sans-Serif" font-size="11.00" fill="#000000">depth</text>
<polygon fill="#ffffff" stroke="transparent" points="457.5,-118.7 457.5,-140.7 587.5,-140.7 587.5,-118.7 457.5,-118.7"/>
<polygon fill="none" stroke="#000000" points="457.5,-118.7 457.5,-140.7 587.5,-140.7 587.5,-118.7 457.5,-118.7"/>
<image xlink:href="../../images/foreignKeys.png" width="11px" height="12px" preserveAspectRatio="xMinYMin meet" x="462.5" y="-135.7"/>
<text text-anchor="start" x="477.5" y="-125.8" font-family="Helvetica,sans-Serif" font-size="11.00" fill="#000000">position_date_time</text>
<polygon fill="none" stroke="#000000" points="457.5,-99.7 457.5,-118.7 587.5,-118.7 587.5,-99.7 457.5,-99.7"/>
<text text-anchor="start" x="460.5" y="-105.8" font-family="Helvetica,sans-Serif" font-size="11.00" fill="#000000">...</text>
<polygon fill="#ffffff" stroke="transparent" points="457.5,-80.7 457.5,-99.7 507.5,-99.7 507.5,-80.7 457.5,-80.7"/>
<polygon fill="none" stroke="#000000" points="457.5,-80.7 457.5,-99.7 507.5,-99.7 507.5,-80.7 457.5,-80.7"/>
<text text-anchor="start" x="460.5" y="-86.8" font-family="Helvetica,sans-Serif" font-size="11.00" fill="#000000">&lt; 5</text>
<polygon fill="#ffffff" stroke="transparent" points="507.5,-80.7 507.5,-99.7 560.5,-99.7 560.5,-80.7 507.5,-80.7"/>
<polygon fill="none" stroke="#000000" points="507.5,-80.7 507.5,-99.7 560.5,-99.7 560.5,-80.7 507.5,-80.7"/>
<text text-anchor="start" x="525.1105" y="-86.8" font-family="Helvetica,sans-Serif" font-size="11.00" fill="#000000">0 rows</text>
<polygon fill="#ffffff" stroke="transparent" points="560.5,-80.7 560.5,-99.7 587.5,-99.7 587.5,-80.7 560.5,-80.7"/>
<polygon fill="none" stroke="#000000" points="560.5,-80.7 560.5,-99.7 587.5,-99.7 587.5,-80.7 560.5,-80.7"/>
<text text-anchor="start" x="578.3862" y="-86.8" font-family="Helvetica,sans-Serif" font-size="11.00" fill="#000000"> &#160;</text>
</a>
</g>
</g>
<!-- data_profile&#45;&gt;data_position -->
<g id="edge10" class="edge">
<title>data_profile:w&#45;&gt;data_position:e</title>
<path fill="none" stroke="#000000" d="M443.0634,-131.4266C364.4569,-152.5652 490.2078,-360.7 388.5,-360.7"/>
<polygon fill="#000000" stroke="#000000" points="449.5566,-130.65 457.9275,-133.2745 453.5283,-130.175 457.5,-129.7 457.5,-129.7 457.5,-129.7 453.5283,-130.175 457.0725,-126.1255 449.5566,-130.65 449.5566,-130.65"/>
<ellipse fill="none" stroke="#000000" cx="446.3792" cy="-131.0301" rx="3.2" ry="3.2"/>
</g>
<!-- data_profile&#45;&gt;data_position -->
<g id="edge11" class="edge">
<title>data_profile:w&#45;&gt;data_position:e</title>
<path fill="none" stroke="#000000" d="M443.1012,-240.6002C423.2765,-243.2273 414.0952,-250.7 388.5,-250.7"/>
<polygon fill="#000000" stroke="#000000" points="449.5156,-240.1992 457.7246,-243.293 453.5078,-239.9496 457.5,-239.7 457.5,-239.7 457.5,-239.7 453.5078,-239.9496 457.2754,-236.107 449.5156,-240.1992 449.5156,-240.1992"/>
<ellipse fill="none" stroke="#000000" cx="446.3218" cy="-240.3989" rx="3.2" ry="3.2"/>
</g>
<!-- data_profile&#45;&gt;data_position -->
<g id="edge13" class="edge">
<title>data_profile:w&#45;&gt;data_position:e</title>
<path fill="none" stroke="#000000" d="M443.1012,-218.6002C423.2765,-221.2273 414.0952,-228.7 388.5,-228.7"/>
<polygon fill="#000000" stroke="#000000" points="449.5156,-218.1992 457.7246,-221.293 453.5078,-217.9496 457.5,-217.7 457.5,-217.7 457.5,-217.7 453.5078,-217.9496 457.2754,-214.107 449.5156,-218.1992 449.5156,-218.1992"/>
<ellipse fill="none" stroke="#000000" cx="446.3218" cy="-218.3989" rx="3.2" ry="3.2"/>
</g>
<!-- data_profile&#45;&gt;submission -->
<g id="edge12" class="edge">
<title>data_profile:w&#45;&gt;submission:e</title>
<path fill="none" stroke="#000000" d="M443.1904,-237.0394C413.396,-223.6187 437.6198,-163.1129 398,-140.7 356.0282,-116.9565 218.8831,-110.8629 181,-140.7 110.9655,-195.86 223.1485,-335.7 134,-335.7"/>
<polygon fill="#000000" stroke="#000000" points="449.6348,-238.2376 456.8419,-243.2393 453.5674,-238.9688 457.5,-239.7 457.5,-239.7 457.5,-239.7 453.5674,-238.9688 458.1581,-236.1607 449.6348,-238.2376 449.6348,-238.2376"/>
<ellipse fill="none" stroke="#000000" cx="446.4887" cy="-237.6526" rx="3.2" ry="3.2"/>
</g>
<!-- data_profile&#45;&gt;observation_types -->
<g id="edge14" class="edge">
<title>data_profile:w&#45;&gt;observation_types:e</title>
<path fill="none" stroke="#000000" d="M442.8665,-193.19C426.2373,-186.7257 421.4302,-169.6009 398,-163.7 351.238,-151.9229 216.9413,-131.5503 181,-163.7 119.8363,-218.4112 222.0629,-530.7 140,-530.7"/>
<polygon fill="#000000" stroke="#000000" points="449.6151,-194.3475 456.8914,-199.2482 453.5576,-195.0238 457.5,-195.7 457.5,-195.7 457.5,-195.7 453.5576,-195.0238 458.1086,-192.1518 449.6151,-194.3475 449.6151,-194.3475"/>
<ellipse fill="none" stroke="#000000" cx="446.4612" cy="-193.8065" rx="3.2" ry="3.2"/>
</g>
<!-- data_time_series -->
<g id="node7" class="node">
<title>data_time_series</title>
<g id="a_node7"><a xlink:href="../../tables/data_time_series.html" xlink:title="data_time_series" target="_top">
<polygon fill="#ffffff" stroke="transparent" points="457.5,-295.2 457.5,-466.2 587.5,-466.2 587.5,-295.2 457.5,-295.2"/>
<polygon fill="#f5f5f5" stroke="transparent" points="457.5,-442.7 457.5,-465.7 587.5,-465.7 587.5,-442.7 457.5,-442.7"/>
<polygon fill="none" stroke="#000000" points="457.5,-442.7 457.5,-465.7 587.5,-465.7 587.5,-442.7 457.5,-442.7"/>
<text text-anchor="start" x="462.5" y="-451.8" font-family="Helvetica,sans-Serif" font-weight="bold" font-size="11.00" fill="#000000">data_time_series</text>
<text text-anchor="start" x="552.5437" y="-450.8" font-family="Helvetica,sans-Serif" font-size="11.00" fill="#000000">[table]</text>
<polygon fill="none" stroke="#000000" points="457.5,-420.7 457.5,-442.7 587.5,-442.7 587.5,-420.7 457.5,-420.7"/>
<image xlink:href="../../images/primaryKeys.png" width="11px" height="12px" preserveAspectRatio="xMinYMin meet" x="462.5" y="-437.7"/>
<text text-anchor="start" x="477.5" y="-427.8" font-family="Helvetica,sans-Serif" font-size="11.00" fill="#000000">date_time</text>
<polygon fill="none" stroke="#000000" points="457.5,-398.7 457.5,-420.7 587.5,-420.7 587.5,-398.7 457.5,-398.7"/>
<image xlink:href="../../images/primaryKeys.png" width="11px" height="12px" preserveAspectRatio="xMinYMin meet" x="462.5" y="-415.7"/>
<text text-anchor="start" x="477.5" y="-405.8" font-family="Helvetica,sans-Serif" font-size="11.00" fill="#000000">variable_id</text>
<polygon fill="none" stroke="#000000" points="457.5,-376.7 457.5,-398.7 587.5,-398.7 587.5,-376.7 457.5,-376.7"/>
<image xlink:href="../../images/primaryKeys.png" width="11px" height="12px" preserveAspectRatio="xMinYMin meet" x="462.5" y="-393.7"/>
<text text-anchor="start" x="477.5" y="-383.8" font-family="Helvetica,sans-Serif" font-size="11.00" fill="#000000">submission_id</text>
<polygon fill="none" stroke="#000000" points="457.5,-354.7 457.5,-376.7 587.5,-376.7 587.5,-354.7 457.5,-354.7"/>
<image xlink:href="../../images/primaryKeys.png" width="11px" height="12px" preserveAspectRatio="xMinYMin meet" x="462.5" y="-371.7"/>
<text text-anchor="start" x="477.5" y="-361.8" font-family="Helvetica,sans-Serif" font-size="11.00" fill="#000000">tag_id</text>
<polygon fill="#ffffff" stroke="transparent" points="457.5,-332.7 457.5,-354.7 587.5,-354.7 587.5,-332.7 457.5,-332.7"/>
<polygon fill="none" stroke="#000000" points="457.5,-332.7 457.5,-354.7 587.5,-354.7 587.5,-332.7 457.5,-332.7"/>
<image xlink:href="../../images/foreignKeys.png" width="11px" height="12px" preserveAspectRatio="xMinYMin meet" x="462.5" y="-349.7"/>
<text text-anchor="start" x="477.5" y="-339.8" font-family="Helvetica,sans-Serif" font-size="11.00" fill="#000000">position_date_time</text>
<polygon fill="none" stroke="#000000" points="457.5,-313.7 457.5,-332.7 587.5,-332.7 587.5,-313.7 457.5,-313.7"/>
<text text-anchor="start" x="460.5" y="-319.8" font-family="Helvetica,sans-Serif" font-size="11.00" fill="#000000">...</text>
<polygon fill="#ffffff" stroke="transparent" points="457.5,-294.7 457.5,-313.7 507.5,-313.7 507.5,-294.7 457.5,-294.7"/>
<polygon fill="none" stroke="#000000" points="457.5,-294.7 457.5,-313.7 507.5,-313.7 507.5,-294.7 457.5,-294.7"/>
<text text-anchor="start" x="460.5" y="-300.8" font-family="Helvetica,sans-Serif" font-size="11.00" fill="#000000">&lt; 5</text>
<polygon fill="#ffffff" stroke="transparent" points="507.5,-294.7 507.5,-313.7 560.5,-313.7 560.5,-294.7 507.5,-294.7"/>
<polygon fill="none" stroke="#000000" points="507.5,-294.7 507.5,-313.7 560.5,-313.7 560.5,-294.7 507.5,-294.7"/>
<text text-anchor="start" x="525.1105" y="-300.8" font-family="Helvetica,sans-Serif" font-size="11.00" fill="#000000">0 rows</text>
<polygon fill="#ffffff" stroke="transparent" points="560.5,-294.7 560.5,-313.7 587.5,-313.7 587.5,-294.7 560.5,-294.7"/>
<polygon fill="none" stroke="#000000" points="560.5,-294.7 560.5,-313.7 587.5,-313.7 587.5,-294.7 560.5,-294.7"/>
<text text-anchor="start" x="578.3862" y="-300.8" font-family="Helvetica,sans-Serif" font-size="11.00" fill="#000000"> &#160;</text>
</a>
</g>
</g>
<!-- data_time_series&#45;&gt;data_position -->
<g id="edge15" class="edge">
<title>data_time_series:w&#45;&gt;data_position:e</title>
<path fill="none" stroke="#000000" d="M442.9519,-345.0912C423.0701,-349.1513 414.5319,-360.7 388.5,-360.7"/>
<polygon fill="#000000" stroke="#000000" points="449.5363,-344.4616 457.8427,-347.2837 453.5182,-344.0808 457.5,-343.7 457.5,-343.7 457.5,-343.7 453.5182,-344.0808 457.1573,-340.1163 449.5363,-344.4616 449.5363,-344.4616"/>
<ellipse fill="none" stroke="#000000" cx="446.3509" cy="-344.7662" rx="3.2" ry="3.2"/>
</g>
<!-- data_time_series&#45;&gt;data_position -->
<g id="edge16" class="edge">
<title>data_time_series:w&#45;&gt;data_position:e</title>
<path fill="none" stroke="#000000" d="M443.3087,-385.0856C399.4623,-366.1453 451.083,-250.7 388.5,-250.7"/>
<polygon fill="#000000" stroke="#000000" points="449.6324,-386.2505 456.8477,-391.2404 453.5662,-386.9753 457.5,-387.7 457.5,-387.7 457.5,-387.7 453.5662,-386.9753 458.1523,-384.1596 449.6324,-386.2505 449.6324,-386.2505"/>
<ellipse fill="none" stroke="#000000" cx="446.4854" cy="-385.6707" rx="3.2" ry="3.2"/>
</g>
<!-- data_time_series&#45;&gt;data_position -->
<g id="edge18" class="edge">
<title>data_time_series:w&#45;&gt;data_position:e</title>
<path fill="none" stroke="#000000" d="M443.3087,-363.0856C399.4623,-344.1453 451.083,-228.7 388.5,-228.7"/>
<polygon fill="#000000" stroke="#000000" points="449.6324,-364.2505 456.8477,-369.2404 453.5662,-364.9753 457.5,-365.7 457.5,-365.7 457.5,-365.7 453.5662,-364.9753 458.1523,-362.1596 449.6324,-364.2505 449.6324,-364.2505"/>
<ellipse fill="none" stroke="#000000" cx="446.4854" cy="-363.6707" rx="3.2" ry="3.2"/>
</g>
<!-- data_time_series&#45;&gt;submission -->
<g id="edge17" class="edge">
<title>data_time_series:w&#45;&gt;submission:e</title>
<path fill="none" stroke="#000000" d="M443.0526,-389.3961C426.9804,-393.5419 419.94,-404.1113 398,-407.7 302.8204,-423.2686 265.8114,-453.619 181,-407.7 147.3949,-389.5054 172.2145,-335.7 134,-335.7"/>
<polygon fill="#000000" stroke="#000000" points="449.5546,-388.6329 457.9198,-391.2754 453.5273,-388.1664 457.5,-387.7 457.5,-387.7 457.5,-387.7 453.5273,-388.1664 457.0802,-384.1246 449.5546,-388.6329 449.5546,-388.6329"/>
<ellipse fill="none" stroke="#000000" cx="446.3764" cy="-389.006" rx="3.2" ry="3.2"/>
</g>
<!-- data_time_series&#45;&gt;observation_types -->
<g id="edge19" class="edge">
<title>data_time_series:w&#45;&gt;observation_types:e</title>
<path fill="none" stroke="#000000" d="M443.2547,-412.1585C410.7759,-425.6371 439.272,-490.896 398,-516.7 349.3147,-547.1389 197.4177,-530.7 140,-530.7"/>
<polygon fill="#000000" stroke="#000000" points="449.6165,-411.0606 458.1123,-413.2476 453.5583,-410.3803 457.5,-409.7 457.5,-409.7 457.5,-409.7 453.5583,-410.3803 456.8877,-406.1524 449.6165,-411.0606 449.6165,-411.0606"/>
<ellipse fill="none" stroke="#000000" cx="446.4632" cy="-411.6049" rx="3.2" ry="3.2"/>
</g>
<!-- metadata -->
<g id="node8" class="node">
<title>metadata</title>
<g id="a_node8"><a xlink:href="../../tables/metadata.html" xlink:title="metadata" target="_top">
<polygon fill="#ffffff" stroke="transparent" points="245.5,-38.2 245.5,-99.2 333.5,-99.2 333.5,-38.2 245.5,-38.2"/>
<polygon fill="#f5f5f5" stroke="transparent" points="245.5,-75.7 245.5,-98.7 333.5,-98.7 333.5,-75.7 245.5,-75.7"/>
<polygon fill="none" stroke="#000000" points="245.5,-75.7 245.5,-98.7 333.5,-98.7 333.5,-75.7 245.5,-75.7"/>
<text text-anchor="start" x="250.0749" y="-84.8" font-family="Helvetica,sans-Serif" font-weight="bold" font-size="11.00" fill="#000000">metadata</text>
<text text-anchor="start" x="299.0219" y="-83.8" font-family="Helvetica,sans-Serif" font-size="11.00" fill="#000000">[table]</text>
<polygon fill="none" stroke="#000000" points="245.5,-56.7 245.5,-75.7 333.5,-75.7 333.5,-56.7 245.5,-56.7"/>
<text text-anchor="start" x="248.5" y="-62.8" font-family="Helvetica,sans-Serif" font-size="11.00" fill="#000000">...</text>
<polygon fill="#ffffff" stroke="transparent" points="245.5,-37.7 245.5,-56.7 274.5,-56.7 274.5,-37.7 245.5,-37.7"/>
<polygon fill="none" stroke="#000000" points="245.5,-37.7 245.5,-56.7 274.5,-56.7 274.5,-37.7 245.5,-37.7"/>
<text text-anchor="start" x="248.5" y="-43.8" font-family="Helvetica,sans-Serif" font-size="11.00" fill="#000000">&lt; 2</text>
<polygon fill="#ffffff" stroke="transparent" points="274.5,-37.7 274.5,-56.7 316.5,-56.7 316.5,-37.7 274.5,-37.7"/>
<polygon fill="none" stroke="#000000" points="274.5,-37.7 274.5,-56.7 316.5,-56.7 316.5,-37.7 274.5,-37.7"/>
<text text-anchor="start" x="281.1105" y="-43.8" font-family="Helvetica,sans-Serif" font-size="11.00" fill="#000000">0 rows</text>
<polygon fill="#ffffff" stroke="transparent" points="316.5,-37.7 316.5,-56.7 333.5,-56.7 333.5,-37.7 316.5,-37.7"/>
<polygon fill="none" stroke="#000000" points="316.5,-37.7 316.5,-56.7 333.5,-56.7 333.5,-37.7 316.5,-37.7"/>
<text text-anchor="start" x="324.3862" y="-43.8" font-family="Helvetica,sans-Serif" font-size="11.00" fill="#000000"> &#160;</text>
</a>
</g>
</g>
<!-- metadata&#45;&gt;submission -->
<g id="edge20" class="edge">
<title>metadata:w&#45;&gt;submission:e</title>
<path fill="none" stroke="#000000" d="M230.8686,-66.9269C206.6482,-71.4403 197.341,-88.1962 181,-113.7 126.5907,-198.6181 234.8536,-335.7 134,-335.7"/>
<polygon fill="#000000" stroke="#000000" points="237.528,-66.3685 245.8008,-69.2874 241.514,-66.0343 245.5,-65.7 245.5,-65.7 245.5,-65.7 241.514,-66.0343 245.1992,-62.1126 237.528,-66.3685 237.528,-66.3685"/>
<ellipse fill="none" stroke="#000000" cx="234.3392" cy="-66.6359" rx="3.2" ry="3.2"/>
</g>
<!-- proc_observations -->
<g id="node9" class="node">
<title>proc_observations</title>
<g id="a_node9"><a xlink:href="../../tables/proc_observations.html" xlink:title="proc_observations" target="_top">
<polygon fill="#ffffff" stroke="transparent" points="223.5,-445.2 223.5,-506.2 355.5,-506.2 355.5,-445.2 223.5,-445.2"/>
<polygon fill="#f5f5f5" stroke="transparent" points="223.5,-482.7 223.5,-505.7 355.5,-505.7 355.5,-482.7 223.5,-482.7"/>
<polygon fill="none" stroke="#000000" points="223.5,-482.7 223.5,-505.7 355.5,-505.7 355.5,-482.7 223.5,-482.7"/>
<text text-anchor="start" x="228.0722" y="-491.8" font-family="Helvetica,sans-Serif" font-weight="bold" font-size="11.00" fill="#000000">proc_observations</text>
<text text-anchor="start" x="321.0219" y="-490.8" font-family="Helvetica,sans-Serif" font-size="11.00" fill="#000000">[table]</text>
<polygon fill="none" stroke="#000000" points="223.5,-463.7 223.5,-482.7 355.5,-482.7 355.5,-463.7 223.5,-463.7"/>
<text text-anchor="start" x="226.5" y="-469.8" font-family="Helvetica,sans-Serif" font-size="11.00" fill="#000000">...</text>
<polygon fill="#ffffff" stroke="transparent" points="223.5,-444.7 223.5,-463.7 274.5,-463.7 274.5,-444.7 223.5,-444.7"/>
<polygon fill="none" stroke="#000000" points="223.5,-444.7 223.5,-463.7 274.5,-463.7 274.5,-444.7 223.5,-444.7"/>
<text text-anchor="start" x="226.5" y="-450.8" font-family="Helvetica,sans-Serif" font-size="11.00" fill="#000000">&lt; 2</text>
<polygon fill="#ffffff" stroke="transparent" points="274.5,-444.7 274.5,-463.7 327.5,-463.7 327.5,-444.7 274.5,-444.7"/>
<polygon fill="none" stroke="#000000" points="274.5,-444.7 274.5,-463.7 327.5,-463.7 327.5,-444.7 274.5,-444.7"/>
<text text-anchor="start" x="292.1105" y="-450.8" font-family="Helvetica,sans-Serif" font-size="11.00" fill="#000000">0 rows</text>
<polygon fill="#ffffff" stroke="transparent" points="327.5,-444.7 327.5,-463.7 355.5,-463.7 355.5,-444.7 327.5,-444.7"/>
<polygon fill="none" stroke="#000000" points="327.5,-444.7 327.5,-463.7 355.5,-463.7 355.5,-444.7 327.5,-444.7"/>
<text text-anchor="start" x="346.3862" y="-450.8" font-family="Helvetica,sans-Serif" font-size="11.00" fill="#000000"> &#160;</text>
</a>
</g>
</g>
<!-- proc_observations&#45;&gt;submission -->
<g id="edge21" class="edge">
<title>proc_observations:w&#45;&gt;submission:e</title>
<path fill="none" stroke="#000000" d="M208.9979,-469.7736C195.9859,-463.3702 193.0239,-447.3524 181,-430.7 153.4237,-392.5083 181.1069,-335.7 134,-335.7"/>
<polygon fill="#000000" stroke="#000000" points="215.6581,-471.1175 222.7879,-476.2289 219.579,-471.9088 223.5,-472.7 223.5,-472.7 223.5,-472.7 219.579,-471.9088 224.2121,-469.1711 215.6581,-471.1175 215.6581,-471.1175"/>
<ellipse fill="none" stroke="#000000" cx="212.5213" cy="-470.4845" rx="3.2" ry="3.2"/>
</g>
<!-- proc_observations&#45;&gt;observation_types -->
<g id="edge22" class="edge">
<title>proc_observations:w&#45;&gt;observation_types:e</title>
<path fill="none" stroke="#000000" d="M209.1901,-475.0455C179.2152,-485.8964 179.7138,-530.7 140,-530.7"/>
<polygon fill="#000000" stroke="#000000" points="215.6053,-473.994 224.0823,-476.2526 219.5527,-473.347 223.5,-472.7 223.5,-472.7 223.5,-472.7 219.5527,-473.347 222.9177,-469.1474 215.6053,-473.994 215.6053,-473.994"/>
<ellipse fill="none" stroke="#000000" cx="212.4475" cy="-474.5117" rx="3.2" ry="3.2"/>
</g>
</g>
</svg>
