<?xml version="1.0" encoding="UTF-8" standalone="no"?>
<!DOCTYPE svg PUBLIC "-//W3C//DTD SVG 1.1//EN"
 "http://www.w3.org/Graphics/SVG/1.1/DTD/svg11.dtd">
<!-- Generated by graphviz version 2.40.1 (20161225.0304)
 -->
<!-- Title: twoDegreesRelationshipsDiagram Pages: 1 -->
<svg width="643pt" height="655pt"
 viewBox="0.00 0.00 643.00 655.45" xmlns="http://www.w3.org/2000/svg" xmlns:xlink="http://www.w3.org/1999/xlink">
<g id="graph0" class="graph" transform="scale(1 1) rotate(0) translate(4 651.4502)">
<title>twoDegreesRelationshipsDiagram</title>
<polygon fill="#ffffff" stroke="transparent" points="-4,4 -4,-651.4502 639,-651.4502 639,4 -4,4"/>
<text text-anchor="middle" x="72.4936" y="-7.3" font-family="Helvetica,sans-Serif" font-size="11.00" fill="#000000">Generated by SchemaSpy</text>
<!-- data_histogram_bin_data -->
<g id="node1" class="node">
<title>data_histogram_bin_data</title>
<g id="a_node1"><a xlink:href="../../tables/data_histogram_bin_data.html" xlink:title="data_histogram_bin_data" target="_top">
<polygon fill="#ffffff" stroke="transparent" points="430.5,-491.71 430.5,-552.71 597.5,-552.71 597.5,-491.71 430.5,-491.71"/>
<polygon fill="#f5f5f5" stroke="transparent" points="431,-529.21 431,-552.21 598,-552.21 598,-529.21 431,-529.21"/>
<polygon fill="none" stroke="#000000" points="431,-529.21 431,-552.21 598,-552.21 598,-529.21 431,-529.21"/>
<text text-anchor="start" x="435.9501" y="-538.31" font-family="Helvetica,sans-Serif" font-weight="bold" font-size="11.00" fill="#000000">data_histogram_bin_data</text>
<text text-anchor="start" x="563.5219" y="-537.31" font-family="Helvetica,sans-Serif" font-size="11.00" fill="#000000">[table]</text>
<polygon fill="none" stroke="#000000" points="431,-510.21 431,-529.21 598,-529.21 598,-510.21 431,-510.21"/>
<text text-anchor="start" x="434" y="-516.31" font-family="Helvetica,sans-Serif" font-size="11.00" fill="#000000">...</text>
<polygon fill="#ffffff" stroke="transparent" points="431,-491.21 431,-510.21 500,-510.21 500,-491.21 431,-491.21"/>
<polygon fill="none" stroke="#000000" points="431,-491.21 431,-510.21 500,-510.21 500,-491.21 431,-491.21"/>
<text text-anchor="start" x="434" y="-497.31" font-family="Helvetica,sans-Serif" font-size="11.00" fill="#000000">&lt; 7</text>
<polygon fill="#ffffff" stroke="transparent" points="500,-491.21 500,-510.21 562,-510.21 562,-491.21 500,-491.21"/>
<polygon fill="none" stroke="#000000" points="500,-491.21 500,-510.21 562,-510.21 562,-491.21 500,-491.21"/>
<text text-anchor="start" x="526.6105" y="-497.31" font-family="Helvetica,sans-Serif" font-size="11.00" fill="#000000">0 rows</text>
<polygon fill="#ffffff" stroke="transparent" points="562,-491.21 562,-510.21 598,-510.21 598,-491.21 562,-491.21"/>
<polygon fill="none" stroke="#000000" points="562,-491.21 562,-510.21 598,-510.21 598,-491.21 562,-491.21"/>
<text text-anchor="start" x="588.8862" y="-497.31" font-family="Helvetica,sans-Serif" font-size="11.00" fill="#000000"> &#160;</text>
</a>
</g>
</g>
<!-- data_histogram_bin_info -->
<g id="node2" class="node">
<title>data_histogram_bin_info</title>
<g id="a_node2"><a xlink:href="../../tables/data_histogram_bin_info.html" xlink:title="data_histogram_bin_info" target="_top">
<polygon fill="#ffffff" stroke="transparent" points="189,-545.71 189,-606.71 352,-606.71 352,-545.71 189,-545.71"/>
<polygon fill="#f5f5f5" stroke="transparent" points="189.5,-583.21 189.5,-606.21 352.5,-606.21 352.5,-583.21 189.5,-583.21"/>
<polygon fill="none" stroke="#000000" points="189.5,-583.21 189.5,-606.21 352.5,-606.21 352.5,-583.21 189.5,-583.21"/>
<text text-anchor="start" x="194.2871" y="-592.31" font-family="Helvetica,sans-Serif" font-weight="bold" font-size="11.00" fill="#000000">data_histogram_bin_info</text>
<text text-anchor="start" x="318.0219" y="-591.31" font-family="Helvetica,sans-Serif" font-size="11.00" fill="#000000">[table]</text>
<polygon fill="none" stroke="#000000" points="189.5,-564.21 189.5,-583.21 352.5,-583.21 352.5,-564.21 189.5,-564.21"/>
<text text-anchor="start" x="192.5" y="-570.31" font-family="Helvetica,sans-Serif" font-size="11.00" fill="#000000">...</text>
<polygon fill="#ffffff" stroke="transparent" points="189.5,-545.21 189.5,-564.21 251.5,-564.21 251.5,-545.21 189.5,-545.21"/>
<polygon fill="none" stroke="#000000" points="189.5,-545.21 189.5,-564.21 251.5,-564.21 251.5,-545.21 189.5,-545.21"/>
<text text-anchor="start" x="192.5" y="-551.31" font-family="Helvetica,sans-Serif" font-size="11.00" fill="#000000">&lt; 1</text>
<polygon fill="#ffffff" stroke="transparent" points="251.5,-545.21 251.5,-564.21 310.5,-564.21 310.5,-545.21 251.5,-545.21"/>
<polygon fill="none" stroke="#000000" points="251.5,-545.21 251.5,-564.21 310.5,-564.21 310.5,-545.21 251.5,-545.21"/>
<text text-anchor="start" x="275.1105" y="-551.31" font-family="Helvetica,sans-Serif" font-size="11.00" fill="#000000">0 rows</text>
<polygon fill="#ffffff" stroke="transparent" points="310.5,-545.21 310.5,-564.21 352.5,-564.21 352.5,-545.21 310.5,-545.21"/>
<polygon fill="none" stroke="#000000" points="310.5,-545.21 310.5,-564.21 352.5,-564.21 352.5,-545.21 310.5,-545.21"/>
<text text-anchor="start" x="333.9053" y="-551.31" font-family="Helvetica,sans-Serif" font-size="11.00" fill="#000000">2 &gt;</text>
</a>
</g>
</g>
<!-- data_histogram_bin_data&#45;&gt;data_histogram_bin_info -->
<g id="edge1" class="edge">
<title>data_histogram_bin_data:w&#45;&gt;data_histogram_bin_info:e</title>
<path fill="none" stroke="#000000" d="M416.4687,-519.7414C389.4423,-526.707 389.2224,-568.0068 352.5,-573.21"/>
<polygon fill="#000000" stroke="#000000" points="423.0053,-519.5024 431.1316,-522.8076 427.0027,-519.3562 431,-519.21 431,-519.21 431,-519.21 427.0027,-519.3562 430.8684,-515.6124 423.0053,-519.5024 423.0053,-519.5024"/>
<ellipse fill="none" stroke="#000000" cx="419.8075" cy="-519.6193" rx="3.2" ry="3.2"/>
</g>
<!-- data_histogram_bin_data&#45;&gt;data_histogram_bin_info -->
<g id="edge2" class="edge">
<title>data_histogram_bin_data:w&#45;&gt;data_histogram_bin_info:e</title>
<path fill="none" stroke="#000000" d="M417.2057,-523.8271C389.4433,-538.7568 389.5533,-579.335 352.5,-573.21"/>
<polygon fill="#000000" stroke="#000000" points="423.4137,-521.7493 432.1427,-522.6238 427.2068,-520.4796 431,-519.21 431,-519.21 431,-519.21 427.2068,-520.4796 429.8573,-515.7961 423.4137,-521.7493 423.4137,-521.7493"/>
<ellipse fill="none" stroke="#000000" cx="420.3792" cy="-522.765" rx="3.2" ry="3.2"/>
</g>
<!-- data_position -->
<g id="node3" class="node">
<title>data_position</title>
<g id="a_node3"><a xlink:href="../../tables/data_position.html" xlink:title="data_position" target="_top">
<polygon fill="#ffffff" stroke="transparent" points="216.5,-188.71 216.5,-359.71 324.5,-359.71 324.5,-188.71 216.5,-188.71"/>
<polygon fill="#f5f5f5" stroke="transparent" points="216.5,-336.21 216.5,-359.21 324.5,-359.21 324.5,-336.21 216.5,-336.21"/>
<polygon fill="none" stroke="#000000" points="216.5,-336.21 216.5,-359.21 324.5,-359.21 324.5,-336.21 216.5,-336.21"/>
<text text-anchor="start" x="221.2926" y="-345.31" font-family="Helvetica,sans-Serif" font-weight="bold" font-size="11.00" fill="#000000">data_position</text>
<text text-anchor="start" x="290.0219" y="-344.31" font-family="Helvetica,sans-Serif" font-size="11.00" fill="#000000">[table]</text>
<polygon fill="none" stroke="#000000" points="216.5,-314.21 216.5,-336.21 324.5,-336.21 324.5,-314.21 216.5,-314.21"/>
<image xlink:href="../../images/primaryKeys.png" width="11px" height="12px" preserveAspectRatio="xMinYMin meet" x="221.5" y="-331.21"/>
<text text-anchor="start" x="238.5" y="-321.31" font-family="Helvetica,sans-Serif" font-size="11.00" fill="#000000">date_time</text>
<polygon fill="#ffffff" stroke="transparent" points="216.5,-292.21 216.5,-314.21 324.5,-314.21 324.5,-292.21 216.5,-292.21"/>
<polygon fill="none" stroke="#000000" points="216.5,-292.21 216.5,-314.21 324.5,-314.21 324.5,-292.21 216.5,-292.21"/>
<text text-anchor="start" x="238.5" y="-299.31" font-family="Helvetica,sans-Serif" font-size="11.00" fill="#000000">lat</text>
<polygon fill="#ffffff" stroke="transparent" points="216.5,-270.21 216.5,-292.21 324.5,-292.21 324.5,-270.21 216.5,-270.21"/>
<polygon fill="none" stroke="#000000" points="216.5,-270.21 216.5,-292.21 324.5,-292.21 324.5,-270.21 216.5,-270.21"/>
<text text-anchor="start" x="238.5" y="-277.31" font-family="Helvetica,sans-Serif" font-size="11.00" fill="#000000">lon</text>
<polygon fill="none" stroke="#000000" points="216.5,-248.21 216.5,-270.21 324.5,-270.21 324.5,-248.21 216.5,-248.21"/>
<image xlink:href="../../images/primaryKeys.png" width="11px" height="12px" preserveAspectRatio="xMinYMin meet" x="221.5" y="-265.21"/>
<text text-anchor="start" x="238.5" y="-255.31" font-family="Helvetica,sans-Serif" font-size="11.00" fill="#000000">submission_id</text>
<polygon fill="none" stroke="#000000" points="216.5,-226.21 216.5,-248.21 324.5,-248.21 324.5,-226.21 216.5,-226.21"/>
<image xlink:href="../../images/primaryKeys.png" width="11px" height="12px" preserveAspectRatio="xMinYMin meet" x="221.5" y="-243.21"/>
<text text-anchor="start" x="238.5" y="-233.31" font-family="Helvetica,sans-Serif" font-size="11.00" fill="#000000">tag_id</text>
<polygon fill="none" stroke="#000000" points="216.5,-207.21 216.5,-226.21 324.5,-226.21 324.5,-207.21 216.5,-207.21"/>
<text text-anchor="start" x="219.5" y="-213.31" font-family="Helvetica,sans-Serif" font-size="11.00" fill="#000000">...</text>
<polygon fill="#ffffff" stroke="transparent" points="216.5,-188.21 216.5,-207.21 251.5,-207.21 251.5,-188.21 216.5,-188.21"/>
<polygon fill="none" stroke="#000000" points="216.5,-188.21 216.5,-207.21 251.5,-207.21 251.5,-188.21 216.5,-188.21"/>
<text text-anchor="start" x="219.5" y="-194.31" font-family="Helvetica,sans-Serif" font-size="11.00" fill="#000000">&lt; 1</text>
<polygon fill="#ffffff" stroke="transparent" points="251.5,-188.21 251.5,-207.21 296.5,-207.21 296.5,-188.21 251.5,-188.21"/>
<polygon fill="none" stroke="#000000" points="251.5,-188.21 251.5,-207.21 296.5,-207.21 296.5,-188.21 251.5,-188.21"/>
<text text-anchor="start" x="261.1105" y="-194.31" font-family="Helvetica,sans-Serif" font-size="11.00" fill="#000000">0 rows</text>
<polygon fill="#ffffff" stroke="transparent" points="296.5,-188.21 296.5,-207.21 324.5,-207.21 324.5,-188.21 296.5,-188.21"/>
<polygon fill="none" stroke="#000000" points="296.5,-188.21 296.5,-207.21 324.5,-207.21 324.5,-188.21 296.5,-188.21"/>
<text text-anchor="start" x="305.9053" y="-194.31" font-family="Helvetica,sans-Serif" font-size="11.00" fill="#000000">9 &gt;</text>
</a>
</g>
</g>
<!-- data_histogram_bin_data&#45;&gt;data_position -->
<g id="edge3" class="edge">
<title>data_histogram_bin_data:w&#45;&gt;data_position:e</title>
<path fill="none" stroke="#000000" d="M416.4931,-517.5328C341.9437,-498.5714 417.4811,-325.21 324.5,-325.21"/>
<polygon fill="#000000" stroke="#000000" points="423.0529,-518.2911 430.5865,-522.7861 427.0265,-518.7506 431,-519.21 431,-519.21 431,-519.21 427.0265,-518.7506 431.4135,-515.6338 423.0529,-518.2911 423.0529,-518.2911"/>
<ellipse fill="none" stroke="#000000" cx="419.8741" cy="-517.9236" rx="3.2" ry="3.2"/>
</g>
<!-- data_histogram_bin_data&#45;&gt;data_position -->
<g id="edge4" class="edge">
<title>data_histogram_bin_data:w&#45;&gt;data_position:e</title>
<path fill="none" stroke="#000000" d="M416.6475,-517.8731C317.6838,-497.8325 444.1303,-259.21 324.5,-259.21"/>
<polygon fill="#000000" stroke="#000000" points="423.0345,-518.4679 430.6661,-522.7944 427.0172,-518.8389 431,-519.21 431,-519.21 431,-519.21 427.0172,-518.8389 431.3339,-515.6255 423.0345,-518.4679 423.0345,-518.4679"/>
<ellipse fill="none" stroke="#000000" cx="419.8483" cy="-518.1711" rx="3.2" ry="3.2"/>
</g>
<!-- data_histogram_bin_data&#45;&gt;data_position -->
<g id="edge6" class="edge">
<title>data_histogram_bin_data:w&#45;&gt;data_position:e</title>
<path fill="none" stroke="#000000" d="M416.6171,-517.9527C309.1888,-497.609 453.2401,-237.21 324.5,-237.21"/>
<polygon fill="#000000" stroke="#000000" points="423.0304,-518.5132 430.6865,-522.7963 427.0152,-518.8616 431,-519.21 431,-519.21 431,-519.21 427.0152,-518.8616 431.3135,-515.6236 423.0304,-518.5132 423.0304,-518.5132"/>
<ellipse fill="none" stroke="#000000" cx="419.8425" cy="-518.2346" rx="3.2" ry="3.2"/>
</g>
<!-- submission -->
<g id="node4" class="node">
<title>submission</title>
<g id="a_node4"><a xlink:href="../../tables/submission.html" xlink:title="submission" target="_top">
<polygon fill="#ffffff" stroke="transparent" points="14.5,-273.71 14.5,-356.71 133.5,-356.71 133.5,-273.71 14.5,-273.71"/>
<polygon fill="#f5f5f5" stroke="transparent" points="15,-333.21 15,-356.21 134,-356.21 134,-333.21 15,-333.21"/>
<polygon fill="none" stroke="#000000" points="15,-333.21 15,-356.21 134,-356.21 134,-333.21 15,-333.21"/>
<text text-anchor="start" x="20" y="-342.31" font-family="Helvetica,sans-Serif" font-weight="bold" font-size="11.00" fill="#000000">submission</text>
<text text-anchor="start" x="99.0437" y="-341.31" font-family="Helvetica,sans-Serif" font-size="11.00" fill="#000000">[table]</text>
<polygon fill="none" stroke="#000000" points="15,-311.21 15,-333.21 134,-333.21 134,-311.21 15,-311.21"/>
<image xlink:href="../../images/primaryKeys.png" width="11px" height="12px" preserveAspectRatio="xMinYMin meet" x="20" y="-328.21"/>
<text text-anchor="start" x="35" y="-318.31" font-family="Helvetica,sans-Serif" font-size="11.00" fill="#000000">submission_id</text>
<polygon fill="none" stroke="#000000" points="15,-292.21 15,-311.21 134,-311.21 134,-292.21 15,-292.21"/>
<text text-anchor="start" x="18" y="-298.31" font-family="Helvetica,sans-Serif" font-size="11.00" fill="#000000">...</text>
<polygon fill="#ffffff" stroke="transparent" points="15,-273.21 15,-292.21 51,-292.21 51,-273.21 15,-273.21"/>
<polygon fill="none" stroke="#000000" points="15,-273.21 15,-292.21 51,-292.21 51,-273.21 15,-273.21"/>
<text text-anchor="start" x="18" y="-279.31" font-family="Helvetica,sans-Serif" font-size="11.00" fill="#000000"> &#160;</text>
<polygon fill="#ffffff" stroke="transparent" points="51,-273.21 51,-292.21 101,-292.21 101,-273.21 51,-273.21"/>
<polygon fill="none" stroke="#000000" points="51,-273.21 51,-292.21 101,-292.21 101,-273.21 51,-273.21"/>
<text text-anchor="start" x="65.6105" y="-279.31" font-family="Helvetica,sans-Serif" font-size="11.00" fill="#000000">0 rows</text>
<polygon fill="#ffffff" stroke="transparent" points="101,-273.21 101,-292.21 134,-292.21 134,-273.21 101,-273.21"/>
<polygon fill="none" stroke="#000000" points="101,-273.21 101,-292.21 134,-292.21 134,-273.21 101,-273.21"/>
<text text-anchor="start" x="115.4053" y="-279.31" font-family="Helvetica,sans-Serif" font-size="11.00" fill="#000000">6 &gt;</text>
</a>
</g>
</g>
<!-- data_histogram_bin_data&#45;&gt;submission -->
<g id="edge5" class="edge">
<title>data_histogram_bin_data:w&#45;&gt;submission:e</title>
<path fill="none" stroke="#000000" d="M416.3719,-517.0562C383.0842,-505.7075 397.9219,-452.3436 360,-425.21 293.9329,-377.938 249.045,-432.5877 181,-388.21 150.8369,-368.5382 170.011,-322.21 134,-322.21"/>
<polygon fill="#000000" stroke="#000000" points="423.0853,-518.0446 430.4756,-522.7716 427.0427,-518.6273 431,-519.21 431,-519.21 431,-519.21 427.0427,-518.6273 431.5244,-515.6484 423.0853,-518.0446 423.0853,-518.0446"/>
<ellipse fill="none" stroke="#000000" cx="419.9195" cy="-517.5785" rx="3.2" ry="3.2"/>
</g>
<!-- observation_types -->
<g id="node5" class="node">
<title>observation_types</title>
<g id="a_node5"><a xlink:href="../../tables/observation_types.html" xlink:title="observation_types" target="_top">
<polygon fill="#ffffff" stroke="transparent" points="8,-450.71 8,-555.71 140,-555.71 140,-450.71 8,-450.71"/>
<polygon fill="#f5f5f5" stroke="transparent" points="8,-532.21 8,-555.21 140,-555.21 140,-532.21 8,-532.21"/>
<polygon fill="none" stroke="#000000" points="8,-532.21 8,-555.21 140,-555.21 140,-532.21 8,-532.21"/>
<text text-anchor="start" x="12.8746" y="-541.31" font-family="Helvetica,sans-Serif" font-weight="bold" font-size="11.00" fill="#000000">observation_types</text>
<text text-anchor="start" x="105.5219" y="-540.31" font-family="Helvetica,sans-Serif" font-size="11.00" fill="#000000">[table]</text>
<polygon fill="none" stroke="#000000" points="8,-510.21 8,-532.21 140,-532.21 140,-510.21 8,-510.21"/>
<image xlink:href="../../images/primaryKeys.png" width="11px" height="12px" preserveAspectRatio="xMinYMin meet" x="13" y="-527.21"/>
<text text-anchor="start" x="31" y="-517.31" font-family="Helvetica,sans-Serif" font-size="11.00" fill="#000000">variable_id</text>
<polygon fill="#ffffff" stroke="transparent" points="8,-488.21 8,-510.21 140,-510.21 140,-488.21 8,-488.21"/>
<polygon fill="none" stroke="#000000" points="8,-488.21 8,-510.21 140,-510.21 140,-488.21 8,-488.21"/>
<text text-anchor="start" x="31" y="-495.31" font-family="Helvetica,sans-Serif" font-size="11.00" fill="#000000">variable_name</text>
<polygon fill="none" stroke="#000000" points="8,-469.21 8,-488.21 140,-488.21 140,-469.21 8,-469.21"/>
<text text-anchor="start" x="11" y="-475.31" font-family="Helvetica,sans-Serif" font-size="11.00" fill="#000000">...</text>
<polygon fill="#ffffff" stroke="transparent" points="8,-450.21 8,-469.21 44,-469.21 44,-450.21 8,-450.21"/>
<polygon fill="none" stroke="#000000" points="8,-450.21 8,-469.21 44,-469.21 44,-450.21 8,-450.21"/>
<text text-anchor="start" x="11" y="-456.31" font-family="Helvetica,sans-Serif" font-size="11.00" fill="#000000"> &#160;</text>
<polygon fill="#ffffff" stroke="transparent" points="44,-450.21 44,-469.21 106,-469.21 106,-450.21 44,-450.21"/>
<polygon fill="none" stroke="#000000" points="44,-450.21 44,-469.21 106,-469.21 106,-450.21 44,-450.21"/>
<text text-anchor="start" x="58.3807" y="-456.31" font-family="Helvetica,sans-Serif" font-size="11.00" fill="#000000">204 rows</text>
<polygon fill="#ffffff" stroke="transparent" points="106,-450.21 106,-469.21 140,-469.21 140,-450.21 106,-450.21"/>
<polygon fill="none" stroke="#000000" points="106,-450.21 106,-469.21 140,-469.21 140,-450.21 106,-450.21"/>
<text text-anchor="start" x="121.4053" y="-456.31" font-family="Helvetica,sans-Serif" font-size="11.00" fill="#000000">5 &gt;</text>
</a>
</g>
</g>
<!-- data_histogram_bin_data&#45;&gt;observation_types -->
<g id="edge7" class="edge">
<title>data_histogram_bin_data:w&#45;&gt;observation_types:e</title>
<path fill="none" stroke="#000000" d="M416.6098,-521.5205C382.8146,-534.1782 402.8538,-595.3385 360,-617.21 289.1398,-653.3751 247.3887,-661.0463 181,-617.21 142.2836,-591.6456 186.395,-521.21 140,-521.21"/>
<polygon fill="#000000" stroke="#000000" points="423.1012,-520.4783 431.5707,-522.7644 427.0506,-519.8441 431,-519.21 431,-519.21 431,-519.21 427.0506,-519.8441 430.4293,-515.6555 423.1012,-520.4783 423.1012,-520.4783"/>
<ellipse fill="none" stroke="#000000" cx="419.9416" cy="-520.9856" rx="3.2" ry="3.2"/>
</g>
<!-- data_histogram_bin_info&#45;&gt;observation_types -->
<g id="edge8" class="edge">
<title>data_histogram_bin_info:w&#45;&gt;observation_types:e</title>
<path fill="none" stroke="#000000" d="M175.8175,-568.4111C161.3354,-555.5381 165.9253,-521.21 140,-521.21"/>
<polygon fill="#000000" stroke="#000000" points="181.9508,-570.5622 188.3085,-576.6071 185.7254,-571.8861 189.5,-573.21 189.5,-573.21 189.5,-573.21 185.7254,-571.8861 190.6915,-569.8128 181.9508,-570.5622 181.9508,-570.5622"/>
<ellipse fill="none" stroke="#000000" cx="178.9312" cy="-569.5031" rx="3.2" ry="3.2"/>
</g>
<!-- data_position&#45;&gt;submission -->
<g id="edge9" class="edge">
<title>data_position:w&#45;&gt;submission:e</title>
<path fill="none" stroke="#000000" d="M202.0008,-261.7577C171.9114,-273.544 174.5484,-322.21 134,-322.21"/>
<polygon fill="#000000" stroke="#000000" points="208.6207,-260.5945 217.123,-262.7556 212.5604,-259.9022 216.5,-259.21 216.5,-259.21 216.5,-259.21 212.5604,-259.9022 215.877,-255.6643 208.6207,-260.5945 208.6207,-260.5945"/>
<ellipse fill="none" stroke="#000000" cx="205.469" cy="-261.1483" rx="3.2" ry="3.2"/>
</g>
<!-- data_profile -->
<g id="node6" class="node">
<title>data_profile</title>
<g id="a_node6"><a xlink:href="../../tables/data_profile.html" xlink:title="data_profile" target="_top">
<polygon fill="#ffffff" stroke="transparent" points="464,-209.71 464,-270.71 564,-270.71 564,-209.71 464,-209.71"/>
<polygon fill="#f5f5f5" stroke="transparent" points="464,-247.21 464,-270.21 564,-270.21 564,-247.21 464,-247.21"/>
<polygon fill="none" stroke="#000000" points="464,-247.21 464,-270.21 564,-270.21 564,-247.21 464,-247.21"/>
<text text-anchor="start" x="468.7691" y="-256.31" font-family="Helvetica,sans-Serif" font-weight="bold" font-size="11.00" fill="#000000">data_profile</text>
<text text-anchor="start" x="529.5219" y="-255.31" font-family="Helvetica,sans-Serif" font-size="11.00" fill="#000000">[table]</text>
<polygon fill="none" stroke="#000000" points="464,-228.21 464,-247.21 564,-247.21 564,-228.21 464,-228.21"/>
<text text-anchor="start" x="467" y="-234.31" font-family="Helvetica,sans-Serif" font-size="11.00" fill="#000000">...</text>
<polygon fill="#ffffff" stroke="transparent" points="464,-209.21 464,-228.21 499,-228.21 499,-209.21 464,-209.21"/>
<polygon fill="none" stroke="#000000" points="464,-209.21 464,-228.21 499,-228.21 499,-209.21 464,-209.21"/>
<text text-anchor="start" x="467" y="-215.31" font-family="Helvetica,sans-Serif" font-size="11.00" fill="#000000">&lt; 5</text>
<polygon fill="#ffffff" stroke="transparent" points="499,-209.21 499,-228.21 544,-228.21 544,-209.21 499,-209.21"/>
<polygon fill="none" stroke="#000000" points="499,-209.21 499,-228.21 544,-228.21 544,-209.21 499,-209.21"/>
<text text-anchor="start" x="508.6105" y="-215.31" font-family="Helvetica,sans-Serif" font-size="11.00" fill="#000000">0 rows</text>
<polygon fill="#ffffff" stroke="transparent" points="544,-209.21 544,-228.21 564,-228.21 564,-209.21 544,-209.21"/>
<polygon fill="none" stroke="#000000" points="544,-209.21 544,-228.21 564,-228.21 564,-209.21 544,-209.21"/>
<text text-anchor="start" x="554.8862" y="-215.31" font-family="Helvetica,sans-Serif" font-size="11.00" fill="#000000"> &#160;</text>
</a>
</g>
</g>
<!-- data_profile&#45;&gt;data_position -->
<g id="edge10" class="edge">
<title>data_profile:w&#45;&gt;data_position:e</title>
<path fill="none" stroke="#000000" d="M449.5504,-238.7155C425.5029,-244.2948 419.736,-264.3404 393,-281.21 362.3984,-300.5186 360.684,-325.21 324.5,-325.21"/>
<polygon fill="#000000" stroke="#000000" points="456.0431,-238.0391 464.3731,-240.7906 460.0215,-237.6245 464,-237.21 464,-237.21 464,-237.21 460.0215,-237.6245 463.6269,-233.6293 456.0431,-238.0391 456.0431,-238.0391"/>
<ellipse fill="none" stroke="#000000" cx="452.8603" cy="-238.3707" rx="3.2" ry="3.2"/>
</g>
<!-- data_profile&#45;&gt;data_position -->
<g id="edge11" class="edge">
<title>data_profile:w&#45;&gt;data_position:e</title>
<path fill="none" stroke="#000000" d="M449.4849,-237.6298C398.6138,-240.6713 382.1175,-259.21 324.5,-259.21"/>
<polygon fill="#000000" stroke="#000000" points="456.0033,-237.4413 464.1041,-240.8085 460.0017,-237.3256 464,-237.21 464,-237.21 464,-237.21 460.0017,-237.3256 463.8959,-233.6115 456.0033,-237.4413 456.0033,-237.4413"/>
<ellipse fill="none" stroke="#000000" cx="452.8047" cy="-237.5338" rx="3.2" ry="3.2"/>
</g>
<!-- data_profile&#45;&gt;data_position -->
<g id="edge13" class="edge">
<title>data_profile:w&#45;&gt;data_position:e</title>
<path fill="none" stroke="#000000" d="M449.3078,-237.21C399.0685,-237.21 381.293,-237.21 324.5,-237.21"/>
<polygon fill="#000000" stroke="#000000" points="456,-237.21 464,-240.81 460,-237.21 464,-237.21 464,-237.21 464,-237.21 460,-237.21 464,-233.61 456,-237.21 456,-237.21"/>
<ellipse fill="none" stroke="#000000" cx="452.8" cy="-237.21" rx="3.2" ry="3.2"/>
</g>
<!-- data_profile&#45;&gt;submission -->
<g id="edge12" class="edge">
<title>data_profile:w&#45;&gt;submission:e</title>
<path fill="none" stroke="#000000" d="M449.5594,-235.8708C382.7084,-222.2588 432.3278,-108.6264 360,-68.21 290.5517,-29.4026 242.1583,-17.3302 181,-68.21 92.7436,-141.6337 248.8053,-322.21 134,-322.21"/>
<polygon fill="#000000" stroke="#000000" points="456.0342,-236.4712 463.6676,-240.7946 460.0171,-236.8406 464,-237.21 464,-237.21 464,-237.21 460.0171,-236.8406 464.3324,-233.6253 456.0342,-236.4712 456.0342,-236.4712"/>
<ellipse fill="none" stroke="#000000" cx="452.8478" cy="-236.1757" rx="3.2" ry="3.2"/>
</g>
<!-- data_profile&#45;&gt;observation_types -->
<g id="edge14" class="edge">
<title>data_profile:w&#45;&gt;observation_types:e</title>
<path fill="none" stroke="#000000" d="M449.6127,-235.9338C410.4474,-228.4738 406.2649,-190.4192 360,-178.21 321.539,-168.0601 210.7495,-151.8047 181,-178.21 123.5881,-229.1679 216.7648,-521.21 140,-521.21"/>
<polygon fill="#000000" stroke="#000000" points="456.0313,-236.5031 463.6819,-240.7959 460.0156,-236.8565 464,-237.21 464,-237.21 464,-237.21 460.0156,-236.8565 464.3181,-233.624 456.0313,-236.5031 456.0313,-236.5031"/>
<ellipse fill="none" stroke="#000000" cx="452.8438" cy="-236.2203" rx="3.2" ry="3.2"/>
</g>
<!-- data_time_series -->
<g id="node7" class="node">
<title>data_time_series</title>
<g id="a_node7"><a xlink:href="../../tables/data_time_series.html" xlink:title="data_time_series" target="_top">
<polygon fill="#ffffff" stroke="transparent" points="401,-292.21 401,-470.21 627,-470.21 627,-292.21 401,-292.21"/>
<polygon fill="#f5f5f5" stroke="transparent" points="403,-445.21 403,-468.21 625,-468.21 625,-445.21 403,-445.21"/>
<polygon fill="none" stroke="#000000" points="403,-445.21 403,-468.21 625,-468.21 625,-445.21 403,-445.21"/>
<text text-anchor="start" x="408" y="-454.31" font-family="Helvetica,sans-Serif" font-weight="bold" font-size="11.00" fill="#000000">data_time_series</text>
<text text-anchor="start" x="590.0437" y="-453.31" font-family="Helvetica,sans-Serif" font-size="11.00" fill="#000000">[table]</text>
<polygon fill="none" stroke="#000000" points="403,-423.21 403,-445.21 533,-445.21 533,-423.21 403,-423.21"/>
<image xlink:href="../../images/primaryKeys.png" width="11px" height="12px" preserveAspectRatio="xMinYMin meet" x="408" y="-440.21"/>
<text text-anchor="start" x="423" y="-430.31" font-family="Helvetica,sans-Serif" font-size="11.00" fill="#000000">date_time</text>
<polygon fill="none" stroke="#000000" points="533,-423.21 533,-445.21 625,-445.21 625,-423.21 533,-423.21"/>
<text text-anchor="start" x="535.6023" y="-430.91" font-family="Helvetica,sans-Serif" font-size="11.00" fill="#000000">timestamptz[35,6]</text>
<polygon fill="none" stroke="#000000" points="403,-401.21 403,-423.21 533,-423.21 533,-401.21 403,-401.21"/>
<image xlink:href="../../images/primaryKeys.png" width="11px" height="12px" preserveAspectRatio="xMinYMin meet" x="408" y="-418.21"/>
<text text-anchor="start" x="423" y="-408.31" font-family="Helvetica,sans-Serif" font-size="11.00" fill="#000000">variable_id</text>
<polygon fill="none" stroke="#000000" points="533,-401.21 533,-423.21 625,-423.21 625,-401.21 533,-401.21"/>
<text text-anchor="start" x="536" y="-408.91" font-family="Helvetica,sans-Serif" font-size="11.00" fill="#000000">int8[19]</text>
<polygon fill="none" stroke="#000000" points="403,-379.21 403,-401.21 533,-401.21 533,-379.21 403,-379.21"/>
<text text-anchor="start" x="423" y="-386.31" font-family="Helvetica,sans-Serif" font-size="11.00" fill="#000000">variable_value</text>
<polygon fill="none" stroke="#000000" points="533,-379.21 533,-401.21 625,-401.21 625,-379.21 533,-379.21"/>
<text text-anchor="start" x="536" y="-386.91" font-family="Helvetica,sans-Serif" font-size="11.00" fill="#000000">float8[17,17]</text>
<polygon fill="none" stroke="#000000" points="403,-357.21 403,-379.21 533,-379.21 533,-357.21 403,-357.21"/>
<image xlink:href="../../images/primaryKeys.png" width="11px" height="12px" preserveAspectRatio="xMinYMin meet" x="408" y="-374.21"/>
<text text-anchor="start" x="423" y="-364.31" font-family="Helvetica,sans-Serif" font-size="11.00" fill="#000000">submission_id</text>
<polygon fill="none" stroke="#000000" points="533,-357.21 533,-379.21 625,-379.21 625,-357.21 533,-357.21"/>
<text text-anchor="start" x="536" y="-364.91" font-family="Helvetica,sans-Serif" font-size="11.00" fill="#000000">int8[19]</text>
<polygon fill="none" stroke="#000000" points="403,-335.21 403,-357.21 533,-357.21 533,-335.21 403,-335.21"/>
<image xlink:href="../../images/primaryKeys.png" width="11px" height="12px" preserveAspectRatio="xMinYMin meet" x="408" y="-352.21"/>
<text text-anchor="start" x="423" y="-342.31" font-family="Helvetica,sans-Serif" font-size="11.00" fill="#000000">tag_id</text>
<polygon fill="none" stroke="#000000" points="533,-335.21 533,-357.21 625,-357.21 625,-335.21 533,-335.21"/>
<text text-anchor="start" x="536" y="-342.91" font-family="Helvetica,sans-Serif" font-size="11.00" fill="#000000">int8[19]</text>
<polygon fill="#ffffff" stroke="transparent" points="403,-313.21 403,-335.21 533,-335.21 533,-313.21 403,-313.21"/>
<polygon fill="none" stroke="#000000" points="403,-313.21 403,-335.21 533,-335.21 533,-313.21 403,-313.21"/>
<image xlink:href="../../images/foreignKeys.png" width="11px" height="12px" preserveAspectRatio="xMinYMin meet" x="408" y="-330.21"/>
<text text-anchor="start" x="423" y="-320.31" font-family="Helvetica,sans-Serif" font-size="11.00" fill="#000000">position_date_time</text>
<polygon fill="none" stroke="#000000" points="533,-313.21 533,-335.21 625,-335.21 625,-313.21 533,-313.21"/>
<text text-anchor="start" x="535.6023" y="-320.91" font-family="Helvetica,sans-Serif" font-size="11.00" fill="#000000">timestamptz[35,6]</text>
<polygon fill="#ffffff" stroke="transparent" points="403,-294.21 403,-313.21 459,-313.21 459,-294.21 403,-294.21"/>
<polygon fill="none" stroke="#000000" points="403,-294.21 403,-313.21 459,-313.21 459,-294.21 403,-294.21"/>
<text text-anchor="start" x="406" y="-300.31" font-family="Helvetica,sans-Serif" font-size="11.00" fill="#000000">&lt; 5</text>
<polygon fill="#ffffff" stroke="transparent" points="459,-294.21 459,-313.21 533,-313.21 533,-294.21 459,-294.21"/>
<polygon fill="none" stroke="#000000" points="459,-294.21 459,-313.21 533,-313.21 533,-294.21 459,-294.21"/>
<text text-anchor="start" x="497.6105" y="-300.31" font-family="Helvetica,sans-Serif" font-size="11.00" fill="#000000">0 rows</text>
<polygon fill="#ffffff" stroke="transparent" points="533,-294.21 533,-313.21 625,-313.21 625,-294.21 533,-294.21"/>
<polygon fill="none" stroke="#000000" points="533,-294.21 533,-313.21 625,-313.21 625,-294.21 533,-294.21"/>
<text text-anchor="start" x="606.4053" y="-300.31" font-family="Helvetica,sans-Serif" font-size="11.00" fill="#000000">0 &gt;</text>
<polygon fill="none" stroke="#000000" stroke-width="2" points="402,-293.21 402,-469.21 626,-469.21 626,-293.21 402,-293.21"/>
</a>
</g>
</g>
<!-- data_time_series&#45;&gt;data_position -->
<g id="edge15" class="edge">
<title>data_time_series:w&#45;&gt;data_position:e</title>
<path fill="none" stroke="#000000" d="M388.3619,-324.2756C364.7453,-324.498 353.9399,-325.21 324.5,-325.21"/>
<polygon fill="#000000" stroke="#000000" points="395.0001,-324.2459 403.0162,-327.8099 399,-324.2279 403,-324.21 403,-324.21 403,-324.21 399,-324.2279 402.9838,-320.61 395.0001,-324.2459 395.0001,-324.2459"/>
<ellipse fill="none" stroke="#000000" cx="391.8001" cy="-324.2602" rx="3.2" ry="3.2"/>
</g>
<!-- data_time_series&#45;&gt;data_position -->
<g id="edge16" class="edge">
<title>data_time_series:w&#45;&gt;data_position:e</title>
<path fill="none" stroke="#000000" d="M388.6961,-365.5156C350.0845,-348.7305 378.6032,-259.21 324.5,-259.21"/>
<polygon fill="#000000" stroke="#000000" points="395.1383,-366.729 402.3336,-371.7477 399.0691,-367.4695 403,-368.21 403,-368.21 403,-368.21 399.0691,-367.4695 403.6664,-364.6722 395.1383,-366.729 395.1383,-366.729"/>
<ellipse fill="none" stroke="#000000" cx="391.9936" cy="-366.1366" rx="3.2" ry="3.2"/>
</g>
<!-- data_time_series&#45;&gt;data_position -->
<g id="edge18" class="edge">
<title>data_time_series:w&#45;&gt;data_position:e</title>
<path fill="none" stroke="#000000" d="M388.6961,-343.5156C350.0845,-326.7305 378.6032,-237.21 324.5,-237.21"/>
<polygon fill="#000000" stroke="#000000" points="395.1383,-344.729 402.3336,-349.7477 399.0691,-345.4695 403,-346.21 403,-346.21 403,-346.21 399.0691,-345.4695 403.6664,-342.6722 395.1383,-344.729 395.1383,-344.729"/>
<ellipse fill="none" stroke="#000000" cx="391.9936" cy="-344.1366" rx="3.2" ry="3.2"/>
</g>
<!-- data_time_series&#45;&gt;submission -->
<g id="edge17" class="edge">
<title>data_time_series:w&#45;&gt;submission:e</title>
<path fill="none" stroke="#000000" d="M388.4647,-368.5057C300.8907,-372.0943 267.3408,-406.507 181,-370.21 153.476,-358.6391 163.8573,-322.21 134,-322.21"/>
<polygon fill="#000000" stroke="#000000" points="395.0017,-368.3728 403.0733,-371.8092 399.0008,-368.2914 403,-368.21 403,-368.21 403,-368.21 399.0008,-368.2914 402.9267,-364.6107 395.0017,-368.3728 395.0017,-368.3728"/>
<ellipse fill="none" stroke="#000000" cx="391.8023" cy="-368.4379" rx="3.2" ry="3.2"/>
</g>
<!-- data_time_series&#45;&gt;observation_types -->
<g id="edge19" class="edge">
<title>data_time_series:w&#45;&gt;observation_types:e</title>
<path fill="none" stroke="#000000" d="M388.789,-415.583C366.2666,-429.6998 393.0648,-484.3625 360,-507.21 319.6978,-535.0584 188.9878,-521.21 140,-521.21"/>
<polygon fill="#000000" stroke="#000000" points="395.2162,-414.0575 403.8314,-415.7126 399.1081,-413.1337 403,-412.21 403,-412.21 403,-412.21 399.1081,-413.1337 402.1686,-408.7073 395.2162,-414.0575 395.2162,-414.0575"/>
<ellipse fill="none" stroke="#000000" cx="392.1027" cy="-414.7965" rx="3.2" ry="3.2"/>
</g>
<!-- metadata -->
<g id="node8" class="node">
<title>metadata</title>
<g id="a_node8"><a xlink:href="../../tables/metadata.html" xlink:title="metadata" target="_top">
<polygon fill="#ffffff" stroke="transparent" points="226.5,-78.71 226.5,-139.71 314.5,-139.71 314.5,-78.71 226.5,-78.71"/>
<polygon fill="#f5f5f5" stroke="transparent" points="226.5,-116.21 226.5,-139.21 314.5,-139.21 314.5,-116.21 226.5,-116.21"/>
<polygon fill="none" stroke="#000000" points="226.5,-116.21 226.5,-139.21 314.5,-139.21 314.5,-116.21 226.5,-116.21"/>
<text text-anchor="start" x="231.0749" y="-125.31" font-family="Helvetica,sans-Serif" font-weight="bold" font-size="11.00" fill="#000000">metadata</text>
<text text-anchor="start" x="280.0219" y="-124.31" font-family="Helvetica,sans-Serif" font-size="11.00" fill="#000000">[table]</text>
<polygon fill="none" stroke="#000000" points="226.5,-97.21 226.5,-116.21 314.5,-116.21 314.5,-97.21 226.5,-97.21"/>
<text text-anchor="start" x="229.5" y="-103.31" font-family="Helvetica,sans-Serif" font-size="11.00" fill="#000000">...</text>
<polygon fill="#ffffff" stroke="transparent" points="226.5,-78.21 226.5,-97.21 255.5,-97.21 255.5,-78.21 226.5,-78.21"/>
<polygon fill="none" stroke="#000000" points="226.5,-78.21 226.5,-97.21 255.5,-97.21 255.5,-78.21 226.5,-78.21"/>
<text text-anchor="start" x="229.5" y="-84.31" font-family="Helvetica,sans-Serif" font-size="11.00" fill="#000000">&lt; 2</text>
<polygon fill="#ffffff" stroke="transparent" points="255.5,-78.21 255.5,-97.21 297.5,-97.21 297.5,-78.21 255.5,-78.21"/>
<polygon fill="none" stroke="#000000" points="255.5,-78.21 255.5,-97.21 297.5,-97.21 297.5,-78.21 255.5,-78.21"/>
<text text-anchor="start" x="262.1105" y="-84.31" font-family="Helvetica,sans-Serif" font-size="11.00" fill="#000000">0 rows</text>
<polygon fill="#ffffff" stroke="transparent" points="297.5,-78.21 297.5,-97.21 314.5,-97.21 314.5,-78.21 297.5,-78.21"/>
<polygon fill="none" stroke="#000000" points="297.5,-78.21 297.5,-97.21 314.5,-97.21 314.5,-78.21 297.5,-78.21"/>
<text text-anchor="start" x="305.3862" y="-84.31" font-family="Helvetica,sans-Serif" font-size="11.00" fill="#000000"> &#160;</text>
</a>
</g>
</g>
<!-- metadata&#45;&gt;submission -->
<g id="edge20" class="edge">
<title>metadata:w&#45;&gt;submission:e</title>
<path fill="none" stroke="#000000" d="M212.1533,-108.633C195.9852,-115.091 192.6652,-133.6329 181,-154.21 142.7629,-221.6591 211.5336,-322.21 134,-322.21"/>
<polygon fill="#000000" stroke="#000000" points="218.6117,-107.5423 227.0995,-109.7597 222.5559,-106.8761 226.5,-106.21 226.5,-106.21 226.5,-106.21 222.5559,-106.8761 225.9005,-102.6602 218.6117,-107.5423 218.6117,-107.5423"/>
<ellipse fill="none" stroke="#000000" cx="215.4564" cy="-108.0752" rx="3.2" ry="3.2"/>
</g>
<!-- proc_observations -->
<g id="node9" class="node">
<title>proc_observations</title>
<g id="a_node9"><a xlink:href="../../tables/proc_observations.html" xlink:title="proc_observations" target="_top">
<polygon fill="#ffffff" stroke="transparent" points="204.5,-435.71 204.5,-496.71 336.5,-496.71 336.5,-435.71 204.5,-435.71"/>
<polygon fill="#f5f5f5" stroke="transparent" points="204.5,-473.21 204.5,-496.21 336.5,-496.21 336.5,-473.21 204.5,-473.21"/>
<polygon fill="none" stroke="#000000" points="204.5,-473.21 204.5,-496.21 336.5,-496.21 336.5,-473.21 204.5,-473.21"/>
<text text-anchor="start" x="209.0722" y="-482.31" font-family="Helvetica,sans-Serif" font-weight="bold" font-size="11.00" fill="#000000">proc_observations</text>
<text text-anchor="start" x="302.0219" y="-481.31" font-family="Helvetica,sans-Serif" font-size="11.00" fill="#000000">[table]</text>
<polygon fill="none" stroke="#000000" points="204.5,-454.21 204.5,-473.21 336.5,-473.21 336.5,-454.21 204.5,-454.21"/>
<text text-anchor="start" x="207.5" y="-460.31" font-family="Helvetica,sans-Serif" font-size="11.00" fill="#000000">...</text>
<polygon fill="#ffffff" stroke="transparent" points="204.5,-435.21 204.5,-454.21 255.5,-454.21 255.5,-435.21 204.5,-435.21"/>
<polygon fill="none" stroke="#000000" points="204.5,-435.21 204.5,-454.21 255.5,-454.21 255.5,-435.21 204.5,-435.21"/>
<text text-anchor="start" x="207.5" y="-441.31" font-family="Helvetica,sans-Serif" font-size="11.00" fill="#000000">&lt; 2</text>
<polygon fill="#ffffff" stroke="transparent" points="255.5,-435.21 255.5,-454.21 308.5,-454.21 308.5,-435.21 255.5,-435.21"/>
<polygon fill="none" stroke="#000000" points="255.5,-435.21 255.5,-454.21 308.5,-454.21 308.5,-435.21 255.5,-435.21"/>
<text text-anchor="start" x="273.1105" y="-441.31" font-family="Helvetica,sans-Serif" font-size="11.00" fill="#000000">0 rows</text>
<polygon fill="#ffffff" stroke="transparent" points="308.5,-435.21 308.5,-454.21 336.5,-454.21 336.5,-435.21 308.5,-435.21"/>
<polygon fill="none" stroke="#000000" points="308.5,-435.21 308.5,-454.21 336.5,-454.21 336.5,-435.21 308.5,-435.21"/>
<text text-anchor="start" x="327.3862" y="-441.31" font-family="Helvetica,sans-Serif" font-size="11.00" fill="#000000"> &#160;</text>
</a>
</g>
</g>
<!-- proc_observations&#45;&gt;submission -->
<g id="edge21" class="edge">
<title>proc_observations:w&#45;&gt;submission:e</title>
<path fill="none" stroke="#000000" d="M190.2122,-460.6423C144.692,-441.5321 198.4529,-322.21 134,-322.21"/>
<polygon fill="#000000" stroke="#000000" points="196.6261,-461.7949 203.8632,-466.7532 200.5631,-462.5024 204.5,-463.21 204.5,-463.21 204.5,-463.21 200.5631,-462.5024 205.1368,-459.6667 196.6261,-461.7949 196.6261,-461.7949"/>
<ellipse fill="none" stroke="#000000" cx="193.4766" cy="-461.2289" rx="3.2" ry="3.2"/>
</g>
<!-- proc_observations&#45;&gt;observation_types -->
<g id="edge22" class="edge">
<title>proc_observations:w&#45;&gt;observation_types:e</title>
<path fill="none" stroke="#000000" d="M190.3791,-466.6644C168.5626,-479.1508 172.8296,-521.21 140,-521.21"/>
<polygon fill="#000000" stroke="#000000" points="196.7291,-465.111 205.3555,-466.7068 200.6146,-464.1605 204.5,-463.21 204.5,-463.21 204.5,-463.21 200.6146,-464.1605 203.6445,-459.7131 196.7291,-465.111 196.7291,-465.111"/>
<ellipse fill="none" stroke="#000000" cx="193.6208" cy="-465.8714" rx="3.2" ry="3.2"/>
</g>
</g>
</svg>
