<?xml version="1.0" encoding="UTF-8" standalone="no"?>
<!DOCTYPE svg PUBLIC "-//W3C//DTD SVG 1.1//EN"
 "http://www.w3.org/Graphics/SVG/1.1/DTD/svg11.dtd">
<!-- Generated by graphviz version 2.40.1 (20161225.0304)
 -->
<!-- Title: twoDegreesRelationshipsDiagram Pages: 1 -->
<svg width="654pt" height="569pt"
 viewBox="0.00 0.00 654.00 569.01" xmlns="http://www.w3.org/2000/svg" xmlns:xlink="http://www.w3.org/1999/xlink">
<g id="graph0" class="graph" transform="scale(1 1) rotate(0) translate(4 565.0133)">
<title>twoDegreesRelationshipsDiagram</title>
<polygon fill="#ffffff" stroke="transparent" points="-4,4 -4,-565.0133 650,-565.0133 650,4 -4,4"/>
<text text-anchor="middle" x="72.4936" y="-7.3" font-family="Helvetica,sans-Serif" font-size="11.00" fill="#000000">Generated by SchemaSpy</text>
<!-- data_histogram_bin_data -->
<g id="node1" class="node">
<title>data_histogram_bin_data</title>
<g id="a_node1"><a xlink:href="../../tables/data_histogram_bin_data.html" xlink:title="data_histogram_bin_data" target="_top">
<polygon fill="#ffffff" stroke="transparent" points="471,-294.9776 471,-509.9776 638,-509.9776 638,-294.9776 471,-294.9776"/>
<polygon fill="#f5f5f5" stroke="transparent" points="471.5,-486.4776 471.5,-509.4776 638.5,-509.4776 638.5,-486.4776 471.5,-486.4776"/>
<polygon fill="none" stroke="#000000" points="471.5,-486.4776 471.5,-509.4776 638.5,-509.4776 638.5,-486.4776 471.5,-486.4776"/>
<text text-anchor="start" x="476.4501" y="-495.5776" font-family="Helvetica,sans-Serif" font-weight="bold" font-size="11.00" fill="#000000">data_histogram_bin_data</text>
<text text-anchor="start" x="604.0219" y="-494.5776" font-family="Helvetica,sans-Serif" font-size="11.00" fill="#000000">[table]</text>
<polygon fill="none" stroke="#000000" points="471.5,-464.4776 471.5,-486.4776 638.5,-486.4776 638.5,-464.4776 471.5,-464.4776"/>
<image xlink:href="../../images/primaryKeys.png" width="11px" height="12px" preserveAspectRatio="xMinYMin meet" x="476.5" y="-481.478"/>
<text text-anchor="start" x="492.5" y="-471.5776" font-family="Helvetica,sans-Serif" font-size="11.00" fill="#000000">submission_id</text>
<polygon fill="none" stroke="#000000" points="471.5,-442.4776 471.5,-464.4776 638.5,-464.4776 638.5,-442.4776 471.5,-442.4776"/>
<image xlink:href="../../images/primaryKeys.png" width="11px" height="12px" preserveAspectRatio="xMinYMin meet" x="476.5" y="-459.478"/>
<text text-anchor="start" x="492.5" y="-449.5776" font-family="Helvetica,sans-Serif" font-size="11.00" fill="#000000">tag_id</text>
<polygon fill="none" stroke="#000000" points="471.5,-420.4776 471.5,-442.4776 638.5,-442.4776 638.5,-420.4776 471.5,-420.4776"/>
<image xlink:href="../../images/primaryKeys.png" width="11px" height="12px" preserveAspectRatio="xMinYMin meet" x="476.5" y="-437.478"/>
<text text-anchor="start" x="492.5" y="-427.5776" font-family="Helvetica,sans-Serif" font-size="11.00" fill="#000000">bin_id</text>
<polygon fill="none" stroke="#000000" points="471.5,-398.4776 471.5,-420.4776 638.5,-420.4776 638.5,-398.4776 471.5,-398.4776"/>
<image xlink:href="../../images/primaryKeys.png" width="11px" height="12px" preserveAspectRatio="xMinYMin meet" x="476.5" y="-415.478"/>
<text text-anchor="start" x="492.5" y="-405.5776" font-family="Helvetica,sans-Serif" font-size="11.00" fill="#000000">bin_class</text>
<polygon fill="none" stroke="#000000" points="471.5,-376.4776 471.5,-398.4776 638.5,-398.4776 638.5,-376.4776 471.5,-376.4776"/>
<image xlink:href="../../images/primaryKeys.png" width="11px" height="12px" preserveAspectRatio="xMinYMin meet" x="476.5" y="-393.478"/>
<text text-anchor="start" x="492.5" y="-383.5776" font-family="Helvetica,sans-Serif" font-size="11.00" fill="#000000">date_time</text>
<polygon fill="#ffffff" stroke="transparent" points="471.5,-354.4776 471.5,-376.4776 638.5,-376.4776 638.5,-354.4776 471.5,-354.4776"/>
<polygon fill="none" stroke="#000000" points="471.5,-354.4776 471.5,-376.4776 638.5,-376.4776 638.5,-354.4776 471.5,-354.4776"/>
<image xlink:href="../../images/foreignKeys.png" width="11px" height="12px" preserveAspectRatio="xMinYMin meet" x="476.5" y="-371.478"/>
<text text-anchor="start" x="492.5" y="-361.5776" font-family="Helvetica,sans-Serif" font-size="11.00" fill="#000000">position_date_time</text>
<polygon fill="none" stroke="#000000" points="471.5,-332.4776 471.5,-354.4776 638.5,-354.4776 638.5,-332.4776 471.5,-332.4776"/>
<image xlink:href="../../images/primaryKeys.png" width="11px" height="12px" preserveAspectRatio="xMinYMin meet" x="476.5" y="-349.478"/>
<text text-anchor="start" x="492.5" y="-339.5776" font-family="Helvetica,sans-Serif" font-size="11.00" fill="#000000">variable_id</text>
<polygon fill="none" stroke="#000000" points="471.5,-313.4776 471.5,-332.4776 638.5,-332.4776 638.5,-313.4776 471.5,-313.4776"/>
<text text-anchor="start" x="474.5" y="-319.5776" font-family="Helvetica,sans-Serif" font-size="11.00" fill="#000000">...</text>
<polygon fill="#ffffff" stroke="transparent" points="471.5,-294.4776 471.5,-313.4776 540.5,-313.4776 540.5,-294.4776 471.5,-294.4776"/>
<polygon fill="none" stroke="#000000" points="471.5,-294.4776 471.5,-313.4776 540.5,-313.4776 540.5,-294.4776 471.5,-294.4776"/>
<text text-anchor="start" x="474.5" y="-300.5776" font-family="Helvetica,sans-Serif" font-size="11.00" fill="#000000">&lt; 7</text>
<polygon fill="#ffffff" stroke="transparent" points="540.5,-294.4776 540.5,-313.4776 602.5,-313.4776 602.5,-294.4776 540.5,-294.4776"/>
<polygon fill="none" stroke="#000000" points="540.5,-294.4776 540.5,-313.4776 602.5,-313.4776 602.5,-294.4776 540.5,-294.4776"/>
<text text-anchor="start" x="567.1105" y="-300.5776" font-family="Helvetica,sans-Serif" font-size="11.00" fill="#000000">0 rows</text>
<polygon fill="#ffffff" stroke="transparent" points="602.5,-294.4776 602.5,-313.4776 638.5,-313.4776 638.5,-294.4776 602.5,-294.4776"/>
<polygon fill="none" stroke="#000000" points="602.5,-294.4776 602.5,-313.4776 638.5,-313.4776 638.5,-294.4776 602.5,-294.4776"/>
<text text-anchor="start" x="629.3862" y="-300.5776" font-family="Helvetica,sans-Serif" font-size="11.00" fill="#000000"> &#160;</text>
</a>
</g>
</g>
<!-- data_histogram_bin_info -->
<g id="node2" class="node">
<title>data_histogram_bin_info</title>
<g id="a_node2"><a xlink:href="../../tables/data_histogram_bin_info.html" xlink:title="data_histogram_bin_info" target="_top">
<polygon fill="#ffffff" stroke="transparent" points="189,-349.4776 189,-505.4776 422,-505.4776 422,-349.4776 189,-349.4776"/>
<polygon fill="#f5f5f5" stroke="transparent" points="191.5,-480.4776 191.5,-503.4776 420.5,-503.4776 420.5,-480.4776 191.5,-480.4776"/>
<polygon fill="none" stroke="#000000" points="191.5,-480.4776 191.5,-503.4776 420.5,-503.4776 420.5,-480.4776 191.5,-480.4776"/>
<text text-anchor="start" x="196.5" y="-489.5776" font-family="Helvetica,sans-Serif" font-weight="bold" font-size="11.00" fill="#000000">data_histogram_bin_info</text>
<text text-anchor="start" x="385.5437" y="-488.5776" font-family="Helvetica,sans-Serif" font-size="11.00" fill="#000000">[table]</text>
<polygon fill="none" stroke="#000000" points="191.5,-458.4776 191.5,-480.4776 354.5,-480.4776 354.5,-458.4776 191.5,-458.4776"/>
<image xlink:href="../../images/primaryKeys.png" width="11px" height="12px" preserveAspectRatio="xMinYMin meet" x="196.5" y="-475.478"/>
<text text-anchor="start" x="211.5" y="-465.5776" font-family="Helvetica,sans-Serif" font-size="11.00" fill="#000000">bin_id</text>
<polygon fill="none" stroke="#000000" points="354.5,-458.4776 354.5,-480.4776 420.5,-480.4776 420.5,-458.4776 354.5,-458.4776"/>
<text text-anchor="start" x="357.5" y="-466.1776" font-family="Helvetica,sans-Serif" font-size="11.00" fill="#000000">int8[19]</text>
<polygon fill="none" stroke="#000000" points="191.5,-436.4776 191.5,-458.4776 354.5,-458.4776 354.5,-436.4776 191.5,-436.4776"/>
<image xlink:href="../../images/primaryKeys.png" width="11px" height="12px" preserveAspectRatio="xMinYMin meet" x="196.5" y="-453.478"/>
<text text-anchor="start" x="211.5" y="-443.5776" font-family="Helvetica,sans-Serif" font-size="11.00" fill="#000000">bin_class</text>
<polygon fill="none" stroke="#000000" points="354.5,-436.4776 354.5,-458.4776 420.5,-458.4776 420.5,-436.4776 354.5,-436.4776"/>
<text text-anchor="start" x="357.5" y="-444.1776" font-family="Helvetica,sans-Serif" font-size="11.00" fill="#000000">int4[10]</text>
<polygon fill="none" stroke="#000000" points="191.5,-414.4776 191.5,-436.4776 354.5,-436.4776 354.5,-414.4776 191.5,-414.4776"/>
<text text-anchor="start" x="211.5" y="-421.5776" font-family="Helvetica,sans-Serif" font-size="11.00" fill="#000000">min_value</text>
<polygon fill="none" stroke="#000000" points="354.5,-414.4776 354.5,-436.4776 420.5,-436.4776 420.5,-414.4776 354.5,-414.4776"/>
<text text-anchor="start" x="357.2351" y="-422.1776" font-family="Helvetica,sans-Serif" font-size="11.00" fill="#000000">float8[17,17]</text>
<polygon fill="none" stroke="#000000" points="191.5,-392.4776 191.5,-414.4776 354.5,-414.4776 354.5,-392.4776 191.5,-392.4776"/>
<text text-anchor="start" x="211.5" y="-399.5776" font-family="Helvetica,sans-Serif" font-size="11.00" fill="#000000">max_value</text>
<polygon fill="none" stroke="#000000" points="354.5,-392.4776 354.5,-414.4776 420.5,-414.4776 420.5,-392.4776 354.5,-392.4776"/>
<text text-anchor="start" x="357.2351" y="-400.1776" font-family="Helvetica,sans-Serif" font-size="11.00" fill="#000000">float8[17,17]</text>
<polygon fill="none" stroke="#000000" points="191.5,-370.4776 191.5,-392.4776 354.5,-392.4776 354.5,-370.4776 191.5,-370.4776"/>
<image xlink:href="../../images/primaryKeys.png" width="11px" height="12px" preserveAspectRatio="xMinYMin meet" x="196.5" y="-387.478"/>
<text text-anchor="start" x="211.5" y="-377.5776" font-family="Helvetica,sans-Serif" font-size="11.00" fill="#000000">variable_id</text>
<polygon fill="none" stroke="#000000" points="354.5,-370.4776 354.5,-392.4776 420.5,-392.4776 420.5,-370.4776 354.5,-370.4776"/>
<text text-anchor="start" x="357.5" y="-378.1776" font-family="Helvetica,sans-Serif" font-size="11.00" fill="#000000">int8[19]</text>
<polygon fill="#ffffff" stroke="transparent" points="191.5,-351.4776 191.5,-370.4776 264.5,-370.4776 264.5,-351.4776 191.5,-351.4776"/>
<polygon fill="none" stroke="#000000" points="191.5,-351.4776 191.5,-370.4776 264.5,-370.4776 264.5,-351.4776 191.5,-351.4776"/>
<text text-anchor="start" x="194.5" y="-357.5776" font-family="Helvetica,sans-Serif" font-size="11.00" fill="#000000">&lt; 1</text>
<polygon fill="#ffffff" stroke="transparent" points="264.5,-351.4776 264.5,-370.4776 354.5,-370.4776 354.5,-351.4776 264.5,-351.4776"/>
<polygon fill="none" stroke="#000000" points="264.5,-351.4776 264.5,-370.4776 354.5,-370.4776 354.5,-351.4776 264.5,-351.4776"/>
<text text-anchor="start" x="319.1105" y="-357.5776" font-family="Helvetica,sans-Serif" font-size="11.00" fill="#000000">0 rows</text>
<polygon fill="#ffffff" stroke="transparent" points="354.5,-351.4776 354.5,-370.4776 420.5,-370.4776 420.5,-351.4776 354.5,-351.4776"/>
<polygon fill="none" stroke="#000000" points="354.5,-351.4776 354.5,-370.4776 420.5,-370.4776 420.5,-351.4776 354.5,-351.4776"/>
<text text-anchor="start" x="401.9053" y="-357.5776" font-family="Helvetica,sans-Serif" font-size="11.00" fill="#000000">2 &gt;</text>
<polygon fill="none" stroke="#000000" stroke-width="2" points="190,-350.4776 190,-504.4776 421,-504.4776 421,-350.4776 190,-350.4776"/>
</a>
</g>
</g>
<!-- data_histogram_bin_data&#45;&gt;data_histogram_bin_info -->
<g id="edge1" class="edge">
<title>data_histogram_bin_data:w&#45;&gt;data_histogram_bin_info:e</title>
<path fill="none" stroke="#000000" d="M457.4897,-413.8367C444.0637,-423.8181 442.8043,-447.4776 420.5,-447.4776"/>
<polygon fill="#000000" stroke="#000000" points="463.8612,-411.8544 472.5695,-412.9151 467.6806,-410.666 471.5,-409.4776 471.5,-409.4776 471.5,-409.4776 467.6806,-410.666 470.4305,-406.0402 463.8612,-411.8544 463.8612,-411.8544"/>
<ellipse fill="none" stroke="#000000" cx="460.8057" cy="-412.8051" rx="3.2" ry="3.2"/>
</g>
<!-- data_histogram_bin_data&#45;&gt;data_histogram_bin_info -->
<g id="edge2" class="edge">
<title>data_histogram_bin_data:w&#45;&gt;data_histogram_bin_info:e</title>
<path fill="none" stroke="#000000" d="M457.4897,-435.8367C444.0637,-445.8181 442.8043,-469.4776 420.5,-469.4776"/>
<polygon fill="#000000" stroke="#000000" points="463.8612,-433.8544 472.5695,-434.9151 467.6806,-432.666 471.5,-431.4776 471.5,-431.4776 471.5,-431.4776 467.6806,-432.666 470.4305,-428.0402 463.8612,-433.8544 463.8612,-433.8544"/>
<ellipse fill="none" stroke="#000000" cx="460.8057" cy="-434.8051" rx="3.2" ry="3.2"/>
</g>
<!-- data_position -->
<g id="node3" class="node">
<title>data_position</title>
<g id="a_node3"><a xlink:href="../../tables/data_position.html" xlink:title="data_position" target="_top">
<polygon fill="#ffffff" stroke="transparent" points="251.5,-212.9776 251.5,-273.9776 359.5,-273.9776 359.5,-212.9776 251.5,-212.9776"/>
<polygon fill="#f5f5f5" stroke="transparent" points="251.5,-250.4776 251.5,-273.4776 359.5,-273.4776 359.5,-250.4776 251.5,-250.4776"/>
<polygon fill="none" stroke="#000000" points="251.5,-250.4776 251.5,-273.4776 359.5,-273.4776 359.5,-250.4776 251.5,-250.4776"/>
<text text-anchor="start" x="256.2926" y="-259.5776" font-family="Helvetica,sans-Serif" font-weight="bold" font-size="11.00" fill="#000000">data_position</text>
<text text-anchor="start" x="325.0219" y="-258.5776" font-family="Helvetica,sans-Serif" font-size="11.00" fill="#000000">[table]</text>
<polygon fill="none" stroke="#000000" points="251.5,-231.4776 251.5,-250.4776 359.5,-250.4776 359.5,-231.4776 251.5,-231.4776"/>
<text text-anchor="start" x="254.5" y="-237.5776" font-family="Helvetica,sans-Serif" font-size="11.00" fill="#000000">...</text>
<polygon fill="#ffffff" stroke="transparent" points="251.5,-212.4776 251.5,-231.4776 286.5,-231.4776 286.5,-212.4776 251.5,-212.4776"/>
<polygon fill="none" stroke="#000000" points="251.5,-212.4776 251.5,-231.4776 286.5,-231.4776 286.5,-212.4776 251.5,-212.4776"/>
<text text-anchor="start" x="254.5" y="-218.5776" font-family="Helvetica,sans-Serif" font-size="11.00" fill="#000000">&lt; 1</text>
<polygon fill="#ffffff" stroke="transparent" points="286.5,-212.4776 286.5,-231.4776 331.5,-231.4776 331.5,-212.4776 286.5,-212.4776"/>
<polygon fill="none" stroke="#000000" points="286.5,-212.4776 286.5,-231.4776 331.5,-231.4776 331.5,-212.4776 286.5,-212.4776"/>
<text text-anchor="start" x="296.1105" y="-218.5776" font-family="Helvetica,sans-Serif" font-size="11.00" fill="#000000">0 rows</text>
<polygon fill="#ffffff" stroke="transparent" points="331.5,-212.4776 331.5,-231.4776 359.5,-231.4776 359.5,-212.4776 331.5,-212.4776"/>
<polygon fill="none" stroke="#000000" points="331.5,-212.4776 331.5,-231.4776 359.5,-231.4776 359.5,-212.4776 331.5,-212.4776"/>
<text text-anchor="start" x="340.9053" y="-218.5776" font-family="Helvetica,sans-Serif" font-size="11.00" fill="#000000">9 &gt;</text>
</a>
</g>
</g>
<!-- data_histogram_bin_data&#45;&gt;data_position -->
<g id="edge3" class="edge">
<title>data_histogram_bin_data:w&#45;&gt;data_position:e</title>
<path fill="none" stroke="#000000" d="M457.3748,-362.0216C444.223,-353.8131 445.0879,-332.555 430,-315.4776 399.71,-281.1935 405.2481,-240.4776 359.5,-240.4776"/>
<polygon fill="#000000" stroke="#000000" points="463.7292,-363.5763 470.6444,-368.9745 467.6146,-364.527 471.5,-365.4776 471.5,-365.4776 471.5,-365.4776 467.6146,-364.527 472.3556,-361.9808 463.7292,-363.5763 463.7292,-363.5763"/>
<ellipse fill="none" stroke="#000000" cx="460.6209" cy="-362.8157" rx="3.2" ry="3.2"/>
</g>
<!-- data_histogram_bin_data&#45;&gt;data_position -->
<g id="edge4" class="edge">
<title>data_histogram_bin_data:w&#45;&gt;data_position:e</title>
<path fill="none" stroke="#000000" d="M457.0573,-473.8684C407.7143,-461.084 462.7836,-374.9027 430,-315.4776 407.9015,-275.4209 405.2481,-240.4776 359.5,-240.4776"/>
<polygon fill="#000000" stroke="#000000" points="463.5492,-474.5917 471.1013,-479.0555 467.5246,-475.0347 471.5,-475.4776 471.5,-475.4776 471.5,-475.4776 467.5246,-475.0347 471.8987,-471.8998 463.5492,-474.5917 463.5492,-474.5917"/>
<ellipse fill="none" stroke="#000000" cx="460.3689" cy="-474.2373" rx="3.2" ry="3.2"/>
</g>
<!-- data_histogram_bin_data&#45;&gt;data_position -->
<g id="edge6" class="edge">
<title>data_histogram_bin_data:w&#45;&gt;data_position:e</title>
<path fill="none" stroke="#000000" d="M456.9606,-451.5587C416.5572,-438.8674 459.1312,-365.9691 430,-315.4776 407.1378,-275.8518 405.2481,-240.4776 359.5,-240.4776"/>
<polygon fill="#000000" stroke="#000000" points="463.5688,-452.4308 471.0289,-457.0467 467.5344,-452.9542 471.5,-453.4776 471.5,-453.4776 471.5,-453.4776 467.5344,-452.9542 471.9711,-449.9086 463.5688,-452.4308 463.5688,-452.4308"/>
<ellipse fill="none" stroke="#000000" cx="460.3963" cy="-452.0121" rx="3.2" ry="3.2"/>
</g>
<!-- submission -->
<g id="node4" class="node">
<title>submission</title>
<g id="a_node4"><a xlink:href="../../tables/submission.html" xlink:title="submission" target="_top">
<polygon fill="#ffffff" stroke="transparent" points="25,-102.9776 25,-163.9776 123,-163.9776 123,-102.9776 25,-102.9776"/>
<polygon fill="#f5f5f5" stroke="transparent" points="25,-140.4776 25,-163.4776 123,-163.4776 123,-140.4776 25,-140.4776"/>
<polygon fill="none" stroke="#000000" points="25,-140.4776 25,-163.4776 123,-163.4776 123,-140.4776 25,-140.4776"/>
<text text-anchor="start" x="29.9984" y="-149.5776" font-family="Helvetica,sans-Serif" font-weight="bold" font-size="11.00" fill="#000000">submission</text>
<text text-anchor="start" x="88.5219" y="-148.5776" font-family="Helvetica,sans-Serif" font-size="11.00" fill="#000000">[table]</text>
<polygon fill="none" stroke="#000000" points="25,-121.4776 25,-140.4776 123,-140.4776 123,-121.4776 25,-121.4776"/>
<text text-anchor="start" x="28" y="-127.5776" font-family="Helvetica,sans-Serif" font-size="11.00" fill="#000000">...</text>
<polygon fill="#ffffff" stroke="transparent" points="25,-102.4776 25,-121.4776 50,-121.4776 50,-102.4776 25,-102.4776"/>
<polygon fill="none" stroke="#000000" points="25,-102.4776 25,-121.4776 50,-121.4776 50,-102.4776 25,-102.4776"/>
<text text-anchor="start" x="28" y="-108.5776" font-family="Helvetica,sans-Serif" font-size="11.00" fill="#000000"> &#160;</text>
<polygon fill="#ffffff" stroke="transparent" points="50,-102.4776 50,-121.4776 95,-121.4776 95,-102.4776 50,-102.4776"/>
<polygon fill="none" stroke="#000000" points="50,-102.4776 50,-121.4776 95,-121.4776 95,-102.4776 50,-102.4776"/>
<text text-anchor="start" x="59.6105" y="-108.5776" font-family="Helvetica,sans-Serif" font-size="11.00" fill="#000000">0 rows</text>
<polygon fill="#ffffff" stroke="transparent" points="95,-102.4776 95,-121.4776 123,-121.4776 123,-102.4776 95,-102.4776"/>
<polygon fill="none" stroke="#000000" points="95,-102.4776 95,-121.4776 123,-121.4776 123,-102.4776 95,-102.4776"/>
<text text-anchor="start" x="104.4053" y="-108.5776" font-family="Helvetica,sans-Serif" font-size="11.00" fill="#000000">6 &gt;</text>
</a>
</g>
</g>
<!-- data_histogram_bin_data&#45;&gt;submission -->
<g id="edge5" class="edge">
<title>data_histogram_bin_data:w&#45;&gt;submission:e</title>
<path fill="none" stroke="#000000" d="M457.7564,-480.2139C447.7466,-489.3168 448.1754,-509.0136 430,-516.4776 327.6295,-558.5179 263.4337,-590.3139 181,-516.4776 116.3883,-458.6047 209.7407,-130.4776 123,-130.4776"/>
<polygon fill="#000000" stroke="#000000" points="463.9365,-478.0842 472.6729,-478.8812 467.7183,-476.7809 471.5,-475.4776 471.5,-475.4776 471.5,-475.4776 467.7183,-476.7809 470.3271,-472.0741 463.9365,-478.0842 463.9365,-478.0842"/>
<ellipse fill="none" stroke="#000000" cx="460.9111" cy="-479.1268" rx="3.2" ry="3.2"/>
</g>
<!-- observation_types -->
<g id="node5" class="node">
<title>observation_types</title>
<g id="a_node5"><a xlink:href="../../tables/observation_types.html" xlink:title="observation_types" target="_top">
<polygon fill="#ffffff" stroke="transparent" points="8,-227.9776 8,-332.9776 140,-332.9776 140,-227.9776 8,-227.9776"/>
<polygon fill="#f5f5f5" stroke="transparent" points="8,-309.4776 8,-332.4776 140,-332.4776 140,-309.4776 8,-309.4776"/>
<polygon fill="none" stroke="#000000" points="8,-309.4776 8,-332.4776 140,-332.4776 140,-309.4776 8,-309.4776"/>
<text text-anchor="start" x="12.8746" y="-318.5776" font-family="Helvetica,sans-Serif" font-weight="bold" font-size="11.00" fill="#000000">observation_types</text>
<text text-anchor="start" x="105.5219" y="-317.5776" font-family="Helvetica,sans-Serif" font-size="11.00" fill="#000000">[table]</text>
<polygon fill="none" stroke="#000000" points="8,-287.4776 8,-309.4776 140,-309.4776 140,-287.4776 8,-287.4776"/>
<image xlink:href="../../images/primaryKeys.png" width="11px" height="12px" preserveAspectRatio="xMinYMin meet" x="13" y="-304.478"/>
<text text-anchor="start" x="31" y="-294.5776" font-family="Helvetica,sans-Serif" font-size="11.00" fill="#000000">variable_id</text>
<polygon fill="#ffffff" stroke="transparent" points="8,-265.4776 8,-287.4776 140,-287.4776 140,-265.4776 8,-265.4776"/>
<polygon fill="none" stroke="#000000" points="8,-265.4776 8,-287.4776 140,-287.4776 140,-265.4776 8,-265.4776"/>
<text text-anchor="start" x="31" y="-272.5776" font-family="Helvetica,sans-Serif" font-size="11.00" fill="#000000">variable_name</text>
<polygon fill="none" stroke="#000000" points="8,-246.4776 8,-265.4776 140,-265.4776 140,-246.4776 8,-246.4776"/>
<text text-anchor="start" x="11" y="-252.5776" font-family="Helvetica,sans-Serif" font-size="11.00" fill="#000000">...</text>
<polygon fill="#ffffff" stroke="transparent" points="8,-227.4776 8,-246.4776 44,-246.4776 44,-227.4776 8,-227.4776"/>
<polygon fill="none" stroke="#000000" points="8,-227.4776 8,-246.4776 44,-246.4776 44,-227.4776 8,-227.4776"/>
<text text-anchor="start" x="11" y="-233.5776" font-family="Helvetica,sans-Serif" font-size="11.00" fill="#000000"> &#160;</text>
<polygon fill="#ffffff" stroke="transparent" points="44,-227.4776 44,-246.4776 106,-246.4776 106,-227.4776 44,-227.4776"/>
<polygon fill="none" stroke="#000000" points="44,-227.4776 44,-246.4776 106,-246.4776 106,-227.4776 44,-227.4776"/>
<text text-anchor="start" x="58.3807" y="-233.5776" font-family="Helvetica,sans-Serif" font-size="11.00" fill="#000000">204 rows</text>
<polygon fill="#ffffff" stroke="transparent" points="106,-227.4776 106,-246.4776 140,-246.4776 140,-227.4776 106,-227.4776"/>
<polygon fill="none" stroke="#000000" points="106,-227.4776 106,-246.4776 140,-246.4776 140,-227.4776 106,-227.4776"/>
<text text-anchor="start" x="121.4053" y="-233.5776" font-family="Helvetica,sans-Serif" font-size="11.00" fill="#000000">5 &gt;</text>
</a>
</g>
</g>
<!-- data_histogram_bin_data&#45;&gt;observation_types -->
<g id="edge7" class="edge">
<title>data_histogram_bin_data:w&#45;&gt;observation_types:e</title>
<path fill="none" stroke="#000000" d="M456.979,-342.1656C398.9469,-335.719 195.24,-307.6238 181,-305.4776 162.7205,-302.7227 158.4859,-298.4776 140,-298.4776"/>
<polygon fill="#000000" stroke="#000000" points="463.5325,-342.7577 471.176,-347.063 467.5162,-343.1177 471.5,-343.4776 471.5,-343.4776 471.5,-343.4776 467.5162,-343.1177 471.824,-339.8922 463.5325,-342.7577 463.5325,-342.7577"/>
<ellipse fill="none" stroke="#000000" cx="460.3454" cy="-342.4697" rx="3.2" ry="3.2"/>
</g>
<!-- data_histogram_bin_info&#45;&gt;observation_types -->
<g id="edge8" class="edge">
<title>data_histogram_bin_info:w&#45;&gt;observation_types:e</title>
<path fill="none" stroke="#000000" d="M177.7068,-377.2475C156.2746,-360.3338 177.4777,-298.4776 140,-298.4776"/>
<polygon fill="#000000" stroke="#000000" points="183.8516,-379.132 190.4445,-384.9194 187.6758,-380.3048 191.5,-381.4776 191.5,-381.4776 191.5,-381.4776 187.6758,-380.3048 192.5555,-378.0359 183.8516,-379.132 183.8516,-379.132"/>
<ellipse fill="none" stroke="#000000" cx="180.7922" cy="-378.1937" rx="3.2" ry="3.2"/>
</g>
<!-- data_position&#45;&gt;submission -->
<g id="edge9" class="edge">
<title>data_position:w&#45;&gt;submission:e</title>
<path fill="none" stroke="#000000" d="M237.6875,-236.2998C201.6296,-216.207 156.1842,-130.4776 123,-130.4776"/>
<polygon fill="#000000" stroke="#000000" points="243.8426,-238.1615 250.4577,-243.9235 247.6713,-239.3196 251.5,-240.4776 251.5,-240.4776 251.5,-240.4776 247.6713,-239.3196 252.5423,-237.0318 243.8426,-238.1615 243.8426,-238.1615"/>
<ellipse fill="none" stroke="#000000" cx="240.7796" cy="-237.235" rx="3.2" ry="3.2"/>
</g>
<!-- data_profile -->
<g id="node6" class="node">
<title>data_profile</title>
<g id="a_node6"><a xlink:href="../../tables/data_profile.html" xlink:title="data_profile" target="_top">
<polygon fill="#ffffff" stroke="transparent" points="504.5,-130.9776 504.5,-191.9776 604.5,-191.9776 604.5,-130.9776 504.5,-130.9776"/>
<polygon fill="#f5f5f5" stroke="transparent" points="504.5,-168.4776 504.5,-191.4776 604.5,-191.4776 604.5,-168.4776 504.5,-168.4776"/>
<polygon fill="none" stroke="#000000" points="504.5,-168.4776 504.5,-191.4776 604.5,-191.4776 604.5,-168.4776 504.5,-168.4776"/>
<text text-anchor="start" x="509.2691" y="-177.5776" font-family="Helvetica,sans-Serif" font-weight="bold" font-size="11.00" fill="#000000">data_profile</text>
<text text-anchor="start" x="570.0219" y="-176.5776" font-family="Helvetica,sans-Serif" font-size="11.00" fill="#000000">[table]</text>
<polygon fill="none" stroke="#000000" points="504.5,-149.4776 504.5,-168.4776 604.5,-168.4776 604.5,-149.4776 504.5,-149.4776"/>
<text text-anchor="start" x="507.5" y="-155.5776" font-family="Helvetica,sans-Serif" font-size="11.00" fill="#000000">...</text>
<polygon fill="#ffffff" stroke="transparent" points="504.5,-130.4776 504.5,-149.4776 539.5,-149.4776 539.5,-130.4776 504.5,-130.4776"/>
<polygon fill="none" stroke="#000000" points="504.5,-130.4776 504.5,-149.4776 539.5,-149.4776 539.5,-130.4776 504.5,-130.4776"/>
<text text-anchor="start" x="507.5" y="-136.5776" font-family="Helvetica,sans-Serif" font-size="11.00" fill="#000000">&lt; 5</text>
<polygon fill="#ffffff" stroke="transparent" points="539.5,-130.4776 539.5,-149.4776 584.5,-149.4776 584.5,-130.4776 539.5,-130.4776"/>
<polygon fill="none" stroke="#000000" points="539.5,-130.4776 539.5,-149.4776 584.5,-149.4776 584.5,-130.4776 539.5,-130.4776"/>
<text text-anchor="start" x="549.1105" y="-136.5776" font-family="Helvetica,sans-Serif" font-size="11.00" fill="#000000">0 rows</text>
<polygon fill="#ffffff" stroke="transparent" points="584.5,-130.4776 584.5,-149.4776 604.5,-149.4776 604.5,-130.4776 584.5,-130.4776"/>
<polygon fill="none" stroke="#000000" points="584.5,-130.4776 584.5,-149.4776 604.5,-149.4776 604.5,-130.4776 584.5,-130.4776"/>
<text text-anchor="start" x="595.3862" y="-136.5776" font-family="Helvetica,sans-Serif" font-size="11.00" fill="#000000"> &#160;</text>
</a>
</g>
</g>
<!-- data_profile&#45;&gt;data_position -->
<g id="edge10" class="edge">
<title>data_profile:w&#45;&gt;data_position:e</title>
<path fill="none" stroke="#000000" d="M489.9731,-157.0874C430.515,-156.6678 428.3301,-228.3917 359.5,-240.4776"/>
<polygon fill="#000000" stroke="#000000" points="496.5364,-157.7155 504.157,-162.0613 500.5182,-158.0966 504.5,-158.4776 504.5,-158.4776 504.5,-158.4776 500.5182,-158.0966 504.843,-154.894 496.5364,-157.7155 496.5364,-157.7155"/>
<ellipse fill="none" stroke="#000000" cx="493.3509" cy="-157.4106" rx="3.2" ry="3.2"/>
</g>
<!-- data_profile&#45;&gt;data_position -->
<g id="edge11" class="edge">
<title>data_profile:w&#45;&gt;data_position:e</title>
<path fill="none" stroke="#000000" d="M489.9731,-159.6368C430.515,-169.6035 428.3301,-240.4776 359.5,-240.4776"/>
<polygon fill="#000000" stroke="#000000" points="496.5253,-159.114 504.7864,-162.0662 500.5127,-158.7958 504.5,-158.4776 504.5,-158.4776 504.5,-158.4776 500.5127,-158.7958 504.2136,-154.889 496.5253,-159.114 496.5253,-159.114"/>
<ellipse fill="none" stroke="#000000" cx="493.3355" cy="-159.3686" rx="3.2" ry="3.2"/>
</g>
<!-- data_profile&#45;&gt;data_position -->
<g id="edge13" class="edge">
<title>data_profile:w&#45;&gt;data_position:e</title>
<path fill="none" stroke="#000000" d="M490.3486,-162.0586C430.5239,-182.2446 428.4747,-252.589 359.5,-240.4776"/>
<polygon fill="#000000" stroke="#000000" points="496.7444,-160.4402 505.3831,-161.9676 500.6222,-159.4589 504.5,-158.4776 504.5,-158.4776 504.5,-158.4776 500.6222,-159.4589 503.6169,-154.9876 496.7444,-160.4402 496.7444,-160.4402"/>
<ellipse fill="none" stroke="#000000" cx="493.6422" cy="-161.2252" rx="3.2" ry="3.2"/>
</g>
<!-- data_profile&#45;&gt;submission -->
<g id="edge12" class="edge">
<title>data_profile:w&#45;&gt;submission:e</title>
<path fill="none" stroke="#000000" d="M490.0081,-156.1896C457.06,-144.1728 471.8484,-88.1623 430,-68.4776 329.8587,-21.3731 282.5229,-24.4299 181,-68.4776 146.3844,-83.4963 160.7333,-130.4776 123,-130.4776"/>
<polygon fill="#000000" stroke="#000000" points="496.5979,-157.23 503.9386,-162.0336 500.5489,-157.8538 504.5,-158.4776 504.5,-158.4776 504.5,-158.4776 500.5489,-157.8538 505.0614,-154.9217 496.5979,-157.23 496.5979,-157.23"/>
<ellipse fill="none" stroke="#000000" cx="493.437" cy="-156.7309" rx="3.2" ry="3.2"/>
</g>
<!-- data_profile&#45;&gt;observation_types -->
<g id="edge14" class="edge">
<title>data_profile:w&#45;&gt;observation_types:e</title>
<path fill="none" stroke="#000000" d="M490.0624,-159.2249C467.6521,-161.7249 458.0709,-169.8967 430,-174.4776 375.0449,-183.4458 225.6766,-169.2437 181,-202.4776 143.7749,-230.1685 186.395,-298.4776 140,-298.4776"/>
<polygon fill="#000000" stroke="#000000" points="496.5107,-158.8912 504.6861,-162.0728 500.5053,-158.6844 504.5,-158.4776 504.5,-158.4776 504.5,-158.4776 500.5053,-158.6844 504.3139,-154.8824 496.5107,-158.8912 496.5107,-158.8912"/>
<ellipse fill="none" stroke="#000000" cx="493.315" cy="-159.0566" rx="3.2" ry="3.2"/>
</g>
<!-- data_time_series -->
<g id="node7" class="node">
<title>data_time_series</title>
<g id="a_node7"><a xlink:href="../../tables/data_time_series.html" xlink:title="data_time_series" target="_top">
<polygon fill="#ffffff" stroke="transparent" points="491.5,-212.9776 491.5,-273.9776 617.5,-273.9776 617.5,-212.9776 491.5,-212.9776"/>
<polygon fill="#f5f5f5" stroke="transparent" points="491.5,-250.4776 491.5,-273.4776 617.5,-273.4776 617.5,-250.4776 491.5,-250.4776"/>
<polygon fill="none" stroke="#000000" points="491.5,-250.4776 491.5,-273.4776 617.5,-273.4776 617.5,-250.4776 491.5,-250.4776"/>
<text text-anchor="start" x="496.1307" y="-259.5776" font-family="Helvetica,sans-Serif" font-weight="bold" font-size="11.00" fill="#000000">data_time_series</text>
<text text-anchor="start" x="583.0219" y="-258.5776" font-family="Helvetica,sans-Serif" font-size="11.00" fill="#000000">[table]</text>
<polygon fill="none" stroke="#000000" points="491.5,-231.4776 491.5,-250.4776 617.5,-250.4776 617.5,-231.4776 491.5,-231.4776"/>
<text text-anchor="start" x="494.5" y="-237.5776" font-family="Helvetica,sans-Serif" font-size="11.00" fill="#000000">...</text>
<polygon fill="#ffffff" stroke="transparent" points="491.5,-212.4776 491.5,-231.4776 539.5,-231.4776 539.5,-212.4776 491.5,-212.4776"/>
<polygon fill="none" stroke="#000000" points="491.5,-212.4776 491.5,-231.4776 539.5,-231.4776 539.5,-212.4776 491.5,-212.4776"/>
<text text-anchor="start" x="494.5" y="-218.5776" font-family="Helvetica,sans-Serif" font-size="11.00" fill="#000000">&lt; 5</text>
<polygon fill="#ffffff" stroke="transparent" points="539.5,-212.4776 539.5,-231.4776 591.5,-231.4776 591.5,-212.4776 539.5,-212.4776"/>
<polygon fill="none" stroke="#000000" points="539.5,-212.4776 539.5,-231.4776 591.5,-231.4776 591.5,-212.4776 539.5,-212.4776"/>
<text text-anchor="start" x="556.1105" y="-218.5776" font-family="Helvetica,sans-Serif" font-size="11.00" fill="#000000">0 rows</text>
<polygon fill="#ffffff" stroke="transparent" points="591.5,-212.4776 591.5,-231.4776 617.5,-231.4776 617.5,-212.4776 591.5,-212.4776"/>
<polygon fill="none" stroke="#000000" points="591.5,-212.4776 591.5,-231.4776 617.5,-231.4776 617.5,-212.4776 591.5,-212.4776"/>
<text text-anchor="start" x="608.3862" y="-218.5776" font-family="Helvetica,sans-Serif" font-size="11.00" fill="#000000"> &#160;</text>
</a>
</g>
</g>
<!-- data_time_series&#45;&gt;data_position -->
<g id="edge15" class="edge">
<title>data_time_series:w&#45;&gt;data_position:e</title>
<path fill="none" stroke="#000000" d="M477.294,-237.4141C429.9875,-227.5736 413.125,-228.5948 359.5,-240.4776"/>
<polygon fill="#000000" stroke="#000000" points="483.6798,-238.7912 490.7411,-243.9967 487.5899,-239.6344 491.5,-240.4776 491.5,-240.4776 491.5,-240.4776 487.5899,-239.6344 492.2589,-236.9585 483.6798,-238.7912 483.6798,-238.7912"/>
<ellipse fill="none" stroke="#000000" cx="480.5517" cy="-238.1166" rx="3.2" ry="3.2"/>
</g>
<!-- data_time_series&#45;&gt;data_position -->
<g id="edge16" class="edge">
<title>data_time_series:w&#45;&gt;data_position:e</title>
<path fill="none" stroke="#000000" d="M476.9912,-240.4776C429.9153,-240.4776 413.0104,-240.4776 359.5,-240.4776"/>
<polygon fill="#000000" stroke="#000000" points="483.5,-240.4777 491.5,-244.0776 487.5,-240.4777 491.5,-240.4776 491.5,-240.4776 491.5,-240.4776 487.5,-240.4777 491.5,-236.8776 483.5,-240.4777 483.5,-240.4777"/>
<ellipse fill="none" stroke="#000000" cx="480.3" cy="-240.4777" rx="3.2" ry="3.2"/>
</g>
<!-- data_time_series&#45;&gt;data_position -->
<g id="edge18" class="edge">
<title>data_time_series:w&#45;&gt;data_position:e</title>
<path fill="none" stroke="#000000" d="M477.294,-243.5412C429.9875,-253.3816 413.125,-252.3604 359.5,-240.4776"/>
<polygon fill="#000000" stroke="#000000" points="483.6798,-242.1641 492.2589,-243.9967 487.5899,-241.3209 491.5,-240.4776 491.5,-240.4776 491.5,-240.4776 487.5899,-241.3209 490.7411,-236.9585 483.6798,-242.1641 483.6798,-242.1641"/>
<ellipse fill="none" stroke="#000000" cx="480.5517" cy="-242.8387" rx="3.2" ry="3.2"/>
</g>
<!-- data_time_series&#45;&gt;submission -->
<g id="edge17" class="edge">
<title>data_time_series:w&#45;&gt;submission:e</title>
<path fill="none" stroke="#000000" d="M477.4514,-235.4601C470.5802,-228.5365 469.5405,-215.4343 463,-202.4776 439.9988,-156.9125 470.9502,-122.9459 430,-92.4776 385.6065,-59.4475 234.0228,-76.6549 181,-92.4776 151.4692,-101.2901 153.8177,-130.4776 123,-130.4776"/>
<polygon fill="#000000" stroke="#000000" points="483.9661,-237.7868 490.2891,-243.8679 487.733,-239.1322 491.5,-240.4776 491.5,-240.4776 491.5,-240.4776 487.733,-239.1322 492.7109,-237.0874 483.9661,-237.7868 483.9661,-237.7868"/>
<ellipse fill="none" stroke="#000000" cx="480.9525" cy="-236.7105" rx="3.2" ry="3.2"/>
</g>
<!-- data_time_series&#45;&gt;observation_types -->
<g id="edge19" class="edge">
<title>data_time_series:w&#45;&gt;observation_types:e</title>
<path fill="none" stroke="#000000" d="M477.1196,-243.1202C458.1643,-251.1608 456.2883,-275.3371 430,-284.4776 308.1185,-326.8564 269.039,-298.4776 140,-298.4776"/>
<polygon fill="#000000" stroke="#000000" points="483.6317,-241.9236 492.1507,-244.0184 487.5659,-241.2006 491.5,-240.4776 491.5,-240.4776 491.5,-240.4776 487.5659,-241.2006 490.8493,-236.9369 483.6317,-241.9236 483.6317,-241.9236"/>
<ellipse fill="none" stroke="#000000" cx="480.4844" cy="-242.5019" rx="3.2" ry="3.2"/>
</g>
<!-- proc_observations -->
<g id="node8" class="node">
<title>proc_observations</title>
<g id="a_node8"><a xlink:href="../../tables/proc_observations.html" xlink:title="proc_observations" target="_top">
<polygon fill="#ffffff" stroke="transparent" points="239.5,-102.9776 239.5,-163.9776 371.5,-163.9776 371.5,-102.9776 239.5,-102.9776"/>
<polygon fill="#f5f5f5" stroke="transparent" points="239.5,-140.4776 239.5,-163.4776 371.5,-163.4776 371.5,-140.4776 239.5,-140.4776"/>
<polygon fill="none" stroke="#000000" points="239.5,-140.4776 239.5,-163.4776 371.5,-163.4776 371.5,-140.4776 239.5,-140.4776"/>
<text text-anchor="start" x="244.0722" y="-149.5776" font-family="Helvetica,sans-Serif" font-weight="bold" font-size="11.00" fill="#000000">proc_observations</text>
<text text-anchor="start" x="337.0219" y="-148.5776" font-family="Helvetica,sans-Serif" font-size="11.00" fill="#000000">[table]</text>
<polygon fill="none" stroke="#000000" points="239.5,-121.4776 239.5,-140.4776 371.5,-140.4776 371.5,-121.4776 239.5,-121.4776"/>
<text text-anchor="start" x="242.5" y="-127.5776" font-family="Helvetica,sans-Serif" font-size="11.00" fill="#000000">...</text>
<polygon fill="#ffffff" stroke="transparent" points="239.5,-102.4776 239.5,-121.4776 290.5,-121.4776 290.5,-102.4776 239.5,-102.4776"/>
<polygon fill="none" stroke="#000000" points="239.5,-102.4776 239.5,-121.4776 290.5,-121.4776 290.5,-102.4776 239.5,-102.4776"/>
<text text-anchor="start" x="242.5" y="-108.5776" font-family="Helvetica,sans-Serif" font-size="11.00" fill="#000000">&lt; 2</text>
<polygon fill="#ffffff" stroke="transparent" points="290.5,-102.4776 290.5,-121.4776 343.5,-121.4776 343.5,-102.4776 290.5,-102.4776"/>
<polygon fill="none" stroke="#000000" points="290.5,-102.4776 290.5,-121.4776 343.5,-121.4776 343.5,-102.4776 290.5,-102.4776"/>
<text text-anchor="start" x="308.1105" y="-108.5776" font-family="Helvetica,sans-Serif" font-size="11.00" fill="#000000">0 rows</text>
<polygon fill="#ffffff" stroke="transparent" points="343.5,-102.4776 343.5,-121.4776 371.5,-121.4776 371.5,-102.4776 343.5,-102.4776"/>
<polygon fill="none" stroke="#000000" points="343.5,-102.4776 343.5,-121.4776 371.5,-121.4776 371.5,-102.4776 343.5,-102.4776"/>
<text text-anchor="start" x="362.3862" y="-108.5776" font-family="Helvetica,sans-Serif" font-size="11.00" fill="#000000"> &#160;</text>
</a>
</g>
</g>
<!-- proc_observations&#45;&gt;submission -->
<g id="edge20" class="edge">
<title>proc_observations:w&#45;&gt;submission:e</title>
<path fill="none" stroke="#000000" d="M224.8443,-130.4776C184.6923,-130.4776 169.5191,-130.4776 123,-130.4776"/>
<polygon fill="#000000" stroke="#000000" points="231.5,-130.4777 239.5,-134.0776 235.5,-130.4777 239.5,-130.4776 239.5,-130.4776 239.5,-130.4776 235.5,-130.4777 239.5,-126.8776 231.5,-130.4777 231.5,-130.4777"/>
<ellipse fill="none" stroke="#000000" cx="228.3" cy="-130.4777" rx="3.2" ry="3.2"/>
</g>
<!-- proc_observations&#45;&gt;observation_types -->
<g id="edge21" class="edge">
<title>proc_observations:w&#45;&gt;observation_types:e</title>
<path fill="none" stroke="#000000" d="M225.0195,-132.0643C203.6354,-137.3557 197.0239,-155.3769 181,-178.4776 148.8771,-224.7876 196.3604,-298.4776 140,-298.4776"/>
<polygon fill="#000000" stroke="#000000" points="231.5476,-131.349 239.8921,-134.0562 235.5238,-130.9133 239.5,-130.4776 239.5,-130.4776 239.5,-130.4776 235.5238,-130.9133 239.1079,-126.8991 231.5476,-131.349 231.5476,-131.349"/>
<ellipse fill="none" stroke="#000000" cx="228.3666" cy="-131.6976" rx="3.2" ry="3.2"/>
</g>
</g>
</svg>
