<?xml version="1.0" encoding="UTF-8" standalone="no"?>
<!DOCTYPE svg PUBLIC "-//W3C//DTD SVG 1.1//EN"
 "http://www.w3.org/Graphics/SVG/1.1/DTD/svg11.dtd">
<!-- Generated by graphviz version 2.40.1 (20161225.0304)
 -->
<!-- Title: oneDegreeRelationshipsDiagram Pages: 1 -->
<svg width="599pt" height="378pt"
 viewBox="0.00 0.00 599.00 378.43" xmlns="http://www.w3.org/2000/svg" xmlns:xlink="http://www.w3.org/1999/xlink">
<g id="graph0" class="graph" transform="scale(1 1) rotate(0) translate(4 374.4337)">
<title>oneDegreeRelationshipsDiagram</title>
<polygon fill="#ffffff" stroke="transparent" points="-4,4 -4,-374.4337 595,-374.4337 595,4 -4,4"/>
<text text-anchor="middle" x="72.4936" y="-7.3" font-family="Helvetica,sans-Serif" font-size="11.00" fill="#000000">Generated by SchemaSpy</text>
<!-- data_position -->
<g id="node1" class="node">
<title>data_position</title>
<g id="a_node1"><a xlink:href="../../tables/data_position.html" xlink:title="data_position" target="_top">
<polygon fill="#ffffff" stroke="transparent" points="188,-164.2 188,-335.2 296,-335.2 296,-164.2 188,-164.2"/>
<polygon fill="#f5f5f5" stroke="transparent" points="188,-311.7 188,-334.7 296,-334.7 296,-311.7 188,-311.7"/>
<polygon fill="none" stroke="#000000" points="188,-311.7 188,-334.7 296,-334.7 296,-311.7 188,-311.7"/>
<text text-anchor="start" x="192.7926" y="-320.8" font-family="Helvetica,sans-Serif" font-weight="bold" font-size="11.00" fill="#000000">data_position</text>
<text text-anchor="start" x="261.5219" y="-319.8" font-family="Helvetica,sans-Serif" font-size="11.00" fill="#000000">[table]</text>
<polygon fill="none" stroke="#000000" points="188,-289.7 188,-311.7 296,-311.7 296,-289.7 188,-289.7"/>
<image xlink:href="../../images/primaryKeys.png" width="11px" height="12px" preserveAspectRatio="xMinYMin meet" x="193" y="-306.7"/>
<text text-anchor="start" x="210" y="-296.8" font-family="Helvetica,sans-Serif" font-size="11.00" fill="#000000">date_time</text>
<polygon fill="#ffffff" stroke="transparent" points="188,-267.7 188,-289.7 296,-289.7 296,-267.7 188,-267.7"/>
<polygon fill="none" stroke="#000000" points="188,-267.7 188,-289.7 296,-289.7 296,-267.7 188,-267.7"/>
<text text-anchor="start" x="210" y="-274.8" font-family="Helvetica,sans-Serif" font-size="11.00" fill="#000000">lat</text>
<polygon fill="#ffffff" stroke="transparent" points="188,-245.7 188,-267.7 296,-267.7 296,-245.7 188,-245.7"/>
<polygon fill="none" stroke="#000000" points="188,-245.7 188,-267.7 296,-267.7 296,-245.7 188,-245.7"/>
<text text-anchor="start" x="210" y="-252.8" font-family="Helvetica,sans-Serif" font-size="11.00" fill="#000000">lon</text>
<polygon fill="none" stroke="#000000" points="188,-223.7 188,-245.7 296,-245.7 296,-223.7 188,-223.7"/>
<image xlink:href="../../images/primaryKeys.png" width="11px" height="12px" preserveAspectRatio="xMinYMin meet" x="193" y="-240.7"/>
<text text-anchor="start" x="210" y="-230.8" font-family="Helvetica,sans-Serif" font-size="11.00" fill="#000000">submission_id</text>
<polygon fill="none" stroke="#000000" points="188,-201.7 188,-223.7 296,-223.7 296,-201.7 188,-201.7"/>
<image xlink:href="../../images/primaryKeys.png" width="11px" height="12px" preserveAspectRatio="xMinYMin meet" x="193" y="-218.7"/>
<text text-anchor="start" x="210" y="-208.8" font-family="Helvetica,sans-Serif" font-size="11.00" fill="#000000">tag_id</text>
<polygon fill="none" stroke="#000000" points="188,-182.7 188,-201.7 296,-201.7 296,-182.7 188,-182.7"/>
<text text-anchor="start" x="191" y="-188.8" font-family="Helvetica,sans-Serif" font-size="11.00" fill="#000000">...</text>
<polygon fill="#ffffff" stroke="transparent" points="188,-163.7 188,-182.7 223,-182.7 223,-163.7 188,-163.7"/>
<polygon fill="none" stroke="#000000" points="188,-163.7 188,-182.7 223,-182.7 223,-163.7 188,-163.7"/>
<text text-anchor="start" x="191" y="-169.8" font-family="Helvetica,sans-Serif" font-size="11.00" fill="#000000">&lt; 1</text>
<polygon fill="#ffffff" stroke="transparent" points="223,-163.7 223,-182.7 268,-182.7 268,-163.7 223,-163.7"/>
<polygon fill="none" stroke="#000000" points="223,-163.7 223,-182.7 268,-182.7 268,-163.7 223,-163.7"/>
<text text-anchor="start" x="232.6105" y="-169.8" font-family="Helvetica,sans-Serif" font-size="11.00" fill="#000000">0 rows</text>
<polygon fill="#ffffff" stroke="transparent" points="268,-163.7 268,-182.7 296,-182.7 296,-163.7 268,-163.7"/>
<polygon fill="none" stroke="#000000" points="268,-163.7 268,-182.7 296,-182.7 296,-163.7 268,-163.7"/>
<text text-anchor="start" x="277.4053" y="-169.8" font-family="Helvetica,sans-Serif" font-size="11.00" fill="#000000">9 &gt;</text>
</a>
</g>
</g>
<!-- submission -->
<g id="node2" class="node">
<title>submission</title>
<g id="a_node2"><a xlink:href="../../tables/submission.html" xlink:title="submission" target="_top">
<polygon fill="#ffffff" stroke="transparent" points="8,-248.2 8,-331.2 127,-331.2 127,-248.2 8,-248.2"/>
<polygon fill="#f5f5f5" stroke="transparent" points="8.5,-307.7 8.5,-330.7 127.5,-330.7 127.5,-307.7 8.5,-307.7"/>
<polygon fill="none" stroke="#000000" points="8.5,-307.7 8.5,-330.7 127.5,-330.7 127.5,-307.7 8.5,-307.7"/>
<text text-anchor="start" x="13.5" y="-316.8" font-family="Helvetica,sans-Serif" font-weight="bold" font-size="11.00" fill="#000000">submission</text>
<text text-anchor="start" x="92.5437" y="-315.8" font-family="Helvetica,sans-Serif" font-size="11.00" fill="#000000">[table]</text>
<polygon fill="none" stroke="#000000" points="8.5,-285.7 8.5,-307.7 127.5,-307.7 127.5,-285.7 8.5,-285.7"/>
<image xlink:href="../../images/primaryKeys.png" width="11px" height="12px" preserveAspectRatio="xMinYMin meet" x="13.5" y="-302.7"/>
<text text-anchor="start" x="28.5" y="-292.8" font-family="Helvetica,sans-Serif" font-size="11.00" fill="#000000">submission_id</text>
<polygon fill="none" stroke="#000000" points="8.5,-266.7 8.5,-285.7 127.5,-285.7 127.5,-266.7 8.5,-266.7"/>
<text text-anchor="start" x="11.5" y="-272.8" font-family="Helvetica,sans-Serif" font-size="11.00" fill="#000000">...</text>
<polygon fill="#ffffff" stroke="transparent" points="8.5,-247.7 8.5,-266.7 44.5,-266.7 44.5,-247.7 8.5,-247.7"/>
<polygon fill="none" stroke="#000000" points="8.5,-247.7 8.5,-266.7 44.5,-266.7 44.5,-247.7 8.5,-247.7"/>
<text text-anchor="start" x="11.5" y="-253.8" font-family="Helvetica,sans-Serif" font-size="11.00" fill="#000000"> &#160;</text>
<polygon fill="#ffffff" stroke="transparent" points="44.5,-247.7 44.5,-266.7 94.5,-266.7 94.5,-247.7 44.5,-247.7"/>
<polygon fill="none" stroke="#000000" points="44.5,-247.7 44.5,-266.7 94.5,-266.7 94.5,-247.7 44.5,-247.7"/>
<text text-anchor="start" x="59.1105" y="-253.8" font-family="Helvetica,sans-Serif" font-size="11.00" fill="#000000">0 rows</text>
<polygon fill="#ffffff" stroke="transparent" points="94.5,-247.7 94.5,-266.7 127.5,-266.7 127.5,-247.7 94.5,-247.7"/>
<polygon fill="none" stroke="#000000" points="94.5,-247.7 94.5,-266.7 127.5,-266.7 127.5,-247.7 94.5,-247.7"/>
<text text-anchor="start" x="108.9053" y="-253.8" font-family="Helvetica,sans-Serif" font-size="11.00" fill="#000000">6 &gt;</text>
</a>
</g>
</g>
<!-- data_position&#45;&gt;submission -->
<g id="edge1" class="edge">
<title>data_position:w&#45;&gt;submission:e</title>
<path fill="none" stroke="#000000" d="M173.8445,-238.5784C153.2504,-252.1517 160.1355,-296.7 127.5,-296.7"/>
<polygon fill="#000000" stroke="#000000" points="180.2844,-236.814 188.9513,-238.172 184.1422,-235.757 188,-234.7 188,-234.7 188,-234.7 184.1422,-235.757 187.0487,-231.228 180.2844,-236.814 180.2844,-236.814"/>
<ellipse fill="none" stroke="#000000" cx="177.1981" cy="-237.6596" rx="3.2" ry="3.2"/>
</g>
<!-- data_profile -->
<g id="node3" class="node">
<title>data_profile</title>
<g id="a_node3"><a xlink:href="../../tables/data_profile.html" xlink:title="data_profile" target="_top">
<polygon fill="#ffffff" stroke="transparent" points="357,-70.7 357,-270.7 583,-270.7 583,-70.7 357,-70.7"/>
<polygon fill="#f5f5f5" stroke="transparent" points="359,-245.7 359,-268.7 581,-268.7 581,-245.7 359,-245.7"/>
<polygon fill="none" stroke="#000000" points="359,-245.7 359,-268.7 581,-268.7 581,-245.7 359,-245.7"/>
<text text-anchor="start" x="364" y="-254.8" font-family="Helvetica,sans-Serif" font-weight="bold" font-size="11.00" fill="#000000">data_profile</text>
<text text-anchor="start" x="546.0437" y="-253.8" font-family="Helvetica,sans-Serif" font-size="11.00" fill="#000000">[table]</text>
<polygon fill="none" stroke="#000000" points="359,-223.7 359,-245.7 489,-245.7 489,-223.7 359,-223.7"/>
<image xlink:href="../../images/primaryKeys.png" width="11px" height="12px" preserveAspectRatio="xMinYMin meet" x="364" y="-240.7"/>
<text text-anchor="start" x="379" y="-230.8" font-family="Helvetica,sans-Serif" font-size="11.00" fill="#000000">submission_id</text>
<polygon fill="none" stroke="#000000" points="489,-223.7 489,-245.7 581,-245.7 581,-223.7 489,-223.7"/>
<text text-anchor="start" x="492" y="-231.4" font-family="Helvetica,sans-Serif" font-size="11.00" fill="#000000">int8[19]</text>
<polygon fill="none" stroke="#000000" points="359,-201.7 359,-223.7 489,-223.7 489,-201.7 359,-201.7"/>
<image xlink:href="../../images/primaryKeys.png" width="11px" height="12px" preserveAspectRatio="xMinYMin meet" x="364" y="-218.7"/>
<text text-anchor="start" x="379" y="-208.8" font-family="Helvetica,sans-Serif" font-size="11.00" fill="#000000">tag_id</text>
<polygon fill="none" stroke="#000000" points="489,-201.7 489,-223.7 581,-223.7 581,-201.7 489,-201.7"/>
<text text-anchor="start" x="492" y="-209.4" font-family="Helvetica,sans-Serif" font-size="11.00" fill="#000000">int8[19]</text>
<polygon fill="none" stroke="#000000" points="359,-179.7 359,-201.7 489,-201.7 489,-179.7 359,-179.7"/>
<image xlink:href="../../images/primaryKeys.png" width="11px" height="12px" preserveAspectRatio="xMinYMin meet" x="364" y="-196.7"/>
<text text-anchor="start" x="379" y="-186.8" font-family="Helvetica,sans-Serif" font-size="11.00" fill="#000000">variable_id</text>
<polygon fill="none" stroke="#000000" points="489,-179.7 489,-201.7 581,-201.7 581,-179.7 489,-179.7"/>
<text text-anchor="start" x="492" y="-187.4" font-family="Helvetica,sans-Serif" font-size="11.00" fill="#000000">int8[19]</text>
<polygon fill="none" stroke="#000000" points="359,-157.7 359,-179.7 489,-179.7 489,-157.7 359,-157.7"/>
<image xlink:href="../../images/primaryKeys.png" width="11px" height="12px" preserveAspectRatio="xMinYMin meet" x="364" y="-174.7"/>
<text text-anchor="start" x="379" y="-164.8" font-family="Helvetica,sans-Serif" font-size="11.00" fill="#000000">date_time</text>
<polygon fill="none" stroke="#000000" points="489,-157.7 489,-179.7 581,-179.7 581,-157.7 489,-157.7"/>
<text text-anchor="start" x="491.6023" y="-165.4" font-family="Helvetica,sans-Serif" font-size="11.00" fill="#000000">timestamptz[35,6]</text>
<polygon fill="none" stroke="#000000" points="359,-135.7 359,-157.7 489,-157.7 489,-135.7 359,-135.7"/>
<image xlink:href="../../images/primaryKeys.png" width="11px" height="12px" preserveAspectRatio="xMinYMin meet" x="364" y="-152.7"/>
<text text-anchor="start" x="379" y="-142.8" font-family="Helvetica,sans-Serif" font-size="11.00" fill="#000000">depth</text>
<polygon fill="none" stroke="#000000" points="489,-135.7 489,-157.7 581,-157.7 581,-135.7 489,-135.7"/>
<text text-anchor="start" x="492" y="-143.4" font-family="Helvetica,sans-Serif" font-size="11.00" fill="#000000">float8[17,17]</text>
<polygon fill="none" stroke="#000000" points="359,-113.7 359,-135.7 489,-135.7 489,-113.7 359,-113.7"/>
<text text-anchor="start" x="379" y="-120.8" font-family="Helvetica,sans-Serif" font-size="11.00" fill="#000000">variable_value</text>
<polygon fill="none" stroke="#000000" points="489,-113.7 489,-135.7 581,-135.7 581,-113.7 489,-113.7"/>
<text text-anchor="start" x="492" y="-121.4" font-family="Helvetica,sans-Serif" font-size="11.00" fill="#000000">float8[17,17]</text>
<polygon fill="#ffffff" stroke="transparent" points="359,-91.7 359,-113.7 489,-113.7 489,-91.7 359,-91.7"/>
<polygon fill="none" stroke="#000000" points="359,-91.7 359,-113.7 489,-113.7 489,-91.7 359,-91.7"/>
<image xlink:href="../../images/foreignKeys.png" width="11px" height="12px" preserveAspectRatio="xMinYMin meet" x="364" y="-108.7"/>
<text text-anchor="start" x="379" y="-98.8" font-family="Helvetica,sans-Serif" font-size="11.00" fill="#000000">position_date_time</text>
<polygon fill="none" stroke="#000000" points="489,-91.7 489,-113.7 581,-113.7 581,-91.7 489,-91.7"/>
<text text-anchor="start" x="491.6023" y="-99.4" font-family="Helvetica,sans-Serif" font-size="11.00" fill="#000000">timestamptz[35,6]</text>
<polygon fill="#ffffff" stroke="transparent" points="359,-72.7 359,-91.7 415,-91.7 415,-72.7 359,-72.7"/>
<polygon fill="none" stroke="#000000" points="359,-72.7 359,-91.7 415,-91.7 415,-72.7 359,-72.7"/>
<text text-anchor="start" x="362" y="-78.8" font-family="Helvetica,sans-Serif" font-size="11.00" fill="#000000">&lt; 5</text>
<polygon fill="#ffffff" stroke="transparent" points="415,-72.7 415,-91.7 489,-91.7 489,-72.7 415,-72.7"/>
<polygon fill="none" stroke="#000000" points="415,-72.7 415,-91.7 489,-91.7 489,-72.7 415,-72.7"/>
<text text-anchor="start" x="453.6105" y="-78.8" font-family="Helvetica,sans-Serif" font-size="11.00" fill="#000000">0 rows</text>
<polygon fill="#ffffff" stroke="transparent" points="489,-72.7 489,-91.7 581,-91.7 581,-72.7 489,-72.7"/>
<polygon fill="none" stroke="#000000" points="489,-72.7 489,-91.7 581,-91.7 581,-72.7 489,-72.7"/>
<text text-anchor="start" x="562.4053" y="-78.8" font-family="Helvetica,sans-Serif" font-size="11.00" fill="#000000">0 &gt;</text>
<polygon fill="none" stroke="#000000" stroke-width="2" points="358,-71.7 358,-269.7 582,-269.7 582,-71.7 358,-71.7"/>
</a>
</g>
</g>
<!-- data_profile&#45;&gt;data_position -->
<g id="edge2" class="edge">
<title>data_profile:w&#45;&gt;data_position:e</title>
<path fill="none" stroke="#000000" d="M344.485,-104.7897C280.6046,-125.9507 382.7558,-300.7 296,-300.7"/>
<polygon fill="#000000" stroke="#000000" points="351.0816,-103.84 359.513,-106.2633 355.0408,-103.27 359,-102.7 359,-102.7 359,-102.7 355.0408,-103.27 358.487,-99.1367 351.0816,-103.84 351.0816,-103.84"/>
<ellipse fill="none" stroke="#000000" cx="347.9143" cy="-104.296" rx="3.2" ry="3.2"/>
</g>
<!-- data_profile&#45;&gt;data_position -->
<g id="edge3" class="edge">
<title>data_profile:w&#45;&gt;data_position:e</title>
<path fill="none" stroke="#000000" d="M344.1849,-234.7C327.2898,-234.7 318.3125,-234.7 296,-234.7"/>
<polygon fill="#000000" stroke="#000000" points="351,-234.7001 359,-238.3 355,-234.7 359,-234.7 359,-234.7 359,-234.7 355,-234.7 359,-231.1 351,-234.7001 351,-234.7001"/>
<ellipse fill="none" stroke="#000000" cx="347.8" cy="-234.7001" rx="3.2" ry="3.2"/>
</g>
<!-- data_profile&#45;&gt;data_position -->
<g id="edge5" class="edge">
<title>data_profile:w&#45;&gt;data_position:e</title>
<path fill="none" stroke="#000000" d="M344.1849,-212.7C327.2898,-212.7 318.3125,-212.7 296,-212.7"/>
<polygon fill="#000000" stroke="#000000" points="351,-212.7001 359,-216.3 355,-212.7 359,-212.7 359,-212.7 359,-212.7 355,-212.7 359,-209.1 351,-212.7001 351,-212.7001"/>
<ellipse fill="none" stroke="#000000" cx="347.8" cy="-212.7001" rx="3.2" ry="3.2"/>
</g>
<!-- data_profile&#45;&gt;submission -->
<g id="edge4" class="edge">
<title>data_profile:w&#45;&gt;submission:e</title>
<path fill="none" stroke="#000000" d="M344.8227,-237.6299C316.98,-252.4173 354.7025,-319.1878 316,-345.7 261.7337,-382.8738 227.5113,-373.7199 168,-345.7 142.4379,-333.6645 155.7537,-296.7 127.5,-296.7"/>
<polygon fill="#000000" stroke="#000000" points="351.1655,-236.3191 359.7286,-238.2255 355.0828,-235.5096 359,-234.7 359,-234.7 359,-234.7 355.0828,-235.5096 358.2714,-231.1745 351.1655,-236.3191 351.1655,-236.3191"/>
<ellipse fill="none" stroke="#000000" cx="348.0318" cy="-236.9668" rx="3.2" ry="3.2"/>
</g>
<!-- observation_types -->
<g id="node4" class="node">
<title>observation_types</title>
<g id="a_node4"><a xlink:href="../../tables/observation_types.html" xlink:title="observation_types" target="_top">
<polygon fill="#ffffff" stroke="transparent" points="176,-38.2 176,-143.2 308,-143.2 308,-38.2 176,-38.2"/>
<polygon fill="#f5f5f5" stroke="transparent" points="176,-119.7 176,-142.7 308,-142.7 308,-119.7 176,-119.7"/>
<polygon fill="none" stroke="#000000" points="176,-119.7 176,-142.7 308,-142.7 308,-119.7 176,-119.7"/>
<text text-anchor="start" x="180.8746" y="-128.8" font-family="Helvetica,sans-Serif" font-weight="bold" font-size="11.00" fill="#000000">observation_types</text>
<text text-anchor="start" x="273.5219" y="-127.8" font-family="Helvetica,sans-Serif" font-size="11.00" fill="#000000">[table]</text>
<polygon fill="none" stroke="#000000" points="176,-97.7 176,-119.7 308,-119.7 308,-97.7 176,-97.7"/>
<image xlink:href="../../images/primaryKeys.png" width="11px" height="12px" preserveAspectRatio="xMinYMin meet" x="181" y="-114.7"/>
<text text-anchor="start" x="199" y="-104.8" font-family="Helvetica,sans-Serif" font-size="11.00" fill="#000000">variable_id</text>
<polygon fill="#ffffff" stroke="transparent" points="176,-75.7 176,-97.7 308,-97.7 308,-75.7 176,-75.7"/>
<polygon fill="none" stroke="#000000" points="176,-75.7 176,-97.7 308,-97.7 308,-75.7 176,-75.7"/>
<text text-anchor="start" x="199" y="-82.8" font-family="Helvetica,sans-Serif" font-size="11.00" fill="#000000">variable_name</text>
<polygon fill="none" stroke="#000000" points="176,-56.7 176,-75.7 308,-75.7 308,-56.7 176,-56.7"/>
<text text-anchor="start" x="179" y="-62.8" font-family="Helvetica,sans-Serif" font-size="11.00" fill="#000000">...</text>
<polygon fill="#ffffff" stroke="transparent" points="176,-37.7 176,-56.7 212,-56.7 212,-37.7 176,-37.7"/>
<polygon fill="none" stroke="#000000" points="176,-37.7 176,-56.7 212,-56.7 212,-37.7 176,-37.7"/>
<text text-anchor="start" x="179" y="-43.8" font-family="Helvetica,sans-Serif" font-size="11.00" fill="#000000"> &#160;</text>
<polygon fill="#ffffff" stroke="transparent" points="212,-37.7 212,-56.7 274,-56.7 274,-37.7 212,-37.7"/>
<polygon fill="none" stroke="#000000" points="212,-37.7 212,-56.7 274,-56.7 274,-37.7 212,-37.7"/>
<text text-anchor="start" x="226.3807" y="-43.8" font-family="Helvetica,sans-Serif" font-size="11.00" fill="#000000">204 rows</text>
<polygon fill="#ffffff" stroke="transparent" points="274,-37.7 274,-56.7 308,-56.7 308,-37.7 274,-37.7"/>
<polygon fill="none" stroke="#000000" points="274,-37.7 274,-56.7 308,-56.7 308,-37.7 274,-37.7"/>
<text text-anchor="start" x="289.4053" y="-43.8" font-family="Helvetica,sans-Serif" font-size="11.00" fill="#000000">5 &gt;</text>
</a>
</g>
</g>
<!-- data_profile&#45;&gt;observation_types -->
<g id="edge6" class="edge">
<title>data_profile:w&#45;&gt;observation_types:e</title>
<path fill="none" stroke="#000000" d="M345.0743,-186.2913C324.3419,-169.2591 344.8829,-108.7 308,-108.7"/>
<polygon fill="#000000" stroke="#000000" points="351.3731,-188.2854 357.9134,-194.1321 355.1865,-189.4927 359,-190.7 359,-190.7 359,-190.7 355.1865,-189.4927 360.0866,-187.2679 351.3731,-188.2854 351.3731,-188.2854"/>
<ellipse fill="none" stroke="#000000" cx="348.3223" cy="-187.3195" rx="3.2" ry="3.2"/>
</g>
</g>
</svg>
