<?xml version="1.0" encoding="UTF-8" standalone="no"?>
<!DOCTYPE svg PUBLIC "-//W3C//DTD SVG 1.1//EN"
 "http://www.w3.org/Graphics/SVG/1.1/DTD/svg11.dtd">
<!-- Generated by graphviz version 2.40.1 (20161225.0304)
 -->
<!-- Title: twoDegreesRelationshipsDiagram Pages: 1 -->
<svg width="384pt" height="355pt"
 viewBox="0.00 0.00 384.00 354.70" xmlns="http://www.w3.org/2000/svg" xmlns:xlink="http://www.w3.org/1999/xlink">
<g id="graph0" class="graph" transform="scale(1 1) rotate(0) translate(4 350.7)">
<title>twoDegreesRelationshipsDiagram</title>
<polygon fill="#ffffff" stroke="transparent" points="-4,4 -4,-350.7 380,-350.7 380,4 -4,4"/>
<text text-anchor="middle" x="72.4936" y="-7.3" font-family="Helvetica,sans-Serif" font-size="11.00" fill="#000000">Generated by SchemaSpy</text>
<!-- metadata -->
<g id="node1" class="node">
<title>metadata</title>
<g id="a_node1"><a xlink:href="../../tables/metadata.html" xlink:title="metadata" target="_top">
<polygon fill="#ffffff" stroke="transparent" points="262,-206.7 262,-311.7 368,-311.7 368,-206.7 262,-206.7"/>
<polygon fill="#f5f5f5" stroke="transparent" points="262,-288.2 262,-311.2 368,-311.2 368,-288.2 262,-288.2"/>
<polygon fill="none" stroke="#000000" points="262,-288.2 262,-311.2 368,-311.2 368,-288.2 262,-288.2"/>
<text text-anchor="start" x="267" y="-297.3" font-family="Helvetica,sans-Serif" font-weight="bold" font-size="11.00" fill="#000000">metadata</text>
<text text-anchor="start" x="333.0437" y="-296.3" font-family="Helvetica,sans-Serif" font-size="11.00" fill="#000000">[table]</text>
<polygon fill="none" stroke="#000000" points="262,-266.2 262,-288.2 368,-288.2 368,-266.2 262,-266.2"/>
<image xlink:href="../../images/primaryKeys.png" width="11px" height="12px" preserveAspectRatio="xMinYMin meet" x="267" y="-283.2"/>
<text text-anchor="start" x="282" y="-273.3" font-family="Helvetica,sans-Serif" font-size="11.00" fill="#000000">submission_id</text>
<polygon fill="none" stroke="#000000" points="262,-244.2 262,-266.2 368,-266.2 368,-244.2 262,-244.2"/>
<image xlink:href="../../images/primaryKeys.png" width="11px" height="12px" preserveAspectRatio="xMinYMin meet" x="267" y="-261.2"/>
<text text-anchor="start" x="282" y="-251.3" font-family="Helvetica,sans-Serif" font-size="11.00" fill="#000000">attribute_id</text>
<polygon fill="none" stroke="#000000" points="262,-225.2 262,-244.2 368,-244.2 368,-225.2 262,-225.2"/>
<text text-anchor="start" x="265" y="-231.3" font-family="Helvetica,sans-Serif" font-size="11.00" fill="#000000">...</text>
<polygon fill="#ffffff" stroke="transparent" points="262,-206.2 262,-225.2 300,-225.2 300,-206.2 262,-206.2"/>
<polygon fill="none" stroke="#000000" points="262,-206.2 262,-225.2 300,-225.2 300,-206.2 262,-206.2"/>
<text text-anchor="start" x="265" y="-212.3" font-family="Helvetica,sans-Serif" font-size="11.00" fill="#000000">&lt; 2</text>
<polygon fill="#ffffff" stroke="transparent" points="300,-206.2 300,-225.2 347,-225.2 347,-206.2 300,-206.2"/>
<polygon fill="none" stroke="#000000" points="300,-206.2 300,-225.2 347,-225.2 347,-206.2 300,-206.2"/>
<text text-anchor="start" x="311.6105" y="-212.3" font-family="Helvetica,sans-Serif" font-size="11.00" fill="#000000">0 rows</text>
<polygon fill="#ffffff" stroke="transparent" points="347,-206.2 347,-225.2 368,-225.2 368,-206.2 347,-206.2"/>
<polygon fill="none" stroke="#000000" points="347,-206.2 347,-225.2 368,-225.2 368,-206.2 347,-206.2"/>
<text text-anchor="start" x="358.8862" y="-212.3" font-family="Helvetica,sans-Serif" font-size="11.00" fill="#000000"> &#160;</text>
</a>
</g>
</g>
<!-- metadata_types -->
<g id="node2" class="node">
<title>metadata_types</title>
<g id="a_node2"><a xlink:href="../../tables/metadata_types.html" xlink:title="metadata_types" target="_top">
<polygon fill="#ffffff" stroke="transparent" points="8,-38.2 8,-260.2 213,-260.2 213,-38.2 8,-38.2"/>
<polygon fill="#f5f5f5" stroke="transparent" points="10.5,-235.2 10.5,-258.2 211.5,-258.2 211.5,-235.2 10.5,-235.2"/>
<polygon fill="none" stroke="#000000" points="10.5,-235.2 10.5,-258.2 211.5,-258.2 211.5,-235.2 10.5,-235.2"/>
<text text-anchor="start" x="15.5" y="-244.3" font-family="Helvetica,sans-Serif" font-weight="bold" font-size="11.00" fill="#000000">metadata_types</text>
<text text-anchor="start" x="176.5437" y="-243.3" font-family="Helvetica,sans-Serif" font-size="11.00" fill="#000000">[table]</text>
<polygon fill="none" stroke="#000000" points="10.5,-213.2 10.5,-235.2 121.5,-235.2 121.5,-213.2 10.5,-213.2"/>
<image xlink:href="../../images/primaryKeys.png" width="11px" height="12px" preserveAspectRatio="xMinYMin meet" x="15.5" y="-230.2"/>
<text text-anchor="start" x="30.5" y="-220.3" font-family="Helvetica,sans-Serif" font-size="11.00" fill="#000000">attribute_id</text>
<polygon fill="none" stroke="#000000" points="121.5,-213.2 121.5,-235.2 211.5,-235.2 211.5,-213.2 121.5,-213.2"/>
<text text-anchor="start" x="124.5" y="-220.9" font-family="Helvetica,sans-Serif" font-size="11.00" fill="#000000">int8[19]</text>
<polygon fill="none" stroke="#000000" points="10.5,-191.2 10.5,-213.2 121.5,-213.2 121.5,-191.2 10.5,-191.2"/>
<text text-anchor="start" x="30.5" y="-198.3" font-family="Helvetica,sans-Serif" font-size="11.00" fill="#000000">category</text>
<polygon fill="none" stroke="#000000" points="121.5,-191.2 121.5,-213.2 211.5,-213.2 211.5,-191.2 121.5,-191.2"/>
<text text-anchor="start" x="124.5" y="-198.9" font-family="Helvetica,sans-Serif" font-size="11.00" fill="#000000">varchar[1024]</text>
<polygon fill="none" stroke="#000000" points="10.5,-169.2 10.5,-191.2 121.5,-191.2 121.5,-169.2 10.5,-169.2"/>
<text text-anchor="start" x="30.5" y="-176.3" font-family="Helvetica,sans-Serif" font-size="11.00" fill="#000000">attribute_name</text>
<polygon fill="none" stroke="#000000" points="121.5,-169.2 121.5,-191.2 211.5,-191.2 211.5,-169.2 121.5,-169.2"/>
<text text-anchor="start" x="124.5" y="-176.9" font-family="Helvetica,sans-Serif" font-size="11.00" fill="#000000">varchar[1024]</text>
<polygon fill="none" stroke="#000000" points="10.5,-147.2 10.5,-169.2 121.5,-169.2 121.5,-147.2 10.5,-147.2"/>
<text text-anchor="start" x="30.5" y="-154.3" font-family="Helvetica,sans-Serif" font-size="11.00" fill="#000000">type</text>
<polygon fill="none" stroke="#000000" points="121.5,-147.2 121.5,-169.2 211.5,-169.2 211.5,-147.2 121.5,-147.2"/>
<text text-anchor="start" x="124.5" y="-154.9" font-family="Helvetica,sans-Serif" font-size="11.00" fill="#000000">varchar[1024]</text>
<polygon fill="none" stroke="#000000" points="10.5,-125.2 10.5,-147.2 121.5,-147.2 121.5,-125.2 10.5,-125.2"/>
<text text-anchor="start" x="30.5" y="-132.3" font-family="Helvetica,sans-Serif" font-size="11.00" fill="#000000">description</text>
<polygon fill="none" stroke="#000000" points="121.5,-125.2 121.5,-147.2 211.5,-147.2 211.5,-125.2 121.5,-125.2"/>
<text text-anchor="start" x="124.0042" y="-132.9" font-family="Helvetica,sans-Serif" font-size="11.00" fill="#000000">text[2147483647]</text>
<polygon fill="none" stroke="#000000" points="10.5,-103.2 10.5,-125.2 121.5,-125.2 121.5,-103.2 10.5,-103.2"/>
<text text-anchor="start" x="30.5" y="-110.3" font-family="Helvetica,sans-Serif" font-size="11.00" fill="#000000">example</text>
<polygon fill="none" stroke="#000000" points="121.5,-103.2 121.5,-125.2 211.5,-125.2 211.5,-103.2 121.5,-103.2"/>
<text text-anchor="start" x="124.0042" y="-110.9" font-family="Helvetica,sans-Serif" font-size="11.00" fill="#000000">text[2147483647]</text>
<polygon fill="none" stroke="#000000" points="10.5,-81.2 10.5,-103.2 121.5,-103.2 121.5,-81.2 10.5,-81.2"/>
<text text-anchor="start" x="30.5" y="-88.3" font-family="Helvetica,sans-Serif" font-size="11.00" fill="#000000">comments</text>
<polygon fill="none" stroke="#000000" points="121.5,-81.2 121.5,-103.2 211.5,-103.2 211.5,-81.2 121.5,-81.2"/>
<text text-anchor="start" x="124.0042" y="-88.9" font-family="Helvetica,sans-Serif" font-size="11.00" fill="#000000">text[2147483647]</text>
<polygon fill="none" stroke="#000000" points="10.5,-59.2 10.5,-81.2 121.5,-81.2 121.5,-59.2 10.5,-59.2"/>
<text text-anchor="start" x="30.5" y="-66.3" font-family="Helvetica,sans-Serif" font-size="11.00" fill="#000000">necessity</text>
<polygon fill="none" stroke="#000000" points="121.5,-59.2 121.5,-81.2 211.5,-81.2 211.5,-59.2 121.5,-59.2"/>
<text text-anchor="start" x="124.5" y="-66.9" font-family="Helvetica,sans-Serif" font-size="11.00" fill="#000000">varchar[1024]</text>
<polygon fill="#ffffff" stroke="transparent" points="10.5,-40.2 10.5,-59.2 51.5,-59.2 51.5,-40.2 10.5,-40.2"/>
<polygon fill="none" stroke="#000000" points="10.5,-40.2 10.5,-59.2 51.5,-59.2 51.5,-40.2 10.5,-40.2"/>
<text text-anchor="start" x="13.5" y="-46.3" font-family="Helvetica,sans-Serif" font-size="11.00" fill="#000000">&lt; 0</text>
<polygon fill="#ffffff" stroke="transparent" points="51.5,-40.2 51.5,-59.2 121.5,-59.2 121.5,-40.2 51.5,-40.2"/>
<polygon fill="none" stroke="#000000" points="51.5,-40.2 51.5,-59.2 121.5,-59.2 121.5,-40.2 51.5,-40.2"/>
<text text-anchor="start" x="73.8807" y="-46.3" font-family="Helvetica,sans-Serif" font-size="11.00" fill="#000000">142 rows</text>
<polygon fill="#ffffff" stroke="transparent" points="121.5,-40.2 121.5,-59.2 211.5,-59.2 211.5,-40.2 121.5,-40.2"/>
<polygon fill="none" stroke="#000000" points="121.5,-40.2 121.5,-59.2 211.5,-59.2 211.5,-40.2 121.5,-40.2"/>
<text text-anchor="start" x="192.9053" y="-46.3" font-family="Helvetica,sans-Serif" font-size="11.00" fill="#000000">1 &gt;</text>
<polygon fill="none" stroke="#000000" stroke-width="2" points="9,-39.2 9,-259.2 212,-259.2 212,-39.2 9,-39.2"/>
</a>
</g>
</g>
<!-- metadata&#45;&gt;metadata_types -->
<g id="edge1" class="edge">
<title>metadata:w&#45;&gt;metadata_types:e</title>
<path fill="none" stroke="#000000" d="M247.8267,-251.1473C235.1849,-242.7444 231.8692,-224.2 211.5,-224.2"/>
<polygon fill="#000000" stroke="#000000" points="254.3083,-253.0006 261.0103,-258.6613 258.1541,-254.1003 262,-255.2 262,-255.2 262,-255.2 258.1541,-254.1003 262.9897,-251.7387 254.3083,-253.0006 254.3083,-253.0006"/>
<ellipse fill="none" stroke="#000000" cx="251.2316" cy="-252.1208" rx="3.2" ry="3.2"/>
</g>
<!-- submission -->
<g id="node3" class="node">
<title>submission</title>
<g id="a_node3"><a xlink:href="../../tables/submission.html" xlink:title="submission" target="_top">
<polygon fill="#ffffff" stroke="transparent" points="61.5,-281.7 61.5,-342.7 159.5,-342.7 159.5,-281.7 61.5,-281.7"/>
<polygon fill="#f5f5f5" stroke="transparent" points="61.5,-319.2 61.5,-342.2 159.5,-342.2 159.5,-319.2 61.5,-319.2"/>
<polygon fill="none" stroke="#000000" points="61.5,-319.2 61.5,-342.2 159.5,-342.2 159.5,-319.2 61.5,-319.2"/>
<text text-anchor="start" x="66.4984" y="-328.3" font-family="Helvetica,sans-Serif" font-weight="bold" font-size="11.00" fill="#000000">submission</text>
<text text-anchor="start" x="125.0219" y="-327.3" font-family="Helvetica,sans-Serif" font-size="11.00" fill="#000000">[table]</text>
<polygon fill="none" stroke="#000000" points="61.5,-300.2 61.5,-319.2 159.5,-319.2 159.5,-300.2 61.5,-300.2"/>
<text text-anchor="start" x="64.5" y="-306.3" font-family="Helvetica,sans-Serif" font-size="11.00" fill="#000000">...</text>
<polygon fill="#ffffff" stroke="transparent" points="61.5,-281.2 61.5,-300.2 86.5,-300.2 86.5,-281.2 61.5,-281.2"/>
<polygon fill="none" stroke="#000000" points="61.5,-281.2 61.5,-300.2 86.5,-300.2 86.5,-281.2 61.5,-281.2"/>
<text text-anchor="start" x="64.5" y="-287.3" font-family="Helvetica,sans-Serif" font-size="11.00" fill="#000000"> &#160;</text>
<polygon fill="#ffffff" stroke="transparent" points="86.5,-281.2 86.5,-300.2 131.5,-300.2 131.5,-281.2 86.5,-281.2"/>
<polygon fill="none" stroke="#000000" points="86.5,-281.2 86.5,-300.2 131.5,-300.2 131.5,-281.2 86.5,-281.2"/>
<text text-anchor="start" x="96.1105" y="-287.3" font-family="Helvetica,sans-Serif" font-size="11.00" fill="#000000">0 rows</text>
<polygon fill="#ffffff" stroke="transparent" points="131.5,-281.2 131.5,-300.2 159.5,-300.2 159.5,-281.2 131.5,-281.2"/>
<polygon fill="none" stroke="#000000" points="131.5,-281.2 131.5,-300.2 159.5,-300.2 159.5,-281.2 131.5,-281.2"/>
<text text-anchor="start" x="140.9053" y="-287.3" font-family="Helvetica,sans-Serif" font-size="11.00" fill="#000000">6 &gt;</text>
</a>
</g>
</g>
<!-- metadata&#45;&gt;submission -->
<g id="edge2" class="edge">
<title>metadata:w&#45;&gt;submission:e</title>
<path fill="none" stroke="#000000" d="M247.2288,-278.3389C212.1564,-284.0394 201.8178,-309.2 159.5,-309.2"/>
<polygon fill="#000000" stroke="#000000" points="254.0237,-277.815 262.2768,-280.7893 258.0118,-277.5075 262,-277.2 262,-277.2 262,-277.2 258.0118,-277.5075 261.7232,-273.6107 254.0237,-277.815 254.0237,-277.815"/>
<ellipse fill="none" stroke="#000000" cx="250.8331" cy="-278.0611" rx="3.2" ry="3.2"/>
</g>
</g>
</svg>
