<?xml version="1.0" encoding="UTF-8" standalone="no"?>
<!DOCTYPE svg PUBLIC "-//W3C//DTD SVG 1.1//EN"
 "http://www.w3.org/Graphics/SVG/1.1/DTD/svg11.dtd">
<!-- Generated by graphviz version 2.40.1 (20161225.0304)
 -->
<!-- Title: twoDegreesRelationshipsDiagram Pages: 1 -->
<svg width="610pt" height="433pt"
 viewBox="0.00 0.00 610.00 432.60" xmlns="http://www.w3.org/2000/svg" xmlns:xlink="http://www.w3.org/1999/xlink">
<g id="graph0" class="graph" transform="scale(1 1) rotate(0) translate(4 428.597)">
<title>twoDegreesRelationshipsDiagram</title>
<polygon fill="#ffffff" stroke="transparent" points="-4,4 -4,-428.597 606,-428.597 606,4 -4,4"/>
<text text-anchor="middle" x="72.4936" y="-7.3" font-family="Helvetica,sans-Serif" font-size="11.00" fill="#000000">Generated by SchemaSpy</text>
<!-- data_histogram_bin_data -->
<g id="node1" class="node">
<title>data_histogram_bin_data</title>
<g id="a_node1"><a xlink:href="../../tables/data_histogram_bin_data.html" xlink:title="data_histogram_bin_data" target="_top">
<polygon fill="#ffffff" stroke="transparent" points="427,-153.7 427,-214.7 594,-214.7 594,-153.7 427,-153.7"/>
<polygon fill="#f5f5f5" stroke="transparent" points="427.5,-191.2 427.5,-214.2 594.5,-214.2 594.5,-191.2 427.5,-191.2"/>
<polygon fill="none" stroke="#000000" points="427.5,-191.2 427.5,-214.2 594.5,-214.2 594.5,-191.2 427.5,-191.2"/>
<text text-anchor="start" x="432.4501" y="-200.3" font-family="Helvetica,sans-Serif" font-weight="bold" font-size="11.00" fill="#000000">data_histogram_bin_data</text>
<text text-anchor="start" x="560.0219" y="-199.3" font-family="Helvetica,sans-Serif" font-size="11.00" fill="#000000">[table]</text>
<polygon fill="none" stroke="#000000" points="427.5,-172.2 427.5,-191.2 594.5,-191.2 594.5,-172.2 427.5,-172.2"/>
<text text-anchor="start" x="430.5" y="-178.3" font-family="Helvetica,sans-Serif" font-size="11.00" fill="#000000">...</text>
<polygon fill="#ffffff" stroke="transparent" points="427.5,-153.2 427.5,-172.2 496.5,-172.2 496.5,-153.2 427.5,-153.2"/>
<polygon fill="none" stroke="#000000" points="427.5,-153.2 427.5,-172.2 496.5,-172.2 496.5,-153.2 427.5,-153.2"/>
<text text-anchor="start" x="430.5" y="-159.3" font-family="Helvetica,sans-Serif" font-size="11.00" fill="#000000">&lt; 7</text>
<polygon fill="#ffffff" stroke="transparent" points="496.5,-153.2 496.5,-172.2 558.5,-172.2 558.5,-153.2 496.5,-153.2"/>
<polygon fill="none" stroke="#000000" points="496.5,-153.2 496.5,-172.2 558.5,-172.2 558.5,-153.2 496.5,-153.2"/>
<text text-anchor="start" x="523.1105" y="-159.3" font-family="Helvetica,sans-Serif" font-size="11.00" fill="#000000">0 rows</text>
<polygon fill="#ffffff" stroke="transparent" points="558.5,-153.2 558.5,-172.2 594.5,-172.2 594.5,-153.2 558.5,-153.2"/>
<polygon fill="none" stroke="#000000" points="558.5,-153.2 558.5,-172.2 594.5,-172.2 594.5,-153.2 558.5,-153.2"/>
<text text-anchor="start" x="585.3862" y="-159.3" font-family="Helvetica,sans-Serif" font-size="11.00" fill="#000000"> &#160;</text>
</a>
</g>
</g>
<!-- data_position -->
<g id="node2" class="node">
<title>data_position</title>
<g id="a_node2"><a xlink:href="../../tables/data_position.html" xlink:title="data_position" target="_top">
<polygon fill="#ffffff" stroke="transparent" points="224,-220.7 224,-281.7 332,-281.7 332,-220.7 224,-220.7"/>
<polygon fill="#f5f5f5" stroke="transparent" points="224,-258.2 224,-281.2 332,-281.2 332,-258.2 224,-258.2"/>
<polygon fill="none" stroke="#000000" points="224,-258.2 224,-281.2 332,-281.2 332,-258.2 224,-258.2"/>
<text text-anchor="start" x="228.7926" y="-267.3" font-family="Helvetica,sans-Serif" font-weight="bold" font-size="11.00" fill="#000000">data_position</text>
<text text-anchor="start" x="297.5219" y="-266.3" font-family="Helvetica,sans-Serif" font-size="11.00" fill="#000000">[table]</text>
<polygon fill="none" stroke="#000000" points="224,-239.2 224,-258.2 332,-258.2 332,-239.2 224,-239.2"/>
<text text-anchor="start" x="227" y="-245.3" font-family="Helvetica,sans-Serif" font-size="11.00" fill="#000000">...</text>
<polygon fill="#ffffff" stroke="transparent" points="224,-220.2 224,-239.2 259,-239.2 259,-220.2 224,-220.2"/>
<polygon fill="none" stroke="#000000" points="224,-220.2 224,-239.2 259,-239.2 259,-220.2 224,-220.2"/>
<text text-anchor="start" x="227" y="-226.3" font-family="Helvetica,sans-Serif" font-size="11.00" fill="#000000">&lt; 1</text>
<polygon fill="#ffffff" stroke="transparent" points="259,-220.2 259,-239.2 304,-239.2 304,-220.2 259,-220.2"/>
<polygon fill="none" stroke="#000000" points="259,-220.2 259,-239.2 304,-239.2 304,-220.2 259,-220.2"/>
<text text-anchor="start" x="268.6105" y="-226.3" font-family="Helvetica,sans-Serif" font-size="11.00" fill="#000000">0 rows</text>
<polygon fill="#ffffff" stroke="transparent" points="304,-220.2 304,-239.2 332,-239.2 332,-220.2 304,-220.2"/>
<polygon fill="none" stroke="#000000" points="304,-220.2 304,-239.2 332,-239.2 332,-220.2 304,-220.2"/>
<text text-anchor="start" x="313.4053" y="-226.3" font-family="Helvetica,sans-Serif" font-size="11.00" fill="#000000">9 &gt;</text>
</a>
</g>
</g>
<!-- data_histogram_bin_data&#45;&gt;data_position -->
<g id="edge1" class="edge">
<title>data_histogram_bin_data:w&#45;&gt;data_position:e</title>
<path fill="none" stroke="#000000" d="M413.1042,-180.7854C387.4118,-189.1843 353.5697,-237.3836 332,-248.2"/>
<polygon fill="#000000" stroke="#000000" points="419.5033,-180.9697 427.3963,-184.7985 423.5017,-181.0848 427.5,-181.2 427.5,-181.2 427.5,-181.2 423.5017,-181.0848 427.6037,-177.6015 419.5033,-180.9697 419.5033,-180.9697"/>
<ellipse fill="none" stroke="#000000" cx="416.3046" cy="-180.8775" rx="3.2" ry="3.2"/>
</g>
<!-- data_histogram_bin_data&#45;&gt;data_position -->
<g id="edge2" class="edge">
<title>data_histogram_bin_data:w&#45;&gt;data_position:e</title>
<path fill="none" stroke="#000000" d="M413.8258,-185.8052C388.0484,-200.9424 353.7722,-248.2 332,-248.2"/>
<polygon fill="#000000" stroke="#000000" points="419.9184,-183.7534 428.649,-184.6117 423.7092,-182.4767 427.5,-181.2 427.5,-181.2 427.5,-181.2 423.7092,-182.4767 426.351,-177.7883 419.9184,-183.7534 419.9184,-183.7534"/>
<ellipse fill="none" stroke="#000000" cx="416.8858" cy="-184.7747" rx="3.2" ry="3.2"/>
</g>
<!-- data_histogram_bin_data&#45;&gt;data_position -->
<g id="edge4" class="edge">
<title>data_histogram_bin_data:w&#45;&gt;data_position:e</title>
<path fill="none" stroke="#000000" d="M415.6101,-189.5153C389.6494,-211.4617 354.2786,-259.3719 332,-248.2"/>
<polygon fill="#000000" stroke="#000000" points="420.9442,-185.7849 429.5632,-184.1501 424.2221,-183.4925 427.5,-181.2 427.5,-181.2 427.5,-181.2 424.2221,-183.4925 425.4368,-178.2499 420.9442,-185.7849 420.9442,-185.7849"/>
<ellipse fill="none" stroke="#000000" cx="418.3218" cy="-187.6189" rx="3.2" ry="3.2"/>
</g>
<!-- submission -->
<g id="node3" class="node">
<title>submission</title>
<g id="a_node3"><a xlink:href="../../tables/submission.html" xlink:title="submission" target="_top">
<polygon fill="#ffffff" stroke="transparent" points="9,-240.7 9,-323.7 128,-323.7 128,-240.7 9,-240.7"/>
<polygon fill="#f5f5f5" stroke="transparent" points="9.5,-300.2 9.5,-323.2 128.5,-323.2 128.5,-300.2 9.5,-300.2"/>
<polygon fill="none" stroke="#000000" points="9.5,-300.2 9.5,-323.2 128.5,-323.2 128.5,-300.2 9.5,-300.2"/>
<text text-anchor="start" x="14.5" y="-309.3" font-family="Helvetica,sans-Serif" font-weight="bold" font-size="11.00" fill="#000000">submission</text>
<text text-anchor="start" x="93.5437" y="-308.3" font-family="Helvetica,sans-Serif" font-size="11.00" fill="#000000">[table]</text>
<polygon fill="none" stroke="#000000" points="9.5,-278.2 9.5,-300.2 128.5,-300.2 128.5,-278.2 9.5,-278.2"/>
<image xlink:href="../../images/primaryKeys.png" width="11px" height="12px" preserveAspectRatio="xMinYMin meet" x="14.5" y="-295.2"/>
<text text-anchor="start" x="29.5" y="-285.3" font-family="Helvetica,sans-Serif" font-size="11.00" fill="#000000">submission_id</text>
<polygon fill="none" stroke="#000000" points="9.5,-259.2 9.5,-278.2 128.5,-278.2 128.5,-259.2 9.5,-259.2"/>
<text text-anchor="start" x="12.5" y="-265.3" font-family="Helvetica,sans-Serif" font-size="11.00" fill="#000000">...</text>
<polygon fill="#ffffff" stroke="transparent" points="9.5,-240.2 9.5,-259.2 45.5,-259.2 45.5,-240.2 9.5,-240.2"/>
<polygon fill="none" stroke="#000000" points="9.5,-240.2 9.5,-259.2 45.5,-259.2 45.5,-240.2 9.5,-240.2"/>
<text text-anchor="start" x="12.5" y="-246.3" font-family="Helvetica,sans-Serif" font-size="11.00" fill="#000000"> &#160;</text>
<polygon fill="#ffffff" stroke="transparent" points="45.5,-240.2 45.5,-259.2 95.5,-259.2 95.5,-240.2 45.5,-240.2"/>
<polygon fill="none" stroke="#000000" points="45.5,-240.2 45.5,-259.2 95.5,-259.2 95.5,-240.2 45.5,-240.2"/>
<text text-anchor="start" x="60.1105" y="-246.3" font-family="Helvetica,sans-Serif" font-size="11.00" fill="#000000">0 rows</text>
<polygon fill="#ffffff" stroke="transparent" points="95.5,-240.2 95.5,-259.2 128.5,-259.2 128.5,-240.2 95.5,-240.2"/>
<polygon fill="none" stroke="#000000" points="95.5,-240.2 95.5,-259.2 128.5,-259.2 128.5,-240.2 95.5,-240.2"/>
<text text-anchor="start" x="109.9053" y="-246.3" font-family="Helvetica,sans-Serif" font-size="11.00" fill="#000000">6 &gt;</text>
</a>
</g>
</g>
<!-- data_histogram_bin_data&#45;&gt;submission -->
<g id="edge3" class="edge">
<title>data_histogram_bin_data:w&#45;&gt;submission:e</title>
<path fill="none" stroke="#000000" d="M412.7898,-182.1129C358.7263,-186.2197 180.399,-203.0914 170,-210.2 137.258,-232.582 168.1609,-289.2 128.5,-289.2"/>
<polygon fill="#000000" stroke="#000000" points="419.5154,-181.6956 427.723,-184.7931 423.5077,-181.4478 427.5,-181.2 427.5,-181.2 427.5,-181.2 423.5077,-181.4478 427.277,-177.6069 419.5154,-181.6956 419.5154,-181.6956"/>
<ellipse fill="none" stroke="#000000" cx="416.3215" cy="-181.8938" rx="3.2" ry="3.2"/>
</g>
<!-- data_position&#45;&gt;submission -->
<g id="edge5" class="edge">
<title>data_position:w&#45;&gt;submission:e</title>
<path fill="none" stroke="#000000" d="M209.397,-249.7572C176.4869,-257.2463 169.2777,-289.2 128.5,-289.2"/>
<polygon fill="#000000" stroke="#000000" points="216.0451,-249.0483 224.3817,-251.7797 220.0225,-248.6242 224,-248.2 224,-248.2 224,-248.2 220.0225,-248.6242 223.6183,-244.6203 216.0451,-249.0483 216.0451,-249.0483"/>
<ellipse fill="none" stroke="#000000" cx="212.8631" cy="-249.3876" rx="3.2" ry="3.2"/>
</g>
<!-- data_profile -->
<g id="node4" class="node">
<title>data_profile</title>
<g id="a_node4"><a xlink:href="../../tables/data_profile.html" xlink:title="data_profile" target="_top">
<polygon fill="#ffffff" stroke="transparent" points="460.5,-317.7 460.5,-378.7 560.5,-378.7 560.5,-317.7 460.5,-317.7"/>
<polygon fill="#f5f5f5" stroke="transparent" points="460.5,-355.2 460.5,-378.2 560.5,-378.2 560.5,-355.2 460.5,-355.2"/>
<polygon fill="none" stroke="#000000" points="460.5,-355.2 460.5,-378.2 560.5,-378.2 560.5,-355.2 460.5,-355.2"/>
<text text-anchor="start" x="465.2691" y="-364.3" font-family="Helvetica,sans-Serif" font-weight="bold" font-size="11.00" fill="#000000">data_profile</text>
<text text-anchor="start" x="526.0219" y="-363.3" font-family="Helvetica,sans-Serif" font-size="11.00" fill="#000000">[table]</text>
<polygon fill="none" stroke="#000000" points="460.5,-336.2 460.5,-355.2 560.5,-355.2 560.5,-336.2 460.5,-336.2"/>
<text text-anchor="start" x="463.5" y="-342.3" font-family="Helvetica,sans-Serif" font-size="11.00" fill="#000000">...</text>
<polygon fill="#ffffff" stroke="transparent" points="460.5,-317.2 460.5,-336.2 495.5,-336.2 495.5,-317.2 460.5,-317.2"/>
<polygon fill="none" stroke="#000000" points="460.5,-317.2 460.5,-336.2 495.5,-336.2 495.5,-317.2 460.5,-317.2"/>
<text text-anchor="start" x="463.5" y="-323.3" font-family="Helvetica,sans-Serif" font-size="11.00" fill="#000000">&lt; 5</text>
<polygon fill="#ffffff" stroke="transparent" points="495.5,-317.2 495.5,-336.2 540.5,-336.2 540.5,-317.2 495.5,-317.2"/>
<polygon fill="none" stroke="#000000" points="495.5,-317.2 495.5,-336.2 540.5,-336.2 540.5,-317.2 495.5,-317.2"/>
<text text-anchor="start" x="505.1105" y="-323.3" font-family="Helvetica,sans-Serif" font-size="11.00" fill="#000000">0 rows</text>
<polygon fill="#ffffff" stroke="transparent" points="540.5,-317.2 540.5,-336.2 560.5,-336.2 560.5,-317.2 540.5,-317.2"/>
<polygon fill="none" stroke="#000000" points="540.5,-317.2 540.5,-336.2 560.5,-336.2 560.5,-317.2 540.5,-317.2"/>
<text text-anchor="start" x="551.3862" y="-323.3" font-family="Helvetica,sans-Serif" font-size="11.00" fill="#000000"> &#160;</text>
</a>
</g>
</g>
<!-- data_profile&#45;&gt;data_position -->
<g id="edge6" class="edge">
<title>data_profile:w&#45;&gt;data_position:e</title>
<path fill="none" stroke="#000000" d="M446.6243,-341.2794C390.5729,-319.1032 398.5246,-236.1141 332,-248.2"/>
<polygon fill="#000000" stroke="#000000" points="452.8014,-343.0247 459.5211,-348.6644 456.6507,-344.1124 460.5,-345.2 460.5,-345.2 460.5,-345.2 456.6507,-344.1124 461.4789,-341.7356 452.8014,-343.0247 452.8014,-343.0247"/>
<ellipse fill="none" stroke="#000000" cx="449.722" cy="-342.1546" rx="3.2" ry="3.2"/>
</g>
<!-- data_profile&#45;&gt;data_position -->
<g id="edge7" class="edge">
<title>data_profile:w&#45;&gt;data_position:e</title>
<path fill="none" stroke="#000000" d="M445.9211,-343.6764C390.6384,-331.3359 398.2451,-248.2 332,-248.2"/>
<polygon fill="#000000" stroke="#000000" points="452.5433,-344.3684 460.1258,-348.7805 456.5217,-344.7842 460.5,-345.2 460.5,-345.2 460.5,-345.2 456.5217,-344.7842 460.8742,-341.6195 452.5433,-344.3684 452.5433,-344.3684"/>
<ellipse fill="none" stroke="#000000" cx="449.3607" cy="-344.0358" rx="3.2" ry="3.2"/>
</g>
<!-- data_profile&#45;&gt;data_position -->
<g id="edge9" class="edge">
<title>data_profile:w&#45;&gt;data_position:e</title>
<path fill="none" stroke="#000000" d="M445.9211,-346.3561C390.6384,-344.2643 398.2451,-260.2352 332,-248.2"/>
<polygon fill="#000000" stroke="#000000" points="452.525,-345.8324 460.7846,-348.7887 456.5125,-345.5162 460.5,-345.2 460.5,-345.2 460.5,-345.2 456.5125,-345.5162 460.2154,-341.6113 452.525,-345.8324 452.525,-345.8324"/>
<ellipse fill="none" stroke="#000000" cx="449.335" cy="-346.0854" rx="3.2" ry="3.2"/>
</g>
<!-- data_profile&#45;&gt;submission -->
<g id="edge8" class="edge">
<title>data_profile:w&#45;&gt;submission:e</title>
<path fill="none" stroke="#000000" d="M446.1489,-347.2138C421.0637,-355.0634 418.4729,-383.6447 386,-393.2 293.9043,-420.2996 249.4721,-447.0533 170,-393.2 128.8017,-365.2825 178.2664,-289.2 128.5,-289.2"/>
<polygon fill="#000000" stroke="#000000" points="452.5776,-346.3118 461.0003,-348.7651 456.5388,-345.7559 460.5,-345.2 460.5,-345.2 460.5,-345.2 456.5388,-345.7559 459.9997,-341.6349 452.5776,-346.3118 452.5776,-346.3118"/>
<ellipse fill="none" stroke="#000000" cx="449.4087" cy="-346.7565" rx="3.2" ry="3.2"/>
</g>
<!-- data_time_series -->
<g id="node5" class="node">
<title>data_time_series</title>
<g id="a_node5"><a xlink:href="../../tables/data_time_series.html" xlink:title="data_time_series" target="_top">
<polygon fill="#ffffff" stroke="transparent" points="447.5,-235.7 447.5,-296.7 573.5,-296.7 573.5,-235.7 447.5,-235.7"/>
<polygon fill="#f5f5f5" stroke="transparent" points="447.5,-273.2 447.5,-296.2 573.5,-296.2 573.5,-273.2 447.5,-273.2"/>
<polygon fill="none" stroke="#000000" points="447.5,-273.2 447.5,-296.2 573.5,-296.2 573.5,-273.2 447.5,-273.2"/>
<text text-anchor="start" x="452.1307" y="-282.3" font-family="Helvetica,sans-Serif" font-weight="bold" font-size="11.00" fill="#000000">data_time_series</text>
<text text-anchor="start" x="539.0219" y="-281.3" font-family="Helvetica,sans-Serif" font-size="11.00" fill="#000000">[table]</text>
<polygon fill="none" stroke="#000000" points="447.5,-254.2 447.5,-273.2 573.5,-273.2 573.5,-254.2 447.5,-254.2"/>
<text text-anchor="start" x="450.5" y="-260.3" font-family="Helvetica,sans-Serif" font-size="11.00" fill="#000000">...</text>
<polygon fill="#ffffff" stroke="transparent" points="447.5,-235.2 447.5,-254.2 495.5,-254.2 495.5,-235.2 447.5,-235.2"/>
<polygon fill="none" stroke="#000000" points="447.5,-235.2 447.5,-254.2 495.5,-254.2 495.5,-235.2 447.5,-235.2"/>
<text text-anchor="start" x="450.5" y="-241.3" font-family="Helvetica,sans-Serif" font-size="11.00" fill="#000000">&lt; 5</text>
<polygon fill="#ffffff" stroke="transparent" points="495.5,-235.2 495.5,-254.2 547.5,-254.2 547.5,-235.2 495.5,-235.2"/>
<polygon fill="none" stroke="#000000" points="495.5,-235.2 495.5,-254.2 547.5,-254.2 547.5,-235.2 495.5,-235.2"/>
<text text-anchor="start" x="512.1105" y="-241.3" font-family="Helvetica,sans-Serif" font-size="11.00" fill="#000000">0 rows</text>
<polygon fill="#ffffff" stroke="transparent" points="547.5,-235.2 547.5,-254.2 573.5,-254.2 573.5,-235.2 547.5,-235.2"/>
<polygon fill="none" stroke="#000000" points="547.5,-235.2 547.5,-254.2 573.5,-254.2 573.5,-235.2 547.5,-235.2"/>
<text text-anchor="start" x="564.3862" y="-241.3" font-family="Helvetica,sans-Serif" font-size="11.00" fill="#000000"> &#160;</text>
</a>
</g>
</g>
<!-- data_time_series&#45;&gt;data_position -->
<g id="edge10" class="edge">
<title>data_time_series:w&#45;&gt;data_position:e</title>
<path fill="none" stroke="#000000" d="M433.399,-259.3621C393.018,-247.5373 378.7093,-236.4695 332,-248.2"/>
<polygon fill="#000000" stroke="#000000" points="439.7808,-261.099 446.5546,-266.6736 443.6404,-262.1495 447.5,-263.2 447.5,-263.2 447.5,-263.2 443.6404,-262.1495 448.4454,-259.7264 439.7808,-261.099 439.7808,-261.099"/>
<ellipse fill="none" stroke="#000000" cx="436.6931" cy="-260.2586" rx="3.2" ry="3.2"/>
</g>
<!-- data_time_series&#45;&gt;data_position -->
<g id="edge11" class="edge">
<title>data_time_series:w&#45;&gt;data_position:e</title>
<path fill="none" stroke="#000000" d="M432.876,-262.7673C392.8935,-260.3078 378.5071,-248.2 332,-248.2"/>
<polygon fill="#000000" stroke="#000000" points="439.5035,-262.9633 447.3935,-266.7984 443.5018,-263.0817 447.5,-263.2 447.5,-263.2 447.5,-263.2 443.5018,-263.0817 447.6065,-259.6016 439.5035,-262.9633 439.5035,-262.9633"/>
<ellipse fill="none" stroke="#000000" cx="436.3049" cy="-262.8686" rx="3.2" ry="3.2"/>
</g>
<!-- data_time_series&#45;&gt;data_position -->
<g id="edge13" class="edge">
<title>data_time_series:w&#45;&gt;data_position:e</title>
<path fill="none" stroke="#000000" d="M433.399,-266.2354C393.018,-273.2894 378.7093,-259.9305 332,-248.2"/>
<polygon fill="#000000" stroke="#000000" points="439.6792,-264.8836 448.2576,-266.7194 443.5896,-264.0418 447.5,-263.2 447.5,-263.2 447.5,-263.2 443.5896,-264.0418 446.7424,-259.6806 439.6792,-264.8836 439.6792,-264.8836"/>
<ellipse fill="none" stroke="#000000" cx="436.5508" cy="-265.557" rx="3.2" ry="3.2"/>
</g>
<!-- data_time_series&#45;&gt;submission -->
<g id="edge12" class="edge">
<title>data_time_series:w&#45;&gt;submission:e</title>
<path fill="none" stroke="#000000" d="M433.8106,-268.2275C426.3362,-276.2771 427.266,-292.6357 419,-307.2 402.6157,-336.0684 414.1839,-356.6645 386,-374.2 345.2445,-399.5572 210.7115,-399.6279 170,-374.2 134.3436,-351.9295 170.54,-289.2 128.5,-289.2"/>
<polygon fill="#000000" stroke="#000000" points="439.9904,-265.958 448.7411,-266.5793 443.7452,-264.579 447.5,-263.2 447.5,-263.2 447.5,-263.2 443.7452,-264.579 446.2589,-259.8207 439.9904,-265.958 439.9904,-265.958"/>
<ellipse fill="none" stroke="#000000" cx="436.9866" cy="-267.0611" rx="3.2" ry="3.2"/>
</g>
<!-- metadata -->
<g id="node6" class="node">
<title>metadata</title>
<g id="a_node6"><a xlink:href="../../tables/metadata.html" xlink:title="metadata" target="_top">
<polygon fill="#ffffff" stroke="transparent" points="178,-38.2 178,-172.2 378,-172.2 378,-38.2 178,-38.2"/>
<polygon fill="#f5f5f5" stroke="transparent" points="180,-147.2 180,-170.2 376,-170.2 376,-147.2 180,-147.2"/>
<polygon fill="none" stroke="#000000" points="180,-147.2 180,-170.2 376,-170.2 376,-147.2 180,-147.2"/>
<text text-anchor="start" x="185" y="-156.3" font-family="Helvetica,sans-Serif" font-weight="bold" font-size="11.00" fill="#000000">metadata</text>
<text text-anchor="start" x="341.0437" y="-155.3" font-family="Helvetica,sans-Serif" font-size="11.00" fill="#000000">[table]</text>
<polygon fill="none" stroke="#000000" points="180,-125.2 180,-147.2 286,-147.2 286,-125.2 180,-125.2"/>
<image xlink:href="../../images/primaryKeys.png" width="11px" height="12px" preserveAspectRatio="xMinYMin meet" x="185" y="-142.2"/>
<text text-anchor="start" x="200" y="-132.3" font-family="Helvetica,sans-Serif" font-size="11.00" fill="#000000">submission_id</text>
<polygon fill="none" stroke="#000000" points="286,-125.2 286,-147.2 376,-147.2 376,-125.2 286,-125.2"/>
<text text-anchor="start" x="289" y="-132.9" font-family="Helvetica,sans-Serif" font-size="11.00" fill="#000000">int8[19]</text>
<polygon fill="none" stroke="#000000" points="180,-103.2 180,-125.2 286,-125.2 286,-103.2 180,-103.2"/>
<image xlink:href="../../images/primaryKeys.png" width="11px" height="12px" preserveAspectRatio="xMinYMin meet" x="185" y="-120.2"/>
<text text-anchor="start" x="200" y="-110.3" font-family="Helvetica,sans-Serif" font-size="11.00" fill="#000000">attribute_id</text>
<polygon fill="none" stroke="#000000" points="286,-103.2 286,-125.2 376,-125.2 376,-103.2 286,-103.2"/>
<text text-anchor="start" x="289" y="-110.9" font-family="Helvetica,sans-Serif" font-size="11.00" fill="#000000">int8[19]</text>
<polygon fill="none" stroke="#000000" points="180,-81.2 180,-103.2 286,-103.2 286,-81.2 180,-81.2"/>
<text text-anchor="start" x="200" y="-88.3" font-family="Helvetica,sans-Serif" font-size="11.00" fill="#000000">attribute_value</text>
<polygon fill="none" stroke="#000000" points="286,-81.2 286,-103.2 376,-103.2 376,-81.2 286,-81.2"/>
<text text-anchor="start" x="288.5043" y="-88.9" font-family="Helvetica,sans-Serif" font-size="11.00" fill="#000000">text[2147483647]</text>
<polygon fill="none" stroke="#000000" points="180,-59.2 180,-81.2 286,-81.2 286,-59.2 180,-59.2"/>
<text text-anchor="start" x="200" y="-66.3" font-family="Helvetica,sans-Serif" font-size="11.00" fill="#000000">tag_id</text>
<polygon fill="none" stroke="#000000" points="286,-59.2 286,-81.2 376,-81.2 376,-59.2 286,-59.2"/>
<text text-anchor="start" x="289" y="-66.9" font-family="Helvetica,sans-Serif" font-size="11.00" fill="#000000">int8[19]</text>
<polygon fill="#ffffff" stroke="transparent" points="180,-40.2 180,-59.2 224,-59.2 224,-40.2 180,-40.2"/>
<polygon fill="none" stroke="#000000" points="180,-40.2 180,-59.2 224,-59.2 224,-40.2 180,-40.2"/>
<text text-anchor="start" x="183" y="-46.3" font-family="Helvetica,sans-Serif" font-size="11.00" fill="#000000">&lt; 2</text>
<polygon fill="#ffffff" stroke="transparent" points="224,-40.2 224,-59.2 286,-59.2 286,-40.2 224,-40.2"/>
<polygon fill="none" stroke="#000000" points="224,-40.2 224,-59.2 286,-59.2 286,-40.2 224,-40.2"/>
<text text-anchor="start" x="250.6105" y="-46.3" font-family="Helvetica,sans-Serif" font-size="11.00" fill="#000000">0 rows</text>
<polygon fill="#ffffff" stroke="transparent" points="286,-40.2 286,-59.2 376,-59.2 376,-40.2 286,-40.2"/>
<polygon fill="none" stroke="#000000" points="286,-40.2 286,-59.2 376,-59.2 376,-40.2 286,-40.2"/>
<text text-anchor="start" x="357.4053" y="-46.3" font-family="Helvetica,sans-Serif" font-size="11.00" fill="#000000">0 &gt;</text>
<polygon fill="none" stroke="#000000" stroke-width="2" points="179,-39.2 179,-171.2 377,-171.2 377,-39.2 179,-39.2"/>
</a>
</g>
</g>
<!-- metadata&#45;&gt;submission -->
<g id="edge15" class="edge">
<title>metadata:w&#45;&gt;submission:e</title>
<path fill="none" stroke="#000000" d="M165.7454,-138.9862C121.9351,-159.7228 194.5034,-289.2 128.5,-289.2"/>
<polygon fill="#000000" stroke="#000000" points="172.1486,-137.7347 180.6906,-139.7331 176.0743,-136.9673 180,-136.2 180,-136.2 180,-136.2 176.0743,-136.9673 179.3094,-132.6669 172.1486,-137.7347 172.1486,-137.7347"/>
<ellipse fill="none" stroke="#000000" cx="169.008" cy="-138.3486" rx="3.2" ry="3.2"/>
</g>
<!-- metadata_types -->
<g id="node7" class="node">
<title>metadata_types</title>
<g id="a_node7"><a xlink:href="../../tables/metadata_types.html" xlink:title="metadata_types" target="_top">
<polygon fill="#ffffff" stroke="transparent" points="8,-65.7 8,-148.7 129,-148.7 129,-65.7 8,-65.7"/>
<polygon fill="#f5f5f5" stroke="transparent" points="8.5,-125.2 8.5,-148.2 129.5,-148.2 129.5,-125.2 8.5,-125.2"/>
<polygon fill="none" stroke="#000000" points="8.5,-125.2 8.5,-148.2 129.5,-148.2 129.5,-125.2 8.5,-125.2"/>
<text text-anchor="start" x="13.3741" y="-134.3" font-family="Helvetica,sans-Serif" font-weight="bold" font-size="11.00" fill="#000000">metadata_types</text>
<text text-anchor="start" x="95.0219" y="-133.3" font-family="Helvetica,sans-Serif" font-size="11.00" fill="#000000">[table]</text>
<polygon fill="none" stroke="#000000" points="8.5,-103.2 8.5,-125.2 129.5,-125.2 129.5,-103.2 8.5,-103.2"/>
<image xlink:href="../../images/primaryKeys.png" width="11px" height="12px" preserveAspectRatio="xMinYMin meet" x="13.5" y="-120.2"/>
<text text-anchor="start" x="33.5" y="-110.3" font-family="Helvetica,sans-Serif" font-size="11.00" fill="#000000">attribute_id</text>
<polygon fill="none" stroke="#000000" points="8.5,-84.2 8.5,-103.2 129.5,-103.2 129.5,-84.2 8.5,-84.2"/>
<text text-anchor="start" x="11.5" y="-90.3" font-family="Helvetica,sans-Serif" font-size="11.00" fill="#000000">...</text>
<polygon fill="#ffffff" stroke="transparent" points="8.5,-65.2 8.5,-84.2 39.5,-84.2 39.5,-65.2 8.5,-65.2"/>
<polygon fill="none" stroke="#000000" points="8.5,-65.2 8.5,-84.2 39.5,-84.2 39.5,-65.2 8.5,-65.2"/>
<text text-anchor="start" x="11.5" y="-71.3" font-family="Helvetica,sans-Serif" font-size="11.00" fill="#000000"> &#160;</text>
<polygon fill="#ffffff" stroke="transparent" points="39.5,-65.2 39.5,-84.2 98.5,-84.2 98.5,-65.2 39.5,-65.2"/>
<polygon fill="none" stroke="#000000" points="39.5,-65.2 39.5,-84.2 98.5,-84.2 98.5,-65.2 39.5,-65.2"/>
<text text-anchor="start" x="50.8807" y="-71.3" font-family="Helvetica,sans-Serif" font-size="11.00" fill="#000000">142 rows</text>
<polygon fill="#ffffff" stroke="transparent" points="98.5,-65.2 98.5,-84.2 129.5,-84.2 129.5,-65.2 98.5,-65.2"/>
<polygon fill="none" stroke="#000000" points="98.5,-65.2 98.5,-84.2 129.5,-84.2 129.5,-65.2 98.5,-65.2"/>
<text text-anchor="start" x="110.9053" y="-71.3" font-family="Helvetica,sans-Serif" font-size="11.00" fill="#000000">1 &gt;</text>
</a>
</g>
</g>
<!-- metadata&#45;&gt;metadata_types -->
<g id="edge14" class="edge">
<title>metadata:w&#45;&gt;metadata_types:e</title>
<path fill="none" stroke="#000000" d="M165.4203,-114.2C153.5435,-114.2 146.158,-114.2 129.5,-114.2"/>
<polygon fill="#000000" stroke="#000000" points="172,-114.2001 180,-117.8 176,-114.2 180,-114.2 180,-114.2 180,-114.2 176,-114.2 180,-110.6 172,-114.2001 172,-114.2001"/>
<ellipse fill="none" stroke="#000000" cx="168.8" cy="-114.2001" rx="3.2" ry="3.2"/>
</g>
<!-- proc_observations -->
<g id="node8" class="node">
<title>proc_observations</title>
<g id="a_node8"><a xlink:href="../../tables/proc_observations.html" xlink:title="proc_observations" target="_top">
<polygon fill="#ffffff" stroke="transparent" points="212,-302.7 212,-363.7 344,-363.7 344,-302.7 212,-302.7"/>
<polygon fill="#f5f5f5" stroke="transparent" points="212,-340.2 212,-363.2 344,-363.2 344,-340.2 212,-340.2"/>
<polygon fill="none" stroke="#000000" points="212,-340.2 212,-363.2 344,-363.2 344,-340.2 212,-340.2"/>
<text text-anchor="start" x="216.5722" y="-349.3" font-family="Helvetica,sans-Serif" font-weight="bold" font-size="11.00" fill="#000000">proc_observations</text>
<text text-anchor="start" x="309.5219" y="-348.3" font-family="Helvetica,sans-Serif" font-size="11.00" fill="#000000">[table]</text>
<polygon fill="none" stroke="#000000" points="212,-321.2 212,-340.2 344,-340.2 344,-321.2 212,-321.2"/>
<text text-anchor="start" x="215" y="-327.3" font-family="Helvetica,sans-Serif" font-size="11.00" fill="#000000">...</text>
<polygon fill="#ffffff" stroke="transparent" points="212,-302.2 212,-321.2 263,-321.2 263,-302.2 212,-302.2"/>
<polygon fill="none" stroke="#000000" points="212,-302.2 212,-321.2 263,-321.2 263,-302.2 212,-302.2"/>
<text text-anchor="start" x="215" y="-308.3" font-family="Helvetica,sans-Serif" font-size="11.00" fill="#000000">&lt; 2</text>
<polygon fill="#ffffff" stroke="transparent" points="263,-302.2 263,-321.2 316,-321.2 316,-302.2 263,-302.2"/>
<polygon fill="none" stroke="#000000" points="263,-302.2 263,-321.2 316,-321.2 316,-302.2 263,-302.2"/>
<text text-anchor="start" x="280.6105" y="-308.3" font-family="Helvetica,sans-Serif" font-size="11.00" fill="#000000">0 rows</text>
<polygon fill="#ffffff" stroke="transparent" points="316,-302.2 316,-321.2 344,-321.2 344,-302.2 316,-302.2"/>
<polygon fill="none" stroke="#000000" points="316,-302.2 316,-321.2 344,-321.2 344,-302.2 316,-302.2"/>
<text text-anchor="start" x="334.8862" y="-308.3" font-family="Helvetica,sans-Serif" font-size="11.00" fill="#000000"> &#160;</text>
</a>
</g>
</g>
<!-- proc_observations&#45;&gt;submission -->
<g id="edge16" class="edge">
<title>proc_observations:w&#45;&gt;submission:e</title>
<path fill="none" stroke="#000000" d="M197.4821,-328.2225C169.7256,-320.0326 164.3526,-289.2 128.5,-289.2"/>
<polygon fill="#000000" stroke="#000000" points="204.0732,-329.1202 211.5141,-333.7671 208.0366,-329.6601 212,-330.2 212,-330.2 212,-330.2 208.0366,-329.6601 212.4859,-326.6329 204.0732,-329.1202 204.0732,-329.1202"/>
<ellipse fill="none" stroke="#000000" cx="200.9025" cy="-328.6883" rx="3.2" ry="3.2"/>
</g>
</g>
</svg>
