<?xml version="1.0" encoding="UTF-8" standalone="no"?>
<!DOCTYPE svg PUBLIC "-//W3C//DTD SVG 1.1//EN"
 "http://www.w3.org/Graphics/SVG/1.1/DTD/svg11.dtd">
<!-- Generated by graphviz version 2.40.1 (20161225.0304)
 -->
<!-- Title: oneDegreeRelationshipsDiagram Pages: 1 -->
<svg width="394pt" height="237pt"
 viewBox="0.00 0.00 394.00 237.20" xmlns="http://www.w3.org/2000/svg" xmlns:xlink="http://www.w3.org/1999/xlink">
<g id="graph0" class="graph" transform="scale(1 1) rotate(0) translate(4 233.2)">
<title>oneDegreeRelationshipsDiagram</title>
<polygon fill="#ffffff" stroke="transparent" points="-4,4 -4,-233.2 390,-233.2 390,4 -4,4"/>
<text text-anchor="middle" x="72.4936" y="-7.3" font-family="Helvetica,sans-Serif" font-size="11.00" fill="#000000">Generated by SchemaSpy</text>
<!-- metadata -->
<g id="node1" class="node">
<title>metadata</title>
<g id="a_node1"><a xlink:href="../../tables/metadata.html" xlink:title="metadata" target="_top">
<polygon fill="#ffffff" stroke="transparent" points="178,-51.7 178,-185.7 378,-185.7 378,-51.7 178,-51.7"/>
<polygon fill="#f5f5f5" stroke="transparent" points="180,-160.7 180,-183.7 376,-183.7 376,-160.7 180,-160.7"/>
<polygon fill="none" stroke="#000000" points="180,-160.7 180,-183.7 376,-183.7 376,-160.7 180,-160.7"/>
<text text-anchor="start" x="185" y="-169.8" font-family="Helvetica,sans-Serif" font-weight="bold" font-size="11.00" fill="#000000">metadata</text>
<text text-anchor="start" x="341.0437" y="-168.8" font-family="Helvetica,sans-Serif" font-size="11.00" fill="#000000">[table]</text>
<polygon fill="none" stroke="#000000" points="180,-138.7 180,-160.7 286,-160.7 286,-138.7 180,-138.7"/>
<image xlink:href="../../images/primaryKeys.png" width="11px" height="12px" preserveAspectRatio="xMinYMin meet" x="185" y="-155.7"/>
<text text-anchor="start" x="200" y="-145.8" font-family="Helvetica,sans-Serif" font-size="11.00" fill="#000000">submission_id</text>
<polygon fill="none" stroke="#000000" points="286,-138.7 286,-160.7 376,-160.7 376,-138.7 286,-138.7"/>
<text text-anchor="start" x="289" y="-146.4" font-family="Helvetica,sans-Serif" font-size="11.00" fill="#000000">int8[19]</text>
<polygon fill="none" stroke="#000000" points="180,-116.7 180,-138.7 286,-138.7 286,-116.7 180,-116.7"/>
<image xlink:href="../../images/primaryKeys.png" width="11px" height="12px" preserveAspectRatio="xMinYMin meet" x="185" y="-133.7"/>
<text text-anchor="start" x="200" y="-123.8" font-family="Helvetica,sans-Serif" font-size="11.00" fill="#000000">attribute_id</text>
<polygon fill="none" stroke="#000000" points="286,-116.7 286,-138.7 376,-138.7 376,-116.7 286,-116.7"/>
<text text-anchor="start" x="289" y="-124.4" font-family="Helvetica,sans-Serif" font-size="11.00" fill="#000000">int8[19]</text>
<polygon fill="none" stroke="#000000" points="180,-94.7 180,-116.7 286,-116.7 286,-94.7 180,-94.7"/>
<text text-anchor="start" x="200" y="-101.8" font-family="Helvetica,sans-Serif" font-size="11.00" fill="#000000">attribute_value</text>
<polygon fill="none" stroke="#000000" points="286,-94.7 286,-116.7 376,-116.7 376,-94.7 286,-94.7"/>
<text text-anchor="start" x="288.5043" y="-102.4" font-family="Helvetica,sans-Serif" font-size="11.00" fill="#000000">text[2147483647]</text>
<polygon fill="none" stroke="#000000" points="180,-72.7 180,-94.7 286,-94.7 286,-72.7 180,-72.7"/>
<text text-anchor="start" x="200" y="-79.8" font-family="Helvetica,sans-Serif" font-size="11.00" fill="#000000">tag_id</text>
<polygon fill="none" stroke="#000000" points="286,-72.7 286,-94.7 376,-94.7 376,-72.7 286,-72.7"/>
<text text-anchor="start" x="289" y="-80.4" font-family="Helvetica,sans-Serif" font-size="11.00" fill="#000000">int8[19]</text>
<polygon fill="#ffffff" stroke="transparent" points="180,-53.7 180,-72.7 224,-72.7 224,-53.7 180,-53.7"/>
<polygon fill="none" stroke="#000000" points="180,-53.7 180,-72.7 224,-72.7 224,-53.7 180,-53.7"/>
<text text-anchor="start" x="183" y="-59.8" font-family="Helvetica,sans-Serif" font-size="11.00" fill="#000000">&lt; 2</text>
<polygon fill="#ffffff" stroke="transparent" points="224,-53.7 224,-72.7 286,-72.7 286,-53.7 224,-53.7"/>
<polygon fill="none" stroke="#000000" points="224,-53.7 224,-72.7 286,-72.7 286,-53.7 224,-53.7"/>
<text text-anchor="start" x="250.6105" y="-59.8" font-family="Helvetica,sans-Serif" font-size="11.00" fill="#000000">0 rows</text>
<polygon fill="#ffffff" stroke="transparent" points="286,-53.7 286,-72.7 376,-72.7 376,-53.7 286,-53.7"/>
<polygon fill="none" stroke="#000000" points="286,-53.7 286,-72.7 376,-72.7 376,-53.7 286,-53.7"/>
<text text-anchor="start" x="357.4053" y="-59.8" font-family="Helvetica,sans-Serif" font-size="11.00" fill="#000000">0 &gt;</text>
<polygon fill="none" stroke="#000000" stroke-width="2" points="179,-52.7 179,-184.7 377,-184.7 377,-52.7 179,-52.7"/>
</a>
</g>
</g>
<!-- metadata_types -->
<g id="node2" class="node">
<title>metadata_types</title>
<g id="a_node2"><a xlink:href="../../tables/metadata_types.html" xlink:title="metadata_types" target="_top">
<polygon fill="#ffffff" stroke="transparent" points="8,-38.2 8,-121.2 129,-121.2 129,-38.2 8,-38.2"/>
<polygon fill="#f5f5f5" stroke="transparent" points="8.5,-97.7 8.5,-120.7 129.5,-120.7 129.5,-97.7 8.5,-97.7"/>
<polygon fill="none" stroke="#000000" points="8.5,-97.7 8.5,-120.7 129.5,-120.7 129.5,-97.7 8.5,-97.7"/>
<text text-anchor="start" x="13.3741" y="-106.8" font-family="Helvetica,sans-Serif" font-weight="bold" font-size="11.00" fill="#000000">metadata_types</text>
<text text-anchor="start" x="95.0219" y="-105.8" font-family="Helvetica,sans-Serif" font-size="11.00" fill="#000000">[table]</text>
<polygon fill="none" stroke="#000000" points="8.5,-75.7 8.5,-97.7 129.5,-97.7 129.5,-75.7 8.5,-75.7"/>
<image xlink:href="../../images/primaryKeys.png" width="11px" height="12px" preserveAspectRatio="xMinYMin meet" x="13.5" y="-92.7"/>
<text text-anchor="start" x="33.5" y="-82.8" font-family="Helvetica,sans-Serif" font-size="11.00" fill="#000000">attribute_id</text>
<polygon fill="none" stroke="#000000" points="8.5,-56.7 8.5,-75.7 129.5,-75.7 129.5,-56.7 8.5,-56.7"/>
<text text-anchor="start" x="11.5" y="-62.8" font-family="Helvetica,sans-Serif" font-size="11.00" fill="#000000">...</text>
<polygon fill="#ffffff" stroke="transparent" points="8.5,-37.7 8.5,-56.7 39.5,-56.7 39.5,-37.7 8.5,-37.7"/>
<polygon fill="none" stroke="#000000" points="8.5,-37.7 8.5,-56.7 39.5,-56.7 39.5,-37.7 8.5,-37.7"/>
<text text-anchor="start" x="11.5" y="-43.8" font-family="Helvetica,sans-Serif" font-size="11.00" fill="#000000"> &#160;</text>
<polygon fill="#ffffff" stroke="transparent" points="39.5,-37.7 39.5,-56.7 98.5,-56.7 98.5,-37.7 39.5,-37.7"/>
<polygon fill="none" stroke="#000000" points="39.5,-37.7 39.5,-56.7 98.5,-56.7 98.5,-37.7 39.5,-37.7"/>
<text text-anchor="start" x="50.8807" y="-43.8" font-family="Helvetica,sans-Serif" font-size="11.00" fill="#000000">142 rows</text>
<polygon fill="#ffffff" stroke="transparent" points="98.5,-37.7 98.5,-56.7 129.5,-56.7 129.5,-37.7 98.5,-37.7"/>
<polygon fill="none" stroke="#000000" points="98.5,-37.7 98.5,-56.7 129.5,-56.7 129.5,-37.7 98.5,-37.7"/>
<text text-anchor="start" x="110.9053" y="-43.8" font-family="Helvetica,sans-Serif" font-size="11.00" fill="#000000">1 &gt;</text>
</a>
</g>
</g>
<!-- metadata&#45;&gt;metadata_types -->
<g id="edge1" class="edge">
<title>metadata:w&#45;&gt;metadata_types:e</title>
<path fill="none" stroke="#000000" d="M166.2601,-123.3123C152.5688,-112.7354 152.5379,-86.7 129.5,-86.7"/>
<polygon fill="#000000" stroke="#000000" points="172.3792,-125.2663 178.9048,-131.1294 176.1896,-126.4832 180,-127.7 180,-127.7 180,-127.7 176.1896,-126.4832 181.0952,-124.2706 172.3792,-125.2663 172.3792,-125.2663"/>
<ellipse fill="none" stroke="#000000" cx="169.3308" cy="-124.2928" rx="3.2" ry="3.2"/>
</g>
<!-- submission -->
<g id="node3" class="node">
<title>submission</title>
<g id="a_node3"><a xlink:href="../../tables/submission.html" xlink:title="submission" target="_top">
<polygon fill="#ffffff" stroke="transparent" points="9,-142.2 9,-225.2 128,-225.2 128,-142.2 9,-142.2"/>
<polygon fill="#f5f5f5" stroke="transparent" points="9.5,-201.7 9.5,-224.7 128.5,-224.7 128.5,-201.7 9.5,-201.7"/>
<polygon fill="none" stroke="#000000" points="9.5,-201.7 9.5,-224.7 128.5,-224.7 128.5,-201.7 9.5,-201.7"/>
<text text-anchor="start" x="14.5" y="-210.8" font-family="Helvetica,sans-Serif" font-weight="bold" font-size="11.00" fill="#000000">submission</text>
<text text-anchor="start" x="93.5437" y="-209.8" font-family="Helvetica,sans-Serif" font-size="11.00" fill="#000000">[table]</text>
<polygon fill="none" stroke="#000000" points="9.5,-179.7 9.5,-201.7 128.5,-201.7 128.5,-179.7 9.5,-179.7"/>
<image xlink:href="../../images/primaryKeys.png" width="11px" height="12px" preserveAspectRatio="xMinYMin meet" x="14.5" y="-196.7"/>
<text text-anchor="start" x="29.5" y="-186.8" font-family="Helvetica,sans-Serif" font-size="11.00" fill="#000000">submission_id</text>
<polygon fill="none" stroke="#000000" points="9.5,-160.7 9.5,-179.7 128.5,-179.7 128.5,-160.7 9.5,-160.7"/>
<text text-anchor="start" x="12.5" y="-166.8" font-family="Helvetica,sans-Serif" font-size="11.00" fill="#000000">...</text>
<polygon fill="#ffffff" stroke="transparent" points="9.5,-141.7 9.5,-160.7 45.5,-160.7 45.5,-141.7 9.5,-141.7"/>
<polygon fill="none" stroke="#000000" points="9.5,-141.7 9.5,-160.7 45.5,-160.7 45.5,-141.7 9.5,-141.7"/>
<text text-anchor="start" x="12.5" y="-147.8" font-family="Helvetica,sans-Serif" font-size="11.00" fill="#000000"> &#160;</text>
<polygon fill="#ffffff" stroke="transparent" points="45.5,-141.7 45.5,-160.7 95.5,-160.7 95.5,-141.7 45.5,-141.7"/>
<polygon fill="none" stroke="#000000" points="45.5,-141.7 45.5,-160.7 95.5,-160.7 95.5,-141.7 45.5,-141.7"/>
<text text-anchor="start" x="60.1105" y="-147.8" font-family="Helvetica,sans-Serif" font-size="11.00" fill="#000000">0 rows</text>
<polygon fill="#ffffff" stroke="transparent" points="95.5,-141.7 95.5,-160.7 128.5,-160.7 128.5,-141.7 95.5,-141.7"/>
<polygon fill="none" stroke="#000000" points="95.5,-141.7 95.5,-160.7 128.5,-160.7 128.5,-141.7 95.5,-141.7"/>
<text text-anchor="start" x="109.9053" y="-147.8" font-family="Helvetica,sans-Serif" font-size="11.00" fill="#000000">6 &gt;</text>
</a>
</g>
</g>
<!-- metadata&#45;&gt;submission -->
<g id="edge2" class="edge">
<title>metadata:w&#45;&gt;submission:e</title>
<path fill="none" stroke="#000000" d="M166.0533,-154.0877C152.096,-164.6646 151.8139,-190.7 128.5,-190.7"/>
<polygon fill="#000000" stroke="#000000" points="172.3687,-152.1009 181.0804,-153.1341 176.1844,-150.9004 180,-149.7 180,-149.7 180,-149.7 176.1844,-150.9004 178.9196,-146.2659 172.3687,-152.1009 172.3687,-152.1009"/>
<ellipse fill="none" stroke="#000000" cx="169.3162" cy="-153.0612" rx="3.2" ry="3.2"/>
</g>
</g>
</svg>
