<?xml version="1.0" encoding="UTF-8" standalone="no"?>
<!DOCTYPE svg PUBLIC "-//W3C//DTD SVG 1.1//EN"
 "http://www.w3.org/Graphics/SVG/1.1/DTD/svg11.dtd">
<!-- Generated by graphviz version 2.40.1 (20161225.0304)
 -->
<!-- Title: oneDegreeRelationshipsDiagram Pages: 1 -->
<svg width="384pt" height="293pt"
 viewBox="0.00 0.00 384.00 292.70" xmlns="http://www.w3.org/2000/svg" xmlns:xlink="http://www.w3.org/1999/xlink">
<g id="graph0" class="graph" transform="scale(1 1) rotate(0) translate(4 288.7)">
<title>oneDegreeRelationshipsDiagram</title>
<polygon fill="#ffffff" stroke="transparent" points="-4,4 -4,-288.7 380,-288.7 380,4 -4,4"/>
<text text-anchor="middle" x="72.4936" y="-7.3" font-family="Helvetica,sans-Serif" font-size="11.00" fill="#000000">Generated by SchemaSpy</text>
<!-- metadata -->
<g id="node1" class="node">
<title>metadata</title>
<g id="a_node1"><a xlink:href="../../tables/metadata.html" xlink:title="metadata" target="_top">
<polygon fill="#ffffff" stroke="transparent" points="262,-175.7 262,-280.7 368,-280.7 368,-175.7 262,-175.7"/>
<polygon fill="#f5f5f5" stroke="transparent" points="262,-257.2 262,-280.2 368,-280.2 368,-257.2 262,-257.2"/>
<polygon fill="none" stroke="#000000" points="262,-257.2 262,-280.2 368,-280.2 368,-257.2 262,-257.2"/>
<text text-anchor="start" x="267" y="-266.3" font-family="Helvetica,sans-Serif" font-weight="bold" font-size="11.00" fill="#000000">metadata</text>
<text text-anchor="start" x="333.0437" y="-265.3" font-family="Helvetica,sans-Serif" font-size="11.00" fill="#000000">[table]</text>
<polygon fill="none" stroke="#000000" points="262,-235.2 262,-257.2 368,-257.2 368,-235.2 262,-235.2"/>
<image xlink:href="../../images/primaryKeys.png" width="11px" height="12px" preserveAspectRatio="xMinYMin meet" x="267" y="-252.2"/>
<text text-anchor="start" x="282" y="-242.3" font-family="Helvetica,sans-Serif" font-size="11.00" fill="#000000">submission_id</text>
<polygon fill="none" stroke="#000000" points="262,-213.2 262,-235.2 368,-235.2 368,-213.2 262,-213.2"/>
<image xlink:href="../../images/primaryKeys.png" width="11px" height="12px" preserveAspectRatio="xMinYMin meet" x="267" y="-230.2"/>
<text text-anchor="start" x="282" y="-220.3" font-family="Helvetica,sans-Serif" font-size="11.00" fill="#000000">attribute_id</text>
<polygon fill="none" stroke="#000000" points="262,-194.2 262,-213.2 368,-213.2 368,-194.2 262,-194.2"/>
<text text-anchor="start" x="265" y="-200.3" font-family="Helvetica,sans-Serif" font-size="11.00" fill="#000000">...</text>
<polygon fill="#ffffff" stroke="transparent" points="262,-175.2 262,-194.2 300,-194.2 300,-175.2 262,-175.2"/>
<polygon fill="none" stroke="#000000" points="262,-175.2 262,-194.2 300,-194.2 300,-175.2 262,-175.2"/>
<text text-anchor="start" x="265" y="-181.3" font-family="Helvetica,sans-Serif" font-size="11.00" fill="#000000">&lt; 2</text>
<polygon fill="#ffffff" stroke="transparent" points="300,-175.2 300,-194.2 347,-194.2 347,-175.2 300,-175.2"/>
<polygon fill="none" stroke="#000000" points="300,-175.2 300,-194.2 347,-194.2 347,-175.2 300,-175.2"/>
<text text-anchor="start" x="311.6105" y="-181.3" font-family="Helvetica,sans-Serif" font-size="11.00" fill="#000000">0 rows</text>
<polygon fill="#ffffff" stroke="transparent" points="347,-175.2 347,-194.2 368,-194.2 368,-175.2 347,-175.2"/>
<polygon fill="none" stroke="#000000" points="347,-175.2 347,-194.2 368,-194.2 368,-175.2 347,-175.2"/>
<text text-anchor="start" x="358.8862" y="-181.3" font-family="Helvetica,sans-Serif" font-size="11.00" fill="#000000"> &#160;</text>
</a>
</g>
</g>
<!-- metadata_types -->
<g id="node2" class="node">
<title>metadata_types</title>
<g id="a_node2"><a xlink:href="../../tables/metadata_types.html" xlink:title="metadata_types" target="_top">
<polygon fill="#ffffff" stroke="transparent" points="8,-38.2 8,-260.2 213,-260.2 213,-38.2 8,-38.2"/>
<polygon fill="#f5f5f5" stroke="transparent" points="10.5,-235.2 10.5,-258.2 211.5,-258.2 211.5,-235.2 10.5,-235.2"/>
<polygon fill="none" stroke="#000000" points="10.5,-235.2 10.5,-258.2 211.5,-258.2 211.5,-235.2 10.5,-235.2"/>
<text text-anchor="start" x="15.5" y="-244.3" font-family="Helvetica,sans-Serif" font-weight="bold" font-size="11.00" fill="#000000">metadata_types</text>
<text text-anchor="start" x="176.5437" y="-243.3" font-family="Helvetica,sans-Serif" font-size="11.00" fill="#000000">[table]</text>
<polygon fill="none" stroke="#000000" points="10.5,-213.2 10.5,-235.2 121.5,-235.2 121.5,-213.2 10.5,-213.2"/>
<image xlink:href="../../images/primaryKeys.png" width="11px" height="12px" preserveAspectRatio="xMinYMin meet" x="15.5" y="-230.2"/>
<text text-anchor="start" x="30.5" y="-220.3" font-family="Helvetica,sans-Serif" font-size="11.00" fill="#000000">attribute_id</text>
<polygon fill="none" stroke="#000000" points="121.5,-213.2 121.5,-235.2 211.5,-235.2 211.5,-213.2 121.5,-213.2"/>
<text text-anchor="start" x="124.5" y="-220.9" font-family="Helvetica,sans-Serif" font-size="11.00" fill="#000000">int8[19]</text>
<polygon fill="none" stroke="#000000" points="10.5,-191.2 10.5,-213.2 121.5,-213.2 121.5,-191.2 10.5,-191.2"/>
<text text-anchor="start" x="30.5" y="-198.3" font-family="Helvetica,sans-Serif" font-size="11.00" fill="#000000">category</text>
<polygon fill="none" stroke="#000000" points="121.5,-191.2 121.5,-213.2 211.5,-213.2 211.5,-191.2 121.5,-191.2"/>
<text text-anchor="start" x="124.5" y="-198.9" font-family="Helvetica,sans-Serif" font-size="11.00" fill="#000000">varchar[1024]</text>
<polygon fill="none" stroke="#000000" points="10.5,-169.2 10.5,-191.2 121.5,-191.2 121.5,-169.2 10.5,-169.2"/>
<text text-anchor="start" x="30.5" y="-176.3" font-family="Helvetica,sans-Serif" font-size="11.00" fill="#000000">attribute_name</text>
<polygon fill="none" stroke="#000000" points="121.5,-169.2 121.5,-191.2 211.5,-191.2 211.5,-169.2 121.5,-169.2"/>
<text text-anchor="start" x="124.5" y="-176.9" font-family="Helvetica,sans-Serif" font-size="11.00" fill="#000000">varchar[1024]</text>
<polygon fill="none" stroke="#000000" points="10.5,-147.2 10.5,-169.2 121.5,-169.2 121.5,-147.2 10.5,-147.2"/>
<text text-anchor="start" x="30.5" y="-154.3" font-family="Helvetica,sans-Serif" font-size="11.00" fill="#000000">type</text>
<polygon fill="none" stroke="#000000" points="121.5,-147.2 121.5,-169.2 211.5,-169.2 211.5,-147.2 121.5,-147.2"/>
<text text-anchor="start" x="124.5" y="-154.9" font-family="Helvetica,sans-Serif" font-size="11.00" fill="#000000">varchar[1024]</text>
<polygon fill="none" stroke="#000000" points="10.5,-125.2 10.5,-147.2 121.5,-147.2 121.5,-125.2 10.5,-125.2"/>
<text text-anchor="start" x="30.5" y="-132.3" font-family="Helvetica,sans-Serif" font-size="11.00" fill="#000000">description</text>
<polygon fill="none" stroke="#000000" points="121.5,-125.2 121.5,-147.2 211.5,-147.2 211.5,-125.2 121.5,-125.2"/>
<text text-anchor="start" x="124.0042" y="-132.9" font-family="Helvetica,sans-Serif" font-size="11.00" fill="#000000">text[2147483647]</text>
<polygon fill="none" stroke="#000000" points="10.5,-103.2 10.5,-125.2 121.5,-125.2 121.5,-103.2 10.5,-103.2"/>
<text text-anchor="start" x="30.5" y="-110.3" font-family="Helvetica,sans-Serif" font-size="11.00" fill="#000000">example</text>
<polygon fill="none" stroke="#000000" points="121.5,-103.2 121.5,-125.2 211.5,-125.2 211.5,-103.2 121.5,-103.2"/>
<text text-anchor="start" x="124.0042" y="-110.9" font-family="Helvetica,sans-Serif" font-size="11.00" fill="#000000">text[2147483647]</text>
<polygon fill="none" stroke="#000000" points="10.5,-81.2 10.5,-103.2 121.5,-103.2 121.5,-81.2 10.5,-81.2"/>
<text text-anchor="start" x="30.5" y="-88.3" font-family="Helvetica,sans-Serif" font-size="11.00" fill="#000000">comments</text>
<polygon fill="none" stroke="#000000" points="121.5,-81.2 121.5,-103.2 211.5,-103.2 211.5,-81.2 121.5,-81.2"/>
<text text-anchor="start" x="124.0042" y="-88.9" font-family="Helvetica,sans-Serif" font-size="11.00" fill="#000000">text[2147483647]</text>
<polygon fill="none" stroke="#000000" points="10.5,-59.2 10.5,-81.2 121.5,-81.2 121.5,-59.2 10.5,-59.2"/>
<text text-anchor="start" x="30.5" y="-66.3" font-family="Helvetica,sans-Serif" font-size="11.00" fill="#000000">necessity</text>
<polygon fill="none" stroke="#000000" points="121.5,-59.2 121.5,-81.2 211.5,-81.2 211.5,-59.2 121.5,-59.2"/>
<text text-anchor="start" x="124.5" y="-66.9" font-family="Helvetica,sans-Serif" font-size="11.00" fill="#000000">varchar[1024]</text>
<polygon fill="#ffffff" stroke="transparent" points="10.5,-40.2 10.5,-59.2 51.5,-59.2 51.5,-40.2 10.5,-40.2"/>
<polygon fill="none" stroke="#000000" points="10.5,-40.2 10.5,-59.2 51.5,-59.2 51.5,-40.2 10.5,-40.2"/>
<text text-anchor="start" x="13.5" y="-46.3" font-family="Helvetica,sans-Serif" font-size="11.00" fill="#000000">&lt; 0</text>
<polygon fill="#ffffff" stroke="transparent" points="51.5,-40.2 51.5,-59.2 121.5,-59.2 121.5,-40.2 51.5,-40.2"/>
<polygon fill="none" stroke="#000000" points="51.5,-40.2 51.5,-59.2 121.5,-59.2 121.5,-40.2 51.5,-40.2"/>
<text text-anchor="start" x="73.8807" y="-46.3" font-family="Helvetica,sans-Serif" font-size="11.00" fill="#000000">142 rows</text>
<polygon fill="#ffffff" stroke="transparent" points="121.5,-40.2 121.5,-59.2 211.5,-59.2 211.5,-40.2 121.5,-40.2"/>
<polygon fill="none" stroke="#000000" points="121.5,-40.2 121.5,-59.2 211.5,-59.2 211.5,-40.2 121.5,-40.2"/>
<text text-anchor="start" x="192.9053" y="-46.3" font-family="Helvetica,sans-Serif" font-size="11.00" fill="#000000">1 &gt;</text>
<polygon fill="none" stroke="#000000" stroke-width="2" points="9,-39.2 9,-259.2 212,-259.2 212,-39.2 9,-39.2"/>
</a>
</g>
</g>
<!-- metadata&#45;&gt;metadata_types -->
<g id="edge1" class="edge">
<title>metadata:w&#45;&gt;metadata_types:e</title>
<path fill="none" stroke="#000000" d="M247.4203,-224.2C235.5435,-224.2 228.158,-224.2 211.5,-224.2"/>
<polygon fill="#000000" stroke="#000000" points="254,-224.2001 262,-227.8 258,-224.2 262,-224.2 262,-224.2 262,-224.2 258,-224.2 262,-220.6 254,-224.2001 254,-224.2001"/>
<ellipse fill="none" stroke="#000000" cx="250.8" cy="-224.2001" rx="3.2" ry="3.2"/>
</g>
</g>
</svg>
