<?xml version="1.0" encoding="UTF-8" standalone="no"?>
<!DOCTYPE svg PUBLIC "-//W3C//DTD SVG 1.1//EN"
 "http://www.w3.org/Graphics/SVG/1.1/DTD/svg11.dtd">
<!-- Generated by graphviz version 2.40.1 (20161225.0304)
 -->
<!-- Title: oneDegreeRelationshipsDiagram Pages: 1 -->
<svg width="673pt" height="803pt"
 viewBox="0.00 0.00 673.00 803.20" xmlns="http://www.w3.org/2000/svg" xmlns:xlink="http://www.w3.org/1999/xlink">
<g id="graph0" class="graph" transform="scale(1 1) rotate(0) translate(4 799.2)">
<title>oneDegreeRelationshipsDiagram</title>
<polygon fill="#ffffff" stroke="transparent" points="-4,4 -4,-799.2 669,-799.2 669,4 -4,4"/>
<text text-anchor="middle" x="72.4936" y="-7.3" font-family="Helvetica,sans-Serif" font-size="11.00" fill="#000000">Generated by SchemaSpy</text>
<!-- data_histogram_bin_data -->
<g id="node1" class="node">
<title>data_histogram_bin_data</title>
<g id="a_node1"><a xlink:href="../../tables/data_histogram_bin_data.html" xlink:title="data_histogram_bin_data" target="_top">
<polygon fill="#ffffff" stroke="transparent" points="490,-576.2 490,-791.2 657,-791.2 657,-576.2 490,-576.2"/>
<polygon fill="#f5f5f5" stroke="transparent" points="490.5,-767.7 490.5,-790.7 657.5,-790.7 657.5,-767.7 490.5,-767.7"/>
<polygon fill="none" stroke="#000000" points="490.5,-767.7 490.5,-790.7 657.5,-790.7 657.5,-767.7 490.5,-767.7"/>
<text text-anchor="start" x="495.4501" y="-776.8" font-family="Helvetica,sans-Serif" font-weight="bold" font-size="11.00" fill="#000000">data_histogram_bin_data</text>
<text text-anchor="start" x="623.0219" y="-775.8" font-family="Helvetica,sans-Serif" font-size="11.00" fill="#000000">[table]</text>
<polygon fill="none" stroke="#000000" points="490.5,-745.7 490.5,-767.7 657.5,-767.7 657.5,-745.7 490.5,-745.7"/>
<image xlink:href="../../images/primaryKeys.png" width="11px" height="12px" preserveAspectRatio="xMinYMin meet" x="495.5" y="-762.7"/>
<text text-anchor="start" x="511.5" y="-752.8" font-family="Helvetica,sans-Serif" font-size="11.00" fill="#000000">submission_id</text>
<polygon fill="none" stroke="#000000" points="490.5,-723.7 490.5,-745.7 657.5,-745.7 657.5,-723.7 490.5,-723.7"/>
<image xlink:href="../../images/primaryKeys.png" width="11px" height="12px" preserveAspectRatio="xMinYMin meet" x="495.5" y="-740.7"/>
<text text-anchor="start" x="511.5" y="-730.8" font-family="Helvetica,sans-Serif" font-size="11.00" fill="#000000">tag_id</text>
<polygon fill="none" stroke="#000000" points="490.5,-701.7 490.5,-723.7 657.5,-723.7 657.5,-701.7 490.5,-701.7"/>
<image xlink:href="../../images/primaryKeys.png" width="11px" height="12px" preserveAspectRatio="xMinYMin meet" x="495.5" y="-718.7"/>
<text text-anchor="start" x="511.5" y="-708.8" font-family="Helvetica,sans-Serif" font-size="11.00" fill="#000000">bin_id</text>
<polygon fill="none" stroke="#000000" points="490.5,-679.7 490.5,-701.7 657.5,-701.7 657.5,-679.7 490.5,-679.7"/>
<image xlink:href="../../images/primaryKeys.png" width="11px" height="12px" preserveAspectRatio="xMinYMin meet" x="495.5" y="-696.7"/>
<text text-anchor="start" x="511.5" y="-686.8" font-family="Helvetica,sans-Serif" font-size="11.00" fill="#000000">bin_class</text>
<polygon fill="none" stroke="#000000" points="490.5,-657.7 490.5,-679.7 657.5,-679.7 657.5,-657.7 490.5,-657.7"/>
<image xlink:href="../../images/primaryKeys.png" width="11px" height="12px" preserveAspectRatio="xMinYMin meet" x="495.5" y="-674.7"/>
<text text-anchor="start" x="511.5" y="-664.8" font-family="Helvetica,sans-Serif" font-size="11.00" fill="#000000">date_time</text>
<polygon fill="#ffffff" stroke="transparent" points="490.5,-635.7 490.5,-657.7 657.5,-657.7 657.5,-635.7 490.5,-635.7"/>
<polygon fill="none" stroke="#000000" points="490.5,-635.7 490.5,-657.7 657.5,-657.7 657.5,-635.7 490.5,-635.7"/>
<image xlink:href="../../images/foreignKeys.png" width="11px" height="12px" preserveAspectRatio="xMinYMin meet" x="495.5" y="-652.7"/>
<text text-anchor="start" x="511.5" y="-642.8" font-family="Helvetica,sans-Serif" font-size="11.00" fill="#000000">position_date_time</text>
<polygon fill="none" stroke="#000000" points="490.5,-613.7 490.5,-635.7 657.5,-635.7 657.5,-613.7 490.5,-613.7"/>
<image xlink:href="../../images/primaryKeys.png" width="11px" height="12px" preserveAspectRatio="xMinYMin meet" x="495.5" y="-630.7"/>
<text text-anchor="start" x="511.5" y="-620.8" font-family="Helvetica,sans-Serif" font-size="11.00" fill="#000000">variable_id</text>
<polygon fill="none" stroke="#000000" points="490.5,-594.7 490.5,-613.7 657.5,-613.7 657.5,-594.7 490.5,-594.7"/>
<text text-anchor="start" x="493.5" y="-600.8" font-family="Helvetica,sans-Serif" font-size="11.00" fill="#000000">...</text>
<polygon fill="#ffffff" stroke="transparent" points="490.5,-575.7 490.5,-594.7 559.5,-594.7 559.5,-575.7 490.5,-575.7"/>
<polygon fill="none" stroke="#000000" points="490.5,-575.7 490.5,-594.7 559.5,-594.7 559.5,-575.7 490.5,-575.7"/>
<text text-anchor="start" x="493.5" y="-581.8" font-family="Helvetica,sans-Serif" font-size="11.00" fill="#000000">&lt; 7</text>
<polygon fill="#ffffff" stroke="transparent" points="559.5,-575.7 559.5,-594.7 621.5,-594.7 621.5,-575.7 559.5,-575.7"/>
<polygon fill="none" stroke="#000000" points="559.5,-575.7 559.5,-594.7 621.5,-594.7 621.5,-575.7 559.5,-575.7"/>
<text text-anchor="start" x="586.1105" y="-581.8" font-family="Helvetica,sans-Serif" font-size="11.00" fill="#000000">0 rows</text>
<polygon fill="#ffffff" stroke="transparent" points="621.5,-575.7 621.5,-594.7 657.5,-594.7 657.5,-575.7 621.5,-575.7"/>
<polygon fill="none" stroke="#000000" points="621.5,-575.7 621.5,-594.7 657.5,-594.7 657.5,-575.7 621.5,-575.7"/>
<text text-anchor="start" x="648.3862" y="-581.8" font-family="Helvetica,sans-Serif" font-size="11.00" fill="#000000"> &#160;</text>
</a>
</g>
</g>
<!-- data_histogram_bin_info -->
<g id="node2" class="node">
<title>data_histogram_bin_info</title>
<g id="a_node2"><a xlink:href="../../tables/data_histogram_bin_info.html" xlink:title="data_histogram_bin_info" target="_top">
<polygon fill="#ffffff" stroke="transparent" points="278,-620.2 278,-747.2 441,-747.2 441,-620.2 278,-620.2"/>
<polygon fill="#f5f5f5" stroke="transparent" points="278.5,-723.7 278.5,-746.7 441.5,-746.7 441.5,-723.7 278.5,-723.7"/>
<polygon fill="none" stroke="#000000" points="278.5,-723.7 278.5,-746.7 441.5,-746.7 441.5,-723.7 278.5,-723.7"/>
<text text-anchor="start" x="283.2871" y="-732.8" font-family="Helvetica,sans-Serif" font-weight="bold" font-size="11.00" fill="#000000">data_histogram_bin_info</text>
<text text-anchor="start" x="407.0219" y="-731.8" font-family="Helvetica,sans-Serif" font-size="11.00" fill="#000000">[table]</text>
<polygon fill="none" stroke="#000000" points="278.5,-701.7 278.5,-723.7 441.5,-723.7 441.5,-701.7 278.5,-701.7"/>
<image xlink:href="../../images/primaryKeys.png" width="11px" height="12px" preserveAspectRatio="xMinYMin meet" x="283.5" y="-718.7"/>
<text text-anchor="start" x="298.5" y="-708.8" font-family="Helvetica,sans-Serif" font-size="11.00" fill="#000000">bin_id</text>
<polygon fill="none" stroke="#000000" points="278.5,-679.7 278.5,-701.7 441.5,-701.7 441.5,-679.7 278.5,-679.7"/>
<image xlink:href="../../images/primaryKeys.png" width="11px" height="12px" preserveAspectRatio="xMinYMin meet" x="283.5" y="-696.7"/>
<text text-anchor="start" x="298.5" y="-686.8" font-family="Helvetica,sans-Serif" font-size="11.00" fill="#000000">bin_class</text>
<polygon fill="none" stroke="#000000" points="278.5,-657.7 278.5,-679.7 441.5,-679.7 441.5,-657.7 278.5,-657.7"/>
<image xlink:href="../../images/primaryKeys.png" width="11px" height="12px" preserveAspectRatio="xMinYMin meet" x="283.5" y="-674.7"/>
<text text-anchor="start" x="298.5" y="-664.8" font-family="Helvetica,sans-Serif" font-size="11.00" fill="#000000">variable_id</text>
<polygon fill="none" stroke="#000000" points="278.5,-638.7 278.5,-657.7 441.5,-657.7 441.5,-638.7 278.5,-638.7"/>
<text text-anchor="start" x="281.5" y="-644.8" font-family="Helvetica,sans-Serif" font-size="11.00" fill="#000000">...</text>
<polygon fill="#ffffff" stroke="transparent" points="278.5,-619.7 278.5,-638.7 340.5,-638.7 340.5,-619.7 278.5,-619.7"/>
<polygon fill="none" stroke="#000000" points="278.5,-619.7 278.5,-638.7 340.5,-638.7 340.5,-619.7 278.5,-619.7"/>
<text text-anchor="start" x="281.5" y="-625.8" font-family="Helvetica,sans-Serif" font-size="11.00" fill="#000000">&lt; 1</text>
<polygon fill="#ffffff" stroke="transparent" points="340.5,-619.7 340.5,-638.7 399.5,-638.7 399.5,-619.7 340.5,-619.7"/>
<polygon fill="none" stroke="#000000" points="340.5,-619.7 340.5,-638.7 399.5,-638.7 399.5,-619.7 340.5,-619.7"/>
<text text-anchor="start" x="364.1105" y="-625.8" font-family="Helvetica,sans-Serif" font-size="11.00" fill="#000000">0 rows</text>
<polygon fill="#ffffff" stroke="transparent" points="399.5,-619.7 399.5,-638.7 441.5,-638.7 441.5,-619.7 399.5,-619.7"/>
<polygon fill="none" stroke="#000000" points="399.5,-619.7 399.5,-638.7 441.5,-638.7 441.5,-619.7 399.5,-619.7"/>
<text text-anchor="start" x="422.9053" y="-625.8" font-family="Helvetica,sans-Serif" font-size="11.00" fill="#000000">2 &gt;</text>
</a>
</g>
</g>
<!-- data_histogram_bin_data&#45;&gt;data_histogram_bin_info -->
<g id="edge1" class="edge">
<title>data_histogram_bin_data:w&#45;&gt;data_histogram_bin_info:e</title>
<path fill="none" stroke="#000000" d="M475.9909,-690.7C464.6774,-690.7 457.4931,-690.7 441.5,-690.7"/>
<polygon fill="#000000" stroke="#000000" points="482.5,-690.7001 490.5,-694.3 486.5,-690.7 490.5,-690.7 490.5,-690.7 490.5,-690.7 486.5,-690.7 490.5,-687.1 482.5,-690.7001 482.5,-690.7001"/>
<ellipse fill="none" stroke="#000000" cx="479.3" cy="-690.7001" rx="3.2" ry="3.2"/>
</g>
<!-- data_histogram_bin_data&#45;&gt;data_histogram_bin_info -->
<g id="edge2" class="edge">
<title>data_histogram_bin_data:w&#45;&gt;data_histogram_bin_info:e</title>
<path fill="none" stroke="#000000" d="M475.9909,-712.7C464.6774,-712.7 457.4931,-712.7 441.5,-712.7"/>
<polygon fill="#000000" stroke="#000000" points="482.5,-712.7001 490.5,-716.3 486.5,-712.7 490.5,-712.7 490.5,-712.7 490.5,-712.7 486.5,-712.7 490.5,-709.1 482.5,-712.7001 482.5,-712.7001"/>
<ellipse fill="none" stroke="#000000" cx="479.3" cy="-712.7001" rx="3.2" ry="3.2"/>
</g>
<!-- observation_types -->
<g id="node3" class="node">
<title>observation_types</title>
<g id="a_node3"><a xlink:href="../../tables/observation_types.html" xlink:title="observation_types" target="_top">
<polygon fill="#ffffff" stroke="transparent" points="8,-328.7 8,-528.7 229,-528.7 229,-328.7 8,-328.7"/>
<polygon fill="#f5f5f5" stroke="transparent" points="10.5,-503.7 10.5,-526.7 227.5,-526.7 227.5,-503.7 10.5,-503.7"/>
<polygon fill="none" stroke="#000000" points="10.5,-503.7 10.5,-526.7 227.5,-526.7 227.5,-503.7 10.5,-503.7"/>
<text text-anchor="start" x="15.5" y="-512.8" font-family="Helvetica,sans-Serif" font-weight="bold" font-size="11.00" fill="#000000">observation_types</text>
<text text-anchor="start" x="192.5437" y="-511.8" font-family="Helvetica,sans-Serif" font-size="11.00" fill="#000000">[table]</text>
<polygon fill="none" stroke="#000000" points="10.5,-481.7 10.5,-503.7 137.5,-503.7 137.5,-481.7 10.5,-481.7"/>
<image xlink:href="../../images/primaryKeys.png" width="11px" height="12px" preserveAspectRatio="xMinYMin meet" x="15.5" y="-498.7"/>
<text text-anchor="start" x="30.5" y="-488.8" font-family="Helvetica,sans-Serif" font-size="11.00" fill="#000000">variable_id</text>
<polygon fill="none" stroke="#000000" points="137.5,-481.7 137.5,-503.7 227.5,-503.7 227.5,-481.7 137.5,-481.7"/>
<text text-anchor="start" x="140.5" y="-489.4" font-family="Helvetica,sans-Serif" font-size="11.00" fill="#000000">bigserial[19]</text>
<polygon fill="#ffffff" stroke="transparent" points="10.5,-459.7 10.5,-481.7 137.5,-481.7 137.5,-459.7 10.5,-459.7"/>
<polygon fill="none" stroke="#000000" points="10.5,-459.7 10.5,-481.7 137.5,-481.7 137.5,-459.7 10.5,-459.7"/>
<text text-anchor="start" x="30.5" y="-466.8" font-family="Helvetica,sans-Serif" font-size="11.00" fill="#000000">variable_name</text>
<polygon fill="none" stroke="#000000" points="137.5,-459.7 137.5,-481.7 227.5,-481.7 227.5,-459.7 137.5,-459.7"/>
<text text-anchor="start" x="140.5" y="-467.4" font-family="Helvetica,sans-Serif" font-size="11.00" fill="#000000">varchar[255]</text>
<polygon fill="none" stroke="#000000" points="10.5,-437.7 10.5,-459.7 137.5,-459.7 137.5,-437.7 10.5,-437.7"/>
<text text-anchor="start" x="30.5" y="-444.8" font-family="Helvetica,sans-Serif" font-size="11.00" fill="#000000">standard_name</text>
<polygon fill="none" stroke="#000000" points="137.5,-437.7 137.5,-459.7 227.5,-459.7 227.5,-437.7 137.5,-437.7"/>
<text text-anchor="start" x="140.5" y="-445.4" font-family="Helvetica,sans-Serif" font-size="11.00" fill="#000000">varchar[255]</text>
<polygon fill="none" stroke="#000000" points="10.5,-415.7 10.5,-437.7 137.5,-437.7 137.5,-415.7 10.5,-415.7"/>
<text text-anchor="start" x="30.5" y="-422.8" font-family="Helvetica,sans-Serif" font-size="11.00" fill="#000000">variable_source</text>
<polygon fill="none" stroke="#000000" points="137.5,-415.7 137.5,-437.7 227.5,-437.7 227.5,-415.7 137.5,-415.7"/>
<text text-anchor="start" x="140.5" y="-423.4" font-family="Helvetica,sans-Serif" font-size="11.00" fill="#000000">varchar[255]</text>
<polygon fill="none" stroke="#000000" points="10.5,-393.7 10.5,-415.7 137.5,-415.7 137.5,-393.7 10.5,-393.7"/>
<text text-anchor="start" x="30.5" y="-400.8" font-family="Helvetica,sans-Serif" font-size="11.00" fill="#000000">variable_units</text>
<polygon fill="none" stroke="#000000" points="137.5,-393.7 137.5,-415.7 227.5,-415.7 227.5,-393.7 137.5,-393.7"/>
<text text-anchor="start" x="140.5" y="-401.4" font-family="Helvetica,sans-Serif" font-size="11.00" fill="#000000">varchar[255]</text>
<polygon fill="none" stroke="#000000" points="10.5,-371.7 10.5,-393.7 137.5,-393.7 137.5,-371.7 10.5,-371.7"/>
<text text-anchor="start" x="30.5" y="-378.8" font-family="Helvetica,sans-Serif" font-size="11.00" fill="#000000">notes</text>
<polygon fill="none" stroke="#000000" points="137.5,-371.7 137.5,-393.7 227.5,-393.7 227.5,-371.7 137.5,-371.7"/>
<text text-anchor="start" x="140.0042" y="-379.4" font-family="Helvetica,sans-Serif" font-size="11.00" fill="#000000">text[2147483647]</text>
<polygon fill="none" stroke="#000000" points="10.5,-349.7 10.5,-371.7 137.5,-371.7 137.5,-349.7 10.5,-349.7"/>
<text text-anchor="start" x="30.5" y="-356.8" font-family="Helvetica,sans-Serif" font-size="11.00" fill="#000000">standard_unit</text>
<polygon fill="none" stroke="#000000" points="137.5,-349.7 137.5,-371.7 227.5,-371.7 227.5,-349.7 137.5,-349.7"/>
<text text-anchor="start" x="140.5" y="-357.4" font-family="Helvetica,sans-Serif" font-size="11.00" fill="#000000">varchar[255]</text>
<polygon fill="#ffffff" stroke="transparent" points="10.5,-330.7 10.5,-349.7 59.5,-349.7 59.5,-330.7 10.5,-330.7"/>
<polygon fill="none" stroke="#000000" points="10.5,-330.7 10.5,-349.7 59.5,-349.7 59.5,-330.7 10.5,-330.7"/>
<text text-anchor="start" x="13.5" y="-336.8" font-family="Helvetica,sans-Serif" font-size="11.00" fill="#000000">&lt; 0</text>
<polygon fill="#ffffff" stroke="transparent" points="59.5,-330.7 59.5,-349.7 137.5,-349.7 137.5,-330.7 59.5,-330.7"/>
<polygon fill="none" stroke="#000000" points="59.5,-330.7 59.5,-349.7 137.5,-349.7 137.5,-330.7 59.5,-330.7"/>
<text text-anchor="start" x="89.8807" y="-336.8" font-family="Helvetica,sans-Serif" font-size="11.00" fill="#000000">204 rows</text>
<polygon fill="#ffffff" stroke="transparent" points="137.5,-330.7 137.5,-349.7 227.5,-349.7 227.5,-330.7 137.5,-330.7"/>
<polygon fill="none" stroke="#000000" points="137.5,-330.7 137.5,-349.7 227.5,-349.7 227.5,-330.7 137.5,-330.7"/>
<text text-anchor="start" x="208.9053" y="-336.8" font-family="Helvetica,sans-Serif" font-size="11.00" fill="#000000">5 &gt;</text>
<polygon fill="none" stroke="#000000" stroke-width="2" points="9,-329.7 9,-527.7 228,-527.7 228,-329.7 9,-329.7"/>
</a>
</g>
</g>
<!-- data_histogram_bin_data&#45;&gt;observation_types -->
<g id="edge3" class="edge">
<title>data_histogram_bin_data:w&#45;&gt;observation_types:e</title>
<path fill="none" stroke="#000000" d="M476.0107,-622.2021C467.5084,-618.8829 462.0609,-613.0489 449,-609.7 371.0003,-589.7002 334.5762,-629.8026 270,-581.7 234.8468,-555.5145 271.3341,-492.7 227.5,-492.7"/>
<polygon fill="#000000" stroke="#000000" points="482.6163,-623.3409 489.8884,-628.2477 486.5581,-624.0204 490.5,-624.7 490.5,-624.7 490.5,-624.7 486.5581,-624.0204 491.1116,-621.1523 482.6163,-623.3409 482.6163,-623.3409"/>
<ellipse fill="none" stroke="#000000" cx="479.4628" cy="-622.7972" rx="3.2" ry="3.2"/>
</g>
<!-- data_histogram_bin_info&#45;&gt;observation_types -->
<g id="edge4" class="edge">
<title>data_histogram_bin_info:w&#45;&gt;observation_types:e</title>
<path fill="none" stroke="#000000" d="M264.0541,-666.212C211.8373,-644.8201 303.2139,-492.7 227.5,-492.7"/>
<polygon fill="#000000" stroke="#000000" points="270.6161,-667.3421 277.889,-672.2478 274.558,-668.0211 278.5,-668.7 278.5,-668.7 278.5,-668.7 274.558,-668.0211 279.111,-665.1522 270.6161,-667.3421 270.6161,-667.3421"/>
<ellipse fill="none" stroke="#000000" cx="267.4625" cy="-666.799" rx="3.2" ry="3.2"/>
</g>
<!-- data_profile -->
<g id="node4" class="node">
<title>data_profile</title>
<g id="a_node4"><a xlink:href="../../tables/data_profile.html" xlink:title="data_profile" target="_top">
<polygon fill="#ffffff" stroke="transparent" points="294.5,-378.2 294.5,-571.2 424.5,-571.2 424.5,-378.2 294.5,-378.2"/>
<polygon fill="#f5f5f5" stroke="transparent" points="294.5,-547.7 294.5,-570.7 424.5,-570.7 424.5,-547.7 294.5,-547.7"/>
<polygon fill="none" stroke="#000000" points="294.5,-547.7 294.5,-570.7 424.5,-570.7 424.5,-547.7 294.5,-547.7"/>
<text text-anchor="start" x="299.5" y="-556.8" font-family="Helvetica,sans-Serif" font-weight="bold" font-size="11.00" fill="#000000">data_profile</text>
<text text-anchor="start" x="389.5437" y="-555.8" font-family="Helvetica,sans-Serif" font-size="11.00" fill="#000000">[table]</text>
<polygon fill="none" stroke="#000000" points="294.5,-525.7 294.5,-547.7 424.5,-547.7 424.5,-525.7 294.5,-525.7"/>
<image xlink:href="../../images/primaryKeys.png" width="11px" height="12px" preserveAspectRatio="xMinYMin meet" x="299.5" y="-542.7"/>
<text text-anchor="start" x="314.5" y="-532.8" font-family="Helvetica,sans-Serif" font-size="11.00" fill="#000000">submission_id</text>
<polygon fill="none" stroke="#000000" points="294.5,-503.7 294.5,-525.7 424.5,-525.7 424.5,-503.7 294.5,-503.7"/>
<image xlink:href="../../images/primaryKeys.png" width="11px" height="12px" preserveAspectRatio="xMinYMin meet" x="299.5" y="-520.7"/>
<text text-anchor="start" x="314.5" y="-510.8" font-family="Helvetica,sans-Serif" font-size="11.00" fill="#000000">tag_id</text>
<polygon fill="none" stroke="#000000" points="294.5,-481.7 294.5,-503.7 424.5,-503.7 424.5,-481.7 294.5,-481.7"/>
<image xlink:href="../../images/primaryKeys.png" width="11px" height="12px" preserveAspectRatio="xMinYMin meet" x="299.5" y="-498.7"/>
<text text-anchor="start" x="314.5" y="-488.8" font-family="Helvetica,sans-Serif" font-size="11.00" fill="#000000">variable_id</text>
<polygon fill="none" stroke="#000000" points="294.5,-459.7 294.5,-481.7 424.5,-481.7 424.5,-459.7 294.5,-459.7"/>
<image xlink:href="../../images/primaryKeys.png" width="11px" height="12px" preserveAspectRatio="xMinYMin meet" x="299.5" y="-476.7"/>
<text text-anchor="start" x="314.5" y="-466.8" font-family="Helvetica,sans-Serif" font-size="11.00" fill="#000000">date_time</text>
<polygon fill="none" stroke="#000000" points="294.5,-437.7 294.5,-459.7 424.5,-459.7 424.5,-437.7 294.5,-437.7"/>
<image xlink:href="../../images/primaryKeys.png" width="11px" height="12px" preserveAspectRatio="xMinYMin meet" x="299.5" y="-454.7"/>
<text text-anchor="start" x="314.5" y="-444.8" font-family="Helvetica,sans-Serif" font-size="11.00" fill="#000000">depth</text>
<polygon fill="#ffffff" stroke="transparent" points="294.5,-415.7 294.5,-437.7 424.5,-437.7 424.5,-415.7 294.5,-415.7"/>
<polygon fill="none" stroke="#000000" points="294.5,-415.7 294.5,-437.7 424.5,-437.7 424.5,-415.7 294.5,-415.7"/>
<image xlink:href="../../images/foreignKeys.png" width="11px" height="12px" preserveAspectRatio="xMinYMin meet" x="299.5" y="-432.7"/>
<text text-anchor="start" x="314.5" y="-422.8" font-family="Helvetica,sans-Serif" font-size="11.00" fill="#000000">position_date_time</text>
<polygon fill="none" stroke="#000000" points="294.5,-396.7 294.5,-415.7 424.5,-415.7 424.5,-396.7 294.5,-396.7"/>
<text text-anchor="start" x="297.5" y="-402.8" font-family="Helvetica,sans-Serif" font-size="11.00" fill="#000000">...</text>
<polygon fill="#ffffff" stroke="transparent" points="294.5,-377.7 294.5,-396.7 344.5,-396.7 344.5,-377.7 294.5,-377.7"/>
<polygon fill="none" stroke="#000000" points="294.5,-377.7 294.5,-396.7 344.5,-396.7 344.5,-377.7 294.5,-377.7"/>
<text text-anchor="start" x="297.5" y="-383.8" font-family="Helvetica,sans-Serif" font-size="11.00" fill="#000000">&lt; 5</text>
<polygon fill="#ffffff" stroke="transparent" points="344.5,-377.7 344.5,-396.7 397.5,-396.7 397.5,-377.7 344.5,-377.7"/>
<polygon fill="none" stroke="#000000" points="344.5,-377.7 344.5,-396.7 397.5,-396.7 397.5,-377.7 344.5,-377.7"/>
<text text-anchor="start" x="362.1105" y="-383.8" font-family="Helvetica,sans-Serif" font-size="11.00" fill="#000000">0 rows</text>
<polygon fill="#ffffff" stroke="transparent" points="397.5,-377.7 397.5,-396.7 424.5,-396.7 424.5,-377.7 397.5,-377.7"/>
<polygon fill="none" stroke="#000000" points="397.5,-377.7 397.5,-396.7 424.5,-396.7 424.5,-377.7 397.5,-377.7"/>
<text text-anchor="start" x="415.3862" y="-383.8" font-family="Helvetica,sans-Serif" font-size="11.00" fill="#000000"> &#160;</text>
</a>
</g>
</g>
<!-- data_profile&#45;&gt;observation_types -->
<g id="edge5" class="edge">
<title>data_profile:w&#45;&gt;observation_types:e</title>
<path fill="none" stroke="#000000" d="M280.0809,-492.7C261.2359,-492.7 251.8108,-492.7 227.5,-492.7"/>
<polygon fill="#000000" stroke="#000000" points="286.5,-492.7001 294.5,-496.3 290.5,-492.7 294.5,-492.7 294.5,-492.7 294.5,-492.7 290.5,-492.7 294.5,-489.1 286.5,-492.7001 286.5,-492.7001"/>
<ellipse fill="none" stroke="#000000" cx="283.3" cy="-492.7001" rx="3.2" ry="3.2"/>
</g>
<!-- data_time_series -->
<g id="node5" class="node">
<title>data_time_series</title>
<g id="a_node5"><a xlink:href="../../tables/data_time_series.html" xlink:title="data_time_series" target="_top">
<polygon fill="#ffffff" stroke="transparent" points="294.5,-186.2 294.5,-357.2 424.5,-357.2 424.5,-186.2 294.5,-186.2"/>
<polygon fill="#f5f5f5" stroke="transparent" points="294.5,-333.7 294.5,-356.7 424.5,-356.7 424.5,-333.7 294.5,-333.7"/>
<polygon fill="none" stroke="#000000" points="294.5,-333.7 294.5,-356.7 424.5,-356.7 424.5,-333.7 294.5,-333.7"/>
<text text-anchor="start" x="299.5" y="-342.8" font-family="Helvetica,sans-Serif" font-weight="bold" font-size="11.00" fill="#000000">data_time_series</text>
<text text-anchor="start" x="389.5437" y="-341.8" font-family="Helvetica,sans-Serif" font-size="11.00" fill="#000000">[table]</text>
<polygon fill="none" stroke="#000000" points="294.5,-311.7 294.5,-333.7 424.5,-333.7 424.5,-311.7 294.5,-311.7"/>
<image xlink:href="../../images/primaryKeys.png" width="11px" height="12px" preserveAspectRatio="xMinYMin meet" x="299.5" y="-328.7"/>
<text text-anchor="start" x="314.5" y="-318.8" font-family="Helvetica,sans-Serif" font-size="11.00" fill="#000000">date_time</text>
<polygon fill="none" stroke="#000000" points="294.5,-289.7 294.5,-311.7 424.5,-311.7 424.5,-289.7 294.5,-289.7"/>
<image xlink:href="../../images/primaryKeys.png" width="11px" height="12px" preserveAspectRatio="xMinYMin meet" x="299.5" y="-306.7"/>
<text text-anchor="start" x="314.5" y="-296.8" font-family="Helvetica,sans-Serif" font-size="11.00" fill="#000000">variable_id</text>
<polygon fill="none" stroke="#000000" points="294.5,-267.7 294.5,-289.7 424.5,-289.7 424.5,-267.7 294.5,-267.7"/>
<image xlink:href="../../images/primaryKeys.png" width="11px" height="12px" preserveAspectRatio="xMinYMin meet" x="299.5" y="-284.7"/>
<text text-anchor="start" x="314.5" y="-274.8" font-family="Helvetica,sans-Serif" font-size="11.00" fill="#000000">submission_id</text>
<polygon fill="none" stroke="#000000" points="294.5,-245.7 294.5,-267.7 424.5,-267.7 424.5,-245.7 294.5,-245.7"/>
<image xlink:href="../../images/primaryKeys.png" width="11px" height="12px" preserveAspectRatio="xMinYMin meet" x="299.5" y="-262.7"/>
<text text-anchor="start" x="314.5" y="-252.8" font-family="Helvetica,sans-Serif" font-size="11.00" fill="#000000">tag_id</text>
<polygon fill="#ffffff" stroke="transparent" points="294.5,-223.7 294.5,-245.7 424.5,-245.7 424.5,-223.7 294.5,-223.7"/>
<polygon fill="none" stroke="#000000" points="294.5,-223.7 294.5,-245.7 424.5,-245.7 424.5,-223.7 294.5,-223.7"/>
<image xlink:href="../../images/foreignKeys.png" width="11px" height="12px" preserveAspectRatio="xMinYMin meet" x="299.5" y="-240.7"/>
<text text-anchor="start" x="314.5" y="-230.8" font-family="Helvetica,sans-Serif" font-size="11.00" fill="#000000">position_date_time</text>
<polygon fill="none" stroke="#000000" points="294.5,-204.7 294.5,-223.7 424.5,-223.7 424.5,-204.7 294.5,-204.7"/>
<text text-anchor="start" x="297.5" y="-210.8" font-family="Helvetica,sans-Serif" font-size="11.00" fill="#000000">...</text>
<polygon fill="#ffffff" stroke="transparent" points="294.5,-185.7 294.5,-204.7 344.5,-204.7 344.5,-185.7 294.5,-185.7"/>
<polygon fill="none" stroke="#000000" points="294.5,-185.7 294.5,-204.7 344.5,-204.7 344.5,-185.7 294.5,-185.7"/>
<text text-anchor="start" x="297.5" y="-191.8" font-family="Helvetica,sans-Serif" font-size="11.00" fill="#000000">&lt; 5</text>
<polygon fill="#ffffff" stroke="transparent" points="344.5,-185.7 344.5,-204.7 397.5,-204.7 397.5,-185.7 344.5,-185.7"/>
<polygon fill="none" stroke="#000000" points="344.5,-185.7 344.5,-204.7 397.5,-204.7 397.5,-185.7 344.5,-185.7"/>
<text text-anchor="start" x="362.1105" y="-191.8" font-family="Helvetica,sans-Serif" font-size="11.00" fill="#000000">0 rows</text>
<polygon fill="#ffffff" stroke="transparent" points="397.5,-185.7 397.5,-204.7 424.5,-204.7 424.5,-185.7 397.5,-185.7"/>
<polygon fill="none" stroke="#000000" points="397.5,-185.7 397.5,-204.7 424.5,-204.7 424.5,-185.7 397.5,-185.7"/>
<text text-anchor="start" x="415.3862" y="-191.8" font-family="Helvetica,sans-Serif" font-size="11.00" fill="#000000"> &#160;</text>
</a>
</g>
</g>
<!-- data_time_series&#45;&gt;observation_types -->
<g id="edge6" class="edge">
<title>data_time_series:w&#45;&gt;observation_types:e</title>
<path fill="none" stroke="#000000" d="M280.2378,-302.7263C217.1475,-323.2461 312.4075,-492.7 227.5,-492.7"/>
<polygon fill="#000000" stroke="#000000" points="286.5795,-301.8254 295.0064,-304.2642 290.5398,-301.2627 294.5,-300.7 294.5,-300.7 294.5,-300.7 290.5398,-301.2627 293.9936,-297.1358 286.5795,-301.8254 286.5795,-301.8254"/>
<ellipse fill="none" stroke="#000000" cx="283.4114" cy="-302.2755" rx="3.2" ry="3.2"/>
</g>
<!-- proc_observations -->
<g id="node6" class="node">
<title>proc_observations</title>
<g id="a_node6"><a xlink:href="../../tables/proc_observations.html" xlink:title="proc_observations" target="_top">
<polygon fill="#ffffff" stroke="transparent" points="293.5,-38.2 293.5,-165.2 425.5,-165.2 425.5,-38.2 293.5,-38.2"/>
<polygon fill="#f5f5f5" stroke="transparent" points="293.5,-141.7 293.5,-164.7 425.5,-164.7 425.5,-141.7 293.5,-141.7"/>
<polygon fill="none" stroke="#000000" points="293.5,-141.7 293.5,-164.7 425.5,-164.7 425.5,-141.7 293.5,-141.7"/>
<text text-anchor="start" x="298.0722" y="-150.8" font-family="Helvetica,sans-Serif" font-weight="bold" font-size="11.00" fill="#000000">proc_observations</text>
<text text-anchor="start" x="391.0219" y="-149.8" font-family="Helvetica,sans-Serif" font-size="11.00" fill="#000000">[table]</text>
<polygon fill="none" stroke="#000000" points="293.5,-119.7 293.5,-141.7 425.5,-141.7 425.5,-119.7 293.5,-119.7"/>
<image xlink:href="../../images/primaryKeys.png" width="11px" height="12px" preserveAspectRatio="xMinYMin meet" x="298.5" y="-136.7"/>
<text text-anchor="start" x="315.5" y="-126.8" font-family="Helvetica,sans-Serif" font-size="11.00" fill="#000000">date_time</text>
<polygon fill="none" stroke="#000000" points="293.5,-97.7 293.5,-119.7 425.5,-119.7 425.5,-97.7 293.5,-97.7"/>
<image xlink:href="../../images/primaryKeys.png" width="11px" height="12px" preserveAspectRatio="xMinYMin meet" x="298.5" y="-114.7"/>
<text text-anchor="start" x="315.5" y="-104.8" font-family="Helvetica,sans-Serif" font-size="11.00" fill="#000000">variable_id</text>
<polygon fill="none" stroke="#000000" points="293.5,-75.7 293.5,-97.7 425.5,-97.7 425.5,-75.7 293.5,-75.7"/>
<image xlink:href="../../images/primaryKeys.png" width="11px" height="12px" preserveAspectRatio="xMinYMin meet" x="298.5" y="-92.7"/>
<text text-anchor="start" x="315.5" y="-82.8" font-family="Helvetica,sans-Serif" font-size="11.00" fill="#000000">submission_id</text>
<polygon fill="none" stroke="#000000" points="293.5,-56.7 293.5,-75.7 425.5,-75.7 425.5,-56.7 293.5,-56.7"/>
<text text-anchor="start" x="296.5" y="-62.8" font-family="Helvetica,sans-Serif" font-size="11.00" fill="#000000">...</text>
<polygon fill="#ffffff" stroke="transparent" points="293.5,-37.7 293.5,-56.7 344.5,-56.7 344.5,-37.7 293.5,-37.7"/>
<polygon fill="none" stroke="#000000" points="293.5,-37.7 293.5,-56.7 344.5,-56.7 344.5,-37.7 293.5,-37.7"/>
<text text-anchor="start" x="296.5" y="-43.8" font-family="Helvetica,sans-Serif" font-size="11.00" fill="#000000">&lt; 2</text>
<polygon fill="#ffffff" stroke="transparent" points="344.5,-37.7 344.5,-56.7 397.5,-56.7 397.5,-37.7 344.5,-37.7"/>
<polygon fill="none" stroke="#000000" points="344.5,-37.7 344.5,-56.7 397.5,-56.7 397.5,-37.7 344.5,-37.7"/>
<text text-anchor="start" x="362.1105" y="-43.8" font-family="Helvetica,sans-Serif" font-size="11.00" fill="#000000">0 rows</text>
<polygon fill="#ffffff" stroke="transparent" points="397.5,-37.7 397.5,-56.7 425.5,-56.7 425.5,-37.7 397.5,-37.7"/>
<polygon fill="none" stroke="#000000" points="397.5,-37.7 397.5,-56.7 425.5,-56.7 425.5,-37.7 397.5,-37.7"/>
<text text-anchor="start" x="416.3862" y="-43.8" font-family="Helvetica,sans-Serif" font-size="11.00" fill="#000000"> &#160;</text>
</a>
</g>
</g>
<!-- proc_observations&#45;&gt;observation_types -->
<g id="edge7" class="edge">
<title>proc_observations:w&#45;&gt;observation_types:e</title>
<path fill="none" stroke="#000000" d="M279.4413,-113.0125C219.5547,-155.2 308.673,-492.7 227.5,-492.7"/>
<polygon fill="#000000" stroke="#000000" points="285.8517,-111.0461 294.5558,-112.1417 289.6759,-109.8731 293.5,-108.7 293.5,-108.7 293.5,-108.7 289.6759,-109.8731 292.4442,-105.2583 285.8517,-111.0461 285.8517,-111.0461"/>
<ellipse fill="none" stroke="#000000" cx="282.7924" cy="-111.9846" rx="3.2" ry="3.2"/>
</g>
</g>
</svg>
