<?xml version="1.0" encoding="UTF-8" standalone="no"?>
<!DOCTYPE svg PUBLIC "-//W3C//DTD SVG 1.1//EN"
 "http://www.w3.org/Graphics/SVG/1.1/DTD/svg11.dtd">
<!-- Generated by graphviz version 2.40.1 (20161225.0304)
 -->
<!-- Title: twoDegreesRelationshipsDiagram Pages: 1 -->
<svg width="673pt" height="701pt"
 viewBox="0.00 0.00 673.00 701.17" xmlns="http://www.w3.org/2000/svg" xmlns:xlink="http://www.w3.org/1999/xlink">
<g id="graph0" class="graph" transform="scale(1 1) rotate(0) translate(4 697.1722)">
<title>twoDegreesRelationshipsDiagram</title>
<polygon fill="#ffffff" stroke="transparent" points="-4,4 -4,-697.1722 669,-697.1722 669,4 -4,4"/>
<text text-anchor="middle" x="72.4936" y="-7.3" font-family="Helvetica,sans-Serif" font-size="11.00" fill="#000000">Generated by SchemaSpy</text>
<!-- data_histogram_bin_data -->
<g id="node1" class="node">
<title>data_histogram_bin_data</title>
<g id="a_node1"><a xlink:href="../../tables/data_histogram_bin_data.html" xlink:title="data_histogram_bin_data" target="_top">
<polygon fill="#ffffff" stroke="transparent" points="490,-452.2 490,-667.2 657,-667.2 657,-452.2 490,-452.2"/>
<polygon fill="#f5f5f5" stroke="transparent" points="490.5,-643.7 490.5,-666.7 657.5,-666.7 657.5,-643.7 490.5,-643.7"/>
<polygon fill="none" stroke="#000000" points="490.5,-643.7 490.5,-666.7 657.5,-666.7 657.5,-643.7 490.5,-643.7"/>
<text text-anchor="start" x="495.4501" y="-652.8" font-family="Helvetica,sans-Serif" font-weight="bold" font-size="11.00" fill="#000000">data_histogram_bin_data</text>
<text text-anchor="start" x="623.0219" y="-651.8" font-family="Helvetica,sans-Serif" font-size="11.00" fill="#000000">[table]</text>
<polygon fill="none" stroke="#000000" points="490.5,-621.7 490.5,-643.7 657.5,-643.7 657.5,-621.7 490.5,-621.7"/>
<image xlink:href="../../images/primaryKeys.png" width="11px" height="12px" preserveAspectRatio="xMinYMin meet" x="495.5" y="-638.7"/>
<text text-anchor="start" x="511.5" y="-628.8" font-family="Helvetica,sans-Serif" font-size="11.00" fill="#000000">submission_id</text>
<polygon fill="none" stroke="#000000" points="490.5,-599.7 490.5,-621.7 657.5,-621.7 657.5,-599.7 490.5,-599.7"/>
<image xlink:href="../../images/primaryKeys.png" width="11px" height="12px" preserveAspectRatio="xMinYMin meet" x="495.5" y="-616.7"/>
<text text-anchor="start" x="511.5" y="-606.8" font-family="Helvetica,sans-Serif" font-size="11.00" fill="#000000">tag_id</text>
<polygon fill="none" stroke="#000000" points="490.5,-577.7 490.5,-599.7 657.5,-599.7 657.5,-577.7 490.5,-577.7"/>
<image xlink:href="../../images/primaryKeys.png" width="11px" height="12px" preserveAspectRatio="xMinYMin meet" x="495.5" y="-594.7"/>
<text text-anchor="start" x="511.5" y="-584.8" font-family="Helvetica,sans-Serif" font-size="11.00" fill="#000000">bin_id</text>
<polygon fill="none" stroke="#000000" points="490.5,-555.7 490.5,-577.7 657.5,-577.7 657.5,-555.7 490.5,-555.7"/>
<image xlink:href="../../images/primaryKeys.png" width="11px" height="12px" preserveAspectRatio="xMinYMin meet" x="495.5" y="-572.7"/>
<text text-anchor="start" x="511.5" y="-562.8" font-family="Helvetica,sans-Serif" font-size="11.00" fill="#000000">bin_class</text>
<polygon fill="none" stroke="#000000" points="490.5,-533.7 490.5,-555.7 657.5,-555.7 657.5,-533.7 490.5,-533.7"/>
<image xlink:href="../../images/primaryKeys.png" width="11px" height="12px" preserveAspectRatio="xMinYMin meet" x="495.5" y="-550.7"/>
<text text-anchor="start" x="511.5" y="-540.8" font-family="Helvetica,sans-Serif" font-size="11.00" fill="#000000">date_time</text>
<polygon fill="#ffffff" stroke="transparent" points="490.5,-511.7 490.5,-533.7 657.5,-533.7 657.5,-511.7 490.5,-511.7"/>
<polygon fill="none" stroke="#000000" points="490.5,-511.7 490.5,-533.7 657.5,-533.7 657.5,-511.7 490.5,-511.7"/>
<image xlink:href="../../images/foreignKeys.png" width="11px" height="12px" preserveAspectRatio="xMinYMin meet" x="495.5" y="-528.7"/>
<text text-anchor="start" x="511.5" y="-518.8" font-family="Helvetica,sans-Serif" font-size="11.00" fill="#000000">position_date_time</text>
<polygon fill="none" stroke="#000000" points="490.5,-489.7 490.5,-511.7 657.5,-511.7 657.5,-489.7 490.5,-489.7"/>
<image xlink:href="../../images/primaryKeys.png" width="11px" height="12px" preserveAspectRatio="xMinYMin meet" x="495.5" y="-506.7"/>
<text text-anchor="start" x="511.5" y="-496.8" font-family="Helvetica,sans-Serif" font-size="11.00" fill="#000000">variable_id</text>
<polygon fill="none" stroke="#000000" points="490.5,-470.7 490.5,-489.7 657.5,-489.7 657.5,-470.7 490.5,-470.7"/>
<text text-anchor="start" x="493.5" y="-476.8" font-family="Helvetica,sans-Serif" font-size="11.00" fill="#000000">...</text>
<polygon fill="#ffffff" stroke="transparent" points="490.5,-451.7 490.5,-470.7 559.5,-470.7 559.5,-451.7 490.5,-451.7"/>
<polygon fill="none" stroke="#000000" points="490.5,-451.7 490.5,-470.7 559.5,-470.7 559.5,-451.7 490.5,-451.7"/>
<text text-anchor="start" x="493.5" y="-457.8" font-family="Helvetica,sans-Serif" font-size="11.00" fill="#000000">&lt; 7</text>
<polygon fill="#ffffff" stroke="transparent" points="559.5,-451.7 559.5,-470.7 621.5,-470.7 621.5,-451.7 559.5,-451.7"/>
<polygon fill="none" stroke="#000000" points="559.5,-451.7 559.5,-470.7 621.5,-470.7 621.5,-451.7 559.5,-451.7"/>
<text text-anchor="start" x="586.1105" y="-457.8" font-family="Helvetica,sans-Serif" font-size="11.00" fill="#000000">0 rows</text>
<polygon fill="#ffffff" stroke="transparent" points="621.5,-451.7 621.5,-470.7 657.5,-470.7 657.5,-451.7 621.5,-451.7"/>
<polygon fill="none" stroke="#000000" points="621.5,-451.7 621.5,-470.7 657.5,-470.7 657.5,-451.7 621.5,-451.7"/>
<text text-anchor="start" x="648.3862" y="-457.8" font-family="Helvetica,sans-Serif" font-size="11.00" fill="#000000"> &#160;</text>
</a>
</g>
</g>
<!-- data_histogram_bin_info -->
<g id="node2" class="node">
<title>data_histogram_bin_info</title>
<g id="a_node2"><a xlink:href="../../tables/data_histogram_bin_info.html" xlink:title="data_histogram_bin_info" target="_top">
<polygon fill="#ffffff" stroke="transparent" points="278,-525.2 278,-652.2 441,-652.2 441,-525.2 278,-525.2"/>
<polygon fill="#f5f5f5" stroke="transparent" points="278.5,-628.7 278.5,-651.7 441.5,-651.7 441.5,-628.7 278.5,-628.7"/>
<polygon fill="none" stroke="#000000" points="278.5,-628.7 278.5,-651.7 441.5,-651.7 441.5,-628.7 278.5,-628.7"/>
<text text-anchor="start" x="283.2871" y="-637.8" font-family="Helvetica,sans-Serif" font-weight="bold" font-size="11.00" fill="#000000">data_histogram_bin_info</text>
<text text-anchor="start" x="407.0219" y="-636.8" font-family="Helvetica,sans-Serif" font-size="11.00" fill="#000000">[table]</text>
<polygon fill="none" stroke="#000000" points="278.5,-606.7 278.5,-628.7 441.5,-628.7 441.5,-606.7 278.5,-606.7"/>
<image xlink:href="../../images/primaryKeys.png" width="11px" height="12px" preserveAspectRatio="xMinYMin meet" x="283.5" y="-623.7"/>
<text text-anchor="start" x="298.5" y="-613.8" font-family="Helvetica,sans-Serif" font-size="11.00" fill="#000000">bin_id</text>
<polygon fill="none" stroke="#000000" points="278.5,-584.7 278.5,-606.7 441.5,-606.7 441.5,-584.7 278.5,-584.7"/>
<image xlink:href="../../images/primaryKeys.png" width="11px" height="12px" preserveAspectRatio="xMinYMin meet" x="283.5" y="-601.7"/>
<text text-anchor="start" x="298.5" y="-591.8" font-family="Helvetica,sans-Serif" font-size="11.00" fill="#000000">bin_class</text>
<polygon fill="none" stroke="#000000" points="278.5,-562.7 278.5,-584.7 441.5,-584.7 441.5,-562.7 278.5,-562.7"/>
<image xlink:href="../../images/primaryKeys.png" width="11px" height="12px" preserveAspectRatio="xMinYMin meet" x="283.5" y="-579.7"/>
<text text-anchor="start" x="298.5" y="-569.8" font-family="Helvetica,sans-Serif" font-size="11.00" fill="#000000">variable_id</text>
<polygon fill="none" stroke="#000000" points="278.5,-543.7 278.5,-562.7 441.5,-562.7 441.5,-543.7 278.5,-543.7"/>
<text text-anchor="start" x="281.5" y="-549.8" font-family="Helvetica,sans-Serif" font-size="11.00" fill="#000000">...</text>
<polygon fill="#ffffff" stroke="transparent" points="278.5,-524.7 278.5,-543.7 340.5,-543.7 340.5,-524.7 278.5,-524.7"/>
<polygon fill="none" stroke="#000000" points="278.5,-524.7 278.5,-543.7 340.5,-543.7 340.5,-524.7 278.5,-524.7"/>
<text text-anchor="start" x="281.5" y="-530.8" font-family="Helvetica,sans-Serif" font-size="11.00" fill="#000000">&lt; 1</text>
<polygon fill="#ffffff" stroke="transparent" points="340.5,-524.7 340.5,-543.7 399.5,-543.7 399.5,-524.7 340.5,-524.7"/>
<polygon fill="none" stroke="#000000" points="340.5,-524.7 340.5,-543.7 399.5,-543.7 399.5,-524.7 340.5,-524.7"/>
<text text-anchor="start" x="364.1105" y="-530.8" font-family="Helvetica,sans-Serif" font-size="11.00" fill="#000000">0 rows</text>
<polygon fill="#ffffff" stroke="transparent" points="399.5,-524.7 399.5,-543.7 441.5,-543.7 441.5,-524.7 399.5,-524.7"/>
<polygon fill="none" stroke="#000000" points="399.5,-524.7 399.5,-543.7 441.5,-543.7 441.5,-524.7 399.5,-524.7"/>
<text text-anchor="start" x="422.9053" y="-530.8" font-family="Helvetica,sans-Serif" font-size="11.00" fill="#000000">2 &gt;</text>
</a>
</g>
</g>
<!-- data_histogram_bin_data&#45;&gt;data_histogram_bin_info -->
<g id="edge1" class="edge">
<title>data_histogram_bin_data:w&#45;&gt;data_histogram_bin_info:e</title>
<path fill="none" stroke="#000000" d="M476.4495,-570.7323C464.471,-578.7007 460.8749,-595.7 441.5,-595.7"/>
<polygon fill="#000000" stroke="#000000" points="482.8104,-568.9069 491.4931,-570.1603 486.6552,-567.8034 490.5,-566.7 490.5,-566.7 490.5,-566.7 486.6552,-567.8034 489.5069,-563.2397 482.8104,-568.9069 482.8104,-568.9069"/>
<ellipse fill="none" stroke="#000000" cx="479.7346" cy="-569.7896" rx="3.2" ry="3.2"/>
</g>
<!-- data_histogram_bin_data&#45;&gt;data_histogram_bin_info -->
<g id="edge2" class="edge">
<title>data_histogram_bin_data:w&#45;&gt;data_histogram_bin_info:e</title>
<path fill="none" stroke="#000000" d="M476.4495,-592.7323C464.471,-600.7007 460.8749,-617.7 441.5,-617.7"/>
<polygon fill="#000000" stroke="#000000" points="482.8104,-590.9069 491.4931,-592.1603 486.6552,-589.8034 490.5,-588.7 490.5,-588.7 490.5,-588.7 486.6552,-589.8034 489.5069,-585.2397 482.8104,-590.9069 482.8104,-590.9069"/>
<ellipse fill="none" stroke="#000000" cx="479.7346" cy="-591.7896" rx="3.2" ry="3.2"/>
</g>
<!-- data_position -->
<g id="node3" class="node">
<title>data_position</title>
<g id="a_node3"><a xlink:href="../../tables/data_position.html" xlink:title="data_position" target="_top">
<polygon fill="#ffffff" stroke="transparent" points="305.5,-212.2 305.5,-273.2 413.5,-273.2 413.5,-212.2 305.5,-212.2"/>
<polygon fill="#f5f5f5" stroke="transparent" points="305.5,-249.7 305.5,-272.7 413.5,-272.7 413.5,-249.7 305.5,-249.7"/>
<polygon fill="none" stroke="#000000" points="305.5,-249.7 305.5,-272.7 413.5,-272.7 413.5,-249.7 305.5,-249.7"/>
<text text-anchor="start" x="310.2926" y="-258.8" font-family="Helvetica,sans-Serif" font-weight="bold" font-size="11.00" fill="#000000">data_position</text>
<text text-anchor="start" x="379.0219" y="-257.8" font-family="Helvetica,sans-Serif" font-size="11.00" fill="#000000">[table]</text>
<polygon fill="none" stroke="#000000" points="305.5,-230.7 305.5,-249.7 413.5,-249.7 413.5,-230.7 305.5,-230.7"/>
<text text-anchor="start" x="308.5" y="-236.8" font-family="Helvetica,sans-Serif" font-size="11.00" fill="#000000">...</text>
<polygon fill="#ffffff" stroke="transparent" points="305.5,-211.7 305.5,-230.7 340.5,-230.7 340.5,-211.7 305.5,-211.7"/>
<polygon fill="none" stroke="#000000" points="305.5,-211.7 305.5,-230.7 340.5,-230.7 340.5,-211.7 305.5,-211.7"/>
<text text-anchor="start" x="308.5" y="-217.8" font-family="Helvetica,sans-Serif" font-size="11.00" fill="#000000">&lt; 1</text>
<polygon fill="#ffffff" stroke="transparent" points="340.5,-211.7 340.5,-230.7 385.5,-230.7 385.5,-211.7 340.5,-211.7"/>
<polygon fill="none" stroke="#000000" points="340.5,-211.7 340.5,-230.7 385.5,-230.7 385.5,-211.7 340.5,-211.7"/>
<text text-anchor="start" x="350.1105" y="-217.8" font-family="Helvetica,sans-Serif" font-size="11.00" fill="#000000">0 rows</text>
<polygon fill="#ffffff" stroke="transparent" points="385.5,-211.7 385.5,-230.7 413.5,-230.7 413.5,-211.7 385.5,-211.7"/>
<polygon fill="none" stroke="#000000" points="385.5,-211.7 385.5,-230.7 413.5,-230.7 413.5,-211.7 385.5,-211.7"/>
<text text-anchor="start" x="394.9053" y="-217.8" font-family="Helvetica,sans-Serif" font-size="11.00" fill="#000000">9 &gt;</text>
</a>
</g>
</g>
<!-- data_histogram_bin_data&#45;&gt;data_position -->
<g id="edge3" class="edge">
<title>data_histogram_bin_data:w&#45;&gt;data_position:e</title>
<path fill="none" stroke="#000000" d="M477.1709,-517.1266C446.9958,-487.8873 462.6359,-352.017 449,-311.7 437.5691,-277.9025 449.1783,-239.7 413.5,-239.7"/>
<polygon fill="#000000" stroke="#000000" points="483.1192,-519.6138 489.1112,-526.0213 486.8096,-521.1569 490.5,-522.7 490.5,-522.7 490.5,-522.7 486.8096,-521.1569 491.8888,-519.3787 483.1192,-519.6138 483.1192,-519.6138"/>
<ellipse fill="none" stroke="#000000" cx="480.1669" cy="-518.3793" rx="3.2" ry="3.2"/>
</g>
<!-- data_histogram_bin_data&#45;&gt;data_position -->
<g id="edge4" class="edge">
<title>data_histogram_bin_data:w&#45;&gt;data_position:e</title>
<path fill="none" stroke="#000000" d="M476.3401,-628.5523C413.0387,-586.5509 497.1055,-239.7 413.5,-239.7"/>
<polygon fill="#000000" stroke="#000000" points="482.8226,-630.4511 489.488,-636.1548 486.6613,-631.5756 490.5,-632.7 490.5,-632.7 490.5,-632.7 486.6613,-631.5756 491.512,-629.2452 482.8226,-630.4511 482.8226,-630.4511"/>
<ellipse fill="none" stroke="#000000" cx="479.7516" cy="-629.5516" rx="3.2" ry="3.2"/>
</g>
<!-- data_histogram_bin_data&#45;&gt;data_position -->
<g id="edge6" class="edge">
<title>data_histogram_bin_data:w&#45;&gt;data_position:e</title>
<path fill="none" stroke="#000000" d="M476.6844,-606.5335C417.038,-565.7742 492.4388,-239.7 413.5,-239.7"/>
<polygon fill="#000000" stroke="#000000" points="482.8407,-608.3901 489.4605,-614.1467 486.6704,-609.545 490.5,-610.7 490.5,-610.7 490.5,-610.7 486.6704,-609.545 491.5395,-607.2533 482.8407,-608.3901 482.8407,-608.3901"/>
<ellipse fill="none" stroke="#000000" cx="479.777" cy="-607.4661" rx="3.2" ry="3.2"/>
</g>
<!-- submission -->
<g id="node4" class="node">
<title>submission</title>
<g id="a_node4"><a xlink:href="../../tables/submission.html" xlink:title="submission" target="_top">
<polygon fill="#ffffff" stroke="transparent" points="69.5,-240.2 69.5,-301.2 167.5,-301.2 167.5,-240.2 69.5,-240.2"/>
<polygon fill="#f5f5f5" stroke="transparent" points="69.5,-277.7 69.5,-300.7 167.5,-300.7 167.5,-277.7 69.5,-277.7"/>
<polygon fill="none" stroke="#000000" points="69.5,-277.7 69.5,-300.7 167.5,-300.7 167.5,-277.7 69.5,-277.7"/>
<text text-anchor="start" x="74.4984" y="-286.8" font-family="Helvetica,sans-Serif" font-weight="bold" font-size="11.00" fill="#000000">submission</text>
<text text-anchor="start" x="133.0219" y="-285.8" font-family="Helvetica,sans-Serif" font-size="11.00" fill="#000000">[table]</text>
<polygon fill="none" stroke="#000000" points="69.5,-258.7 69.5,-277.7 167.5,-277.7 167.5,-258.7 69.5,-258.7"/>
<text text-anchor="start" x="72.5" y="-264.8" font-family="Helvetica,sans-Serif" font-size="11.00" fill="#000000">...</text>
<polygon fill="#ffffff" stroke="transparent" points="69.5,-239.7 69.5,-258.7 94.5,-258.7 94.5,-239.7 69.5,-239.7"/>
<polygon fill="none" stroke="#000000" points="69.5,-239.7 69.5,-258.7 94.5,-258.7 94.5,-239.7 69.5,-239.7"/>
<text text-anchor="start" x="72.5" y="-245.8" font-family="Helvetica,sans-Serif" font-size="11.00" fill="#000000"> &#160;</text>
<polygon fill="#ffffff" stroke="transparent" points="94.5,-239.7 94.5,-258.7 139.5,-258.7 139.5,-239.7 94.5,-239.7"/>
<polygon fill="none" stroke="#000000" points="94.5,-239.7 94.5,-258.7 139.5,-258.7 139.5,-239.7 94.5,-239.7"/>
<text text-anchor="start" x="104.1105" y="-245.8" font-family="Helvetica,sans-Serif" font-size="11.00" fill="#000000">0 rows</text>
<polygon fill="#ffffff" stroke="transparent" points="139.5,-239.7 139.5,-258.7 167.5,-258.7 167.5,-239.7 139.5,-239.7"/>
<polygon fill="none" stroke="#000000" points="139.5,-239.7 139.5,-258.7 167.5,-258.7 167.5,-239.7 139.5,-239.7"/>
<text text-anchor="start" x="148.9053" y="-245.8" font-family="Helvetica,sans-Serif" font-size="11.00" fill="#000000">6 &gt;</text>
</a>
</g>
</g>
<!-- data_histogram_bin_data&#45;&gt;submission -->
<g id="edge5" class="edge">
<title>data_histogram_bin_data:w&#45;&gt;submission:e</title>
<path fill="none" stroke="#000000" d="M476.5616,-637.0605C467.497,-644.079 464.7327,-657.609 449,-662.7 373.3088,-687.1934 328.8353,-716.2489 270,-662.7 212.2243,-610.1155 277.507,-379.5008 237,-312.7 217.9199,-281.2346 204.2984,-267.7 167.5,-267.7"/>
<polygon fill="#000000" stroke="#000000" points="482.8649,-635.0886 491.5749,-636.1358 486.6825,-633.8943 490.5,-632.7 490.5,-632.7 490.5,-632.7 486.6825,-633.8943 489.4251,-629.2642 482.8649,-635.0886 482.8649,-635.0886"/>
<ellipse fill="none" stroke="#000000" cx="479.8109" cy="-636.0441" rx="3.2" ry="3.2"/>
</g>
<!-- observation_types -->
<g id="node5" class="node">
<title>observation_types</title>
<g id="a_node5"><a xlink:href="../../tables/observation_types.html" xlink:title="observation_types" target="_top">
<polygon fill="#ffffff" stroke="transparent" points="8,-322.7 8,-522.7 229,-522.7 229,-322.7 8,-322.7"/>
<polygon fill="#f5f5f5" stroke="transparent" points="10.5,-497.7 10.5,-520.7 227.5,-520.7 227.5,-497.7 10.5,-497.7"/>
<polygon fill="none" stroke="#000000" points="10.5,-497.7 10.5,-520.7 227.5,-520.7 227.5,-497.7 10.5,-497.7"/>
<text text-anchor="start" x="15.5" y="-506.8" font-family="Helvetica,sans-Serif" font-weight="bold" font-size="11.00" fill="#000000">observation_types</text>
<text text-anchor="start" x="192.5437" y="-505.8" font-family="Helvetica,sans-Serif" font-size="11.00" fill="#000000">[table]</text>
<polygon fill="none" stroke="#000000" points="10.5,-475.7 10.5,-497.7 137.5,-497.7 137.5,-475.7 10.5,-475.7"/>
<image xlink:href="../../images/primaryKeys.png" width="11px" height="12px" preserveAspectRatio="xMinYMin meet" x="15.5" y="-492.7"/>
<text text-anchor="start" x="30.5" y="-482.8" font-family="Helvetica,sans-Serif" font-size="11.00" fill="#000000">variable_id</text>
<polygon fill="none" stroke="#000000" points="137.5,-475.7 137.5,-497.7 227.5,-497.7 227.5,-475.7 137.5,-475.7"/>
<text text-anchor="start" x="140.5" y="-483.4" font-family="Helvetica,sans-Serif" font-size="11.00" fill="#000000">bigserial[19]</text>
<polygon fill="#ffffff" stroke="transparent" points="10.5,-453.7 10.5,-475.7 137.5,-475.7 137.5,-453.7 10.5,-453.7"/>
<polygon fill="none" stroke="#000000" points="10.5,-453.7 10.5,-475.7 137.5,-475.7 137.5,-453.7 10.5,-453.7"/>
<text text-anchor="start" x="30.5" y="-460.8" font-family="Helvetica,sans-Serif" font-size="11.00" fill="#000000">variable_name</text>
<polygon fill="none" stroke="#000000" points="137.5,-453.7 137.5,-475.7 227.5,-475.7 227.5,-453.7 137.5,-453.7"/>
<text text-anchor="start" x="140.5" y="-461.4" font-family="Helvetica,sans-Serif" font-size="11.00" fill="#000000">varchar[255]</text>
<polygon fill="none" stroke="#000000" points="10.5,-431.7 10.5,-453.7 137.5,-453.7 137.5,-431.7 10.5,-431.7"/>
<text text-anchor="start" x="30.5" y="-438.8" font-family="Helvetica,sans-Serif" font-size="11.00" fill="#000000">standard_name</text>
<polygon fill="none" stroke="#000000" points="137.5,-431.7 137.5,-453.7 227.5,-453.7 227.5,-431.7 137.5,-431.7"/>
<text text-anchor="start" x="140.5" y="-439.4" font-family="Helvetica,sans-Serif" font-size="11.00" fill="#000000">varchar[255]</text>
<polygon fill="none" stroke="#000000" points="10.5,-409.7 10.5,-431.7 137.5,-431.7 137.5,-409.7 10.5,-409.7"/>
<text text-anchor="start" x="30.5" y="-416.8" font-family="Helvetica,sans-Serif" font-size="11.00" fill="#000000">variable_source</text>
<polygon fill="none" stroke="#000000" points="137.5,-409.7 137.5,-431.7 227.5,-431.7 227.5,-409.7 137.5,-409.7"/>
<text text-anchor="start" x="140.5" y="-417.4" font-family="Helvetica,sans-Serif" font-size="11.00" fill="#000000">varchar[255]</text>
<polygon fill="none" stroke="#000000" points="10.5,-387.7 10.5,-409.7 137.5,-409.7 137.5,-387.7 10.5,-387.7"/>
<text text-anchor="start" x="30.5" y="-394.8" font-family="Helvetica,sans-Serif" font-size="11.00" fill="#000000">variable_units</text>
<polygon fill="none" stroke="#000000" points="137.5,-387.7 137.5,-409.7 227.5,-409.7 227.5,-387.7 137.5,-387.7"/>
<text text-anchor="start" x="140.5" y="-395.4" font-family="Helvetica,sans-Serif" font-size="11.00" fill="#000000">varchar[255]</text>
<polygon fill="none" stroke="#000000" points="10.5,-365.7 10.5,-387.7 137.5,-387.7 137.5,-365.7 10.5,-365.7"/>
<text text-anchor="start" x="30.5" y="-372.8" font-family="Helvetica,sans-Serif" font-size="11.00" fill="#000000">notes</text>
<polygon fill="none" stroke="#000000" points="137.5,-365.7 137.5,-387.7 227.5,-387.7 227.5,-365.7 137.5,-365.7"/>
<text text-anchor="start" x="140.0042" y="-373.4" font-family="Helvetica,sans-Serif" font-size="11.00" fill="#000000">text[2147483647]</text>
<polygon fill="none" stroke="#000000" points="10.5,-343.7 10.5,-365.7 137.5,-365.7 137.5,-343.7 10.5,-343.7"/>
<text text-anchor="start" x="30.5" y="-350.8" font-family="Helvetica,sans-Serif" font-size="11.00" fill="#000000">standard_unit</text>
<polygon fill="none" stroke="#000000" points="137.5,-343.7 137.5,-365.7 227.5,-365.7 227.5,-343.7 137.5,-343.7"/>
<text text-anchor="start" x="140.5" y="-351.4" font-family="Helvetica,sans-Serif" font-size="11.00" fill="#000000">varchar[255]</text>
<polygon fill="#ffffff" stroke="transparent" points="10.5,-324.7 10.5,-343.7 59.5,-343.7 59.5,-324.7 10.5,-324.7"/>
<polygon fill="none" stroke="#000000" points="10.5,-324.7 10.5,-343.7 59.5,-343.7 59.5,-324.7 10.5,-324.7"/>
<text text-anchor="start" x="13.5" y="-330.8" font-family="Helvetica,sans-Serif" font-size="11.00" fill="#000000">&lt; 0</text>
<polygon fill="#ffffff" stroke="transparent" points="59.5,-324.7 59.5,-343.7 137.5,-343.7 137.5,-324.7 59.5,-324.7"/>
<polygon fill="none" stroke="#000000" points="59.5,-324.7 59.5,-343.7 137.5,-343.7 137.5,-324.7 59.5,-324.7"/>
<text text-anchor="start" x="89.8807" y="-330.8" font-family="Helvetica,sans-Serif" font-size="11.00" fill="#000000">204 rows</text>
<polygon fill="#ffffff" stroke="transparent" points="137.5,-324.7 137.5,-343.7 227.5,-343.7 227.5,-324.7 137.5,-324.7"/>
<polygon fill="none" stroke="#000000" points="137.5,-324.7 137.5,-343.7 227.5,-343.7 227.5,-324.7 137.5,-324.7"/>
<text text-anchor="start" x="208.9053" y="-330.8" font-family="Helvetica,sans-Serif" font-size="11.00" fill="#000000">5 &gt;</text>
<polygon fill="none" stroke="#000000" stroke-width="2" points="9,-323.7 9,-521.7 228,-521.7 228,-323.7 9,-323.7"/>
</a>
</g>
</g>
<!-- data_histogram_bin_data&#45;&gt;observation_types -->
<g id="edge7" class="edge">
<title>data_histogram_bin_data:w&#45;&gt;observation_types:e</title>
<path fill="none" stroke="#000000" d="M475.8853,-500.6247C370.8,-499.5227 339.5247,-486.7 227.5,-486.7"/>
<polygon fill="#000000" stroke="#000000" points="482.5001,-500.6587 490.4814,-504.3 486.5001,-500.6794 490.5,-500.7 490.5,-500.7 490.5,-500.7 486.5001,-500.6794 490.5186,-497.1 482.5001,-500.6587 482.5001,-500.6587"/>
<ellipse fill="none" stroke="#000000" cx="479.3001" cy="-500.6422" rx="3.2" ry="3.2"/>
</g>
<!-- data_histogram_bin_info&#45;&gt;observation_types -->
<g id="edge8" class="edge">
<title>data_histogram_bin_info:w&#45;&gt;observation_types:e</title>
<path fill="none" stroke="#000000" d="M264.6673,-569.5038C242.4713,-552.1252 266.3679,-486.7 227.5,-486.7"/>
<polygon fill="#000000" stroke="#000000" points="270.8445,-571.3776 277.4549,-577.145 274.6722,-572.5388 278.5,-573.7 278.5,-573.7 278.5,-573.7 274.6722,-572.5388 279.5451,-570.255 270.8445,-571.3776 270.8445,-571.3776"/>
<ellipse fill="none" stroke="#000000" cx="267.7823" cy="-570.4487" rx="3.2" ry="3.2"/>
</g>
<!-- data_position&#45;&gt;submission -->
<g id="edge9" class="edge">
<title>data_position:w&#45;&gt;submission:e</title>
<path fill="none" stroke="#000000" d="M291.0481,-240.2343C240.4766,-244.1053 224.9493,-267.7 167.5,-267.7"/>
<polygon fill="#000000" stroke="#000000" points="297.5055,-239.9956 305.633,-243.2975 301.5027,-239.8478 305.5,-239.7 305.5,-239.7 305.5,-239.7 301.5027,-239.8478 305.367,-236.1025 297.5055,-239.9956 297.5055,-239.9956"/>
<ellipse fill="none" stroke="#000000" cx="294.3076" cy="-240.1139" rx="3.2" ry="3.2"/>
</g>
<!-- data_profile -->
<g id="node6" class="node">
<title>data_profile</title>
<g id="a_node6"><a xlink:href="../../tables/data_profile.html" xlink:title="data_profile" target="_top">
<polygon fill="#ffffff" stroke="transparent" points="508.5,-38.2 508.5,-231.2 638.5,-231.2 638.5,-38.2 508.5,-38.2"/>
<polygon fill="#f5f5f5" stroke="transparent" points="508.5,-207.7 508.5,-230.7 638.5,-230.7 638.5,-207.7 508.5,-207.7"/>
<polygon fill="none" stroke="#000000" points="508.5,-207.7 508.5,-230.7 638.5,-230.7 638.5,-207.7 508.5,-207.7"/>
<text text-anchor="start" x="513.5" y="-216.8" font-family="Helvetica,sans-Serif" font-weight="bold" font-size="11.00" fill="#000000">data_profile</text>
<text text-anchor="start" x="603.5437" y="-215.8" font-family="Helvetica,sans-Serif" font-size="11.00" fill="#000000">[table]</text>
<polygon fill="none" stroke="#000000" points="508.5,-185.7 508.5,-207.7 638.5,-207.7 638.5,-185.7 508.5,-185.7"/>
<image xlink:href="../../images/primaryKeys.png" width="11px" height="12px" preserveAspectRatio="xMinYMin meet" x="513.5" y="-202.7"/>
<text text-anchor="start" x="528.5" y="-192.8" font-family="Helvetica,sans-Serif" font-size="11.00" fill="#000000">submission_id</text>
<polygon fill="none" stroke="#000000" points="508.5,-163.7 508.5,-185.7 638.5,-185.7 638.5,-163.7 508.5,-163.7"/>
<image xlink:href="../../images/primaryKeys.png" width="11px" height="12px" preserveAspectRatio="xMinYMin meet" x="513.5" y="-180.7"/>
<text text-anchor="start" x="528.5" y="-170.8" font-family="Helvetica,sans-Serif" font-size="11.00" fill="#000000">tag_id</text>
<polygon fill="none" stroke="#000000" points="508.5,-141.7 508.5,-163.7 638.5,-163.7 638.5,-141.7 508.5,-141.7"/>
<image xlink:href="../../images/primaryKeys.png" width="11px" height="12px" preserveAspectRatio="xMinYMin meet" x="513.5" y="-158.7"/>
<text text-anchor="start" x="528.5" y="-148.8" font-family="Helvetica,sans-Serif" font-size="11.00" fill="#000000">variable_id</text>
<polygon fill="none" stroke="#000000" points="508.5,-119.7 508.5,-141.7 638.5,-141.7 638.5,-119.7 508.5,-119.7"/>
<image xlink:href="../../images/primaryKeys.png" width="11px" height="12px" preserveAspectRatio="xMinYMin meet" x="513.5" y="-136.7"/>
<text text-anchor="start" x="528.5" y="-126.8" font-family="Helvetica,sans-Serif" font-size="11.00" fill="#000000">date_time</text>
<polygon fill="none" stroke="#000000" points="508.5,-97.7 508.5,-119.7 638.5,-119.7 638.5,-97.7 508.5,-97.7"/>
<image xlink:href="../../images/primaryKeys.png" width="11px" height="12px" preserveAspectRatio="xMinYMin meet" x="513.5" y="-114.7"/>
<text text-anchor="start" x="528.5" y="-104.8" font-family="Helvetica,sans-Serif" font-size="11.00" fill="#000000">depth</text>
<polygon fill="#ffffff" stroke="transparent" points="508.5,-75.7 508.5,-97.7 638.5,-97.7 638.5,-75.7 508.5,-75.7"/>
<polygon fill="none" stroke="#000000" points="508.5,-75.7 508.5,-97.7 638.5,-97.7 638.5,-75.7 508.5,-75.7"/>
<image xlink:href="../../images/foreignKeys.png" width="11px" height="12px" preserveAspectRatio="xMinYMin meet" x="513.5" y="-92.7"/>
<text text-anchor="start" x="528.5" y="-82.8" font-family="Helvetica,sans-Serif" font-size="11.00" fill="#000000">position_date_time</text>
<polygon fill="none" stroke="#000000" points="508.5,-56.7 508.5,-75.7 638.5,-75.7 638.5,-56.7 508.5,-56.7"/>
<text text-anchor="start" x="511.5" y="-62.8" font-family="Helvetica,sans-Serif" font-size="11.00" fill="#000000">...</text>
<polygon fill="#ffffff" stroke="transparent" points="508.5,-37.7 508.5,-56.7 558.5,-56.7 558.5,-37.7 508.5,-37.7"/>
<polygon fill="none" stroke="#000000" points="508.5,-37.7 508.5,-56.7 558.5,-56.7 558.5,-37.7 508.5,-37.7"/>
<text text-anchor="start" x="511.5" y="-43.8" font-family="Helvetica,sans-Serif" font-size="11.00" fill="#000000">&lt; 5</text>
<polygon fill="#ffffff" stroke="transparent" points="558.5,-37.7 558.5,-56.7 611.5,-56.7 611.5,-37.7 558.5,-37.7"/>
<polygon fill="none" stroke="#000000" points="558.5,-37.7 558.5,-56.7 611.5,-56.7 611.5,-37.7 558.5,-37.7"/>
<text text-anchor="start" x="576.1105" y="-43.8" font-family="Helvetica,sans-Serif" font-size="11.00" fill="#000000">0 rows</text>
<polygon fill="#ffffff" stroke="transparent" points="611.5,-37.7 611.5,-56.7 638.5,-56.7 638.5,-37.7 611.5,-37.7"/>
<polygon fill="none" stroke="#000000" points="611.5,-37.7 611.5,-56.7 638.5,-56.7 638.5,-37.7 611.5,-37.7"/>
<text text-anchor="start" x="629.3862" y="-43.8" font-family="Helvetica,sans-Serif" font-size="11.00" fill="#000000"> &#160;</text>
</a>
</g>
</g>
<!-- data_profile&#45;&gt;data_position -->
<g id="edge10" class="edge">
<title>data_profile:w&#45;&gt;data_position:e</title>
<path fill="none" stroke="#000000" d="M494.0269,-88.7472C436.6781,-106.903 488.0703,-239.7 413.5,-239.7"/>
<polygon fill="#000000" stroke="#000000" points="500.5788,-87.8205 509.0042,-90.2645 504.5394,-87.2602 508.5,-86.7 508.5,-86.7 508.5,-86.7 504.5394,-87.2602 507.9958,-83.1355 500.5788,-87.8205 500.5788,-87.8205"/>
<ellipse fill="none" stroke="#000000" cx="497.4104" cy="-88.2687" rx="3.2" ry="3.2"/>
</g>
<!-- data_profile&#45;&gt;data_position -->
<g id="edge11" class="edge">
<title>data_profile:w&#45;&gt;data_position:e</title>
<path fill="none" stroke="#000000" d="M493.8791,-198.3331C461.0083,-206.1876 454.4148,-239.7 413.5,-239.7"/>
<polygon fill="#000000" stroke="#000000" points="500.5494,-197.5881 508.8997,-200.2778 504.5247,-197.1441 508.5,-196.7 508.5,-196.7 508.5,-196.7 504.5247,-197.1441 508.1003,-193.1222 500.5494,-197.5881 500.5494,-197.5881"/>
<ellipse fill="none" stroke="#000000" cx="497.3692" cy="-197.9434" rx="3.2" ry="3.2"/>
</g>
<!-- data_profile&#45;&gt;data_position -->
<g id="edge13" class="edge">
<title>data_profile:w&#45;&gt;data_position:e</title>
<path fill="none" stroke="#000000" d="M494.1271,-176.7166C458.2339,-187.6879 459.2637,-239.7 413.5,-239.7"/>
<polygon fill="#000000" stroke="#000000" points="500.5776,-175.8116 509.0002,-178.2651 504.5388,-175.2558 508.5,-174.7 508.5,-174.7 508.5,-174.7 504.5388,-175.2558 507.9998,-171.1349 500.5776,-175.8116 500.5776,-175.8116"/>
<ellipse fill="none" stroke="#000000" cx="497.4086" cy="-176.2562" rx="3.2" ry="3.2"/>
</g>
<!-- data_profile&#45;&gt;submission -->
<g id="edge12" class="edge">
<title>data_profile:w&#45;&gt;submission:e</title>
<path fill="none" stroke="#000000" d="M494.0695,-196.5373C399.4084,-194.3896 366.6434,-172.1729 270,-201.7 218.182,-217.5318 221.6826,-267.7 167.5,-267.7"/>
<polygon fill="#000000" stroke="#000000" points="500.5005,-196.6097 508.4594,-200.2998 504.5003,-196.6549 508.5,-196.7 508.5,-196.7 508.5,-196.7 504.5003,-196.6549 508.5406,-193.1002 500.5005,-196.6097 500.5005,-196.6097"/>
<ellipse fill="none" stroke="#000000" cx="497.3007" cy="-196.5736" rx="3.2" ry="3.2"/>
</g>
<!-- data_profile&#45;&gt;observation_types -->
<g id="edge14" class="edge">
<title>data_profile:w&#45;&gt;observation_types:e</title>
<path fill="none" stroke="#000000" d="M493.9233,-152.5264C395.117,-150.2126 340.9868,-126.7276 270,-201.7 225.9742,-248.1977 291.5337,-486.7 227.5,-486.7"/>
<polygon fill="#000000" stroke="#000000" points="500.5006,-152.6047 508.4571,-156.2997 504.5003,-152.6523 508.5,-152.7 508.5,-152.7 508.5,-152.7 504.5003,-152.6523 508.5429,-149.1003 500.5006,-152.6047 500.5006,-152.6047"/>
<ellipse fill="none" stroke="#000000" cx="497.3008" cy="-152.5665" rx="3.2" ry="3.2"/>
</g>
<!-- data_time_series -->
<g id="node7" class="node">
<title>data_time_series</title>
<g id="a_node7"><a xlink:href="../../tables/data_time_series.html" xlink:title="data_time_series" target="_top">
<polygon fill="#ffffff" stroke="transparent" points="508.5,-252.2 508.5,-423.2 638.5,-423.2 638.5,-252.2 508.5,-252.2"/>
<polygon fill="#f5f5f5" stroke="transparent" points="508.5,-399.7 508.5,-422.7 638.5,-422.7 638.5,-399.7 508.5,-399.7"/>
<polygon fill="none" stroke="#000000" points="508.5,-399.7 508.5,-422.7 638.5,-422.7 638.5,-399.7 508.5,-399.7"/>
<text text-anchor="start" x="513.5" y="-408.8" font-family="Helvetica,sans-Serif" font-weight="bold" font-size="11.00" fill="#000000">data_time_series</text>
<text text-anchor="start" x="603.5437" y="-407.8" font-family="Helvetica,sans-Serif" font-size="11.00" fill="#000000">[table]</text>
<polygon fill="none" stroke="#000000" points="508.5,-377.7 508.5,-399.7 638.5,-399.7 638.5,-377.7 508.5,-377.7"/>
<image xlink:href="../../images/primaryKeys.png" width="11px" height="12px" preserveAspectRatio="xMinYMin meet" x="513.5" y="-394.7"/>
<text text-anchor="start" x="528.5" y="-384.8" font-family="Helvetica,sans-Serif" font-size="11.00" fill="#000000">date_time</text>
<polygon fill="none" stroke="#000000" points="508.5,-355.7 508.5,-377.7 638.5,-377.7 638.5,-355.7 508.5,-355.7"/>
<image xlink:href="../../images/primaryKeys.png" width="11px" height="12px" preserveAspectRatio="xMinYMin meet" x="513.5" y="-372.7"/>
<text text-anchor="start" x="528.5" y="-362.8" font-family="Helvetica,sans-Serif" font-size="11.00" fill="#000000">variable_id</text>
<polygon fill="none" stroke="#000000" points="508.5,-333.7 508.5,-355.7 638.5,-355.7 638.5,-333.7 508.5,-333.7"/>
<image xlink:href="../../images/primaryKeys.png" width="11px" height="12px" preserveAspectRatio="xMinYMin meet" x="513.5" y="-350.7"/>
<text text-anchor="start" x="528.5" y="-340.8" font-family="Helvetica,sans-Serif" font-size="11.00" fill="#000000">submission_id</text>
<polygon fill="none" stroke="#000000" points="508.5,-311.7 508.5,-333.7 638.5,-333.7 638.5,-311.7 508.5,-311.7"/>
<image xlink:href="../../images/primaryKeys.png" width="11px" height="12px" preserveAspectRatio="xMinYMin meet" x="513.5" y="-328.7"/>
<text text-anchor="start" x="528.5" y="-318.8" font-family="Helvetica,sans-Serif" font-size="11.00" fill="#000000">tag_id</text>
<polygon fill="#ffffff" stroke="transparent" points="508.5,-289.7 508.5,-311.7 638.5,-311.7 638.5,-289.7 508.5,-289.7"/>
<polygon fill="none" stroke="#000000" points="508.5,-289.7 508.5,-311.7 638.5,-311.7 638.5,-289.7 508.5,-289.7"/>
<image xlink:href="../../images/foreignKeys.png" width="11px" height="12px" preserveAspectRatio="xMinYMin meet" x="513.5" y="-306.7"/>
<text text-anchor="start" x="528.5" y="-296.8" font-family="Helvetica,sans-Serif" font-size="11.00" fill="#000000">position_date_time</text>
<polygon fill="none" stroke="#000000" points="508.5,-270.7 508.5,-289.7 638.5,-289.7 638.5,-270.7 508.5,-270.7"/>
<text text-anchor="start" x="511.5" y="-276.8" font-family="Helvetica,sans-Serif" font-size="11.00" fill="#000000">...</text>
<polygon fill="#ffffff" stroke="transparent" points="508.5,-251.7 508.5,-270.7 558.5,-270.7 558.5,-251.7 508.5,-251.7"/>
<polygon fill="none" stroke="#000000" points="508.5,-251.7 508.5,-270.7 558.5,-270.7 558.5,-251.7 508.5,-251.7"/>
<text text-anchor="start" x="511.5" y="-257.8" font-family="Helvetica,sans-Serif" font-size="11.00" fill="#000000">&lt; 5</text>
<polygon fill="#ffffff" stroke="transparent" points="558.5,-251.7 558.5,-270.7 611.5,-270.7 611.5,-251.7 558.5,-251.7"/>
<polygon fill="none" stroke="#000000" points="558.5,-251.7 558.5,-270.7 611.5,-270.7 611.5,-251.7 558.5,-251.7"/>
<text text-anchor="start" x="576.1105" y="-257.8" font-family="Helvetica,sans-Serif" font-size="11.00" fill="#000000">0 rows</text>
<polygon fill="#ffffff" stroke="transparent" points="611.5,-251.7 611.5,-270.7 638.5,-270.7 638.5,-251.7 611.5,-251.7"/>
<polygon fill="none" stroke="#000000" points="611.5,-251.7 611.5,-270.7 638.5,-270.7 638.5,-251.7 611.5,-251.7"/>
<text text-anchor="start" x="629.3862" y="-257.8" font-family="Helvetica,sans-Serif" font-size="11.00" fill="#000000"> &#160;</text>
</a>
</g>
</g>
<!-- data_time_series&#45;&gt;data_position -->
<g id="edge15" class="edge">
<title>data_time_series:w&#45;&gt;data_position:e</title>
<path fill="none" stroke="#000000" d="M493.8833,-298.6704C458.8299,-288.086 458.1889,-239.7 413.5,-239.7"/>
<polygon fill="#000000" stroke="#000000" points="500.576,-299.5997 508.0049,-304.2658 504.538,-300.1498 508.5,-300.7 508.5,-300.7 508.5,-300.7 504.538,-300.1498 508.9951,-297.1342 500.576,-299.5997 500.576,-299.5997"/>
<ellipse fill="none" stroke="#000000" cx="497.4064" cy="-299.1596" rx="3.2" ry="3.2"/>
</g>
<!-- data_time_series&#45;&gt;data_position -->
<g id="edge16" class="edge">
<title>data_time_series:w&#45;&gt;data_position:e</title>
<path fill="none" stroke="#000000" d="M494.2343,-342.5069C450.1797,-327.4286 471.0242,-239.7 413.5,-239.7"/>
<polygon fill="#000000" stroke="#000000" points="500.5929,-343.4844 507.953,-348.2582 504.5464,-344.0922 508.5,-344.7 508.5,-344.7 508.5,-344.7 504.5464,-344.0922 509.047,-341.1418 500.5929,-343.4844 500.5929,-343.4844"/>
<ellipse fill="none" stroke="#000000" cx="497.43" cy="-342.9981" rx="3.2" ry="3.2"/>
</g>
<!-- data_time_series&#45;&gt;data_position -->
<g id="edge18" class="edge">
<title>data_time_series:w&#45;&gt;data_position:e</title>
<path fill="none" stroke="#000000" d="M494.0321,-320.48C455.0814,-307.2806 464.0917,-239.7 413.5,-239.7"/>
<polygon fill="#000000" stroke="#000000" points="500.5926,-321.4866 507.954,-326.2584 504.5463,-322.0933 508.5,-322.7 508.5,-322.7 508.5,-322.7 504.5463,-322.0933 509.046,-319.1416 500.5926,-321.4866 500.5926,-321.4866"/>
<ellipse fill="none" stroke="#000000" cx="497.4296" cy="-321.0012" rx="3.2" ry="3.2"/>
</g>
<!-- data_time_series&#45;&gt;submission -->
<g id="edge17" class="edge">
<title>data_time_series:w&#45;&gt;submission:e</title>
<path fill="none" stroke="#000000" d="M494.2309,-342.496C477.0309,-336.477 472.2381,-319.6783 449,-311.7 449,-311.7 167.5,-267.7 167.5,-267.7"/>
<polygon fill="#000000" stroke="#000000" points="500.5938,-343.4788 507.9505,-348.2578 504.5469,-344.0894 508.5,-344.7 508.5,-344.7 508.5,-344.7 504.5469,-344.0894 509.0495,-341.1422 500.5938,-343.4788 500.5938,-343.4788"/>
<ellipse fill="none" stroke="#000000" cx="497.4313" cy="-342.9903" rx="3.2" ry="3.2"/>
</g>
<!-- data_time_series&#45;&gt;observation_types -->
<g id="edge19" class="edge">
<title>data_time_series:w&#45;&gt;observation_types:e</title>
<path fill="none" stroke="#000000" d="M494.3063,-369.2819C465.7237,-381.8141 485.6681,-436.6359 449,-459.7 407.0262,-486.1013 277.0866,-486.7 227.5,-486.7"/>
<polygon fill="#000000" stroke="#000000" points="500.6292,-368.1318 509.1443,-370.2419 504.5646,-367.4159 508.5,-366.7 508.5,-366.7 508.5,-366.7 504.5646,-367.4159 507.8557,-363.1581 500.6292,-368.1318 500.6292,-368.1318"/>
<ellipse fill="none" stroke="#000000" cx="497.4808" cy="-368.7045" rx="3.2" ry="3.2"/>
</g>
<!-- proc_observations -->
<g id="node8" class="node">
<title>proc_observations</title>
<g id="a_node8"><a xlink:href="../../tables/proc_observations.html" xlink:title="proc_observations" target="_top">
<polygon fill="#ffffff" stroke="transparent" points="293.5,-322.2 293.5,-449.2 425.5,-449.2 425.5,-322.2 293.5,-322.2"/>
<polygon fill="#f5f5f5" stroke="transparent" points="293.5,-425.7 293.5,-448.7 425.5,-448.7 425.5,-425.7 293.5,-425.7"/>
<polygon fill="none" stroke="#000000" points="293.5,-425.7 293.5,-448.7 425.5,-448.7 425.5,-425.7 293.5,-425.7"/>
<text text-anchor="start" x="298.0722" y="-434.8" font-family="Helvetica,sans-Serif" font-weight="bold" font-size="11.00" fill="#000000">proc_observations</text>
<text text-anchor="start" x="391.0219" y="-433.8" font-family="Helvetica,sans-Serif" font-size="11.00" fill="#000000">[table]</text>
<polygon fill="none" stroke="#000000" points="293.5,-403.7 293.5,-425.7 425.5,-425.7 425.5,-403.7 293.5,-403.7"/>
<image xlink:href="../../images/primaryKeys.png" width="11px" height="12px" preserveAspectRatio="xMinYMin meet" x="298.5" y="-420.7"/>
<text text-anchor="start" x="315.5" y="-410.8" font-family="Helvetica,sans-Serif" font-size="11.00" fill="#000000">date_time</text>
<polygon fill="none" stroke="#000000" points="293.5,-381.7 293.5,-403.7 425.5,-403.7 425.5,-381.7 293.5,-381.7"/>
<image xlink:href="../../images/primaryKeys.png" width="11px" height="12px" preserveAspectRatio="xMinYMin meet" x="298.5" y="-398.7"/>
<text text-anchor="start" x="315.5" y="-388.8" font-family="Helvetica,sans-Serif" font-size="11.00" fill="#000000">variable_id</text>
<polygon fill="none" stroke="#000000" points="293.5,-359.7 293.5,-381.7 425.5,-381.7 425.5,-359.7 293.5,-359.7"/>
<image xlink:href="../../images/primaryKeys.png" width="11px" height="12px" preserveAspectRatio="xMinYMin meet" x="298.5" y="-376.7"/>
<text text-anchor="start" x="315.5" y="-366.8" font-family="Helvetica,sans-Serif" font-size="11.00" fill="#000000">submission_id</text>
<polygon fill="none" stroke="#000000" points="293.5,-340.7 293.5,-359.7 425.5,-359.7 425.5,-340.7 293.5,-340.7"/>
<text text-anchor="start" x="296.5" y="-346.8" font-family="Helvetica,sans-Serif" font-size="11.00" fill="#000000">...</text>
<polygon fill="#ffffff" stroke="transparent" points="293.5,-321.7 293.5,-340.7 344.5,-340.7 344.5,-321.7 293.5,-321.7"/>
<polygon fill="none" stroke="#000000" points="293.5,-321.7 293.5,-340.7 344.5,-340.7 344.5,-321.7 293.5,-321.7"/>
<text text-anchor="start" x="296.5" y="-327.8" font-family="Helvetica,sans-Serif" font-size="11.00" fill="#000000">&lt; 2</text>
<polygon fill="#ffffff" stroke="transparent" points="344.5,-321.7 344.5,-340.7 397.5,-340.7 397.5,-321.7 344.5,-321.7"/>
<polygon fill="none" stroke="#000000" points="344.5,-321.7 344.5,-340.7 397.5,-340.7 397.5,-321.7 344.5,-321.7"/>
<text text-anchor="start" x="362.1105" y="-327.8" font-family="Helvetica,sans-Serif" font-size="11.00" fill="#000000">0 rows</text>
<polygon fill="#ffffff" stroke="transparent" points="397.5,-321.7 397.5,-340.7 425.5,-340.7 425.5,-321.7 397.5,-321.7"/>
<polygon fill="none" stroke="#000000" points="397.5,-321.7 397.5,-340.7 425.5,-340.7 425.5,-321.7 397.5,-321.7"/>
<text text-anchor="start" x="416.3862" y="-327.8" font-family="Helvetica,sans-Serif" font-size="11.00" fill="#000000"> &#160;</text>
</a>
</g>
</g>
<!-- proc_observations&#45;&gt;submission -->
<g id="edge20" class="edge">
<title>proc_observations:w&#45;&gt;submission:e</title>
<path fill="none" stroke="#000000" d="M279.2196,-368.1876C258.9562,-359.7461 260.3759,-331.8578 237,-312.7 208.5387,-289.3745 204.2984,-267.7 167.5,-267.7"/>
<polygon fill="#000000" stroke="#000000" points="285.621,-369.3138 292.8762,-374.2455 289.5605,-370.0069 293.5,-370.7 293.5,-370.7 293.5,-370.7 289.5605,-370.0069 294.1238,-367.1545 285.621,-369.3138 285.621,-369.3138"/>
<ellipse fill="none" stroke="#000000" cx="282.4694" cy="-368.7593" rx="3.2" ry="3.2"/>
</g>
<!-- proc_observations&#45;&gt;observation_types -->
<g id="edge21" class="edge">
<title>proc_observations:w&#45;&gt;observation_types:e</title>
<path fill="none" stroke="#000000" d="M279.2533,-396.0455C249.5121,-412.7906 272.7646,-486.7 227.5,-486.7"/>
<polygon fill="#000000" stroke="#000000" points="285.7119,-394.5289 294.323,-396.2047 289.6059,-393.6145 293.5,-392.7 293.5,-392.7 293.5,-392.7 289.6059,-393.6145 292.677,-389.1953 285.7119,-394.5289 285.7119,-394.5289"/>
<ellipse fill="none" stroke="#000000" cx="282.5966" cy="-395.2605" rx="3.2" ry="3.2"/>
</g>
</g>
</svg>
