<?xml version="1.0" encoding="UTF-8" standalone="no"?>
<!DOCTYPE svg PUBLIC "-//W3C//DTD SVG 1.1//EN"
 "http://www.w3.org/Graphics/SVG/1.1/DTD/svg11.dtd">
<!-- Generated by graphviz version 2.40.1 (20161225.0304)
 -->
<!-- Title: twoDegreesRelationshipsDiagram Pages: 1 -->
<svg width="645pt" height="688pt"
 viewBox="0.00 0.00 645.00 688.36" xmlns="http://www.w3.org/2000/svg" xmlns:xlink="http://www.w3.org/1999/xlink">
<g id="graph0" class="graph" transform="scale(1 1) rotate(0) translate(4 684.3593)">
<title>twoDegreesRelationshipsDiagram</title>
<polygon fill="#ffffff" stroke="transparent" points="-4,4 -4,-684.3593 641,-684.3593 641,4 -4,4"/>
<text text-anchor="middle" x="72.4936" y="-7.3" font-family="Helvetica,sans-Serif" font-size="11.00" fill="#000000">Generated by SchemaSpy</text>
<!-- data_histogram_bin_data -->
<g id="node1" class="node">
<title>data_histogram_bin_data</title>
<g id="a_node1"><a xlink:href="../../tables/data_histogram_bin_data.html" xlink:title="data_histogram_bin_data" target="_top">
<polygon fill="#ffffff" stroke="transparent" points="462,-306.2057 462,-367.2057 629,-367.2057 629,-306.2057 462,-306.2057"/>
<polygon fill="#f5f5f5" stroke="transparent" points="462.5,-343.7057 462.5,-366.7057 629.5,-366.7057 629.5,-343.7057 462.5,-343.7057"/>
<polygon fill="none" stroke="#000000" points="462.5,-343.7057 462.5,-366.7057 629.5,-366.7057 629.5,-343.7057 462.5,-343.7057"/>
<text text-anchor="start" x="467.4501" y="-352.8057" font-family="Helvetica,sans-Serif" font-weight="bold" font-size="11.00" fill="#000000">data_histogram_bin_data</text>
<text text-anchor="start" x="595.0219" y="-351.8057" font-family="Helvetica,sans-Serif" font-size="11.00" fill="#000000">[table]</text>
<polygon fill="none" stroke="#000000" points="462.5,-324.7057 462.5,-343.7057 629.5,-343.7057 629.5,-324.7057 462.5,-324.7057"/>
<text text-anchor="start" x="465.5" y="-330.8057" font-family="Helvetica,sans-Serif" font-size="11.00" fill="#000000">...</text>
<polygon fill="#ffffff" stroke="transparent" points="462.5,-305.7057 462.5,-324.7057 531.5,-324.7057 531.5,-305.7057 462.5,-305.7057"/>
<polygon fill="none" stroke="#000000" points="462.5,-305.7057 462.5,-324.7057 531.5,-324.7057 531.5,-305.7057 462.5,-305.7057"/>
<text text-anchor="start" x="465.5" y="-311.8057" font-family="Helvetica,sans-Serif" font-size="11.00" fill="#000000">&lt; 7</text>
<polygon fill="#ffffff" stroke="transparent" points="531.5,-305.7057 531.5,-324.7057 593.5,-324.7057 593.5,-305.7057 531.5,-305.7057"/>
<polygon fill="none" stroke="#000000" points="531.5,-305.7057 531.5,-324.7057 593.5,-324.7057 593.5,-305.7057 531.5,-305.7057"/>
<text text-anchor="start" x="558.1105" y="-311.8057" font-family="Helvetica,sans-Serif" font-size="11.00" fill="#000000">0 rows</text>
<polygon fill="#ffffff" stroke="transparent" points="593.5,-305.7057 593.5,-324.7057 629.5,-324.7057 629.5,-305.7057 593.5,-305.7057"/>
<polygon fill="none" stroke="#000000" points="593.5,-305.7057 593.5,-324.7057 629.5,-324.7057 629.5,-305.7057 593.5,-305.7057"/>
<text text-anchor="start" x="620.3862" y="-311.8057" font-family="Helvetica,sans-Serif" font-size="11.00" fill="#000000"> &#160;</text>
</a>
</g>
</g>
<!-- data_histogram_bin_info -->
<g id="node2" class="node">
<title>data_histogram_bin_info</title>
<g id="a_node2"><a xlink:href="../../tables/data_histogram_bin_info.html" xlink:title="data_histogram_bin_info" target="_top">
<polygon fill="#ffffff" stroke="transparent" points="219.5,-560.2057 219.5,-621.2057 382.5,-621.2057 382.5,-560.2057 219.5,-560.2057"/>
<polygon fill="#f5f5f5" stroke="transparent" points="220,-597.7057 220,-620.7057 383,-620.7057 383,-597.7057 220,-597.7057"/>
<polygon fill="none" stroke="#000000" points="220,-597.7057 220,-620.7057 383,-620.7057 383,-597.7057 220,-597.7057"/>
<text text-anchor="start" x="224.7871" y="-606.8057" font-family="Helvetica,sans-Serif" font-weight="bold" font-size="11.00" fill="#000000">data_histogram_bin_info</text>
<text text-anchor="start" x="348.5219" y="-605.8057" font-family="Helvetica,sans-Serif" font-size="11.00" fill="#000000">[table]</text>
<polygon fill="none" stroke="#000000" points="220,-578.7057 220,-597.7057 383,-597.7057 383,-578.7057 220,-578.7057"/>
<text text-anchor="start" x="223" y="-584.8057" font-family="Helvetica,sans-Serif" font-size="11.00" fill="#000000">...</text>
<polygon fill="#ffffff" stroke="transparent" points="220,-559.7057 220,-578.7057 282,-578.7057 282,-559.7057 220,-559.7057"/>
<polygon fill="none" stroke="#000000" points="220,-559.7057 220,-578.7057 282,-578.7057 282,-559.7057 220,-559.7057"/>
<text text-anchor="start" x="223" y="-565.8057" font-family="Helvetica,sans-Serif" font-size="11.00" fill="#000000">&lt; 1</text>
<polygon fill="#ffffff" stroke="transparent" points="282,-559.7057 282,-578.7057 341,-578.7057 341,-559.7057 282,-559.7057"/>
<polygon fill="none" stroke="#000000" points="282,-559.7057 282,-578.7057 341,-578.7057 341,-559.7057 282,-559.7057"/>
<text text-anchor="start" x="305.6105" y="-565.8057" font-family="Helvetica,sans-Serif" font-size="11.00" fill="#000000">0 rows</text>
<polygon fill="#ffffff" stroke="transparent" points="341,-559.7057 341,-578.7057 383,-578.7057 383,-559.7057 341,-559.7057"/>
<polygon fill="none" stroke="#000000" points="341,-559.7057 341,-578.7057 383,-578.7057 383,-559.7057 341,-559.7057"/>
<text text-anchor="start" x="364.4053" y="-565.8057" font-family="Helvetica,sans-Serif" font-size="11.00" fill="#000000">2 &gt;</text>
</a>
</g>
</g>
<!-- data_histogram_bin_data&#45;&gt;data_histogram_bin_info -->
<g id="edge1" class="edge">
<title>data_histogram_bin_data:w&#45;&gt;data_histogram_bin_info:e</title>
<path fill="none" stroke="#000000" d="M448.5527,-338.3245C420.3786,-365.6009 439.9803,-501.8139 421,-539.7057 409.7259,-562.2129 408.173,-581.7057 383,-587.7057"/>
<polygon fill="#000000" stroke="#000000" points="454.9056,-336.2207 463.6318,-337.1231 458.7028,-334.9632 462.5,-333.7057 462.5,-333.7057 462.5,-333.7057 458.7028,-334.9632 461.3682,-330.2882 454.9056,-336.2207 454.9056,-336.2207"/>
<ellipse fill="none" stroke="#000000" cx="451.8678" cy="-337.2267" rx="3.2" ry="3.2"/>
</g>
<!-- data_histogram_bin_data&#45;&gt;data_histogram_bin_info -->
<g id="edge2" class="edge">
<title>data_histogram_bin_data:w&#45;&gt;data_histogram_bin_info:e</title>
<path fill="none" stroke="#000000" d="M449.7001,-340.9911C419.8514,-374.9673 440.2323,-514.311 421,-552.7057 409.7259,-575.2129 408.173,-594.7057 383,-587.7057"/>
<polygon fill="#000000" stroke="#000000" points="455.5473,-337.663 464.2808,-336.8344 459.0237,-335.6843 462.5,-333.7057 462.5,-333.7057 462.5,-333.7057 459.0237,-335.6843 460.7192,-330.577 455.5473,-337.663 455.5473,-337.663"/>
<ellipse fill="none" stroke="#000000" cx="452.7662" cy="-339.2459" rx="3.2" ry="3.2"/>
</g>
<!-- data_position -->
<g id="node3" class="node">
<title>data_position</title>
<g id="a_node3"><a xlink:href="../../tables/data_position.html" xlink:title="data_position" target="_top">
<polygon fill="#ffffff" stroke="transparent" points="247,-224.2057 247,-285.2057 355,-285.2057 355,-224.2057 247,-224.2057"/>
<polygon fill="#f5f5f5" stroke="transparent" points="247,-261.7057 247,-284.7057 355,-284.7057 355,-261.7057 247,-261.7057"/>
<polygon fill="none" stroke="#000000" points="247,-261.7057 247,-284.7057 355,-284.7057 355,-261.7057 247,-261.7057"/>
<text text-anchor="start" x="251.7926" y="-270.8057" font-family="Helvetica,sans-Serif" font-weight="bold" font-size="11.00" fill="#000000">data_position</text>
<text text-anchor="start" x="320.5219" y="-269.8057" font-family="Helvetica,sans-Serif" font-size="11.00" fill="#000000">[table]</text>
<polygon fill="none" stroke="#000000" points="247,-242.7057 247,-261.7057 355,-261.7057 355,-242.7057 247,-242.7057"/>
<text text-anchor="start" x="250" y="-248.8057" font-family="Helvetica,sans-Serif" font-size="11.00" fill="#000000">...</text>
<polygon fill="#ffffff" stroke="transparent" points="247,-223.7057 247,-242.7057 282,-242.7057 282,-223.7057 247,-223.7057"/>
<polygon fill="none" stroke="#000000" points="247,-223.7057 247,-242.7057 282,-242.7057 282,-223.7057 247,-223.7057"/>
<text text-anchor="start" x="250" y="-229.8057" font-family="Helvetica,sans-Serif" font-size="11.00" fill="#000000">&lt; 1</text>
<polygon fill="#ffffff" stroke="transparent" points="282,-223.7057 282,-242.7057 327,-242.7057 327,-223.7057 282,-223.7057"/>
<polygon fill="none" stroke="#000000" points="282,-223.7057 282,-242.7057 327,-242.7057 327,-223.7057 282,-223.7057"/>
<text text-anchor="start" x="291.6105" y="-229.8057" font-family="Helvetica,sans-Serif" font-size="11.00" fill="#000000">0 rows</text>
<polygon fill="#ffffff" stroke="transparent" points="327,-223.7057 327,-242.7057 355,-242.7057 355,-223.7057 327,-223.7057"/>
<polygon fill="none" stroke="#000000" points="327,-223.7057 327,-242.7057 355,-242.7057 355,-223.7057 327,-223.7057"/>
<text text-anchor="start" x="336.4053" y="-229.8057" font-family="Helvetica,sans-Serif" font-size="11.00" fill="#000000">9 &gt;</text>
</a>
</g>
</g>
<!-- data_histogram_bin_data&#45;&gt;data_position -->
<g id="edge3" class="edge">
<title>data_histogram_bin_data:w&#45;&gt;data_position:e</title>
<path fill="none" stroke="#000000" d="M450.6935,-325.0829C438.321,-313.014 436.0385,-298.3192 421,-286.7057 392.293,-264.5366 391.2706,-238.7057 355,-251.7057"/>
<polygon fill="#000000" stroke="#000000" points="456.0395,-328.9873 460.3767,-336.6129 459.2698,-331.3465 462.5,-333.7057 462.5,-333.7057 462.5,-333.7057 459.2698,-331.3465 464.6233,-330.7985 456.0395,-328.9873 456.0395,-328.9873"/>
<ellipse fill="none" stroke="#000000" cx="453.4554" cy="-327.1" rx="3.2" ry="3.2"/>
</g>
<!-- data_histogram_bin_data&#45;&gt;data_position -->
<g id="edge4" class="edge">
<title>data_histogram_bin_data:w&#45;&gt;data_position:e</title>
<path fill="none" stroke="#000000" d="M448.2814,-330.2481C437.9477,-324.0116 435.0065,-310.5222 421,-299.7057 392.293,-277.5366 391.2706,-251.7057 355,-251.7057"/>
<polygon fill="#000000" stroke="#000000" points="454.7265,-331.8153 461.6493,-337.2037 458.6133,-332.7605 462.5,-333.7057 462.5,-333.7057 462.5,-333.7057 458.6133,-332.7605 463.3507,-330.2076 454.7265,-331.8153 454.7265,-331.8153"/>
<ellipse fill="none" stroke="#000000" cx="451.6171" cy="-331.0592" rx="3.2" ry="3.2"/>
</g>
<!-- data_histogram_bin_data&#45;&gt;data_position -->
<g id="edge6" class="edge">
<title>data_histogram_bin_data:w&#45;&gt;data_position:e</title>
<path fill="none" stroke="#000000" d="M448.6102,-337.9582C438.0084,-337.2958 435.1539,-323.636 421,-312.7057 392.293,-290.5366 391.2706,-264.7057 355,-251.7057"/>
<polygon fill="#000000" stroke="#000000" points="454.8505,-336.0477 463.5539,-337.1479 458.6752,-334.8767 462.5,-333.7057 462.5,-333.7057 462.5,-333.7057 458.6752,-334.8767 461.4461,-330.2634 454.8505,-336.0477 454.8505,-336.0477"/>
<ellipse fill="none" stroke="#000000" cx="451.7907" cy="-336.9845" rx="3.2" ry="3.2"/>
</g>
<!-- submission -->
<g id="node4" class="node">
<title>submission</title>
<g id="a_node4"><a xlink:href="../../tables/submission.html" xlink:title="submission" target="_top">
<polygon fill="#ffffff" stroke="transparent" points="14.5,-164.2057 14.5,-247.2057 133.5,-247.2057 133.5,-164.2057 14.5,-164.2057"/>
<polygon fill="#f5f5f5" stroke="transparent" points="15,-223.7057 15,-246.7057 134,-246.7057 134,-223.7057 15,-223.7057"/>
<polygon fill="none" stroke="#000000" points="15,-223.7057 15,-246.7057 134,-246.7057 134,-223.7057 15,-223.7057"/>
<text text-anchor="start" x="20" y="-232.8057" font-family="Helvetica,sans-Serif" font-weight="bold" font-size="11.00" fill="#000000">submission</text>
<text text-anchor="start" x="99.0437" y="-231.8057" font-family="Helvetica,sans-Serif" font-size="11.00" fill="#000000">[table]</text>
<polygon fill="none" stroke="#000000" points="15,-201.7057 15,-223.7057 134,-223.7057 134,-201.7057 15,-201.7057"/>
<image xlink:href="../../images/primaryKeys.png" width="11px" height="12px" preserveAspectRatio="xMinYMin meet" x="20" y="-218.706"/>
<text text-anchor="start" x="35" y="-208.8057" font-family="Helvetica,sans-Serif" font-size="11.00" fill="#000000">submission_id</text>
<polygon fill="none" stroke="#000000" points="15,-182.7057 15,-201.7057 134,-201.7057 134,-182.7057 15,-182.7057"/>
<text text-anchor="start" x="18" y="-188.8057" font-family="Helvetica,sans-Serif" font-size="11.00" fill="#000000">...</text>
<polygon fill="#ffffff" stroke="transparent" points="15,-163.7057 15,-182.7057 51,-182.7057 51,-163.7057 15,-163.7057"/>
<polygon fill="none" stroke="#000000" points="15,-163.7057 15,-182.7057 51,-182.7057 51,-163.7057 15,-163.7057"/>
<text text-anchor="start" x="18" y="-169.8057" font-family="Helvetica,sans-Serif" font-size="11.00" fill="#000000"> &#160;</text>
<polygon fill="#ffffff" stroke="transparent" points="51,-163.7057 51,-182.7057 101,-182.7057 101,-163.7057 51,-163.7057"/>
<polygon fill="none" stroke="#000000" points="51,-163.7057 51,-182.7057 101,-182.7057 101,-163.7057 51,-163.7057"/>
<text text-anchor="start" x="65.6105" y="-169.8057" font-family="Helvetica,sans-Serif" font-size="11.00" fill="#000000">0 rows</text>
<polygon fill="#ffffff" stroke="transparent" points="101,-163.7057 101,-182.7057 134,-182.7057 134,-163.7057 101,-163.7057"/>
<polygon fill="none" stroke="#000000" points="101,-163.7057 101,-182.7057 134,-182.7057 134,-163.7057 101,-163.7057"/>
<text text-anchor="start" x="115.4053" y="-169.8057" font-family="Helvetica,sans-Serif" font-size="11.00" fill="#000000">6 &gt;</text>
</a>
</g>
</g>
<!-- data_histogram_bin_data&#45;&gt;submission -->
<g id="edge5" class="edge">
<title>data_histogram_bin_data:w&#45;&gt;submission:e</title>
<path fill="none" stroke="#000000" d="M448.1968,-331.8635C439.6546,-329.4176 433.8932,-325.126 421,-322.7057 368.2516,-312.8035 225.781,-325.2879 181,-295.7057 145.6284,-272.3392 176.3926,-212.7057 134,-212.7057"/>
<polygon fill="#000000" stroke="#000000" points="454.5655,-332.6837 462.0401,-337.2762 458.5328,-333.1947 462.5,-333.7057 462.5,-333.7057 462.5,-333.7057 458.5328,-333.1947 462.9599,-330.1352 454.5655,-332.6837 454.5655,-332.6837"/>
<ellipse fill="none" stroke="#000000" cx="451.3918" cy="-332.2749" rx="3.2" ry="3.2"/>
</g>
<!-- observation_types -->
<g id="node5" class="node">
<title>observation_types</title>
<g id="a_node5"><a xlink:href="../../tables/observation_types.html" xlink:title="observation_types" target="_top">
<polygon fill="#ffffff" stroke="transparent" points="8,-465.2057 8,-570.2057 140,-570.2057 140,-465.2057 8,-465.2057"/>
<polygon fill="#f5f5f5" stroke="transparent" points="8,-546.7057 8,-569.7057 140,-569.7057 140,-546.7057 8,-546.7057"/>
<polygon fill="none" stroke="#000000" points="8,-546.7057 8,-569.7057 140,-569.7057 140,-546.7057 8,-546.7057"/>
<text text-anchor="start" x="12.8746" y="-555.8057" font-family="Helvetica,sans-Serif" font-weight="bold" font-size="11.00" fill="#000000">observation_types</text>
<text text-anchor="start" x="105.5219" y="-554.8057" font-family="Helvetica,sans-Serif" font-size="11.00" fill="#000000">[table]</text>
<polygon fill="none" stroke="#000000" points="8,-524.7057 8,-546.7057 140,-546.7057 140,-524.7057 8,-524.7057"/>
<image xlink:href="../../images/primaryKeys.png" width="11px" height="12px" preserveAspectRatio="xMinYMin meet" x="13" y="-541.706"/>
<text text-anchor="start" x="31" y="-531.8057" font-family="Helvetica,sans-Serif" font-size="11.00" fill="#000000">variable_id</text>
<polygon fill="#ffffff" stroke="transparent" points="8,-502.7057 8,-524.7057 140,-524.7057 140,-502.7057 8,-502.7057"/>
<polygon fill="none" stroke="#000000" points="8,-502.7057 8,-524.7057 140,-524.7057 140,-502.7057 8,-502.7057"/>
<text text-anchor="start" x="31" y="-509.8057" font-family="Helvetica,sans-Serif" font-size="11.00" fill="#000000">variable_name</text>
<polygon fill="none" stroke="#000000" points="8,-483.7057 8,-502.7057 140,-502.7057 140,-483.7057 8,-483.7057"/>
<text text-anchor="start" x="11" y="-489.8057" font-family="Helvetica,sans-Serif" font-size="11.00" fill="#000000">...</text>
<polygon fill="#ffffff" stroke="transparent" points="8,-464.7057 8,-483.7057 44,-483.7057 44,-464.7057 8,-464.7057"/>
<polygon fill="none" stroke="#000000" points="8,-464.7057 8,-483.7057 44,-483.7057 44,-464.7057 8,-464.7057"/>
<text text-anchor="start" x="11" y="-470.8057" font-family="Helvetica,sans-Serif" font-size="11.00" fill="#000000"> &#160;</text>
<polygon fill="#ffffff" stroke="transparent" points="44,-464.7057 44,-483.7057 106,-483.7057 106,-464.7057 44,-464.7057"/>
<polygon fill="none" stroke="#000000" points="44,-464.7057 44,-483.7057 106,-483.7057 106,-464.7057 44,-464.7057"/>
<text text-anchor="start" x="58.3807" y="-470.8057" font-family="Helvetica,sans-Serif" font-size="11.00" fill="#000000">204 rows</text>
<polygon fill="#ffffff" stroke="transparent" points="106,-464.7057 106,-483.7057 140,-483.7057 140,-464.7057 106,-464.7057"/>
<polygon fill="none" stroke="#000000" points="106,-464.7057 106,-483.7057 140,-483.7057 140,-464.7057 106,-464.7057"/>
<text text-anchor="start" x="121.4053" y="-470.8057" font-family="Helvetica,sans-Serif" font-size="11.00" fill="#000000">5 &gt;</text>
</a>
</g>
</g>
<!-- data_histogram_bin_data&#45;&gt;observation_types -->
<g id="edge7" class="edge">
<title>data_histogram_bin_data:w&#45;&gt;observation_types:e</title>
<path fill="none" stroke="#000000" d="M448.7773,-338.579C407.2244,-373.98 467.2962,-591.41 421,-631.7057 340.5416,-701.7358 270.0128,-690.4807 181,-631.7057 142.2836,-606.1413 186.395,-535.7057 140,-535.7057"/>
<polygon fill="#000000" stroke="#000000" points="454.9613,-336.3829 463.7048,-337.0981 458.7306,-335.0443 462.5,-333.7057 462.5,-333.7057 462.5,-333.7057 458.7306,-335.0443 461.2952,-330.3132 454.9613,-336.3829 454.9613,-336.3829"/>
<ellipse fill="none" stroke="#000000" cx="451.9458" cy="-337.4539" rx="3.2" ry="3.2"/>
</g>
<!-- data_histogram_bin_info&#45;&gt;observation_types -->
<g id="edge8" class="edge">
<title>data_histogram_bin_info:w&#45;&gt;observation_types:e</title>
<path fill="none" stroke="#000000" d="M205.7522,-585.3362C178.0497,-575.1635 176.9401,-535.7057 140,-535.7057"/>
<polygon fill="#000000" stroke="#000000" points="212.1084,-586.3932 219.4094,-591.2569 216.0542,-587.0494 220,-587.7057 220,-587.7057 220,-587.7057 216.0542,-587.0494 220.5906,-584.1544 212.1084,-586.3932 212.1084,-586.3932"/>
<ellipse fill="none" stroke="#000000" cx="208.9517" cy="-585.8682" rx="3.2" ry="3.2"/>
</g>
<!-- data_position&#45;&gt;submission -->
<g id="edge9" class="edge">
<title>data_position:w&#45;&gt;submission:e</title>
<path fill="none" stroke="#000000" d="M232.4126,-250.6219C192.0675,-244.3231 181.8371,-212.7057 134,-212.7057"/>
<polygon fill="#000000" stroke="#000000" points="239.022,-251.1129 246.7332,-255.2958 243.011,-251.4093 247,-251.7057 247,-251.7057 247,-251.7057 243.011,-251.4093 247.2668,-248.1156 239.022,-251.1129 239.022,-251.1129"/>
<ellipse fill="none" stroke="#000000" cx="235.8308" cy="-250.8758" rx="3.2" ry="3.2"/>
</g>
<!-- data_profile -->
<g id="node6" class="node">
<title>data_profile</title>
<g id="a_node6"><a xlink:href="../../tables/data_profile.html" xlink:title="data_profile" target="_top">
<polygon fill="#ffffff" stroke="transparent" points="495.5,-224.2057 495.5,-285.2057 595.5,-285.2057 595.5,-224.2057 495.5,-224.2057"/>
<polygon fill="#f5f5f5" stroke="transparent" points="495.5,-261.7057 495.5,-284.7057 595.5,-284.7057 595.5,-261.7057 495.5,-261.7057"/>
<polygon fill="none" stroke="#000000" points="495.5,-261.7057 495.5,-284.7057 595.5,-284.7057 595.5,-261.7057 495.5,-261.7057"/>
<text text-anchor="start" x="500.2691" y="-270.8057" font-family="Helvetica,sans-Serif" font-weight="bold" font-size="11.00" fill="#000000">data_profile</text>
<text text-anchor="start" x="561.0219" y="-269.8057" font-family="Helvetica,sans-Serif" font-size="11.00" fill="#000000">[table]</text>
<polygon fill="none" stroke="#000000" points="495.5,-242.7057 495.5,-261.7057 595.5,-261.7057 595.5,-242.7057 495.5,-242.7057"/>
<text text-anchor="start" x="498.5" y="-248.8057" font-family="Helvetica,sans-Serif" font-size="11.00" fill="#000000">...</text>
<polygon fill="#ffffff" stroke="transparent" points="495.5,-223.7057 495.5,-242.7057 530.5,-242.7057 530.5,-223.7057 495.5,-223.7057"/>
<polygon fill="none" stroke="#000000" points="495.5,-223.7057 495.5,-242.7057 530.5,-242.7057 530.5,-223.7057 495.5,-223.7057"/>
<text text-anchor="start" x="498.5" y="-229.8057" font-family="Helvetica,sans-Serif" font-size="11.00" fill="#000000">&lt; 5</text>
<polygon fill="#ffffff" stroke="transparent" points="530.5,-223.7057 530.5,-242.7057 575.5,-242.7057 575.5,-223.7057 530.5,-223.7057"/>
<polygon fill="none" stroke="#000000" points="530.5,-223.7057 530.5,-242.7057 575.5,-242.7057 575.5,-223.7057 530.5,-223.7057"/>
<text text-anchor="start" x="540.1105" y="-229.8057" font-family="Helvetica,sans-Serif" font-size="11.00" fill="#000000">0 rows</text>
<polygon fill="#ffffff" stroke="transparent" points="575.5,-223.7057 575.5,-242.7057 595.5,-242.7057 595.5,-223.7057 575.5,-223.7057"/>
<polygon fill="none" stroke="#000000" points="575.5,-223.7057 575.5,-242.7057 595.5,-242.7057 595.5,-223.7057 575.5,-223.7057"/>
<text text-anchor="start" x="586.3862" y="-229.8057" font-family="Helvetica,sans-Serif" font-size="11.00" fill="#000000"> &#160;</text>
</a>
</g>
</g>
<!-- data_profile&#45;&gt;data_position -->
<g id="edge10" class="edge">
<title>data_profile:w&#45;&gt;data_position:e</title>
<path fill="none" stroke="#000000" d="M481.3516,-248.8327C430.255,-238.789 412.444,-239.7467 355,-251.7057"/>
<polygon fill="#000000" stroke="#000000" points="487.66,-250.1136 494.7836,-255.2337 491.58,-250.9096 495.5,-251.7057 495.5,-251.7057 495.5,-251.7057 491.58,-250.9096 496.2164,-248.1777 487.66,-250.1136 487.66,-250.1136"/>
<ellipse fill="none" stroke="#000000" cx="484.524" cy="-249.4768" rx="3.2" ry="3.2"/>
</g>
<!-- data_profile&#45;&gt;data_position -->
<g id="edge11" class="edge">
<title>data_profile:w&#45;&gt;data_position:e</title>
<path fill="none" stroke="#000000" d="M481.0266,-251.7057C430.1792,-251.7057 412.322,-251.7057 355,-251.7057"/>
<polygon fill="#000000" stroke="#000000" points="487.5,-251.7057 495.5,-255.3057 491.5,-251.7057 495.5,-251.7057 495.5,-251.7057 495.5,-251.7057 491.5,-251.7057 495.5,-248.1057 487.5,-251.7057 487.5,-251.7057"/>
<ellipse fill="none" stroke="#000000" cx="484.3" cy="-251.7057" rx="3.2" ry="3.2"/>
</g>
<!-- data_profile&#45;&gt;data_position -->
<g id="edge13" class="edge">
<title>data_profile:w&#45;&gt;data_position:e</title>
<path fill="none" stroke="#000000" d="M481.3516,-254.5786C430.255,-264.6223 412.444,-263.6646 355,-251.7057"/>
<polygon fill="#000000" stroke="#000000" points="487.66,-253.2977 496.2164,-255.2337 491.58,-252.5017 495.5,-251.7057 495.5,-251.7057 495.5,-251.7057 491.58,-252.5017 494.7836,-248.1777 487.66,-253.2977 487.66,-253.2977"/>
<ellipse fill="none" stroke="#000000" cx="484.524" cy="-253.9345" rx="3.2" ry="3.2"/>
</g>
<!-- data_profile&#45;&gt;submission -->
<g id="edge12" class="edge">
<title>data_profile:w&#45;&gt;submission:e</title>
<path fill="none" stroke="#000000" d="M481.0934,-249.9348C457.2033,-243.4732 451.7632,-221.155 421,-213.7057 297.0266,-183.6855 261.5563,-212.7057 134,-212.7057"/>
<polygon fill="#000000" stroke="#000000" points="487.5598,-250.7296 495.0608,-255.2788 491.5299,-251.2176 495.5,-251.7057 495.5,-251.7057 495.5,-251.7057 491.5299,-251.2176 495.9392,-248.1326 487.5598,-250.7296 487.5598,-250.7296"/>
<ellipse fill="none" stroke="#000000" cx="484.3837" cy="-250.3392" rx="3.2" ry="3.2"/>
</g>
<!-- data_profile&#45;&gt;observation_types -->
<g id="edge14" class="edge">
<title>data_profile:w&#45;&gt;observation_types:e</title>
<path fill="none" stroke="#000000" d="M480.9561,-254.3866C466.9211,-260.5779 463.1398,-276.7976 454,-295.7057 409.6312,-387.4939 496.5381,-454.239 421,-522.7057 374.6831,-564.6866 202.5112,-535.7057 140,-535.7057"/>
<polygon fill="#000000" stroke="#000000" points="487.6325,-253.1559 496.1526,-255.246 491.5663,-252.4308 495.5,-251.7057 495.5,-251.7057 495.5,-251.7057 491.5663,-252.4308 494.8474,-248.1653 487.6325,-253.1559 487.6325,-253.1559"/>
<ellipse fill="none" stroke="#000000" cx="484.4856" cy="-253.7361" rx="3.2" ry="3.2"/>
</g>
<!-- data_time_series -->
<g id="node7" class="node">
<title>data_time_series</title>
<g id="a_node7"><a xlink:href="../../tables/data_time_series.html" xlink:title="data_time_series" target="_top">
<polygon fill="#ffffff" stroke="transparent" points="482.5,-142.2057 482.5,-203.2057 608.5,-203.2057 608.5,-142.2057 482.5,-142.2057"/>
<polygon fill="#f5f5f5" stroke="transparent" points="482.5,-179.7057 482.5,-202.7057 608.5,-202.7057 608.5,-179.7057 482.5,-179.7057"/>
<polygon fill="none" stroke="#000000" points="482.5,-179.7057 482.5,-202.7057 608.5,-202.7057 608.5,-179.7057 482.5,-179.7057"/>
<text text-anchor="start" x="487.1307" y="-188.8057" font-family="Helvetica,sans-Serif" font-weight="bold" font-size="11.00" fill="#000000">data_time_series</text>
<text text-anchor="start" x="574.0219" y="-187.8057" font-family="Helvetica,sans-Serif" font-size="11.00" fill="#000000">[table]</text>
<polygon fill="none" stroke="#000000" points="482.5,-160.7057 482.5,-179.7057 608.5,-179.7057 608.5,-160.7057 482.5,-160.7057"/>
<text text-anchor="start" x="485.5" y="-166.8057" font-family="Helvetica,sans-Serif" font-size="11.00" fill="#000000">...</text>
<polygon fill="#ffffff" stroke="transparent" points="482.5,-141.7057 482.5,-160.7057 530.5,-160.7057 530.5,-141.7057 482.5,-141.7057"/>
<polygon fill="none" stroke="#000000" points="482.5,-141.7057 482.5,-160.7057 530.5,-160.7057 530.5,-141.7057 482.5,-141.7057"/>
<text text-anchor="start" x="485.5" y="-147.8057" font-family="Helvetica,sans-Serif" font-size="11.00" fill="#000000">&lt; 5</text>
<polygon fill="#ffffff" stroke="transparent" points="530.5,-141.7057 530.5,-160.7057 582.5,-160.7057 582.5,-141.7057 530.5,-141.7057"/>
<polygon fill="none" stroke="#000000" points="530.5,-141.7057 530.5,-160.7057 582.5,-160.7057 582.5,-141.7057 530.5,-141.7057"/>
<text text-anchor="start" x="547.1105" y="-147.8057" font-family="Helvetica,sans-Serif" font-size="11.00" fill="#000000">0 rows</text>
<polygon fill="#ffffff" stroke="transparent" points="582.5,-141.7057 582.5,-160.7057 608.5,-160.7057 608.5,-141.7057 582.5,-141.7057"/>
<polygon fill="none" stroke="#000000" points="582.5,-141.7057 582.5,-160.7057 608.5,-160.7057 608.5,-141.7057 582.5,-141.7057"/>
<text text-anchor="start" x="599.3862" y="-147.8057" font-family="Helvetica,sans-Serif" font-size="11.00" fill="#000000"> &#160;</text>
</a>
</g>
</g>
<!-- data_time_series&#45;&gt;data_position -->
<g id="edge15" class="edge">
<title>data_time_series:w&#45;&gt;data_position:e</title>
<path fill="none" stroke="#000000" d="M468.4342,-165.9577C448.6671,-164.0835 443.8154,-182.0271 421,-196.7057 391.7597,-215.5178 389.7691,-238.7057 355,-251.7057"/>
<polygon fill="#000000" stroke="#000000" points="474.7697,-167.6458 481.5731,-173.1843 478.6349,-168.6757 482.5,-169.7057 482.5,-169.7057 482.5,-169.7057 478.6349,-168.6757 483.4269,-166.227 474.7697,-167.6458 474.7697,-167.6458"/>
<ellipse fill="none" stroke="#000000" cx="471.6776" cy="-166.8219" rx="3.2" ry="3.2"/>
</g>
<!-- data_time_series&#45;&gt;data_position -->
<g id="edge16" class="edge">
<title>data_time_series:w&#45;&gt;data_position:e</title>
<path fill="none" stroke="#000000" d="M468.1568,-171.5496C448.6211,-177.252 443.7082,-195.096 421,-209.7057 391.7597,-228.5178 389.7691,-251.7057 355,-251.7057"/>
<polygon fill="#000000" stroke="#000000" points="474.5653,-170.7258 482.9591,-173.2763 478.5327,-170.2157 482.5,-169.7057 482.5,-169.7057 482.5,-169.7057 478.5327,-170.2157 482.0409,-166.135 474.5653,-170.7258 474.5653,-170.7258"/>
<ellipse fill="none" stroke="#000000" cx="471.3914" cy="-171.1339" rx="3.2" ry="3.2"/>
</g>
<!-- data_time_series&#45;&gt;data_position -->
<g id="edge18" class="edge">
<title>data_time_series:w&#45;&gt;data_position:e</title>
<path fill="none" stroke="#000000" d="M469.5638,-176.2489C448.8429,-189.4085 444.2438,-207.7515 421,-222.7057 391.7597,-241.5178 389.7691,-264.7057 355,-251.7057"/>
<polygon fill="#000000" stroke="#000000" points="475.3612,-173.3165 484.1249,-172.9181 478.9306,-171.5111 482.5,-169.7057 482.5,-169.7057 482.5,-169.7057 478.9306,-171.5111 480.8751,-166.4932 475.3612,-173.3165 475.3612,-173.3165"/>
<ellipse fill="none" stroke="#000000" cx="472.5057" cy="-174.7609" rx="3.2" ry="3.2"/>
</g>
<!-- data_time_series&#45;&gt;submission -->
<g id="edge17" class="edge">
<title>data_time_series:w&#45;&gt;submission:e</title>
<path fill="none" stroke="#000000" d="M468.1743,-167.0269C439.3414,-154.0408 459.5316,-97.4197 421,-76.7057 327.0488,-26.1988 267.8739,-14.8129 181,-76.7057 128.9147,-113.8135 197.9521,-212.7057 134,-212.7057"/>
<polygon fill="#000000" stroke="#000000" points="474.6363,-168.2352 481.8383,-173.2443 478.5681,-168.9704 482.5,-169.7057 482.5,-169.7057 482.5,-169.7057 478.5681,-168.9704 483.1617,-166.167 474.6363,-168.2352 474.6363,-168.2352"/>
<ellipse fill="none" stroke="#000000" cx="471.4908" cy="-167.647" rx="3.2" ry="3.2"/>
</g>
<!-- data_time_series&#45;&gt;observation_types -->
<g id="edge19" class="edge">
<title>data_time_series:w&#45;&gt;observation_types:e</title>
<path fill="none" stroke="#000000" d="M467.9981,-169.6672C391.3455,-169.3683 225.3812,-168.5063 181,-213.7057 130.462,-265.1753 212.1333,-535.7057 140,-535.7057"/>
<polygon fill="#000000" stroke="#000000" points="474.5,-169.6844 482.4904,-173.3056 478.5,-169.695 482.5,-169.7057 482.5,-169.7057 482.5,-169.7057 478.5,-169.695 482.5096,-166.1057 474.5,-169.6844 474.5,-169.6844"/>
<ellipse fill="none" stroke="#000000" cx="471.3" cy="-169.6758" rx="3.2" ry="3.2"/>
</g>
<!-- metadata -->
<g id="node8" class="node">
<title>metadata</title>
<g id="a_node8"><a xlink:href="../../tables/metadata.html" xlink:title="metadata" target="_top">
<polygon fill="#ffffff" stroke="transparent" points="257,-87.2057 257,-148.2057 345,-148.2057 345,-87.2057 257,-87.2057"/>
<polygon fill="#f5f5f5" stroke="transparent" points="257,-124.7057 257,-147.7057 345,-147.7057 345,-124.7057 257,-124.7057"/>
<polygon fill="none" stroke="#000000" points="257,-124.7057 257,-147.7057 345,-147.7057 345,-124.7057 257,-124.7057"/>
<text text-anchor="start" x="261.5749" y="-133.8057" font-family="Helvetica,sans-Serif" font-weight="bold" font-size="11.00" fill="#000000">metadata</text>
<text text-anchor="start" x="310.5219" y="-132.8057" font-family="Helvetica,sans-Serif" font-size="11.00" fill="#000000">[table]</text>
<polygon fill="none" stroke="#000000" points="257,-105.7057 257,-124.7057 345,-124.7057 345,-105.7057 257,-105.7057"/>
<text text-anchor="start" x="260" y="-111.8057" font-family="Helvetica,sans-Serif" font-size="11.00" fill="#000000">...</text>
<polygon fill="#ffffff" stroke="transparent" points="257,-86.7057 257,-105.7057 286,-105.7057 286,-86.7057 257,-86.7057"/>
<polygon fill="none" stroke="#000000" points="257,-86.7057 257,-105.7057 286,-105.7057 286,-86.7057 257,-86.7057"/>
<text text-anchor="start" x="260" y="-92.8057" font-family="Helvetica,sans-Serif" font-size="11.00" fill="#000000">&lt; 2</text>
<polygon fill="#ffffff" stroke="transparent" points="286,-86.7057 286,-105.7057 328,-105.7057 328,-86.7057 286,-86.7057"/>
<polygon fill="none" stroke="#000000" points="286,-86.7057 286,-105.7057 328,-105.7057 328,-86.7057 286,-86.7057"/>
<text text-anchor="start" x="292.6105" y="-92.8057" font-family="Helvetica,sans-Serif" font-size="11.00" fill="#000000">0 rows</text>
<polygon fill="#ffffff" stroke="transparent" points="328,-86.7057 328,-105.7057 345,-105.7057 345,-86.7057 328,-86.7057"/>
<polygon fill="none" stroke="#000000" points="328,-86.7057 328,-105.7057 345,-105.7057 345,-86.7057 328,-86.7057"/>
<text text-anchor="start" x="335.8862" y="-92.8057" font-family="Helvetica,sans-Serif" font-size="11.00" fill="#000000"> &#160;</text>
</a>
</g>
</g>
<!-- metadata&#45;&gt;submission -->
<g id="edge20" class="edge">
<title>metadata:w&#45;&gt;submission:e</title>
<path fill="none" stroke="#000000" d="M242.4067,-115.9212C215.1403,-120.9319 207.6032,-140.7573 181,-162.7057 157.4744,-182.1149 164.4987,-212.7057 134,-212.7057"/>
<polygon fill="#000000" stroke="#000000" points="249.0276,-115.3698 257.2988,-118.2932 253.0138,-115.0377 257,-114.7057 257,-114.7057 257,-114.7057 253.0138,-115.0377 256.7012,-111.1181 249.0276,-115.3698 249.0276,-115.3698"/>
<ellipse fill="none" stroke="#000000" cx="245.8387" cy="-115.6354" rx="3.2" ry="3.2"/>
</g>
<!-- proc_observations -->
<g id="node9" class="node">
<title>proc_observations</title>
<g id="a_node9"><a xlink:href="../../tables/proc_observations.html" xlink:title="proc_observations" target="_top">
<polygon fill="#ffffff" stroke="transparent" points="189,-333.7057 189,-511.7057 413,-511.7057 413,-333.7057 189,-333.7057"/>
<polygon fill="#f5f5f5" stroke="transparent" points="191,-486.7057 191,-509.7057 411,-509.7057 411,-486.7057 191,-486.7057"/>
<polygon fill="none" stroke="#000000" points="191,-486.7057 191,-509.7057 411,-509.7057 411,-486.7057 191,-486.7057"/>
<text text-anchor="start" x="196" y="-495.8057" font-family="Helvetica,sans-Serif" font-weight="bold" font-size="11.00" fill="#000000">proc_observations</text>
<text text-anchor="start" x="376.0437" y="-494.8057" font-family="Helvetica,sans-Serif" font-size="11.00" fill="#000000">[table]</text>
<polygon fill="none" stroke="#000000" points="191,-464.7057 191,-486.7057 319,-486.7057 319,-464.7057 191,-464.7057"/>
<image xlink:href="../../images/primaryKeys.png" width="11px" height="12px" preserveAspectRatio="xMinYMin meet" x="196" y="-481.706"/>
<text text-anchor="start" x="211" y="-471.8057" font-family="Helvetica,sans-Serif" font-size="11.00" fill="#000000">date_time</text>
<polygon fill="none" stroke="#000000" points="319,-464.7057 319,-486.7057 411,-486.7057 411,-464.7057 319,-464.7057"/>
<text text-anchor="start" x="321.6023" y="-472.4057" font-family="Helvetica,sans-Serif" font-size="11.00" fill="#000000">timestamptz[35,6]</text>
<polygon fill="none" stroke="#000000" points="191,-442.7057 191,-464.7057 319,-464.7057 319,-442.7057 191,-442.7057"/>
<image xlink:href="../../images/primaryKeys.png" width="11px" height="12px" preserveAspectRatio="xMinYMin meet" x="196" y="-459.706"/>
<text text-anchor="start" x="211" y="-449.8057" font-family="Helvetica,sans-Serif" font-size="11.00" fill="#000000">variable_id</text>
<polygon fill="none" stroke="#000000" points="319,-442.7057 319,-464.7057 411,-464.7057 411,-442.7057 319,-442.7057"/>
<text text-anchor="start" x="322" y="-450.4057" font-family="Helvetica,sans-Serif" font-size="11.00" fill="#000000">int8[19]</text>
<polygon fill="none" stroke="#000000" points="191,-420.7057 191,-442.7057 319,-442.7057 319,-420.7057 191,-420.7057"/>
<text text-anchor="start" x="211" y="-427.8057" font-family="Helvetica,sans-Serif" font-size="11.00" fill="#000000">variable_value</text>
<polygon fill="none" stroke="#000000" points="319,-420.7057 319,-442.7057 411,-442.7057 411,-420.7057 319,-420.7057"/>
<text text-anchor="start" x="322" y="-428.4057" font-family="Helvetica,sans-Serif" font-size="11.00" fill="#000000">float8[17,17]</text>
<polygon fill="none" stroke="#000000" points="191,-398.7057 191,-420.7057 319,-420.7057 319,-398.7057 191,-398.7057"/>
<image xlink:href="../../images/primaryKeys.png" width="11px" height="12px" preserveAspectRatio="xMinYMin meet" x="196" y="-415.706"/>
<text text-anchor="start" x="211" y="-405.8057" font-family="Helvetica,sans-Serif" font-size="11.00" fill="#000000">submission_id</text>
<polygon fill="none" stroke="#000000" points="319,-398.7057 319,-420.7057 411,-420.7057 411,-398.7057 319,-398.7057"/>
<text text-anchor="start" x="322" y="-406.4057" font-family="Helvetica,sans-Serif" font-size="11.00" fill="#000000">int8[19]</text>
<polygon fill="none" stroke="#000000" points="191,-376.7057 191,-398.7057 319,-398.7057 319,-376.7057 191,-376.7057"/>
<text text-anchor="start" x="211" y="-383.8057" font-family="Helvetica,sans-Serif" font-size="11.00" fill="#000000">tag_id</text>
<polygon fill="none" stroke="#000000" points="319,-376.7057 319,-398.7057 411,-398.7057 411,-376.7057 319,-376.7057"/>
<text text-anchor="start" x="322" y="-384.4057" font-family="Helvetica,sans-Serif" font-size="11.00" fill="#000000">int8[19]</text>
<polygon fill="none" stroke="#000000" points="191,-354.7057 191,-376.7057 319,-376.7057 319,-354.7057 191,-354.7057"/>
<text text-anchor="start" x="211" y="-361.8057" font-family="Helvetica,sans-Serif" font-size="11.00" fill="#000000">final_value</text>
<polygon fill="none" stroke="#000000" points="319,-354.7057 319,-376.7057 411,-376.7057 411,-354.7057 319,-354.7057"/>
<text text-anchor="start" x="322" y="-362.4057" font-family="Helvetica,sans-Serif" font-size="11.00" fill="#000000">bool[1]</text>
<polygon fill="#ffffff" stroke="transparent" points="191,-335.7057 191,-354.7057 246,-354.7057 246,-335.7057 191,-335.7057"/>
<polygon fill="none" stroke="#000000" points="191,-335.7057 191,-354.7057 246,-354.7057 246,-335.7057 191,-335.7057"/>
<text text-anchor="start" x="194" y="-341.8057" font-family="Helvetica,sans-Serif" font-size="11.00" fill="#000000">&lt; 2</text>
<polygon fill="#ffffff" stroke="transparent" points="246,-335.7057 246,-354.7057 319,-354.7057 319,-335.7057 246,-335.7057"/>
<polygon fill="none" stroke="#000000" points="246,-335.7057 246,-354.7057 319,-354.7057 319,-335.7057 246,-335.7057"/>
<text text-anchor="start" x="283.6105" y="-341.8057" font-family="Helvetica,sans-Serif" font-size="11.00" fill="#000000">0 rows</text>
<polygon fill="#ffffff" stroke="transparent" points="319,-335.7057 319,-354.7057 411,-354.7057 411,-335.7057 319,-335.7057"/>
<polygon fill="none" stroke="#000000" points="319,-335.7057 319,-354.7057 411,-354.7057 411,-335.7057 319,-335.7057"/>
<text text-anchor="start" x="392.4053" y="-341.8057" font-family="Helvetica,sans-Serif" font-size="11.00" fill="#000000">0 &gt;</text>
<polygon fill="none" stroke="#000000" stroke-width="2" points="190,-334.7057 190,-510.7057 412,-510.7057 412,-334.7057 190,-334.7057"/>
</a>
</g>
</g>
<!-- proc_observations&#45;&gt;submission -->
<g id="edge21" class="edge">
<title>proc_observations:w&#45;&gt;submission:e</title>
<path fill="none" stroke="#000000" d="M176.7283,-407.6266C114.232,-386.5724 219.6282,-212.7057 134,-212.7057"/>
<polygon fill="#000000" stroke="#000000" points="183.0836,-408.5523 190.481,-413.2681 187.0418,-409.129 191,-409.7057 191,-409.7057 191,-409.7057 187.0418,-409.129 191.519,-406.1433 183.0836,-408.5523 183.0836,-408.5523"/>
<ellipse fill="none" stroke="#000000" cx="179.917" cy="-408.091" rx="3.2" ry="3.2"/>
</g>
<!-- proc_observations&#45;&gt;observation_types -->
<g id="edge22" class="edge">
<title>proc_observations:w&#45;&gt;observation_types:e</title>
<path fill="none" stroke="#000000" d="M177.0743,-458.1143C156.3419,-475.1466 176.8829,-535.7057 140,-535.7057"/>
<polygon fill="#000000" stroke="#000000" points="183.3731,-456.1203 192.0866,-457.1378 187.1865,-454.913 191,-453.7057 191,-453.7057 191,-453.7057 187.1865,-454.913 189.9134,-450.2735 183.3731,-456.1203 183.3731,-456.1203"/>
<ellipse fill="none" stroke="#000000" cx="180.3223" cy="-457.0861" rx="3.2" ry="3.2"/>
</g>
</g>
</svg>
