<?xml version="1.0" encoding="UTF-8" standalone="no"?>
<!DOCTYPE svg PUBLIC "-//W3C//DTD SVG 1.1//EN"
 "http://www.w3.org/Graphics/SVG/1.1/DTD/svg11.dtd">
<!-- Generated by graphviz version 2.40.1 (20161225.0304)
 -->
<!-- Title: oneDegreeRelationshipsDiagram Pages: 1 -->
<svg width="429pt" height="259pt"
 viewBox="0.00 0.00 429.00 259.20" xmlns="http://www.w3.org/2000/svg" xmlns:xlink="http://www.w3.org/1999/xlink">
<g id="graph0" class="graph" transform="scale(1 1) rotate(0) translate(4 255.2)">
<title>oneDegreeRelationshipsDiagram</title>
<polygon fill="#ffffff" stroke="transparent" points="-4,4 -4,-255.2 425,-255.2 425,4 -4,4"/>
<text text-anchor="middle" x="72.4936" y="-7.3" font-family="Helvetica,sans-Serif" font-size="11.00" fill="#000000">Generated by SchemaSpy</text>
<!-- proc_observations -->
<g id="node1" class="node">
<title>proc_observations</title>
<g id="a_node1"><a xlink:href="../../tables/proc_observations.html" xlink:title="proc_observations" target="_top">
<polygon fill="#ffffff" stroke="transparent" points="189,-51.7 189,-229.7 413,-229.7 413,-51.7 189,-51.7"/>
<polygon fill="#f5f5f5" stroke="transparent" points="191,-204.7 191,-227.7 411,-227.7 411,-204.7 191,-204.7"/>
<polygon fill="none" stroke="#000000" points="191,-204.7 191,-227.7 411,-227.7 411,-204.7 191,-204.7"/>
<text text-anchor="start" x="196" y="-213.8" font-family="Helvetica,sans-Serif" font-weight="bold" font-size="11.00" fill="#000000">proc_observations</text>
<text text-anchor="start" x="376.0437" y="-212.8" font-family="Helvetica,sans-Serif" font-size="11.00" fill="#000000">[table]</text>
<polygon fill="none" stroke="#000000" points="191,-182.7 191,-204.7 319,-204.7 319,-182.7 191,-182.7"/>
<image xlink:href="../../images/primaryKeys.png" width="11px" height="12px" preserveAspectRatio="xMinYMin meet" x="196" y="-199.7"/>
<text text-anchor="start" x="211" y="-189.8" font-family="Helvetica,sans-Serif" font-size="11.00" fill="#000000">date_time</text>
<polygon fill="none" stroke="#000000" points="319,-182.7 319,-204.7 411,-204.7 411,-182.7 319,-182.7"/>
<text text-anchor="start" x="321.6023" y="-190.4" font-family="Helvetica,sans-Serif" font-size="11.00" fill="#000000">timestamptz[35,6]</text>
<polygon fill="none" stroke="#000000" points="191,-160.7 191,-182.7 319,-182.7 319,-160.7 191,-160.7"/>
<image xlink:href="../../images/primaryKeys.png" width="11px" height="12px" preserveAspectRatio="xMinYMin meet" x="196" y="-177.7"/>
<text text-anchor="start" x="211" y="-167.8" font-family="Helvetica,sans-Serif" font-size="11.00" fill="#000000">variable_id</text>
<polygon fill="none" stroke="#000000" points="319,-160.7 319,-182.7 411,-182.7 411,-160.7 319,-160.7"/>
<text text-anchor="start" x="322" y="-168.4" font-family="Helvetica,sans-Serif" font-size="11.00" fill="#000000">int8[19]</text>
<polygon fill="none" stroke="#000000" points="191,-138.7 191,-160.7 319,-160.7 319,-138.7 191,-138.7"/>
<text text-anchor="start" x="211" y="-145.8" font-family="Helvetica,sans-Serif" font-size="11.00" fill="#000000">variable_value</text>
<polygon fill="none" stroke="#000000" points="319,-138.7 319,-160.7 411,-160.7 411,-138.7 319,-138.7"/>
<text text-anchor="start" x="322" y="-146.4" font-family="Helvetica,sans-Serif" font-size="11.00" fill="#000000">float8[17,17]</text>
<polygon fill="none" stroke="#000000" points="191,-116.7 191,-138.7 319,-138.7 319,-116.7 191,-116.7"/>
<image xlink:href="../../images/primaryKeys.png" width="11px" height="12px" preserveAspectRatio="xMinYMin meet" x="196" y="-133.7"/>
<text text-anchor="start" x="211" y="-123.8" font-family="Helvetica,sans-Serif" font-size="11.00" fill="#000000">submission_id</text>
<polygon fill="none" stroke="#000000" points="319,-116.7 319,-138.7 411,-138.7 411,-116.7 319,-116.7"/>
<text text-anchor="start" x="322" y="-124.4" font-family="Helvetica,sans-Serif" font-size="11.00" fill="#000000">int8[19]</text>
<polygon fill="none" stroke="#000000" points="191,-94.7 191,-116.7 319,-116.7 319,-94.7 191,-94.7"/>
<text text-anchor="start" x="211" y="-101.8" font-family="Helvetica,sans-Serif" font-size="11.00" fill="#000000">tag_id</text>
<polygon fill="none" stroke="#000000" points="319,-94.7 319,-116.7 411,-116.7 411,-94.7 319,-94.7"/>
<text text-anchor="start" x="322" y="-102.4" font-family="Helvetica,sans-Serif" font-size="11.00" fill="#000000">int8[19]</text>
<polygon fill="none" stroke="#000000" points="191,-72.7 191,-94.7 319,-94.7 319,-72.7 191,-72.7"/>
<text text-anchor="start" x="211" y="-79.8" font-family="Helvetica,sans-Serif" font-size="11.00" fill="#000000">final_value</text>
<polygon fill="none" stroke="#000000" points="319,-72.7 319,-94.7 411,-94.7 411,-72.7 319,-72.7"/>
<text text-anchor="start" x="322" y="-80.4" font-family="Helvetica,sans-Serif" font-size="11.00" fill="#000000">bool[1]</text>
<polygon fill="#ffffff" stroke="transparent" points="191,-53.7 191,-72.7 246,-72.7 246,-53.7 191,-53.7"/>
<polygon fill="none" stroke="#000000" points="191,-53.7 191,-72.7 246,-72.7 246,-53.7 191,-53.7"/>
<text text-anchor="start" x="194" y="-59.8" font-family="Helvetica,sans-Serif" font-size="11.00" fill="#000000">&lt; 2</text>
<polygon fill="#ffffff" stroke="transparent" points="246,-53.7 246,-72.7 319,-72.7 319,-53.7 246,-53.7"/>
<polygon fill="none" stroke="#000000" points="246,-53.7 246,-72.7 319,-72.7 319,-53.7 246,-53.7"/>
<text text-anchor="start" x="283.6105" y="-59.8" font-family="Helvetica,sans-Serif" font-size="11.00" fill="#000000">0 rows</text>
<polygon fill="#ffffff" stroke="transparent" points="319,-53.7 319,-72.7 411,-72.7 411,-53.7 319,-53.7"/>
<polygon fill="none" stroke="#000000" points="319,-53.7 319,-72.7 411,-72.7 411,-53.7 319,-53.7"/>
<text text-anchor="start" x="392.4053" y="-59.8" font-family="Helvetica,sans-Serif" font-size="11.00" fill="#000000">0 &gt;</text>
<polygon fill="none" stroke="#000000" stroke-width="2" points="190,-52.7 190,-228.7 412,-228.7 412,-52.7 190,-52.7"/>
</a>
</g>
</g>
<!-- submission -->
<g id="node2" class="node">
<title>submission</title>
<g id="a_node2"><a xlink:href="../../tables/submission.html" xlink:title="submission" target="_top">
<polygon fill="#ffffff" stroke="transparent" points="14.5,-38.2 14.5,-121.2 133.5,-121.2 133.5,-38.2 14.5,-38.2"/>
<polygon fill="#f5f5f5" stroke="transparent" points="15,-97.7 15,-120.7 134,-120.7 134,-97.7 15,-97.7"/>
<polygon fill="none" stroke="#000000" points="15,-97.7 15,-120.7 134,-120.7 134,-97.7 15,-97.7"/>
<text text-anchor="start" x="20" y="-106.8" font-family="Helvetica,sans-Serif" font-weight="bold" font-size="11.00" fill="#000000">submission</text>
<text text-anchor="start" x="99.0437" y="-105.8" font-family="Helvetica,sans-Serif" font-size="11.00" fill="#000000">[table]</text>
<polygon fill="none" stroke="#000000" points="15,-75.7 15,-97.7 134,-97.7 134,-75.7 15,-75.7"/>
<image xlink:href="../../images/primaryKeys.png" width="11px" height="12px" preserveAspectRatio="xMinYMin meet" x="20" y="-92.7"/>
<text text-anchor="start" x="35" y="-82.8" font-family="Helvetica,sans-Serif" font-size="11.00" fill="#000000">submission_id</text>
<polygon fill="none" stroke="#000000" points="15,-56.7 15,-75.7 134,-75.7 134,-56.7 15,-56.7"/>
<text text-anchor="start" x="18" y="-62.8" font-family="Helvetica,sans-Serif" font-size="11.00" fill="#000000">...</text>
<polygon fill="#ffffff" stroke="transparent" points="15,-37.7 15,-56.7 51,-56.7 51,-37.7 15,-37.7"/>
<polygon fill="none" stroke="#000000" points="15,-37.7 15,-56.7 51,-56.7 51,-37.7 15,-37.7"/>
<text text-anchor="start" x="18" y="-43.8" font-family="Helvetica,sans-Serif" font-size="11.00" fill="#000000"> &#160;</text>
<polygon fill="#ffffff" stroke="transparent" points="51,-37.7 51,-56.7 101,-56.7 101,-37.7 51,-37.7"/>
<polygon fill="none" stroke="#000000" points="51,-37.7 51,-56.7 101,-56.7 101,-37.7 51,-37.7"/>
<text text-anchor="start" x="65.6105" y="-43.8" font-family="Helvetica,sans-Serif" font-size="11.00" fill="#000000">0 rows</text>
<polygon fill="#ffffff" stroke="transparent" points="101,-37.7 101,-56.7 134,-56.7 134,-37.7 101,-37.7"/>
<polygon fill="none" stroke="#000000" points="101,-37.7 101,-56.7 134,-56.7 134,-37.7 101,-37.7"/>
<text text-anchor="start" x="115.4053" y="-43.8" font-family="Helvetica,sans-Serif" font-size="11.00" fill="#000000">6 &gt;</text>
</a>
</g>
</g>
<!-- proc_observations&#45;&gt;submission -->
<g id="edge1" class="edge">
<title>proc_observations:w&#45;&gt;submission:e</title>
<path fill="none" stroke="#000000" d="M176.8259,-123.9163C160.5361,-113.7664 159.355,-86.7 134,-86.7"/>
<polygon fill="#000000" stroke="#000000" points="183.2707,-125.6367 190.0715,-131.1782 187.1353,-126.6683 191,-127.7 191,-127.7 191,-127.7 187.1353,-126.6683 191.9285,-124.2218 183.2707,-125.6367 183.2707,-125.6367"/>
<ellipse fill="none" stroke="#000000" cx="180.1789" cy="-124.8113" rx="3.2" ry="3.2"/>
</g>
<!-- observation_types -->
<g id="node3" class="node">
<title>observation_types</title>
<g id="a_node3"><a xlink:href="../../tables/observation_types.html" xlink:title="observation_types" target="_top">
<polygon fill="#ffffff" stroke="transparent" points="8,-142.2 8,-247.2 140,-247.2 140,-142.2 8,-142.2"/>
<polygon fill="#f5f5f5" stroke="transparent" points="8,-223.7 8,-246.7 140,-246.7 140,-223.7 8,-223.7"/>
<polygon fill="none" stroke="#000000" points="8,-223.7 8,-246.7 140,-246.7 140,-223.7 8,-223.7"/>
<text text-anchor="start" x="12.8746" y="-232.8" font-family="Helvetica,sans-Serif" font-weight="bold" font-size="11.00" fill="#000000">observation_types</text>
<text text-anchor="start" x="105.5219" y="-231.8" font-family="Helvetica,sans-Serif" font-size="11.00" fill="#000000">[table]</text>
<polygon fill="none" stroke="#000000" points="8,-201.7 8,-223.7 140,-223.7 140,-201.7 8,-201.7"/>
<image xlink:href="../../images/primaryKeys.png" width="11px" height="12px" preserveAspectRatio="xMinYMin meet" x="13" y="-218.7"/>
<text text-anchor="start" x="31" y="-208.8" font-family="Helvetica,sans-Serif" font-size="11.00" fill="#000000">variable_id</text>
<polygon fill="#ffffff" stroke="transparent" points="8,-179.7 8,-201.7 140,-201.7 140,-179.7 8,-179.7"/>
<polygon fill="none" stroke="#000000" points="8,-179.7 8,-201.7 140,-201.7 140,-179.7 8,-179.7"/>
<text text-anchor="start" x="31" y="-186.8" font-family="Helvetica,sans-Serif" font-size="11.00" fill="#000000">variable_name</text>
<polygon fill="none" stroke="#000000" points="8,-160.7 8,-179.7 140,-179.7 140,-160.7 8,-160.7"/>
<text text-anchor="start" x="11" y="-166.8" font-family="Helvetica,sans-Serif" font-size="11.00" fill="#000000">...</text>
<polygon fill="#ffffff" stroke="transparent" points="8,-141.7 8,-160.7 44,-160.7 44,-141.7 8,-141.7"/>
<polygon fill="none" stroke="#000000" points="8,-141.7 8,-160.7 44,-160.7 44,-141.7 8,-141.7"/>
<text text-anchor="start" x="11" y="-147.8" font-family="Helvetica,sans-Serif" font-size="11.00" fill="#000000"> &#160;</text>
<polygon fill="#ffffff" stroke="transparent" points="44,-141.7 44,-160.7 106,-160.7 106,-141.7 44,-141.7"/>
<polygon fill="none" stroke="#000000" points="44,-141.7 44,-160.7 106,-160.7 106,-141.7 44,-141.7"/>
<text text-anchor="start" x="58.3807" y="-147.8" font-family="Helvetica,sans-Serif" font-size="11.00" fill="#000000">204 rows</text>
<polygon fill="#ffffff" stroke="transparent" points="106,-141.7 106,-160.7 140,-160.7 140,-141.7 106,-141.7"/>
<polygon fill="none" stroke="#000000" points="106,-141.7 106,-160.7 140,-160.7 140,-141.7 106,-141.7"/>
<text text-anchor="start" x="121.4053" y="-147.8" font-family="Helvetica,sans-Serif" font-size="11.00" fill="#000000">5 &gt;</text>
</a>
</g>
</g>
<!-- proc_observations&#45;&gt;observation_types -->
<g id="edge2" class="edge">
<title>proc_observations:w&#45;&gt;observation_types:e</title>
<path fill="none" stroke="#000000" d="M177.1568,-176.0877C163.3325,-186.6646 163.1756,-212.7 140,-212.7"/>
<polygon fill="#000000" stroke="#000000" points="183.3739,-174.1172 192.0877,-175.1317 187.1869,-172.9086 191,-171.7 191,-171.7 191,-171.7 187.1869,-172.9086 189.9123,-168.2683 183.3739,-174.1172 183.3739,-174.1172"/>
<ellipse fill="none" stroke="#000000" cx="180.3235" cy="-175.0841" rx="3.2" ry="3.2"/>
</g>
</g>
</svg>
