<?xml version="1.0" encoding="UTF-8" standalone="no"?>
<!DOCTYPE svg PUBLIC "-//W3C//DTD SVG 1.1//EN"
 "http://www.w3.org/Graphics/SVG/1.1/DTD/svg11.dtd">
<!-- Generated by graphviz version 2.40.1 (20161225.0304)
 -->
<!-- Title: twoDegreesRelationshipsDiagram Pages: 1 -->
<svg width="667pt" height="760pt"
 viewBox="0.00 0.00 667.00 760.20" xmlns="http://www.w3.org/2000/svg" xmlns:xlink="http://www.w3.org/1999/xlink">
<g id="graph0" class="graph" transform="scale(1 1) rotate(0) translate(4 756.2)">
<title>twoDegreesRelationshipsDiagram</title>
<polygon fill="#ffffff" stroke="transparent" points="-4,4 -4,-756.2 663,-756.2 663,4 -4,4"/>
<text text-anchor="middle" x="72.4936" y="-7.3" font-family="Helvetica,sans-Serif" font-size="11.00" fill="#000000">Generated by SchemaSpy</text>
<!-- data_histogram_bin_data -->
<g id="node1" class="node">
<title>data_histogram_bin_data</title>
<g id="a_node1"><a xlink:href="../../tables/data_histogram_bin_data.html" xlink:title="data_histogram_bin_data" target="_top">
<polygon fill="#ffffff" stroke="transparent" points="484,-533.2 484,-748.2 651,-748.2 651,-533.2 484,-533.2"/>
<polygon fill="#f5f5f5" stroke="transparent" points="484.5,-724.7 484.5,-747.7 651.5,-747.7 651.5,-724.7 484.5,-724.7"/>
<polygon fill="none" stroke="#000000" points="484.5,-724.7 484.5,-747.7 651.5,-747.7 651.5,-724.7 484.5,-724.7"/>
<text text-anchor="start" x="489.4501" y="-733.8" font-family="Helvetica,sans-Serif" font-weight="bold" font-size="11.00" fill="#000000">data_histogram_bin_data</text>
<text text-anchor="start" x="617.0219" y="-732.8" font-family="Helvetica,sans-Serif" font-size="11.00" fill="#000000">[table]</text>
<polygon fill="none" stroke="#000000" points="484.5,-702.7 484.5,-724.7 651.5,-724.7 651.5,-702.7 484.5,-702.7"/>
<image xlink:href="../../images/primaryKeys.png" width="11px" height="12px" preserveAspectRatio="xMinYMin meet" x="489.5" y="-719.7"/>
<text text-anchor="start" x="505.5" y="-709.8" font-family="Helvetica,sans-Serif" font-size="11.00" fill="#000000">submission_id</text>
<polygon fill="none" stroke="#000000" points="484.5,-680.7 484.5,-702.7 651.5,-702.7 651.5,-680.7 484.5,-680.7"/>
<image xlink:href="../../images/primaryKeys.png" width="11px" height="12px" preserveAspectRatio="xMinYMin meet" x="489.5" y="-697.7"/>
<text text-anchor="start" x="505.5" y="-687.8" font-family="Helvetica,sans-Serif" font-size="11.00" fill="#000000">tag_id</text>
<polygon fill="none" stroke="#000000" points="484.5,-658.7 484.5,-680.7 651.5,-680.7 651.5,-658.7 484.5,-658.7"/>
<image xlink:href="../../images/primaryKeys.png" width="11px" height="12px" preserveAspectRatio="xMinYMin meet" x="489.5" y="-675.7"/>
<text text-anchor="start" x="505.5" y="-665.8" font-family="Helvetica,sans-Serif" font-size="11.00" fill="#000000">bin_id</text>
<polygon fill="none" stroke="#000000" points="484.5,-636.7 484.5,-658.7 651.5,-658.7 651.5,-636.7 484.5,-636.7"/>
<image xlink:href="../../images/primaryKeys.png" width="11px" height="12px" preserveAspectRatio="xMinYMin meet" x="489.5" y="-653.7"/>
<text text-anchor="start" x="505.5" y="-643.8" font-family="Helvetica,sans-Serif" font-size="11.00" fill="#000000">bin_class</text>
<polygon fill="none" stroke="#000000" points="484.5,-614.7 484.5,-636.7 651.5,-636.7 651.5,-614.7 484.5,-614.7"/>
<image xlink:href="../../images/primaryKeys.png" width="11px" height="12px" preserveAspectRatio="xMinYMin meet" x="489.5" y="-631.7"/>
<text text-anchor="start" x="505.5" y="-621.8" font-family="Helvetica,sans-Serif" font-size="11.00" fill="#000000">date_time</text>
<polygon fill="#ffffff" stroke="transparent" points="484.5,-592.7 484.5,-614.7 651.5,-614.7 651.5,-592.7 484.5,-592.7"/>
<polygon fill="none" stroke="#000000" points="484.5,-592.7 484.5,-614.7 651.5,-614.7 651.5,-592.7 484.5,-592.7"/>
<image xlink:href="../../images/foreignKeys.png" width="11px" height="12px" preserveAspectRatio="xMinYMin meet" x="489.5" y="-609.7"/>
<text text-anchor="start" x="505.5" y="-599.8" font-family="Helvetica,sans-Serif" font-size="11.00" fill="#000000">position_date_time</text>
<polygon fill="none" stroke="#000000" points="484.5,-570.7 484.5,-592.7 651.5,-592.7 651.5,-570.7 484.5,-570.7"/>
<image xlink:href="../../images/primaryKeys.png" width="11px" height="12px" preserveAspectRatio="xMinYMin meet" x="489.5" y="-587.7"/>
<text text-anchor="start" x="505.5" y="-577.8" font-family="Helvetica,sans-Serif" font-size="11.00" fill="#000000">variable_id</text>
<polygon fill="none" stroke="#000000" points="484.5,-551.7 484.5,-570.7 651.5,-570.7 651.5,-551.7 484.5,-551.7"/>
<text text-anchor="start" x="487.5" y="-557.8" font-family="Helvetica,sans-Serif" font-size="11.00" fill="#000000">...</text>
<polygon fill="#ffffff" stroke="transparent" points="484.5,-532.7 484.5,-551.7 553.5,-551.7 553.5,-532.7 484.5,-532.7"/>
<polygon fill="none" stroke="#000000" points="484.5,-532.7 484.5,-551.7 553.5,-551.7 553.5,-532.7 484.5,-532.7"/>
<text text-anchor="start" x="487.5" y="-538.8" font-family="Helvetica,sans-Serif" font-size="11.00" fill="#000000">&lt; 7</text>
<polygon fill="#ffffff" stroke="transparent" points="553.5,-532.7 553.5,-551.7 615.5,-551.7 615.5,-532.7 553.5,-532.7"/>
<polygon fill="none" stroke="#000000" points="553.5,-532.7 553.5,-551.7 615.5,-551.7 615.5,-532.7 553.5,-532.7"/>
<text text-anchor="start" x="580.1105" y="-538.8" font-family="Helvetica,sans-Serif" font-size="11.00" fill="#000000">0 rows</text>
<polygon fill="#ffffff" stroke="transparent" points="615.5,-532.7 615.5,-551.7 651.5,-551.7 651.5,-532.7 615.5,-532.7"/>
<polygon fill="none" stroke="#000000" points="615.5,-532.7 615.5,-551.7 651.5,-551.7 651.5,-532.7 615.5,-532.7"/>
<text text-anchor="start" x="642.3862" y="-538.8" font-family="Helvetica,sans-Serif" font-size="11.00" fill="#000000"> &#160;</text>
</a>
</g>
</g>
<!-- data_histogram_bin_info -->
<g id="node2" class="node">
<title>data_histogram_bin_info</title>
<g id="a_node2"><a xlink:href="../../tables/data_histogram_bin_info.html" xlink:title="data_histogram_bin_info" target="_top">
<polygon fill="#ffffff" stroke="transparent" points="272,-642.2 272,-703.2 435,-703.2 435,-642.2 272,-642.2"/>
<polygon fill="#f5f5f5" stroke="transparent" points="272.5,-679.7 272.5,-702.7 435.5,-702.7 435.5,-679.7 272.5,-679.7"/>
<polygon fill="none" stroke="#000000" points="272.5,-679.7 272.5,-702.7 435.5,-702.7 435.5,-679.7 272.5,-679.7"/>
<text text-anchor="start" x="277.2871" y="-688.8" font-family="Helvetica,sans-Serif" font-weight="bold" font-size="11.00" fill="#000000">data_histogram_bin_info</text>
<text text-anchor="start" x="401.0219" y="-687.8" font-family="Helvetica,sans-Serif" font-size="11.00" fill="#000000">[table]</text>
<polygon fill="none" stroke="#000000" points="272.5,-660.7 272.5,-679.7 435.5,-679.7 435.5,-660.7 272.5,-660.7"/>
<text text-anchor="start" x="275.5" y="-666.8" font-family="Helvetica,sans-Serif" font-size="11.00" fill="#000000">...</text>
<polygon fill="#ffffff" stroke="transparent" points="272.5,-641.7 272.5,-660.7 334.5,-660.7 334.5,-641.7 272.5,-641.7"/>
<polygon fill="none" stroke="#000000" points="272.5,-641.7 272.5,-660.7 334.5,-660.7 334.5,-641.7 272.5,-641.7"/>
<text text-anchor="start" x="275.5" y="-647.8" font-family="Helvetica,sans-Serif" font-size="11.00" fill="#000000">&lt; 1</text>
<polygon fill="#ffffff" stroke="transparent" points="334.5,-641.7 334.5,-660.7 393.5,-660.7 393.5,-641.7 334.5,-641.7"/>
<polygon fill="none" stroke="#000000" points="334.5,-641.7 334.5,-660.7 393.5,-660.7 393.5,-641.7 334.5,-641.7"/>
<text text-anchor="start" x="358.1105" y="-647.8" font-family="Helvetica,sans-Serif" font-size="11.00" fill="#000000">0 rows</text>
<polygon fill="#ffffff" stroke="transparent" points="393.5,-641.7 393.5,-660.7 435.5,-660.7 435.5,-641.7 393.5,-641.7"/>
<polygon fill="none" stroke="#000000" points="393.5,-641.7 393.5,-660.7 435.5,-660.7 435.5,-641.7 393.5,-641.7"/>
<text text-anchor="start" x="416.9053" y="-647.8" font-family="Helvetica,sans-Serif" font-size="11.00" fill="#000000">2 &gt;</text>
</a>
</g>
</g>
<!-- data_histogram_bin_data&#45;&gt;data_histogram_bin_info -->
<g id="edge1" class="edge">
<title>data_histogram_bin_data:w&#45;&gt;data_histogram_bin_info:e</title>
<path fill="none" stroke="#000000" d="M470.1297,-651.1375C458.5865,-657.325 453.4041,-669.7 435.5,-669.7"/>
<polygon fill="#000000" stroke="#000000" points="476.7195,-649.5612 485.3375,-651.2012 480.6098,-648.6306 484.5,-647.7 484.5,-647.7 484.5,-647.7 480.6098,-648.6306 483.6625,-644.1988 476.7195,-649.5612 476.7195,-649.5612"/>
<ellipse fill="none" stroke="#000000" cx="473.6073" cy="-650.3057" rx="3.2" ry="3.2"/>
</g>
<!-- data_histogram_bin_data&#45;&gt;data_histogram_bin_info -->
<g id="edge2" class="edge">
<title>data_histogram_bin_data:w&#45;&gt;data_histogram_bin_info:e</title>
<path fill="none" stroke="#000000" d="M469.9909,-669.7C458.6774,-669.7 451.4931,-669.7 435.5,-669.7"/>
<polygon fill="#000000" stroke="#000000" points="476.5,-669.7001 484.5,-673.3 480.5,-669.7 484.5,-669.7 484.5,-669.7 484.5,-669.7 480.5,-669.7 484.5,-666.1 476.5,-669.7001 476.5,-669.7001"/>
<ellipse fill="none" stroke="#000000" cx="473.3" cy="-669.7001" rx="3.2" ry="3.2"/>
</g>
<!-- data_position -->
<g id="node3" class="node">
<title>data_position</title>
<g id="a_node3"><a xlink:href="../../tables/data_position.html" xlink:title="data_position" target="_top">
<polygon fill="#ffffff" stroke="transparent" points="299.5,-219.2 299.5,-390.2 407.5,-390.2 407.5,-219.2 299.5,-219.2"/>
<polygon fill="#f5f5f5" stroke="transparent" points="299.5,-366.7 299.5,-389.7 407.5,-389.7 407.5,-366.7 299.5,-366.7"/>
<polygon fill="none" stroke="#000000" points="299.5,-366.7 299.5,-389.7 407.5,-389.7 407.5,-366.7 299.5,-366.7"/>
<text text-anchor="start" x="304.2926" y="-375.8" font-family="Helvetica,sans-Serif" font-weight="bold" font-size="11.00" fill="#000000">data_position</text>
<text text-anchor="start" x="373.0219" y="-374.8" font-family="Helvetica,sans-Serif" font-size="11.00" fill="#000000">[table]</text>
<polygon fill="none" stroke="#000000" points="299.5,-344.7 299.5,-366.7 407.5,-366.7 407.5,-344.7 299.5,-344.7"/>
<image xlink:href="../../images/primaryKeys.png" width="11px" height="12px" preserveAspectRatio="xMinYMin meet" x="304.5" y="-361.7"/>
<text text-anchor="start" x="321.5" y="-351.8" font-family="Helvetica,sans-Serif" font-size="11.00" fill="#000000">date_time</text>
<polygon fill="#ffffff" stroke="transparent" points="299.5,-322.7 299.5,-344.7 407.5,-344.7 407.5,-322.7 299.5,-322.7"/>
<polygon fill="none" stroke="#000000" points="299.5,-322.7 299.5,-344.7 407.5,-344.7 407.5,-322.7 299.5,-322.7"/>
<text text-anchor="start" x="321.5" y="-329.8" font-family="Helvetica,sans-Serif" font-size="11.00" fill="#000000">lat</text>
<polygon fill="#ffffff" stroke="transparent" points="299.5,-300.7 299.5,-322.7 407.5,-322.7 407.5,-300.7 299.5,-300.7"/>
<polygon fill="none" stroke="#000000" points="299.5,-300.7 299.5,-322.7 407.5,-322.7 407.5,-300.7 299.5,-300.7"/>
<text text-anchor="start" x="321.5" y="-307.8" font-family="Helvetica,sans-Serif" font-size="11.00" fill="#000000">lon</text>
<polygon fill="none" stroke="#000000" points="299.5,-278.7 299.5,-300.7 407.5,-300.7 407.5,-278.7 299.5,-278.7"/>
<image xlink:href="../../images/primaryKeys.png" width="11px" height="12px" preserveAspectRatio="xMinYMin meet" x="304.5" y="-295.7"/>
<text text-anchor="start" x="321.5" y="-285.8" font-family="Helvetica,sans-Serif" font-size="11.00" fill="#000000">submission_id</text>
<polygon fill="none" stroke="#000000" points="299.5,-256.7 299.5,-278.7 407.5,-278.7 407.5,-256.7 299.5,-256.7"/>
<image xlink:href="../../images/primaryKeys.png" width="11px" height="12px" preserveAspectRatio="xMinYMin meet" x="304.5" y="-273.7"/>
<text text-anchor="start" x="321.5" y="-263.8" font-family="Helvetica,sans-Serif" font-size="11.00" fill="#000000">tag_id</text>
<polygon fill="none" stroke="#000000" points="299.5,-237.7 299.5,-256.7 407.5,-256.7 407.5,-237.7 299.5,-237.7"/>
<text text-anchor="start" x="302.5" y="-243.8" font-family="Helvetica,sans-Serif" font-size="11.00" fill="#000000">...</text>
<polygon fill="#ffffff" stroke="transparent" points="299.5,-218.7 299.5,-237.7 334.5,-237.7 334.5,-218.7 299.5,-218.7"/>
<polygon fill="none" stroke="#000000" points="299.5,-218.7 299.5,-237.7 334.5,-237.7 334.5,-218.7 299.5,-218.7"/>
<text text-anchor="start" x="302.5" y="-224.8" font-family="Helvetica,sans-Serif" font-size="11.00" fill="#000000">&lt; 1</text>
<polygon fill="#ffffff" stroke="transparent" points="334.5,-218.7 334.5,-237.7 379.5,-237.7 379.5,-218.7 334.5,-218.7"/>
<polygon fill="none" stroke="#000000" points="334.5,-218.7 334.5,-237.7 379.5,-237.7 379.5,-218.7 334.5,-218.7"/>
<text text-anchor="start" x="344.1105" y="-224.8" font-family="Helvetica,sans-Serif" font-size="11.00" fill="#000000">0 rows</text>
<polygon fill="#ffffff" stroke="transparent" points="379.5,-218.7 379.5,-237.7 407.5,-237.7 407.5,-218.7 379.5,-218.7"/>
<polygon fill="none" stroke="#000000" points="379.5,-218.7 379.5,-237.7 407.5,-237.7 407.5,-218.7 379.5,-218.7"/>
<text text-anchor="start" x="388.9053" y="-224.8" font-family="Helvetica,sans-Serif" font-size="11.00" fill="#000000">9 &gt;</text>
</a>
</g>
</g>
<!-- data_histogram_bin_data&#45;&gt;data_position -->
<g id="edge3" class="edge">
<title>data_histogram_bin_data:w&#45;&gt;data_position:e</title>
<path fill="none" stroke="#000000" d="M470.0673,-602.3418C413.062,-590.1813 468.0269,-498.8393 443,-428.7 430.8757,-394.7209 443.5774,-355.7 407.5,-355.7"/>
<polygon fill="#000000" stroke="#000000" points="476.5352,-602.9504 484.1627,-607.2842 480.5176,-603.3252 484.5,-603.7 484.5,-603.7 484.5,-603.7 480.5176,-603.3252 484.8373,-600.1158 476.5352,-602.9504 476.5352,-602.9504"/>
<ellipse fill="none" stroke="#000000" cx="473.3493" cy="-602.6506" rx="3.2" ry="3.2"/>
</g>
<!-- data_histogram_bin_data&#45;&gt;data_position -->
<g id="edge4" class="edge">
<title>data_histogram_bin_data:w&#45;&gt;data_position:e</title>
<path fill="none" stroke="#000000" d="M470.1752,-709.7733C401.0357,-667.029 497.8392,-289.7 407.5,-289.7"/>
<polygon fill="#000000" stroke="#000000" points="476.7846,-711.585 483.5483,-717.1719 480.6423,-712.6425 484.5,-713.7 484.5,-713.7 484.5,-713.7 480.6423,-712.6425 485.4517,-710.2281 476.7846,-711.585 476.7846,-711.585"/>
<ellipse fill="none" stroke="#000000" cx="473.6985" cy="-710.739" rx="3.2" ry="3.2"/>
</g>
<!-- data_histogram_bin_data&#45;&gt;data_position -->
<g id="edge6" class="edge">
<title>data_histogram_bin_data:w&#45;&gt;data_position:e</title>
<path fill="none" stroke="#000000" d="M470.1752,-687.7733C401.0357,-645.029 497.8392,-267.7 407.5,-267.7"/>
<polygon fill="#000000" stroke="#000000" points="476.7846,-689.585 483.5483,-695.1719 480.6423,-690.6425 484.5,-691.7 484.5,-691.7 484.5,-691.7 480.6423,-690.6425 485.4517,-688.2281 476.7846,-689.585 476.7846,-689.585"/>
<ellipse fill="none" stroke="#000000" cx="473.6985" cy="-688.739" rx="3.2" ry="3.2"/>
</g>
<!-- submission -->
<g id="node4" class="node">
<title>submission</title>
<g id="a_node4"><a xlink:href="../../tables/submission.html" xlink:title="submission" target="_top">
<polygon fill="#ffffff" stroke="transparent" points="8,-209.7 8,-387.7 223,-387.7 223,-209.7 8,-209.7"/>
<polygon fill="#f5f5f5" stroke="transparent" points="10.5,-362.7 10.5,-385.7 221.5,-385.7 221.5,-362.7 10.5,-362.7"/>
<polygon fill="none" stroke="#000000" points="10.5,-362.7 10.5,-385.7 221.5,-385.7 221.5,-362.7 10.5,-362.7"/>
<text text-anchor="start" x="15.5" y="-371.8" font-family="Helvetica,sans-Serif" font-weight="bold" font-size="11.00" fill="#000000">submission</text>
<text text-anchor="start" x="186.5437" y="-370.8" font-family="Helvetica,sans-Serif" font-size="11.00" fill="#000000">[table]</text>
<polygon fill="none" stroke="#000000" points="10.5,-340.7 10.5,-362.7 129.5,-362.7 129.5,-340.7 10.5,-340.7"/>
<image xlink:href="../../images/primaryKeys.png" width="11px" height="12px" preserveAspectRatio="xMinYMin meet" x="15.5" y="-357.7"/>
<text text-anchor="start" x="30.5" y="-347.8" font-family="Helvetica,sans-Serif" font-size="11.00" fill="#000000">submission_id</text>
<polygon fill="none" stroke="#000000" points="129.5,-340.7 129.5,-362.7 221.5,-362.7 221.5,-340.7 129.5,-340.7"/>
<text text-anchor="start" x="132.5" y="-348.4" font-family="Helvetica,sans-Serif" font-size="11.00" fill="#000000">bigserial[19]</text>
<polygon fill="none" stroke="#000000" points="10.5,-318.7 10.5,-340.7 129.5,-340.7 129.5,-318.7 10.5,-318.7"/>
<text text-anchor="start" x="30.5" y="-325.8" font-family="Helvetica,sans-Serif" font-size="11.00" fill="#000000">tag_id</text>
<polygon fill="none" stroke="#000000" points="129.5,-318.7 129.5,-340.7 221.5,-340.7 221.5,-318.7 129.5,-318.7"/>
<text text-anchor="start" x="132.5" y="-326.4" font-family="Helvetica,sans-Serif" font-size="11.00" fill="#000000">int8[19]</text>
<polygon fill="none" stroke="#000000" points="10.5,-296.7 10.5,-318.7 129.5,-318.7 129.5,-296.7 10.5,-296.7"/>
<text text-anchor="start" x="30.5" y="-303.8" font-family="Helvetica,sans-Serif" font-size="11.00" fill="#000000">dmas_granule_id</text>
<polygon fill="none" stroke="#000000" points="129.5,-296.7 129.5,-318.7 221.5,-318.7 221.5,-296.7 129.5,-296.7"/>
<text text-anchor="start" x="132.5" y="-304.4" font-family="Helvetica,sans-Serif" font-size="11.00" fill="#000000">int8[19]</text>
<polygon fill="none" stroke="#000000" points="10.5,-274.7 10.5,-296.7 129.5,-296.7 129.5,-274.7 10.5,-274.7"/>
<text text-anchor="start" x="30.5" y="-281.8" font-family="Helvetica,sans-Serif" font-size="11.00" fill="#000000">date_time</text>
<polygon fill="none" stroke="#000000" points="129.5,-274.7 129.5,-296.7 221.5,-296.7 221.5,-274.7 129.5,-274.7"/>
<text text-anchor="start" x="132.1023" y="-282.4" font-family="Helvetica,sans-Serif" font-size="11.00" fill="#000000">timestamptz[35,6]</text>
<polygon fill="none" stroke="#000000" points="10.5,-252.7 10.5,-274.7 129.5,-274.7 129.5,-252.7 10.5,-252.7"/>
<text text-anchor="start" x="30.5" y="-259.8" font-family="Helvetica,sans-Serif" font-size="11.00" fill="#000000">filename</text>
<polygon fill="none" stroke="#000000" points="129.5,-252.7 129.5,-274.7 221.5,-274.7 221.5,-252.7 129.5,-252.7"/>
<text text-anchor="start" x="132.5" y="-260.4" font-family="Helvetica,sans-Serif" font-size="11.00" fill="#000000">varchar[255]</text>
<polygon fill="none" stroke="#000000" points="10.5,-230.7 10.5,-252.7 129.5,-252.7 129.5,-230.7 10.5,-230.7"/>
<text text-anchor="start" x="30.5" y="-237.8" font-family="Helvetica,sans-Serif" font-size="11.00" fill="#000000">version</text>
<polygon fill="none" stroke="#000000" points="129.5,-230.7 129.5,-252.7 221.5,-252.7 221.5,-230.7 129.5,-230.7"/>
<text text-anchor="start" x="132.5" y="-238.4" font-family="Helvetica,sans-Serif" font-size="11.00" fill="#000000">varchar[50]</text>
<polygon fill="#ffffff" stroke="transparent" points="10.5,-211.7 10.5,-230.7 61.5,-230.7 61.5,-211.7 10.5,-211.7"/>
<polygon fill="none" stroke="#000000" points="10.5,-211.7 10.5,-230.7 61.5,-230.7 61.5,-211.7 10.5,-211.7"/>
<text text-anchor="start" x="13.5" y="-217.8" font-family="Helvetica,sans-Serif" font-size="11.00" fill="#000000">&lt; 0</text>
<polygon fill="#ffffff" stroke="transparent" points="61.5,-211.7 61.5,-230.7 129.5,-230.7 129.5,-211.7 61.5,-211.7"/>
<polygon fill="none" stroke="#000000" points="61.5,-211.7 61.5,-230.7 129.5,-230.7 129.5,-211.7 61.5,-211.7"/>
<text text-anchor="start" x="94.1105" y="-217.8" font-family="Helvetica,sans-Serif" font-size="11.00" fill="#000000">0 rows</text>
<polygon fill="#ffffff" stroke="transparent" points="129.5,-211.7 129.5,-230.7 221.5,-230.7 221.5,-211.7 129.5,-211.7"/>
<polygon fill="none" stroke="#000000" points="129.5,-211.7 129.5,-230.7 221.5,-230.7 221.5,-211.7 129.5,-211.7"/>
<text text-anchor="start" x="202.9053" y="-217.8" font-family="Helvetica,sans-Serif" font-size="11.00" fill="#000000">6 &gt;</text>
<polygon fill="none" stroke="#000000" stroke-width="2" points="9,-210.7 9,-386.7 222,-386.7 222,-210.7 9,-210.7"/>
</a>
</g>
</g>
<!-- data_histogram_bin_data&#45;&gt;submission -->
<g id="edge5" class="edge">
<title>data_histogram_bin_data:w&#45;&gt;submission:e</title>
<path fill="none" stroke="#000000" d="M469.9377,-714.1783C381.4338,-719.979 333.5067,-775.5238 264,-713.7 203.4794,-659.8691 302.497,-351.7 221.5,-351.7"/>
<polygon fill="#000000" stroke="#000000" points="476.5043,-713.9627 484.6182,-717.2981 480.5022,-713.8313 484.5,-713.7 484.5,-713.7 484.5,-713.7 480.5022,-713.8313 484.3818,-710.1019 476.5043,-713.9627 476.5043,-713.9627"/>
<ellipse fill="none" stroke="#000000" cx="473.306" cy="-714.0677" rx="3.2" ry="3.2"/>
</g>
<!-- observation_types -->
<g id="node5" class="node">
<title>observation_types</title>
<g id="a_node5"><a xlink:href="../../tables/observation_types.html" xlink:title="observation_types" target="_top">
<polygon fill="#ffffff" stroke="transparent" points="49.5,-563.2 49.5,-624.2 181.5,-624.2 181.5,-563.2 49.5,-563.2"/>
<polygon fill="#f5f5f5" stroke="transparent" points="49.5,-600.7 49.5,-623.7 181.5,-623.7 181.5,-600.7 49.5,-600.7"/>
<polygon fill="none" stroke="#000000" points="49.5,-600.7 49.5,-623.7 181.5,-623.7 181.5,-600.7 49.5,-600.7"/>
<text text-anchor="start" x="54.3746" y="-609.8" font-family="Helvetica,sans-Serif" font-weight="bold" font-size="11.00" fill="#000000">observation_types</text>
<text text-anchor="start" x="147.0219" y="-608.8" font-family="Helvetica,sans-Serif" font-size="11.00" fill="#000000">[table]</text>
<polygon fill="none" stroke="#000000" points="49.5,-581.7 49.5,-600.7 181.5,-600.7 181.5,-581.7 49.5,-581.7"/>
<text text-anchor="start" x="52.5" y="-587.8" font-family="Helvetica,sans-Serif" font-size="11.00" fill="#000000">...</text>
<polygon fill="#ffffff" stroke="transparent" points="49.5,-562.7 49.5,-581.7 85.5,-581.7 85.5,-562.7 49.5,-562.7"/>
<polygon fill="none" stroke="#000000" points="49.5,-562.7 49.5,-581.7 85.5,-581.7 85.5,-562.7 49.5,-562.7"/>
<text text-anchor="start" x="52.5" y="-568.8" font-family="Helvetica,sans-Serif" font-size="11.00" fill="#000000"> &#160;</text>
<polygon fill="#ffffff" stroke="transparent" points="85.5,-562.7 85.5,-581.7 147.5,-581.7 147.5,-562.7 85.5,-562.7"/>
<polygon fill="none" stroke="#000000" points="85.5,-562.7 85.5,-581.7 147.5,-581.7 147.5,-562.7 85.5,-562.7"/>
<text text-anchor="start" x="99.8807" y="-568.8" font-family="Helvetica,sans-Serif" font-size="11.00" fill="#000000">204 rows</text>
<polygon fill="#ffffff" stroke="transparent" points="147.5,-562.7 147.5,-581.7 181.5,-581.7 181.5,-562.7 147.5,-562.7"/>
<polygon fill="none" stroke="#000000" points="147.5,-562.7 147.5,-581.7 181.5,-581.7 181.5,-562.7 147.5,-562.7"/>
<text text-anchor="start" x="162.9053" y="-568.8" font-family="Helvetica,sans-Serif" font-size="11.00" fill="#000000">5 &gt;</text>
</a>
</g>
</g>
<!-- data_histogram_bin_data&#45;&gt;observation_types -->
<g id="edge7" class="edge">
<title>data_histogram_bin_data:w&#45;&gt;observation_types:e</title>
<path fill="none" stroke="#000000" d="M470.4516,-584.926C461.7625,-589.5026 456.9359,-597.6615 443,-600.7 365.2706,-617.6476 343.4109,-605.4952 264,-600.7 227.1321,-598.4737 218.435,-590.7 181.5,-590.7"/>
<polygon fill="#000000" stroke="#000000" points="476.7029,-583.4905 485.3057,-585.2087 480.6015,-582.5953 484.5,-581.7 484.5,-581.7 484.5,-581.7 480.6015,-582.5953 483.6943,-578.1913 476.7029,-583.4905 476.7029,-583.4905"/>
<ellipse fill="none" stroke="#000000" cx="473.5841" cy="-584.2067" rx="3.2" ry="3.2"/>
</g>
<!-- data_histogram_bin_info&#45;&gt;observation_types -->
<g id="edge8" class="edge">
<title>data_histogram_bin_info:w&#45;&gt;observation_types:e</title>
<path fill="none" stroke="#000000" d="M258.1914,-667.4209C221.4964,-654.468 229.6192,-590.7 181.5,-590.7"/>
<polygon fill="#000000" stroke="#000000" points="264.5996,-668.4415 271.9337,-673.2552 268.5498,-669.0708 272.5,-669.7 272.5,-669.7 272.5,-669.7 268.5498,-669.0708 273.0663,-666.1448 264.5996,-668.4415 264.5996,-668.4415"/>
<ellipse fill="none" stroke="#000000" cx="261.4394" cy="-667.9382" rx="3.2" ry="3.2"/>
</g>
<!-- data_position&#45;&gt;submission -->
<g id="edge9" class="edge">
<title>data_position:w&#45;&gt;submission:e</title>
<path fill="none" stroke="#000000" d="M285.2504,-292.3641C257.0009,-304.2313 260.2486,-351.7 221.5,-351.7"/>
<polygon fill="#000000" stroke="#000000" points="291.6362,-291.1702 300.1616,-293.2387 295.5681,-290.4351 299.5,-289.7 299.5,-289.7 299.5,-289.7 295.5681,-290.4351 298.8384,-286.1613 291.6362,-291.1702 291.6362,-291.1702"/>
<ellipse fill="none" stroke="#000000" cx="288.4907" cy="-291.7583" rx="3.2" ry="3.2"/>
</g>
<!-- data_profile -->
<g id="node6" class="node">
<title>data_profile</title>
<g id="a_node6"><a xlink:href="../../tables/data_profile.html" xlink:title="data_profile" target="_top">
<polygon fill="#ffffff" stroke="transparent" points="502.5,-101.2 502.5,-294.2 632.5,-294.2 632.5,-101.2 502.5,-101.2"/>
<polygon fill="#f5f5f5" stroke="transparent" points="502.5,-270.7 502.5,-293.7 632.5,-293.7 632.5,-270.7 502.5,-270.7"/>
<polygon fill="none" stroke="#000000" points="502.5,-270.7 502.5,-293.7 632.5,-293.7 632.5,-270.7 502.5,-270.7"/>
<text text-anchor="start" x="507.5" y="-279.8" font-family="Helvetica,sans-Serif" font-weight="bold" font-size="11.00" fill="#000000">data_profile</text>
<text text-anchor="start" x="597.5437" y="-278.8" font-family="Helvetica,sans-Serif" font-size="11.00" fill="#000000">[table]</text>
<polygon fill="none" stroke="#000000" points="502.5,-248.7 502.5,-270.7 632.5,-270.7 632.5,-248.7 502.5,-248.7"/>
<image xlink:href="../../images/primaryKeys.png" width="11px" height="12px" preserveAspectRatio="xMinYMin meet" x="507.5" y="-265.7"/>
<text text-anchor="start" x="522.5" y="-255.8" font-family="Helvetica,sans-Serif" font-size="11.00" fill="#000000">submission_id</text>
<polygon fill="none" stroke="#000000" points="502.5,-226.7 502.5,-248.7 632.5,-248.7 632.5,-226.7 502.5,-226.7"/>
<image xlink:href="../../images/primaryKeys.png" width="11px" height="12px" preserveAspectRatio="xMinYMin meet" x="507.5" y="-243.7"/>
<text text-anchor="start" x="522.5" y="-233.8" font-family="Helvetica,sans-Serif" font-size="11.00" fill="#000000">tag_id</text>
<polygon fill="none" stroke="#000000" points="502.5,-204.7 502.5,-226.7 632.5,-226.7 632.5,-204.7 502.5,-204.7"/>
<image xlink:href="../../images/primaryKeys.png" width="11px" height="12px" preserveAspectRatio="xMinYMin meet" x="507.5" y="-221.7"/>
<text text-anchor="start" x="522.5" y="-211.8" font-family="Helvetica,sans-Serif" font-size="11.00" fill="#000000">variable_id</text>
<polygon fill="none" stroke="#000000" points="502.5,-182.7 502.5,-204.7 632.5,-204.7 632.5,-182.7 502.5,-182.7"/>
<image xlink:href="../../images/primaryKeys.png" width="11px" height="12px" preserveAspectRatio="xMinYMin meet" x="507.5" y="-199.7"/>
<text text-anchor="start" x="522.5" y="-189.8" font-family="Helvetica,sans-Serif" font-size="11.00" fill="#000000">date_time</text>
<polygon fill="none" stroke="#000000" points="502.5,-160.7 502.5,-182.7 632.5,-182.7 632.5,-160.7 502.5,-160.7"/>
<image xlink:href="../../images/primaryKeys.png" width="11px" height="12px" preserveAspectRatio="xMinYMin meet" x="507.5" y="-177.7"/>
<text text-anchor="start" x="522.5" y="-167.8" font-family="Helvetica,sans-Serif" font-size="11.00" fill="#000000">depth</text>
<polygon fill="#ffffff" stroke="transparent" points="502.5,-138.7 502.5,-160.7 632.5,-160.7 632.5,-138.7 502.5,-138.7"/>
<polygon fill="none" stroke="#000000" points="502.5,-138.7 502.5,-160.7 632.5,-160.7 632.5,-138.7 502.5,-138.7"/>
<image xlink:href="../../images/foreignKeys.png" width="11px" height="12px" preserveAspectRatio="xMinYMin meet" x="507.5" y="-155.7"/>
<text text-anchor="start" x="522.5" y="-145.8" font-family="Helvetica,sans-Serif" font-size="11.00" fill="#000000">position_date_time</text>
<polygon fill="none" stroke="#000000" points="502.5,-119.7 502.5,-138.7 632.5,-138.7 632.5,-119.7 502.5,-119.7"/>
<text text-anchor="start" x="505.5" y="-125.8" font-family="Helvetica,sans-Serif" font-size="11.00" fill="#000000">...</text>
<polygon fill="#ffffff" stroke="transparent" points="502.5,-100.7 502.5,-119.7 552.5,-119.7 552.5,-100.7 502.5,-100.7"/>
<polygon fill="none" stroke="#000000" points="502.5,-100.7 502.5,-119.7 552.5,-119.7 552.5,-100.7 502.5,-100.7"/>
<text text-anchor="start" x="505.5" y="-106.8" font-family="Helvetica,sans-Serif" font-size="11.00" fill="#000000">&lt; 5</text>
<polygon fill="#ffffff" stroke="transparent" points="552.5,-100.7 552.5,-119.7 605.5,-119.7 605.5,-100.7 552.5,-100.7"/>
<polygon fill="none" stroke="#000000" points="552.5,-100.7 552.5,-119.7 605.5,-119.7 605.5,-100.7 552.5,-100.7"/>
<text text-anchor="start" x="570.1105" y="-106.8" font-family="Helvetica,sans-Serif" font-size="11.00" fill="#000000">0 rows</text>
<polygon fill="#ffffff" stroke="transparent" points="605.5,-100.7 605.5,-119.7 632.5,-119.7 632.5,-100.7 605.5,-100.7"/>
<polygon fill="none" stroke="#000000" points="605.5,-100.7 605.5,-119.7 632.5,-119.7 632.5,-100.7 605.5,-100.7"/>
<text text-anchor="start" x="623.3862" y="-106.8" font-family="Helvetica,sans-Serif" font-size="11.00" fill="#000000"> &#160;</text>
</a>
</g>
</g>
<!-- data_profile&#45;&gt;data_position -->
<g id="edge10" class="edge">
<title>data_profile:w&#45;&gt;data_position:e</title>
<path fill="none" stroke="#000000" d="M487.7524,-151.4809C412.7215,-171.6152 502.8086,-355.7 407.5,-355.7"/>
<polygon fill="#000000" stroke="#000000" points="494.5577,-150.6591 502.9316,-153.274 498.5288,-150.1796 502.5,-149.7 502.5,-149.7 502.5,-149.7 498.5288,-150.1796 502.0684,-146.126 494.5577,-150.6591 494.5577,-150.6591"/>
<ellipse fill="none" stroke="#000000" cx="491.3808" cy="-151.0428" rx="3.2" ry="3.2"/>
</g>
<!-- data_profile&#45;&gt;data_position -->
<g id="edge11" class="edge">
<title>data_profile:w&#45;&gt;data_position:e</title>
<path fill="none" stroke="#000000" d="M487.9448,-260.9132C456.1069,-266.5257 446.4157,-289.7 407.5,-289.7"/>
<polygon fill="#000000" stroke="#000000" points="494.5276,-260.3646 502.799,-263.2876 498.5138,-260.0323 502.5,-259.7 502.5,-259.7 502.5,-259.7 498.5138,-260.0323 502.201,-256.1124 494.5276,-260.3646 494.5276,-260.3646"/>
<ellipse fill="none" stroke="#000000" cx="491.3387" cy="-260.6304" rx="3.2" ry="3.2"/>
</g>
<!-- data_profile&#45;&gt;data_position -->
<g id="edge13" class="edge">
<title>data_profile:w&#45;&gt;data_position:e</title>
<path fill="none" stroke="#000000" d="M487.9448,-238.9132C456.1069,-244.5257 446.4157,-267.7 407.5,-267.7"/>
<polygon fill="#000000" stroke="#000000" points="494.5276,-238.3646 502.799,-241.2876 498.5138,-238.0323 502.5,-237.7 502.5,-237.7 502.5,-237.7 498.5138,-238.0323 502.201,-234.1124 494.5276,-238.3646 494.5276,-238.3646"/>
<ellipse fill="none" stroke="#000000" cx="491.3387" cy="-238.6304" rx="3.2" ry="3.2"/>
</g>
<!-- data_profile&#45;&gt;submission -->
<g id="edge12" class="edge">
<title>data_profile:w&#45;&gt;submission:e</title>
<path fill="none" stroke="#000000" d="M488.3162,-256.7737C464.6764,-244.9634 476.074,-200.6793 443,-184.7 407.1834,-167.3956 295.4047,-160.2865 264,-184.7 203.5335,-231.7057 298.088,-351.7 221.5,-351.7"/>
<polygon fill="#000000" stroke="#000000" points="494.665,-258.0835 501.7726,-263.2257 498.5825,-258.8917 502.5,-259.7 502.5,-259.7 502.5,-259.7 498.5825,-258.8917 503.2274,-256.1743 494.665,-258.0835 494.665,-258.0835"/>
<ellipse fill="none" stroke="#000000" cx="491.531" cy="-257.4369" rx="3.2" ry="3.2"/>
</g>
<!-- data_profile&#45;&gt;observation_types -->
<g id="edge14" class="edge">
<title>data_profile:w&#45;&gt;observation_types:e</title>
<path fill="none" stroke="#000000" d="M487.9833,-215.0611C472.316,-213.577 463.9742,-209.9295 443,-208.7 363.5808,-204.0443 324.8775,-157.4846 264,-208.7 231.207,-236.2883 240.0232,-356.8064 231,-398.7 212.4451,-484.8481 269.6237,-590.7 181.5,-590.7"/>
<polygon fill="#000000" stroke="#000000" points="494.5077,-215.3482 502.3417,-219.2965 498.5039,-215.5241 502.5,-215.7 502.5,-215.7 502.5,-215.7 498.5039,-215.5241 502.6583,-212.1035 494.5077,-215.3482 494.5077,-215.3482"/>
<ellipse fill="none" stroke="#000000" cx="491.3108" cy="-215.2075" rx="3.2" ry="3.2"/>
</g>
<!-- data_time_series -->
<g id="node7" class="node">
<title>data_time_series</title>
<g id="a_node7"><a xlink:href="../../tables/data_time_series.html" xlink:title="data_time_series" target="_top">
<polygon fill="#ffffff" stroke="transparent" points="502.5,-315.2 502.5,-486.2 632.5,-486.2 632.5,-315.2 502.5,-315.2"/>
<polygon fill="#f5f5f5" stroke="transparent" points="502.5,-462.7 502.5,-485.7 632.5,-485.7 632.5,-462.7 502.5,-462.7"/>
<polygon fill="none" stroke="#000000" points="502.5,-462.7 502.5,-485.7 632.5,-485.7 632.5,-462.7 502.5,-462.7"/>
<text text-anchor="start" x="507.5" y="-471.8" font-family="Helvetica,sans-Serif" font-weight="bold" font-size="11.00" fill="#000000">data_time_series</text>
<text text-anchor="start" x="597.5437" y="-470.8" font-family="Helvetica,sans-Serif" font-size="11.00" fill="#000000">[table]</text>
<polygon fill="none" stroke="#000000" points="502.5,-440.7 502.5,-462.7 632.5,-462.7 632.5,-440.7 502.5,-440.7"/>
<image xlink:href="../../images/primaryKeys.png" width="11px" height="12px" preserveAspectRatio="xMinYMin meet" x="507.5" y="-457.7"/>
<text text-anchor="start" x="522.5" y="-447.8" font-family="Helvetica,sans-Serif" font-size="11.00" fill="#000000">date_time</text>
<polygon fill="none" stroke="#000000" points="502.5,-418.7 502.5,-440.7 632.5,-440.7 632.5,-418.7 502.5,-418.7"/>
<image xlink:href="../../images/primaryKeys.png" width="11px" height="12px" preserveAspectRatio="xMinYMin meet" x="507.5" y="-435.7"/>
<text text-anchor="start" x="522.5" y="-425.8" font-family="Helvetica,sans-Serif" font-size="11.00" fill="#000000">variable_id</text>
<polygon fill="none" stroke="#000000" points="502.5,-396.7 502.5,-418.7 632.5,-418.7 632.5,-396.7 502.5,-396.7"/>
<image xlink:href="../../images/primaryKeys.png" width="11px" height="12px" preserveAspectRatio="xMinYMin meet" x="507.5" y="-413.7"/>
<text text-anchor="start" x="522.5" y="-403.8" font-family="Helvetica,sans-Serif" font-size="11.00" fill="#000000">submission_id</text>
<polygon fill="none" stroke="#000000" points="502.5,-374.7 502.5,-396.7 632.5,-396.7 632.5,-374.7 502.5,-374.7"/>
<image xlink:href="../../images/primaryKeys.png" width="11px" height="12px" preserveAspectRatio="xMinYMin meet" x="507.5" y="-391.7"/>
<text text-anchor="start" x="522.5" y="-381.8" font-family="Helvetica,sans-Serif" font-size="11.00" fill="#000000">tag_id</text>
<polygon fill="#ffffff" stroke="transparent" points="502.5,-352.7 502.5,-374.7 632.5,-374.7 632.5,-352.7 502.5,-352.7"/>
<polygon fill="none" stroke="#000000" points="502.5,-352.7 502.5,-374.7 632.5,-374.7 632.5,-352.7 502.5,-352.7"/>
<image xlink:href="../../images/foreignKeys.png" width="11px" height="12px" preserveAspectRatio="xMinYMin meet" x="507.5" y="-369.7"/>
<text text-anchor="start" x="522.5" y="-359.8" font-family="Helvetica,sans-Serif" font-size="11.00" fill="#000000">position_date_time</text>
<polygon fill="none" stroke="#000000" points="502.5,-333.7 502.5,-352.7 632.5,-352.7 632.5,-333.7 502.5,-333.7"/>
<text text-anchor="start" x="505.5" y="-339.8" font-family="Helvetica,sans-Serif" font-size="11.00" fill="#000000">...</text>
<polygon fill="#ffffff" stroke="transparent" points="502.5,-314.7 502.5,-333.7 552.5,-333.7 552.5,-314.7 502.5,-314.7"/>
<polygon fill="none" stroke="#000000" points="502.5,-314.7 502.5,-333.7 552.5,-333.7 552.5,-314.7 502.5,-314.7"/>
<text text-anchor="start" x="505.5" y="-320.8" font-family="Helvetica,sans-Serif" font-size="11.00" fill="#000000">&lt; 5</text>
<polygon fill="#ffffff" stroke="transparent" points="552.5,-314.7 552.5,-333.7 605.5,-333.7 605.5,-314.7 552.5,-314.7"/>
<polygon fill="none" stroke="#000000" points="552.5,-314.7 552.5,-333.7 605.5,-333.7 605.5,-314.7 552.5,-314.7"/>
<text text-anchor="start" x="570.1105" y="-320.8" font-family="Helvetica,sans-Serif" font-size="11.00" fill="#000000">0 rows</text>
<polygon fill="#ffffff" stroke="transparent" points="605.5,-314.7 605.5,-333.7 632.5,-333.7 632.5,-314.7 605.5,-314.7"/>
<polygon fill="none" stroke="#000000" points="605.5,-314.7 605.5,-333.7 632.5,-333.7 632.5,-314.7 605.5,-314.7"/>
<text text-anchor="start" x="623.3862" y="-320.8" font-family="Helvetica,sans-Serif" font-size="11.00" fill="#000000"> &#160;</text>
</a>
</g>
</g>
<!-- data_time_series&#45;&gt;data_position -->
<g id="edge15" class="edge">
<title>data_time_series:w&#45;&gt;data_position:e</title>
<path fill="none" stroke="#000000" d="M487.9906,-363.3563C457.0624,-361.825 444.5752,-355.7 407.5,-355.7"/>
<polygon fill="#000000" stroke="#000000" points="494.5022,-363.5105 502.4147,-367.299 498.5011,-363.6052 502.5,-363.7 502.5,-363.7 502.5,-363.7 498.5011,-363.6052 502.5853,-360.101 494.5022,-363.5105 494.5022,-363.5105"/>
<ellipse fill="none" stroke="#000000" cx="491.3031" cy="-363.4347" rx="3.2" ry="3.2"/>
</g>
<!-- data_time_series&#45;&gt;data_position -->
<g id="edge16" class="edge">
<title>data_time_series:w&#45;&gt;data_position:e</title>
<path fill="none" stroke="#000000" d="M487.9725,-405.4482C440.9578,-389.1347 469.3055,-289.7 407.5,-289.7"/>
<polygon fill="#000000" stroke="#000000" points="494.5944,-406.4745 501.9485,-411.2575 498.5472,-407.0873 502.5,-407.7 502.5,-407.7 502.5,-407.7 498.5472,-407.0873 503.0515,-404.1425 494.5944,-406.4745 494.5944,-406.4745"/>
<ellipse fill="none" stroke="#000000" cx="491.4322" cy="-405.9844" rx="3.2" ry="3.2"/>
</g>
<!-- data_time_series&#45;&gt;data_position -->
<g id="edge18" class="edge">
<title>data_time_series:w&#45;&gt;data_position:e</title>
<path fill="none" stroke="#000000" d="M487.9725,-383.4482C440.9578,-367.1347 469.3055,-267.7 407.5,-267.7"/>
<polygon fill="#000000" stroke="#000000" points="494.5944,-384.4745 501.9485,-389.2575 498.5472,-385.0873 502.5,-385.7 502.5,-385.7 502.5,-385.7 498.5472,-385.0873 503.0515,-382.1425 494.5944,-384.4745 494.5944,-384.4745"/>
<ellipse fill="none" stroke="#000000" cx="491.4322" cy="-383.9844" rx="3.2" ry="3.2"/>
</g>
<!-- data_time_series&#45;&gt;submission -->
<g id="edge17" class="edge">
<title>data_time_series:w&#45;&gt;submission:e</title>
<path fill="none" stroke="#000000" d="M488.0316,-407.9408C392.8895,-411.1195 355.3254,-444.0103 264,-400.7 237.9525,-388.3472 250.3281,-351.7 221.5,-351.7"/>
<polygon fill="#000000" stroke="#000000" points="494.5011,-407.8332 502.5599,-411.2995 498.5006,-407.7666 502.5,-407.7 502.5,-407.7 502.5,-407.7 498.5006,-407.7666 502.4401,-404.1005 494.5011,-407.8332 494.5011,-407.8332"/>
<ellipse fill="none" stroke="#000000" cx="491.3016" cy="-407.8864" rx="3.2" ry="3.2"/>
</g>
<!-- data_time_series&#45;&gt;observation_types -->
<g id="edge19" class="edge">
<title>data_time_series:w&#45;&gt;observation_types:e</title>
<path fill="none" stroke="#000000" d="M488.1027,-431.6524C442.1587,-446.2681 495.7765,-539.0352 443,-576.7 395.6314,-610.5053 239.6943,-590.7 181.5,-590.7"/>
<polygon fill="#000000" stroke="#000000" points="494.5726,-430.7751 502.9838,-433.2673 498.5363,-430.2375 502.5,-429.7 502.5,-429.7 502.5,-429.7 498.5363,-430.2375 502.0162,-426.1327 494.5726,-430.7751 494.5726,-430.7751"/>
<ellipse fill="none" stroke="#000000" cx="491.4016" cy="-431.2051" rx="3.2" ry="3.2"/>
</g>
<!-- metadata -->
<g id="node8" class="node">
<title>metadata</title>
<g id="a_node8"><a xlink:href="../../tables/metadata.html" xlink:title="metadata" target="_top">
<polygon fill="#ffffff" stroke="transparent" points="300.5,-38.2 300.5,-143.2 406.5,-143.2 406.5,-38.2 300.5,-38.2"/>
<polygon fill="#f5f5f5" stroke="transparent" points="300.5,-119.7 300.5,-142.7 406.5,-142.7 406.5,-119.7 300.5,-119.7"/>
<polygon fill="none" stroke="#000000" points="300.5,-119.7 300.5,-142.7 406.5,-142.7 406.5,-119.7 300.5,-119.7"/>
<text text-anchor="start" x="305.5" y="-128.8" font-family="Helvetica,sans-Serif" font-weight="bold" font-size="11.00" fill="#000000">metadata</text>
<text text-anchor="start" x="371.5437" y="-127.8" font-family="Helvetica,sans-Serif" font-size="11.00" fill="#000000">[table]</text>
<polygon fill="none" stroke="#000000" points="300.5,-97.7 300.5,-119.7 406.5,-119.7 406.5,-97.7 300.5,-97.7"/>
<image xlink:href="../../images/primaryKeys.png" width="11px" height="12px" preserveAspectRatio="xMinYMin meet" x="305.5" y="-114.7"/>
<text text-anchor="start" x="320.5" y="-104.8" font-family="Helvetica,sans-Serif" font-size="11.00" fill="#000000">submission_id</text>
<polygon fill="none" stroke="#000000" points="300.5,-75.7 300.5,-97.7 406.5,-97.7 406.5,-75.7 300.5,-75.7"/>
<image xlink:href="../../images/primaryKeys.png" width="11px" height="12px" preserveAspectRatio="xMinYMin meet" x="305.5" y="-92.7"/>
<text text-anchor="start" x="320.5" y="-82.8" font-family="Helvetica,sans-Serif" font-size="11.00" fill="#000000">attribute_id</text>
<polygon fill="none" stroke="#000000" points="300.5,-56.7 300.5,-75.7 406.5,-75.7 406.5,-56.7 300.5,-56.7"/>
<text text-anchor="start" x="303.5" y="-62.8" font-family="Helvetica,sans-Serif" font-size="11.00" fill="#000000">...</text>
<polygon fill="#ffffff" stroke="transparent" points="300.5,-37.7 300.5,-56.7 338.5,-56.7 338.5,-37.7 300.5,-37.7"/>
<polygon fill="none" stroke="#000000" points="300.5,-37.7 300.5,-56.7 338.5,-56.7 338.5,-37.7 300.5,-37.7"/>
<text text-anchor="start" x="303.5" y="-43.8" font-family="Helvetica,sans-Serif" font-size="11.00" fill="#000000">&lt; 2</text>
<polygon fill="#ffffff" stroke="transparent" points="338.5,-37.7 338.5,-56.7 385.5,-56.7 385.5,-37.7 338.5,-37.7"/>
<polygon fill="none" stroke="#000000" points="338.5,-37.7 338.5,-56.7 385.5,-56.7 385.5,-37.7 338.5,-37.7"/>
<text text-anchor="start" x="350.1105" y="-43.8" font-family="Helvetica,sans-Serif" font-size="11.00" fill="#000000">0 rows</text>
<polygon fill="#ffffff" stroke="transparent" points="385.5,-37.7 385.5,-56.7 406.5,-56.7 406.5,-37.7 385.5,-37.7"/>
<polygon fill="none" stroke="#000000" points="385.5,-37.7 385.5,-56.7 406.5,-56.7 406.5,-37.7 385.5,-37.7"/>
<text text-anchor="start" x="397.3862" y="-43.8" font-family="Helvetica,sans-Serif" font-size="11.00" fill="#000000"> &#160;</text>
</a>
</g>
</g>
<!-- metadata&#45;&gt;submission -->
<g id="edge21" class="edge">
<title>metadata:w&#45;&gt;submission:e</title>
<path fill="none" stroke="#000000" d="M286.4113,-111.9374C273.5553,-119.3481 272.8045,-138.3978 264,-157.7 245.6845,-197.8535 265.6335,-351.7 221.5,-351.7"/>
<polygon fill="#000000" stroke="#000000" points="292.7032,-110.4917 301.3062,-112.2086 296.6016,-109.5958 300.5,-108.7 300.5,-108.7 300.5,-108.7 296.6016,-109.5958 299.6938,-105.1914 292.7032,-110.4917 292.7032,-110.4917"/>
<ellipse fill="none" stroke="#000000" cx="289.5845" cy="-111.2083" rx="3.2" ry="3.2"/>
</g>
<!-- metadata_types -->
<g id="node9" class="node">
<title>metadata_types</title>
<g id="a_node9"><a xlink:href="../../tables/metadata_types.html" xlink:title="metadata_types" target="_top">
<polygon fill="#ffffff" stroke="transparent" points="55,-59.2 55,-120.2 176,-120.2 176,-59.2 55,-59.2"/>
<polygon fill="#f5f5f5" stroke="transparent" points="55.5,-96.7 55.5,-119.7 176.5,-119.7 176.5,-96.7 55.5,-96.7"/>
<polygon fill="none" stroke="#000000" points="55.5,-96.7 55.5,-119.7 176.5,-119.7 176.5,-96.7 55.5,-96.7"/>
<text text-anchor="start" x="60.3741" y="-105.8" font-family="Helvetica,sans-Serif" font-weight="bold" font-size="11.00" fill="#000000">metadata_types</text>
<text text-anchor="start" x="142.0219" y="-104.8" font-family="Helvetica,sans-Serif" font-size="11.00" fill="#000000">[table]</text>
<polygon fill="none" stroke="#000000" points="55.5,-77.7 55.5,-96.7 176.5,-96.7 176.5,-77.7 55.5,-77.7"/>
<text text-anchor="start" x="58.5" y="-83.8" font-family="Helvetica,sans-Serif" font-size="11.00" fill="#000000">...</text>
<polygon fill="#ffffff" stroke="transparent" points="55.5,-58.7 55.5,-77.7 86.5,-77.7 86.5,-58.7 55.5,-58.7"/>
<polygon fill="none" stroke="#000000" points="55.5,-58.7 55.5,-77.7 86.5,-77.7 86.5,-58.7 55.5,-58.7"/>
<text text-anchor="start" x="58.5" y="-64.8" font-family="Helvetica,sans-Serif" font-size="11.00" fill="#000000"> &#160;</text>
<polygon fill="#ffffff" stroke="transparent" points="86.5,-58.7 86.5,-77.7 145.5,-77.7 145.5,-58.7 86.5,-58.7"/>
<polygon fill="none" stroke="#000000" points="86.5,-58.7 86.5,-77.7 145.5,-77.7 145.5,-58.7 86.5,-58.7"/>
<text text-anchor="start" x="97.8807" y="-64.8" font-family="Helvetica,sans-Serif" font-size="11.00" fill="#000000">142 rows</text>
<polygon fill="#ffffff" stroke="transparent" points="145.5,-58.7 145.5,-77.7 176.5,-77.7 176.5,-58.7 145.5,-58.7"/>
<polygon fill="none" stroke="#000000" points="145.5,-58.7 145.5,-77.7 176.5,-77.7 176.5,-58.7 145.5,-58.7"/>
<text text-anchor="start" x="157.9053" y="-64.8" font-family="Helvetica,sans-Serif" font-size="11.00" fill="#000000">1 &gt;</text>
</a>
</g>
</g>
<!-- metadata&#45;&gt;metadata_types -->
<g id="edge20" class="edge">
<title>metadata:w&#45;&gt;metadata_types:e</title>
<path fill="none" stroke="#000000" d="M286.0217,-86.7C242.4423,-86.7 226.4444,-86.7 176.5,-86.7"/>
<polygon fill="#000000" stroke="#000000" points="292.5,-86.7001 300.5,-90.3 296.5,-86.7 300.5,-86.7 300.5,-86.7 300.5,-86.7 296.5,-86.7 300.5,-83.1 292.5,-86.7001 292.5,-86.7001"/>
<ellipse fill="none" stroke="#000000" cx="289.3" cy="-86.7001" rx="3.2" ry="3.2"/>
</g>
<!-- proc_observations -->
<g id="node10" class="node">
<title>proc_observations</title>
<g id="a_node10"><a xlink:href="../../tables/proc_observations.html" xlink:title="proc_observations" target="_top">
<polygon fill="#ffffff" stroke="transparent" points="287.5,-439.2 287.5,-566.2 419.5,-566.2 419.5,-439.2 287.5,-439.2"/>
<polygon fill="#f5f5f5" stroke="transparent" points="287.5,-542.7 287.5,-565.7 419.5,-565.7 419.5,-542.7 287.5,-542.7"/>
<polygon fill="none" stroke="#000000" points="287.5,-542.7 287.5,-565.7 419.5,-565.7 419.5,-542.7 287.5,-542.7"/>
<text text-anchor="start" x="292.0722" y="-551.8" font-family="Helvetica,sans-Serif" font-weight="bold" font-size="11.00" fill="#000000">proc_observations</text>
<text text-anchor="start" x="385.0219" y="-550.8" font-family="Helvetica,sans-Serif" font-size="11.00" fill="#000000">[table]</text>
<polygon fill="none" stroke="#000000" points="287.5,-520.7 287.5,-542.7 419.5,-542.7 419.5,-520.7 287.5,-520.7"/>
<image xlink:href="../../images/primaryKeys.png" width="11px" height="12px" preserveAspectRatio="xMinYMin meet" x="292.5" y="-537.7"/>
<text text-anchor="start" x="309.5" y="-527.8" font-family="Helvetica,sans-Serif" font-size="11.00" fill="#000000">date_time</text>
<polygon fill="none" stroke="#000000" points="287.5,-498.7 287.5,-520.7 419.5,-520.7 419.5,-498.7 287.5,-498.7"/>
<image xlink:href="../../images/primaryKeys.png" width="11px" height="12px" preserveAspectRatio="xMinYMin meet" x="292.5" y="-515.7"/>
<text text-anchor="start" x="309.5" y="-505.8" font-family="Helvetica,sans-Serif" font-size="11.00" fill="#000000">variable_id</text>
<polygon fill="none" stroke="#000000" points="287.5,-476.7 287.5,-498.7 419.5,-498.7 419.5,-476.7 287.5,-476.7"/>
<image xlink:href="../../images/primaryKeys.png" width="11px" height="12px" preserveAspectRatio="xMinYMin meet" x="292.5" y="-493.7"/>
<text text-anchor="start" x="309.5" y="-483.8" font-family="Helvetica,sans-Serif" font-size="11.00" fill="#000000">submission_id</text>
<polygon fill="none" stroke="#000000" points="287.5,-457.7 287.5,-476.7 419.5,-476.7 419.5,-457.7 287.5,-457.7"/>
<text text-anchor="start" x="290.5" y="-463.8" font-family="Helvetica,sans-Serif" font-size="11.00" fill="#000000">...</text>
<polygon fill="#ffffff" stroke="transparent" points="287.5,-438.7 287.5,-457.7 338.5,-457.7 338.5,-438.7 287.5,-438.7"/>
<polygon fill="none" stroke="#000000" points="287.5,-438.7 287.5,-457.7 338.5,-457.7 338.5,-438.7 287.5,-438.7"/>
<text text-anchor="start" x="290.5" y="-444.8" font-family="Helvetica,sans-Serif" font-size="11.00" fill="#000000">&lt; 2</text>
<polygon fill="#ffffff" stroke="transparent" points="338.5,-438.7 338.5,-457.7 391.5,-457.7 391.5,-438.7 338.5,-438.7"/>
<polygon fill="none" stroke="#000000" points="338.5,-438.7 338.5,-457.7 391.5,-457.7 391.5,-438.7 338.5,-438.7"/>
<text text-anchor="start" x="356.1105" y="-444.8" font-family="Helvetica,sans-Serif" font-size="11.00" fill="#000000">0 rows</text>
<polygon fill="#ffffff" stroke="transparent" points="391.5,-438.7 391.5,-457.7 419.5,-457.7 419.5,-438.7 391.5,-438.7"/>
<polygon fill="none" stroke="#000000" points="391.5,-438.7 391.5,-457.7 419.5,-457.7 419.5,-438.7 391.5,-438.7"/>
<text text-anchor="start" x="410.3862" y="-444.8" font-family="Helvetica,sans-Serif" font-size="11.00" fill="#000000"> &#160;</text>
</a>
</g>
</g>
<!-- proc_observations&#45;&gt;submission -->
<g id="edge22" class="edge">
<title>proc_observations:w&#45;&gt;submission:e</title>
<path fill="none" stroke="#000000" d="M273.2801,-484.9833C230.8421,-465.8155 283.0435,-351.7 221.5,-351.7"/>
<polygon fill="#000000" stroke="#000000" points="279.6421,-486.1987 286.8244,-491.236 283.5711,-486.9494 287.5,-487.7 287.5,-487.7 287.5,-487.7 283.5711,-486.9494 288.1756,-484.164 279.6421,-486.1987 279.6421,-486.1987"/>
<ellipse fill="none" stroke="#000000" cx="276.499" cy="-485.5982" rx="3.2" ry="3.2"/>
</g>
<!-- proc_observations&#45;&gt;observation_types -->
<g id="edge23" class="edge">
<title>proc_observations:w&#45;&gt;observation_types:e</title>
<path fill="none" stroke="#000000" d="M273.1554,-511.544C229.8895,-523.6009 235.4643,-590.7 181.5,-590.7"/>
<polygon fill="#000000" stroke="#000000" points="279.5653,-510.72 287.959,-513.2706 283.5326,-510.21 287.5,-509.7 287.5,-509.7 287.5,-509.7 283.5326,-510.21 287.041,-506.1294 279.5653,-510.72 279.5653,-510.72"/>
<ellipse fill="none" stroke="#000000" cx="276.3914" cy="-511.1281" rx="3.2" ry="3.2"/>
</g>
</g>
</svg>
