<?xml version="1.0" encoding="UTF-8" standalone="no"?>
<!DOCTYPE svg PUBLIC "-//W3C//DTD SVG 1.1//EN"
 "http://www.w3.org/Graphics/SVG/1.1/DTD/svg11.dtd">
<!-- Generated by graphviz version 2.40.1 (20161225.0304)
 -->
<!-- Title: oneDegreeRelationshipsDiagram Pages: 1 -->
<svg width="636pt" height="766pt"
 viewBox="0.00 0.00 636.00 766.20" xmlns="http://www.w3.org/2000/svg" xmlns:xlink="http://www.w3.org/1999/xlink">
<g id="graph0" class="graph" transform="scale(1 1) rotate(0) translate(4 762.2)">
<title>oneDegreeRelationshipsDiagram</title>
<polygon fill="#ffffff" stroke="transparent" points="-4,4 -4,-762.2 632,-762.2 632,4 -4,4"/>
<text text-anchor="middle" x="72.4936" y="-7.3" font-family="Helvetica,sans-Serif" font-size="11.00" fill="#000000">Generated by SchemaSpy</text>
<!-- data_histogram_bin_data -->
<g id="node1" class="node">
<title>data_histogram_bin_data</title>
<g id="a_node1"><a xlink:href="../../tables/data_histogram_bin_data.html" xlink:title="data_histogram_bin_data" target="_top">
<polygon fill="#ffffff" stroke="transparent" points="453,-539.2 453,-754.2 620,-754.2 620,-539.2 453,-539.2"/>
<polygon fill="#f5f5f5" stroke="transparent" points="453.5,-730.7 453.5,-753.7 620.5,-753.7 620.5,-730.7 453.5,-730.7"/>
<polygon fill="none" stroke="#000000" points="453.5,-730.7 453.5,-753.7 620.5,-753.7 620.5,-730.7 453.5,-730.7"/>
<text text-anchor="start" x="458.4501" y="-739.8" font-family="Helvetica,sans-Serif" font-weight="bold" font-size="11.00" fill="#000000">data_histogram_bin_data</text>
<text text-anchor="start" x="586.0219" y="-738.8" font-family="Helvetica,sans-Serif" font-size="11.00" fill="#000000">[table]</text>
<polygon fill="none" stroke="#000000" points="453.5,-708.7 453.5,-730.7 620.5,-730.7 620.5,-708.7 453.5,-708.7"/>
<image xlink:href="../../images/primaryKeys.png" width="11px" height="12px" preserveAspectRatio="xMinYMin meet" x="458.5" y="-725.7"/>
<text text-anchor="start" x="474.5" y="-715.8" font-family="Helvetica,sans-Serif" font-size="11.00" fill="#000000">submission_id</text>
<polygon fill="none" stroke="#000000" points="453.5,-686.7 453.5,-708.7 620.5,-708.7 620.5,-686.7 453.5,-686.7"/>
<image xlink:href="../../images/primaryKeys.png" width="11px" height="12px" preserveAspectRatio="xMinYMin meet" x="458.5" y="-703.7"/>
<text text-anchor="start" x="474.5" y="-693.8" font-family="Helvetica,sans-Serif" font-size="11.00" fill="#000000">tag_id</text>
<polygon fill="none" stroke="#000000" points="453.5,-664.7 453.5,-686.7 620.5,-686.7 620.5,-664.7 453.5,-664.7"/>
<image xlink:href="../../images/primaryKeys.png" width="11px" height="12px" preserveAspectRatio="xMinYMin meet" x="458.5" y="-681.7"/>
<text text-anchor="start" x="474.5" y="-671.8" font-family="Helvetica,sans-Serif" font-size="11.00" fill="#000000">bin_id</text>
<polygon fill="none" stroke="#000000" points="453.5,-642.7 453.5,-664.7 620.5,-664.7 620.5,-642.7 453.5,-642.7"/>
<image xlink:href="../../images/primaryKeys.png" width="11px" height="12px" preserveAspectRatio="xMinYMin meet" x="458.5" y="-659.7"/>
<text text-anchor="start" x="474.5" y="-649.8" font-family="Helvetica,sans-Serif" font-size="11.00" fill="#000000">bin_class</text>
<polygon fill="none" stroke="#000000" points="453.5,-620.7 453.5,-642.7 620.5,-642.7 620.5,-620.7 453.5,-620.7"/>
<image xlink:href="../../images/primaryKeys.png" width="11px" height="12px" preserveAspectRatio="xMinYMin meet" x="458.5" y="-637.7"/>
<text text-anchor="start" x="474.5" y="-627.8" font-family="Helvetica,sans-Serif" font-size="11.00" fill="#000000">date_time</text>
<polygon fill="#ffffff" stroke="transparent" points="453.5,-598.7 453.5,-620.7 620.5,-620.7 620.5,-598.7 453.5,-598.7"/>
<polygon fill="none" stroke="#000000" points="453.5,-598.7 453.5,-620.7 620.5,-620.7 620.5,-598.7 453.5,-598.7"/>
<image xlink:href="../../images/foreignKeys.png" width="11px" height="12px" preserveAspectRatio="xMinYMin meet" x="458.5" y="-615.7"/>
<text text-anchor="start" x="474.5" y="-605.8" font-family="Helvetica,sans-Serif" font-size="11.00" fill="#000000">position_date_time</text>
<polygon fill="none" stroke="#000000" points="453.5,-576.7 453.5,-598.7 620.5,-598.7 620.5,-576.7 453.5,-576.7"/>
<image xlink:href="../../images/primaryKeys.png" width="11px" height="12px" preserveAspectRatio="xMinYMin meet" x="458.5" y="-593.7"/>
<text text-anchor="start" x="474.5" y="-583.8" font-family="Helvetica,sans-Serif" font-size="11.00" fill="#000000">variable_id</text>
<polygon fill="none" stroke="#000000" points="453.5,-557.7 453.5,-576.7 620.5,-576.7 620.5,-557.7 453.5,-557.7"/>
<text text-anchor="start" x="456.5" y="-563.8" font-family="Helvetica,sans-Serif" font-size="11.00" fill="#000000">...</text>
<polygon fill="#ffffff" stroke="transparent" points="453.5,-538.7 453.5,-557.7 522.5,-557.7 522.5,-538.7 453.5,-538.7"/>
<polygon fill="none" stroke="#000000" points="453.5,-538.7 453.5,-557.7 522.5,-557.7 522.5,-538.7 453.5,-538.7"/>
<text text-anchor="start" x="456.5" y="-544.8" font-family="Helvetica,sans-Serif" font-size="11.00" fill="#000000">&lt; 7</text>
<polygon fill="#ffffff" stroke="transparent" points="522.5,-538.7 522.5,-557.7 584.5,-557.7 584.5,-538.7 522.5,-538.7"/>
<polygon fill="none" stroke="#000000" points="522.5,-538.7 522.5,-557.7 584.5,-557.7 584.5,-538.7 522.5,-538.7"/>
<text text-anchor="start" x="549.1105" y="-544.8" font-family="Helvetica,sans-Serif" font-size="11.00" fill="#000000">0 rows</text>
<polygon fill="#ffffff" stroke="transparent" points="584.5,-538.7 584.5,-557.7 620.5,-557.7 620.5,-538.7 584.5,-538.7"/>
<polygon fill="none" stroke="#000000" points="584.5,-538.7 584.5,-557.7 620.5,-557.7 620.5,-538.7 584.5,-538.7"/>
<text text-anchor="start" x="611.3862" y="-544.8" font-family="Helvetica,sans-Serif" font-size="11.00" fill="#000000"> &#160;</text>
</a>
</g>
</g>
<!-- data_position -->
<g id="node2" class="node">
<title>data_position</title>
<g id="a_node2"><a xlink:href="../../tables/data_position.html" xlink:title="data_position" target="_top">
<polygon fill="#ffffff" stroke="transparent" points="284,-340.2 284,-511.2 392,-511.2 392,-340.2 284,-340.2"/>
<polygon fill="#f5f5f5" stroke="transparent" points="284,-487.7 284,-510.7 392,-510.7 392,-487.7 284,-487.7"/>
<polygon fill="none" stroke="#000000" points="284,-487.7 284,-510.7 392,-510.7 392,-487.7 284,-487.7"/>
<text text-anchor="start" x="288.7926" y="-496.8" font-family="Helvetica,sans-Serif" font-weight="bold" font-size="11.00" fill="#000000">data_position</text>
<text text-anchor="start" x="357.5219" y="-495.8" font-family="Helvetica,sans-Serif" font-size="11.00" fill="#000000">[table]</text>
<polygon fill="none" stroke="#000000" points="284,-465.7 284,-487.7 392,-487.7 392,-465.7 284,-465.7"/>
<image xlink:href="../../images/primaryKeys.png" width="11px" height="12px" preserveAspectRatio="xMinYMin meet" x="289" y="-482.7"/>
<text text-anchor="start" x="306" y="-472.8" font-family="Helvetica,sans-Serif" font-size="11.00" fill="#000000">date_time</text>
<polygon fill="#ffffff" stroke="transparent" points="284,-443.7 284,-465.7 392,-465.7 392,-443.7 284,-443.7"/>
<polygon fill="none" stroke="#000000" points="284,-443.7 284,-465.7 392,-465.7 392,-443.7 284,-443.7"/>
<text text-anchor="start" x="306" y="-450.8" font-family="Helvetica,sans-Serif" font-size="11.00" fill="#000000">lat</text>
<polygon fill="#ffffff" stroke="transparent" points="284,-421.7 284,-443.7 392,-443.7 392,-421.7 284,-421.7"/>
<polygon fill="none" stroke="#000000" points="284,-421.7 284,-443.7 392,-443.7 392,-421.7 284,-421.7"/>
<text text-anchor="start" x="306" y="-428.8" font-family="Helvetica,sans-Serif" font-size="11.00" fill="#000000">lon</text>
<polygon fill="none" stroke="#000000" points="284,-399.7 284,-421.7 392,-421.7 392,-399.7 284,-399.7"/>
<image xlink:href="../../images/primaryKeys.png" width="11px" height="12px" preserveAspectRatio="xMinYMin meet" x="289" y="-416.7"/>
<text text-anchor="start" x="306" y="-406.8" font-family="Helvetica,sans-Serif" font-size="11.00" fill="#000000">submission_id</text>
<polygon fill="none" stroke="#000000" points="284,-377.7 284,-399.7 392,-399.7 392,-377.7 284,-377.7"/>
<image xlink:href="../../images/primaryKeys.png" width="11px" height="12px" preserveAspectRatio="xMinYMin meet" x="289" y="-394.7"/>
<text text-anchor="start" x="306" y="-384.8" font-family="Helvetica,sans-Serif" font-size="11.00" fill="#000000">tag_id</text>
<polygon fill="none" stroke="#000000" points="284,-358.7 284,-377.7 392,-377.7 392,-358.7 284,-358.7"/>
<text text-anchor="start" x="287" y="-364.8" font-family="Helvetica,sans-Serif" font-size="11.00" fill="#000000">...</text>
<polygon fill="#ffffff" stroke="transparent" points="284,-339.7 284,-358.7 319,-358.7 319,-339.7 284,-339.7"/>
<polygon fill="none" stroke="#000000" points="284,-339.7 284,-358.7 319,-358.7 319,-339.7 284,-339.7"/>
<text text-anchor="start" x="287" y="-345.8" font-family="Helvetica,sans-Serif" font-size="11.00" fill="#000000">&lt; 1</text>
<polygon fill="#ffffff" stroke="transparent" points="319,-339.7 319,-358.7 364,-358.7 364,-339.7 319,-339.7"/>
<polygon fill="none" stroke="#000000" points="319,-339.7 319,-358.7 364,-358.7 364,-339.7 319,-339.7"/>
<text text-anchor="start" x="328.6105" y="-345.8" font-family="Helvetica,sans-Serif" font-size="11.00" fill="#000000">0 rows</text>
<polygon fill="#ffffff" stroke="transparent" points="364,-339.7 364,-358.7 392,-358.7 392,-339.7 364,-339.7"/>
<polygon fill="none" stroke="#000000" points="364,-339.7 364,-358.7 392,-358.7 392,-339.7 364,-339.7"/>
<text text-anchor="start" x="373.4053" y="-345.8" font-family="Helvetica,sans-Serif" font-size="11.00" fill="#000000">9 &gt;</text>
</a>
</g>
</g>
<!-- data_histogram_bin_data&#45;&gt;data_position -->
<g id="edge1" class="edge">
<title>data_histogram_bin_data:w&#45;&gt;data_position:e</title>
<path fill="none" stroke="#000000" d="M439.2491,-606.7984C399.426,-587.3485 451.4009,-476.7 392,-476.7"/>
<polygon fill="#000000" stroke="#000000" points="445.6608,-608.1038 452.7817,-613.2276 449.5804,-608.9019 453.5,-609.7 453.5,-609.7 453.5,-609.7 449.5804,-608.9019 454.2183,-606.1724 445.6608,-608.1038 445.6608,-608.1038"/>
<ellipse fill="none" stroke="#000000" cx="442.5252" cy="-607.4654" rx="3.2" ry="3.2"/>
</g>
<!-- data_histogram_bin_data&#45;&gt;data_position -->
<g id="edge2" class="edge">
<title>data_histogram_bin_data:w&#45;&gt;data_position:e</title>
<path fill="none" stroke="#000000" d="M439.9551,-714.5945C394.5877,-674.4186 456.6804,-410.7 392,-410.7"/>
<polygon fill="#000000" stroke="#000000" points="446.0141,-716.8783 452.2302,-723.0686 449.7571,-718.2892 453.5,-719.7 453.5,-719.7 453.5,-719.7 449.7571,-718.2892 454.7698,-716.3314 446.0141,-716.8783 446.0141,-716.8783"/>
<ellipse fill="none" stroke="#000000" cx="443.0198" cy="-715.7497" rx="3.2" ry="3.2"/>
</g>
<!-- data_histogram_bin_data&#45;&gt;data_position -->
<g id="edge4" class="edge">
<title>data_histogram_bin_data:w&#45;&gt;data_position:e</title>
<path fill="none" stroke="#000000" d="M439.9551,-692.5945C394.5877,-652.4186 456.6804,-388.7 392,-388.7"/>
<polygon fill="#000000" stroke="#000000" points="446.0141,-694.8783 452.2302,-701.0686 449.7571,-696.2892 453.5,-697.7 453.5,-697.7 453.5,-697.7 449.7571,-696.2892 454.7698,-694.3314 446.0141,-694.8783 446.0141,-694.8783"/>
<ellipse fill="none" stroke="#000000" cx="443.0198" cy="-693.7497" rx="3.2" ry="3.2"/>
</g>
<!-- submission -->
<g id="node3" class="node">
<title>submission</title>
<g id="a_node3"><a xlink:href="../../tables/submission.html" xlink:title="submission" target="_top">
<polygon fill="#ffffff" stroke="transparent" points="8,-220.7 8,-398.7 223,-398.7 223,-220.7 8,-220.7"/>
<polygon fill="#f5f5f5" stroke="transparent" points="10.5,-373.7 10.5,-396.7 221.5,-396.7 221.5,-373.7 10.5,-373.7"/>
<polygon fill="none" stroke="#000000" points="10.5,-373.7 10.5,-396.7 221.5,-396.7 221.5,-373.7 10.5,-373.7"/>
<text text-anchor="start" x="15.5" y="-382.8" font-family="Helvetica,sans-Serif" font-weight="bold" font-size="11.00" fill="#000000">submission</text>
<text text-anchor="start" x="186.5437" y="-381.8" font-family="Helvetica,sans-Serif" font-size="11.00" fill="#000000">[table]</text>
<polygon fill="none" stroke="#000000" points="10.5,-351.7 10.5,-373.7 129.5,-373.7 129.5,-351.7 10.5,-351.7"/>
<image xlink:href="../../images/primaryKeys.png" width="11px" height="12px" preserveAspectRatio="xMinYMin meet" x="15.5" y="-368.7"/>
<text text-anchor="start" x="30.5" y="-358.8" font-family="Helvetica,sans-Serif" font-size="11.00" fill="#000000">submission_id</text>
<polygon fill="none" stroke="#000000" points="129.5,-351.7 129.5,-373.7 221.5,-373.7 221.5,-351.7 129.5,-351.7"/>
<text text-anchor="start" x="132.5" y="-359.4" font-family="Helvetica,sans-Serif" font-size="11.00" fill="#000000">bigserial[19]</text>
<polygon fill="none" stroke="#000000" points="10.5,-329.7 10.5,-351.7 129.5,-351.7 129.5,-329.7 10.5,-329.7"/>
<text text-anchor="start" x="30.5" y="-336.8" font-family="Helvetica,sans-Serif" font-size="11.00" fill="#000000">tag_id</text>
<polygon fill="none" stroke="#000000" points="129.5,-329.7 129.5,-351.7 221.5,-351.7 221.5,-329.7 129.5,-329.7"/>
<text text-anchor="start" x="132.5" y="-337.4" font-family="Helvetica,sans-Serif" font-size="11.00" fill="#000000">int8[19]</text>
<polygon fill="none" stroke="#000000" points="10.5,-307.7 10.5,-329.7 129.5,-329.7 129.5,-307.7 10.5,-307.7"/>
<text text-anchor="start" x="30.5" y="-314.8" font-family="Helvetica,sans-Serif" font-size="11.00" fill="#000000">dmas_granule_id</text>
<polygon fill="none" stroke="#000000" points="129.5,-307.7 129.5,-329.7 221.5,-329.7 221.5,-307.7 129.5,-307.7"/>
<text text-anchor="start" x="132.5" y="-315.4" font-family="Helvetica,sans-Serif" font-size="11.00" fill="#000000">int8[19]</text>
<polygon fill="none" stroke="#000000" points="10.5,-285.7 10.5,-307.7 129.5,-307.7 129.5,-285.7 10.5,-285.7"/>
<text text-anchor="start" x="30.5" y="-292.8" font-family="Helvetica,sans-Serif" font-size="11.00" fill="#000000">date_time</text>
<polygon fill="none" stroke="#000000" points="129.5,-285.7 129.5,-307.7 221.5,-307.7 221.5,-285.7 129.5,-285.7"/>
<text text-anchor="start" x="132.1023" y="-293.4" font-family="Helvetica,sans-Serif" font-size="11.00" fill="#000000">timestamptz[35,6]</text>
<polygon fill="none" stroke="#000000" points="10.5,-263.7 10.5,-285.7 129.5,-285.7 129.5,-263.7 10.5,-263.7"/>
<text text-anchor="start" x="30.5" y="-270.8" font-family="Helvetica,sans-Serif" font-size="11.00" fill="#000000">filename</text>
<polygon fill="none" stroke="#000000" points="129.5,-263.7 129.5,-285.7 221.5,-285.7 221.5,-263.7 129.5,-263.7"/>
<text text-anchor="start" x="132.5" y="-271.4" font-family="Helvetica,sans-Serif" font-size="11.00" fill="#000000">varchar[255]</text>
<polygon fill="none" stroke="#000000" points="10.5,-241.7 10.5,-263.7 129.5,-263.7 129.5,-241.7 10.5,-241.7"/>
<text text-anchor="start" x="30.5" y="-248.8" font-family="Helvetica,sans-Serif" font-size="11.00" fill="#000000">version</text>
<polygon fill="none" stroke="#000000" points="129.5,-241.7 129.5,-263.7 221.5,-263.7 221.5,-241.7 129.5,-241.7"/>
<text text-anchor="start" x="132.5" y="-249.4" font-family="Helvetica,sans-Serif" font-size="11.00" fill="#000000">varchar[50]</text>
<polygon fill="#ffffff" stroke="transparent" points="10.5,-222.7 10.5,-241.7 61.5,-241.7 61.5,-222.7 10.5,-222.7"/>
<polygon fill="none" stroke="#000000" points="10.5,-222.7 10.5,-241.7 61.5,-241.7 61.5,-222.7 10.5,-222.7"/>
<text text-anchor="start" x="13.5" y="-228.8" font-family="Helvetica,sans-Serif" font-size="11.00" fill="#000000">&lt; 0</text>
<polygon fill="#ffffff" stroke="transparent" points="61.5,-222.7 61.5,-241.7 129.5,-241.7 129.5,-222.7 61.5,-222.7"/>
<polygon fill="none" stroke="#000000" points="61.5,-222.7 61.5,-241.7 129.5,-241.7 129.5,-222.7 61.5,-222.7"/>
<text text-anchor="start" x="94.1105" y="-228.8" font-family="Helvetica,sans-Serif" font-size="11.00" fill="#000000">0 rows</text>
<polygon fill="#ffffff" stroke="transparent" points="129.5,-222.7 129.5,-241.7 221.5,-241.7 221.5,-222.7 129.5,-222.7"/>
<polygon fill="none" stroke="#000000" points="129.5,-222.7 129.5,-241.7 221.5,-241.7 221.5,-222.7 129.5,-222.7"/>
<text text-anchor="start" x="202.9053" y="-228.8" font-family="Helvetica,sans-Serif" font-size="11.00" fill="#000000">6 &gt;</text>
<polygon fill="none" stroke="#000000" stroke-width="2" points="9,-221.7 9,-397.7 222,-397.7 222,-221.7 9,-221.7"/>
</a>
</g>
</g>
<!-- data_histogram_bin_data&#45;&gt;submission -->
<g id="edge3" class="edge">
<title>data_histogram_bin_data:w&#45;&gt;submission:e</title>
<path fill="none" stroke="#000000" d="M438.867,-719.2567C336.7298,-712.8617 319.2894,-638.0059 264,-542.7 222.7522,-471.5986 303.6997,-362.7 221.5,-362.7"/>
<polygon fill="#000000" stroke="#000000" points="445.5037,-719.4577 453.391,-723.2983 449.5018,-719.5789 453.5,-719.7 453.5,-719.7 453.5,-719.7 449.5018,-719.5789 453.609,-716.1017 445.5037,-719.4577 445.5037,-719.4577"/>
<ellipse fill="none" stroke="#000000" cx="442.3051" cy="-719.3608" rx="3.2" ry="3.2"/>
</g>
<!-- data_position&#45;&gt;submission -->
<g id="edge5" class="edge">
<title>data_position:w&#45;&gt;submission:e</title>
<path fill="none" stroke="#000000" d="M269.8232,-407.248C250.3066,-396.242 250.7783,-362.7 221.5,-362.7"/>
<polygon fill="#000000" stroke="#000000" points="276.2271,-408.8073 283.1483,-414.1978 280.1136,-409.7536 284,-410.7 284,-410.7 284,-410.7 280.1136,-409.7536 284.8517,-407.2022 276.2271,-408.8073 276.2271,-408.8073"/>
<ellipse fill="none" stroke="#000000" cx="273.118" cy="-408.0502" rx="3.2" ry="3.2"/>
</g>
<!-- data_profile -->
<g id="node4" class="node">
<title>data_profile</title>
<g id="a_node4"><a xlink:href="../../tables/data_profile.html" xlink:title="data_profile" target="_top">
<polygon fill="#ffffff" stroke="transparent" points="471.5,-325.2 471.5,-518.2 601.5,-518.2 601.5,-325.2 471.5,-325.2"/>
<polygon fill="#f5f5f5" stroke="transparent" points="471.5,-494.7 471.5,-517.7 601.5,-517.7 601.5,-494.7 471.5,-494.7"/>
<polygon fill="none" stroke="#000000" points="471.5,-494.7 471.5,-517.7 601.5,-517.7 601.5,-494.7 471.5,-494.7"/>
<text text-anchor="start" x="476.5" y="-503.8" font-family="Helvetica,sans-Serif" font-weight="bold" font-size="11.00" fill="#000000">data_profile</text>
<text text-anchor="start" x="566.5437" y="-502.8" font-family="Helvetica,sans-Serif" font-size="11.00" fill="#000000">[table]</text>
<polygon fill="none" stroke="#000000" points="471.5,-472.7 471.5,-494.7 601.5,-494.7 601.5,-472.7 471.5,-472.7"/>
<image xlink:href="../../images/primaryKeys.png" width="11px" height="12px" preserveAspectRatio="xMinYMin meet" x="476.5" y="-489.7"/>
<text text-anchor="start" x="491.5" y="-479.8" font-family="Helvetica,sans-Serif" font-size="11.00" fill="#000000">submission_id</text>
<polygon fill="none" stroke="#000000" points="471.5,-450.7 471.5,-472.7 601.5,-472.7 601.5,-450.7 471.5,-450.7"/>
<image xlink:href="../../images/primaryKeys.png" width="11px" height="12px" preserveAspectRatio="xMinYMin meet" x="476.5" y="-467.7"/>
<text text-anchor="start" x="491.5" y="-457.8" font-family="Helvetica,sans-Serif" font-size="11.00" fill="#000000">tag_id</text>
<polygon fill="none" stroke="#000000" points="471.5,-428.7 471.5,-450.7 601.5,-450.7 601.5,-428.7 471.5,-428.7"/>
<image xlink:href="../../images/primaryKeys.png" width="11px" height="12px" preserveAspectRatio="xMinYMin meet" x="476.5" y="-445.7"/>
<text text-anchor="start" x="491.5" y="-435.8" font-family="Helvetica,sans-Serif" font-size="11.00" fill="#000000">variable_id</text>
<polygon fill="none" stroke="#000000" points="471.5,-406.7 471.5,-428.7 601.5,-428.7 601.5,-406.7 471.5,-406.7"/>
<image xlink:href="../../images/primaryKeys.png" width="11px" height="12px" preserveAspectRatio="xMinYMin meet" x="476.5" y="-423.7"/>
<text text-anchor="start" x="491.5" y="-413.8" font-family="Helvetica,sans-Serif" font-size="11.00" fill="#000000">date_time</text>
<polygon fill="none" stroke="#000000" points="471.5,-384.7 471.5,-406.7 601.5,-406.7 601.5,-384.7 471.5,-384.7"/>
<image xlink:href="../../images/primaryKeys.png" width="11px" height="12px" preserveAspectRatio="xMinYMin meet" x="476.5" y="-401.7"/>
<text text-anchor="start" x="491.5" y="-391.8" font-family="Helvetica,sans-Serif" font-size="11.00" fill="#000000">depth</text>
<polygon fill="#ffffff" stroke="transparent" points="471.5,-362.7 471.5,-384.7 601.5,-384.7 601.5,-362.7 471.5,-362.7"/>
<polygon fill="none" stroke="#000000" points="471.5,-362.7 471.5,-384.7 601.5,-384.7 601.5,-362.7 471.5,-362.7"/>
<image xlink:href="../../images/foreignKeys.png" width="11px" height="12px" preserveAspectRatio="xMinYMin meet" x="476.5" y="-379.7"/>
<text text-anchor="start" x="491.5" y="-369.8" font-family="Helvetica,sans-Serif" font-size="11.00" fill="#000000">position_date_time</text>
<polygon fill="none" stroke="#000000" points="471.5,-343.7 471.5,-362.7 601.5,-362.7 601.5,-343.7 471.5,-343.7"/>
<text text-anchor="start" x="474.5" y="-349.8" font-family="Helvetica,sans-Serif" font-size="11.00" fill="#000000">...</text>
<polygon fill="#ffffff" stroke="transparent" points="471.5,-324.7 471.5,-343.7 521.5,-343.7 521.5,-324.7 471.5,-324.7"/>
<polygon fill="none" stroke="#000000" points="471.5,-324.7 471.5,-343.7 521.5,-343.7 521.5,-324.7 471.5,-324.7"/>
<text text-anchor="start" x="474.5" y="-330.8" font-family="Helvetica,sans-Serif" font-size="11.00" fill="#000000">&lt; 5</text>
<polygon fill="#ffffff" stroke="transparent" points="521.5,-324.7 521.5,-343.7 574.5,-343.7 574.5,-324.7 521.5,-324.7"/>
<polygon fill="none" stroke="#000000" points="521.5,-324.7 521.5,-343.7 574.5,-343.7 574.5,-324.7 521.5,-324.7"/>
<text text-anchor="start" x="539.1105" y="-330.8" font-family="Helvetica,sans-Serif" font-size="11.00" fill="#000000">0 rows</text>
<polygon fill="#ffffff" stroke="transparent" points="574.5,-324.7 574.5,-343.7 601.5,-343.7 601.5,-324.7 574.5,-324.7"/>
<polygon fill="none" stroke="#000000" points="574.5,-324.7 574.5,-343.7 601.5,-343.7 601.5,-324.7 574.5,-324.7"/>
<text text-anchor="start" x="592.3862" y="-330.8" font-family="Helvetica,sans-Serif" font-size="11.00" fill="#000000"> &#160;</text>
</a>
</g>
</g>
<!-- data_profile&#45;&gt;data_position -->
<g id="edge6" class="edge">
<title>data_profile:w&#45;&gt;data_position:e</title>
<path fill="none" stroke="#000000" d="M457.0721,-376.455C419.8376,-392.8349 444.1805,-476.7 392,-476.7"/>
<polygon fill="#000000" stroke="#000000" points="463.642,-375.2005 472.1752,-377.2361 467.571,-374.4503 471.5,-373.7 471.5,-373.7 471.5,-373.7 467.571,-374.4503 470.8248,-370.1639 463.642,-375.2005 463.642,-375.2005"/>
<ellipse fill="none" stroke="#000000" cx="460.4988" cy="-375.8007" rx="3.2" ry="3.2"/>
</g>
<!-- data_profile&#45;&gt;data_position -->
<g id="edge7" class="edge">
<title>data_profile:w&#45;&gt;data_position:e</title>
<path fill="none" stroke="#000000" d="M457.0819,-480.9275C426.4988,-467.5931 434.3482,-410.7 392,-410.7"/>
<polygon fill="#000000" stroke="#000000" points="463.6439,-482.1893 470.8202,-487.2352 467.572,-482.9446 471.5,-483.7 471.5,-483.7 471.5,-483.7 467.572,-482.9446 472.1798,-480.1648 463.6439,-482.1893 463.6439,-482.1893"/>
<ellipse fill="none" stroke="#000000" cx="460.5015" cy="-481.585" rx="3.2" ry="3.2"/>
</g>
<!-- data_profile&#45;&gt;data_position -->
<g id="edge9" class="edge">
<title>data_profile:w&#45;&gt;data_position:e</title>
<path fill="none" stroke="#000000" d="M457.0819,-458.9275C426.4988,-445.5931 434.3482,-388.7 392,-388.7"/>
<polygon fill="#000000" stroke="#000000" points="463.6439,-460.1893 470.8202,-465.2352 467.572,-460.9446 471.5,-461.7 471.5,-461.7 471.5,-461.7 467.572,-460.9446 472.1798,-458.1648 463.6439,-460.1893 463.6439,-460.1893"/>
<ellipse fill="none" stroke="#000000" cx="460.5015" cy="-459.585" rx="3.2" ry="3.2"/>
</g>
<!-- data_profile&#45;&gt;submission -->
<g id="edge8" class="edge">
<title>data_profile:w&#45;&gt;submission:e</title>
<path fill="none" stroke="#000000" d="M457.1874,-486.346C439.7731,-493.7351 436.5893,-514.5178 412,-521.7 348.8604,-540.1421 316.1728,-561.7589 264,-521.7 205.9817,-477.1529 294.6476,-362.7 221.5,-362.7"/>
<polygon fill="#000000" stroke="#000000" points="463.6333,-485.1544 472.1545,-487.24 467.5667,-484.4272 471.5,-483.7 471.5,-483.7 471.5,-483.7 467.5667,-484.4272 470.8455,-480.16 463.6333,-485.1544 463.6333,-485.1544"/>
<ellipse fill="none" stroke="#000000" cx="460.4866" cy="-485.7361" rx="3.2" ry="3.2"/>
</g>
<!-- data_time_series -->
<g id="node5" class="node">
<title>data_time_series</title>
<g id="a_node5"><a xlink:href="../../tables/data_time_series.html" xlink:title="data_time_series" target="_top">
<polygon fill="#ffffff" stroke="transparent" points="471.5,-133.2 471.5,-304.2 601.5,-304.2 601.5,-133.2 471.5,-133.2"/>
<polygon fill="#f5f5f5" stroke="transparent" points="471.5,-280.7 471.5,-303.7 601.5,-303.7 601.5,-280.7 471.5,-280.7"/>
<polygon fill="none" stroke="#000000" points="471.5,-280.7 471.5,-303.7 601.5,-303.7 601.5,-280.7 471.5,-280.7"/>
<text text-anchor="start" x="476.5" y="-289.8" font-family="Helvetica,sans-Serif" font-weight="bold" font-size="11.00" fill="#000000">data_time_series</text>
<text text-anchor="start" x="566.5437" y="-288.8" font-family="Helvetica,sans-Serif" font-size="11.00" fill="#000000">[table]</text>
<polygon fill="none" stroke="#000000" points="471.5,-258.7 471.5,-280.7 601.5,-280.7 601.5,-258.7 471.5,-258.7"/>
<image xlink:href="../../images/primaryKeys.png" width="11px" height="12px" preserveAspectRatio="xMinYMin meet" x="476.5" y="-275.7"/>
<text text-anchor="start" x="491.5" y="-265.8" font-family="Helvetica,sans-Serif" font-size="11.00" fill="#000000">date_time</text>
<polygon fill="none" stroke="#000000" points="471.5,-236.7 471.5,-258.7 601.5,-258.7 601.5,-236.7 471.5,-236.7"/>
<image xlink:href="../../images/primaryKeys.png" width="11px" height="12px" preserveAspectRatio="xMinYMin meet" x="476.5" y="-253.7"/>
<text text-anchor="start" x="491.5" y="-243.8" font-family="Helvetica,sans-Serif" font-size="11.00" fill="#000000">variable_id</text>
<polygon fill="none" stroke="#000000" points="471.5,-214.7 471.5,-236.7 601.5,-236.7 601.5,-214.7 471.5,-214.7"/>
<image xlink:href="../../images/primaryKeys.png" width="11px" height="12px" preserveAspectRatio="xMinYMin meet" x="476.5" y="-231.7"/>
<text text-anchor="start" x="491.5" y="-221.8" font-family="Helvetica,sans-Serif" font-size="11.00" fill="#000000">submission_id</text>
<polygon fill="none" stroke="#000000" points="471.5,-192.7 471.5,-214.7 601.5,-214.7 601.5,-192.7 471.5,-192.7"/>
<image xlink:href="../../images/primaryKeys.png" width="11px" height="12px" preserveAspectRatio="xMinYMin meet" x="476.5" y="-209.7"/>
<text text-anchor="start" x="491.5" y="-199.8" font-family="Helvetica,sans-Serif" font-size="11.00" fill="#000000">tag_id</text>
<polygon fill="#ffffff" stroke="transparent" points="471.5,-170.7 471.5,-192.7 601.5,-192.7 601.5,-170.7 471.5,-170.7"/>
<polygon fill="none" stroke="#000000" points="471.5,-170.7 471.5,-192.7 601.5,-192.7 601.5,-170.7 471.5,-170.7"/>
<image xlink:href="../../images/foreignKeys.png" width="11px" height="12px" preserveAspectRatio="xMinYMin meet" x="476.5" y="-187.7"/>
<text text-anchor="start" x="491.5" y="-177.8" font-family="Helvetica,sans-Serif" font-size="11.00" fill="#000000">position_date_time</text>
<polygon fill="none" stroke="#000000" points="471.5,-151.7 471.5,-170.7 601.5,-170.7 601.5,-151.7 471.5,-151.7"/>
<text text-anchor="start" x="474.5" y="-157.8" font-family="Helvetica,sans-Serif" font-size="11.00" fill="#000000">...</text>
<polygon fill="#ffffff" stroke="transparent" points="471.5,-132.7 471.5,-151.7 521.5,-151.7 521.5,-132.7 471.5,-132.7"/>
<polygon fill="none" stroke="#000000" points="471.5,-132.7 471.5,-151.7 521.5,-151.7 521.5,-132.7 471.5,-132.7"/>
<text text-anchor="start" x="474.5" y="-138.8" font-family="Helvetica,sans-Serif" font-size="11.00" fill="#000000">&lt; 5</text>
<polygon fill="#ffffff" stroke="transparent" points="521.5,-132.7 521.5,-151.7 574.5,-151.7 574.5,-132.7 521.5,-132.7"/>
<polygon fill="none" stroke="#000000" points="521.5,-132.7 521.5,-151.7 574.5,-151.7 574.5,-132.7 521.5,-132.7"/>
<text text-anchor="start" x="539.1105" y="-138.8" font-family="Helvetica,sans-Serif" font-size="11.00" fill="#000000">0 rows</text>
<polygon fill="#ffffff" stroke="transparent" points="574.5,-132.7 574.5,-151.7 601.5,-151.7 601.5,-132.7 574.5,-132.7"/>
<polygon fill="none" stroke="#000000" points="574.5,-132.7 574.5,-151.7 601.5,-151.7 601.5,-132.7 574.5,-132.7"/>
<text text-anchor="start" x="592.3862" y="-138.8" font-family="Helvetica,sans-Serif" font-size="11.00" fill="#000000"> &#160;</text>
</a>
</g>
</g>
<!-- data_time_series&#45;&gt;data_position -->
<g id="edge10" class="edge">
<title>data_time_series:w&#45;&gt;data_position:e</title>
<path fill="none" stroke="#000000" d="M457.049,-183.0152C350.2171,-204.2967 522.4844,-476.7 392,-476.7"/>
<polygon fill="#000000" stroke="#000000" points="463.5329,-182.4252 471.8263,-185.2852 467.5165,-182.0626 471.5,-181.7 471.5,-181.7 471.5,-181.7 467.5165,-182.0626 471.1737,-178.1148 463.5329,-182.4252 463.5329,-182.4252"/>
<ellipse fill="none" stroke="#000000" cx="460.3461" cy="-182.7152" rx="3.2" ry="3.2"/>
</g>
<!-- data_time_series&#45;&gt;data_position -->
<g id="edge11" class="edge">
<title>data_time_series:w&#45;&gt;data_position:e</title>
<path fill="none" stroke="#000000" d="M456.8424,-227.7776C393.7048,-248.1023 475.8994,-410.7 392,-410.7"/>
<polygon fill="#000000" stroke="#000000" points="463.5792,-226.8228 472.0053,-229.2644 467.5396,-226.2614 471.5,-225.7 471.5,-225.7 471.5,-225.7 467.5396,-226.2614 470.9947,-222.1356 463.5792,-226.8228 463.5792,-226.8228"/>
<ellipse fill="none" stroke="#000000" cx="460.4108" cy="-227.2719" rx="3.2" ry="3.2"/>
</g>
<!-- data_time_series&#45;&gt;data_position -->
<g id="edge13" class="edge">
<title>data_time_series:w&#45;&gt;data_position:e</title>
<path fill="none" stroke="#000000" d="M456.8424,-205.7776C393.7048,-226.1023 475.8994,-388.7 392,-388.7"/>
<polygon fill="#000000" stroke="#000000" points="463.5792,-204.8228 472.0053,-207.2644 467.5396,-204.2614 471.5,-203.7 471.5,-203.7 471.5,-203.7 467.5396,-204.2614 470.9947,-200.1356 463.5792,-204.8228 463.5792,-204.8228"/>
<ellipse fill="none" stroke="#000000" cx="460.4108" cy="-205.2719" rx="3.2" ry="3.2"/>
</g>
<!-- data_time_series&#45;&gt;submission -->
<g id="edge12" class="edge">
<title>data_time_series:w&#45;&gt;submission:e</title>
<path fill="none" stroke="#000000" d="M457.1288,-228.4936C433.0225,-239.7957 443.6339,-282.4451 412,-301.7 354.8156,-336.5069 325.0276,-302.1825 264,-329.7 242.1993,-339.53 245.4145,-362.7 221.5,-362.7"/>
<polygon fill="#000000" stroke="#000000" points="463.647,-227.2266 472.187,-229.2339 467.5735,-226.4633 471.5,-225.7 471.5,-225.7 471.5,-225.7 467.5735,-226.4633 470.813,-222.1661 463.647,-227.2266 463.647,-227.2266"/>
<ellipse fill="none" stroke="#000000" cx="460.5058" cy="-227.8372" rx="3.2" ry="3.2"/>
</g>
<!-- metadata -->
<g id="node6" class="node">
<title>metadata</title>
<g id="a_node6"><a xlink:href="../../tables/metadata.html" xlink:title="metadata" target="_top">
<polygon fill="#ffffff" stroke="transparent" points="285,-186.2 285,-291.2 391,-291.2 391,-186.2 285,-186.2"/>
<polygon fill="#f5f5f5" stroke="transparent" points="285,-267.7 285,-290.7 391,-290.7 391,-267.7 285,-267.7"/>
<polygon fill="none" stroke="#000000" points="285,-267.7 285,-290.7 391,-290.7 391,-267.7 285,-267.7"/>
<text text-anchor="start" x="290" y="-276.8" font-family="Helvetica,sans-Serif" font-weight="bold" font-size="11.00" fill="#000000">metadata</text>
<text text-anchor="start" x="356.0437" y="-275.8" font-family="Helvetica,sans-Serif" font-size="11.00" fill="#000000">[table]</text>
<polygon fill="none" stroke="#000000" points="285,-245.7 285,-267.7 391,-267.7 391,-245.7 285,-245.7"/>
<image xlink:href="../../images/primaryKeys.png" width="11px" height="12px" preserveAspectRatio="xMinYMin meet" x="290" y="-262.7"/>
<text text-anchor="start" x="305" y="-252.8" font-family="Helvetica,sans-Serif" font-size="11.00" fill="#000000">submission_id</text>
<polygon fill="none" stroke="#000000" points="285,-223.7 285,-245.7 391,-245.7 391,-223.7 285,-223.7"/>
<image xlink:href="../../images/primaryKeys.png" width="11px" height="12px" preserveAspectRatio="xMinYMin meet" x="290" y="-240.7"/>
<text text-anchor="start" x="305" y="-230.8" font-family="Helvetica,sans-Serif" font-size="11.00" fill="#000000">attribute_id</text>
<polygon fill="none" stroke="#000000" points="285,-204.7 285,-223.7 391,-223.7 391,-204.7 285,-204.7"/>
<text text-anchor="start" x="288" y="-210.8" font-family="Helvetica,sans-Serif" font-size="11.00" fill="#000000">...</text>
<polygon fill="#ffffff" stroke="transparent" points="285,-185.7 285,-204.7 323,-204.7 323,-185.7 285,-185.7"/>
<polygon fill="none" stroke="#000000" points="285,-185.7 285,-204.7 323,-204.7 323,-185.7 285,-185.7"/>
<text text-anchor="start" x="288" y="-191.8" font-family="Helvetica,sans-Serif" font-size="11.00" fill="#000000">&lt; 2</text>
<polygon fill="#ffffff" stroke="transparent" points="323,-185.7 323,-204.7 370,-204.7 370,-185.7 323,-185.7"/>
<polygon fill="none" stroke="#000000" points="323,-185.7 323,-204.7 370,-204.7 370,-185.7 323,-185.7"/>
<text text-anchor="start" x="334.6105" y="-191.8" font-family="Helvetica,sans-Serif" font-size="11.00" fill="#000000">0 rows</text>
<polygon fill="#ffffff" stroke="transparent" points="370,-185.7 370,-204.7 391,-204.7 391,-185.7 370,-185.7"/>
<polygon fill="none" stroke="#000000" points="370,-185.7 370,-204.7 391,-204.7 391,-185.7 370,-185.7"/>
<text text-anchor="start" x="381.8862" y="-191.8" font-family="Helvetica,sans-Serif" font-size="11.00" fill="#000000"> &#160;</text>
</a>
</g>
</g>
<!-- metadata&#45;&gt;submission -->
<g id="edge14" class="edge">
<title>metadata:w&#45;&gt;submission:e</title>
<path fill="none" stroke="#000000" d="M270.765,-259.9886C238.7299,-277.8803 270.6256,-362.7 221.5,-362.7"/>
<polygon fill="#000000" stroke="#000000" points="277.2053,-258.5008 285.8104,-260.2076 281.1027,-257.6004 285,-256.7 285,-256.7 285,-256.7 281.1027,-257.6004 284.1896,-253.1924 277.2053,-258.5008 277.2053,-258.5008"/>
<ellipse fill="none" stroke="#000000" cx="274.0874" cy="-259.2211" rx="3.2" ry="3.2"/>
</g>
<!-- proc_observations -->
<g id="node7" class="node">
<title>proc_observations</title>
<g id="a_node7"><a xlink:href="../../tables/proc_observations.html" xlink:title="proc_observations" target="_top">
<polygon fill="#ffffff" stroke="transparent" points="272,-38.2 272,-165.2 404,-165.2 404,-38.2 272,-38.2"/>
<polygon fill="#f5f5f5" stroke="transparent" points="272,-141.7 272,-164.7 404,-164.7 404,-141.7 272,-141.7"/>
<polygon fill="none" stroke="#000000" points="272,-141.7 272,-164.7 404,-164.7 404,-141.7 272,-141.7"/>
<text text-anchor="start" x="276.5722" y="-150.8" font-family="Helvetica,sans-Serif" font-weight="bold" font-size="11.00" fill="#000000">proc_observations</text>
<text text-anchor="start" x="369.5219" y="-149.8" font-family="Helvetica,sans-Serif" font-size="11.00" fill="#000000">[table]</text>
<polygon fill="none" stroke="#000000" points="272,-119.7 272,-141.7 404,-141.7 404,-119.7 272,-119.7"/>
<image xlink:href="../../images/primaryKeys.png" width="11px" height="12px" preserveAspectRatio="xMinYMin meet" x="277" y="-136.7"/>
<text text-anchor="start" x="294" y="-126.8" font-family="Helvetica,sans-Serif" font-size="11.00" fill="#000000">date_time</text>
<polygon fill="none" stroke="#000000" points="272,-97.7 272,-119.7 404,-119.7 404,-97.7 272,-97.7"/>
<image xlink:href="../../images/primaryKeys.png" width="11px" height="12px" preserveAspectRatio="xMinYMin meet" x="277" y="-114.7"/>
<text text-anchor="start" x="294" y="-104.8" font-family="Helvetica,sans-Serif" font-size="11.00" fill="#000000">variable_id</text>
<polygon fill="none" stroke="#000000" points="272,-75.7 272,-97.7 404,-97.7 404,-75.7 272,-75.7"/>
<image xlink:href="../../images/primaryKeys.png" width="11px" height="12px" preserveAspectRatio="xMinYMin meet" x="277" y="-92.7"/>
<text text-anchor="start" x="294" y="-82.8" font-family="Helvetica,sans-Serif" font-size="11.00" fill="#000000">submission_id</text>
<polygon fill="none" stroke="#000000" points="272,-56.7 272,-75.7 404,-75.7 404,-56.7 272,-56.7"/>
<text text-anchor="start" x="275" y="-62.8" font-family="Helvetica,sans-Serif" font-size="11.00" fill="#000000">...</text>
<polygon fill="#ffffff" stroke="transparent" points="272,-37.7 272,-56.7 323,-56.7 323,-37.7 272,-37.7"/>
<polygon fill="none" stroke="#000000" points="272,-37.7 272,-56.7 323,-56.7 323,-37.7 272,-37.7"/>
<text text-anchor="start" x="275" y="-43.8" font-family="Helvetica,sans-Serif" font-size="11.00" fill="#000000">&lt; 2</text>
<polygon fill="#ffffff" stroke="transparent" points="323,-37.7 323,-56.7 376,-56.7 376,-37.7 323,-37.7"/>
<polygon fill="none" stroke="#000000" points="323,-37.7 323,-56.7 376,-56.7 376,-37.7 323,-37.7"/>
<text text-anchor="start" x="340.6105" y="-43.8" font-family="Helvetica,sans-Serif" font-size="11.00" fill="#000000">0 rows</text>
<polygon fill="#ffffff" stroke="transparent" points="376,-37.7 376,-56.7 404,-56.7 404,-37.7 376,-37.7"/>
<polygon fill="none" stroke="#000000" points="376,-37.7 376,-56.7 404,-56.7 404,-37.7 376,-37.7"/>
<text text-anchor="start" x="394.8862" y="-43.8" font-family="Helvetica,sans-Serif" font-size="11.00" fill="#000000"> &#160;</text>
</a>
</g>
</g>
<!-- proc_observations&#45;&gt;submission -->
<g id="edge15" class="edge">
<title>proc_observations:w&#45;&gt;submission:e</title>
<path fill="none" stroke="#000000" d="M258.7771,-92.4647C221.3936,-132.0992 278.4932,-362.7 221.5,-362.7"/>
<polygon fill="#000000" stroke="#000000" points="264.6666,-89.8971 273.4387,-90 268.3333,-88.2986 272,-86.7 272,-86.7 272,-86.7 268.3333,-88.2986 270.5613,-83.4 264.6666,-89.8971 264.6666,-89.8971"/>
<ellipse fill="none" stroke="#000000" cx="261.7332" cy="-91.1759" rx="3.2" ry="3.2"/>
</g>
</g>
</svg>
